<?xml version="1.0" encoding="UTF-8"?>
<svg xmlns="http://www.w3.org/2000/svg" xmlns:xlink="http://www.w3.org/1999/xlink" width="50px" height="50px" viewBox="0 0 50 50" version="1.1">
<g id="surface164436">
<path style=" stroke:none;fill-rule:nonzero;fill:rgb(80.392157%,63.137255%,65.490196%);fill-opacity:1;" d="M 5.46875 7.03125 L 44.53125 7.03125 C 45.394531 7.03125 46.09375 7.730469 46.09375 8.59375 L 46.09375 41.40625 C 46.09375 42.269531 45.394531 42.96875 44.53125 42.96875 L 5.46875 42.96875 C 4.605469 42.96875 3.90625 42.269531 3.90625 41.40625 L 3.90625 8.59375 C 3.90625 7.730469 4.605469 7.03125 5.46875 7.03125 Z M 5.46875 7.03125 "/>
<path style=" stroke:none;fill-rule:nonzero;fill:rgb(76.862745%,57.647059%,61.176471%);fill-opacity:1;" d="M 7.03125 39.0625 L 42.96875 39.0625 C 44.695312 39.0625 46.09375 40.460938 46.09375 42.1875 C 46.09375 42.617188 45.742188 42.96875 45.3125 42.96875 L 4.6875 42.96875 C 4.257812 42.96875 3.90625 42.617188 3.90625 42.1875 C 3.90625 40.460938 5.304688 39.0625 7.03125 39.0625 Z M 7.03125 39.0625 "/>
<path style=" stroke:none;fill-rule:nonzero;fill:rgb(55.294118%,42.352941%,62.352941%);fill-opacity:1;" d="M 44.53125 6.25 L 5.46875 6.25 C 4.175781 6.25 3.125 7.300781 3.125 8.59375 L 3.125 41.40625 C 3.125 42.699219 4.175781 43.75 5.46875 43.75 L 44.53125 43.75 C 45.824219 43.75 46.875 42.699219 46.875 41.40625 L 46.875 8.59375 C 46.875 7.300781 45.824219 6.25 44.53125 6.25 Z M 45.3125 41.40625 C 45.3125 41.835938 44.960938 42.1875 44.53125 42.1875 L 5.46875 42.1875 C 5.039062 42.1875 4.6875 41.835938 4.6875 41.40625 L 4.6875 8.59375 C 4.6875 8.164062 5.039062 7.8125 5.46875 7.8125 L 44.53125 7.8125 C 44.960938 7.8125 45.3125 8.164062 45.3125 8.59375 Z M 45.3125 41.40625 "/>
<path style=" stroke:none;fill-rule:nonzero;fill:rgb(55.294118%,42.352941%,62.352941%);fill-opacity:1;" d="M 15.625 37.5 C 15.195312 37.5 14.84375 37.851562 14.84375 38.28125 L 14.84375 39.84375 C 14.84375 40.273438 15.195312 40.625 15.625 40.625 C 16.054688 40.625 16.40625 40.273438 16.40625 39.84375 L 16.40625 38.28125 C 16.40625 37.851562 16.054688 37.5 15.625 37.5 Z M 11.71875 37.5 C 11.289062 37.5 10.9375 37.851562 10.9375 38.28125 L 10.9375 39.84375 C 10.9375 40.273438 11.289062 40.625 11.71875 40.625 C 12.148438 40.625 12.5 40.273438 12.5 39.84375 L 12.5 38.28125 C 12.5 37.851562 12.148438 37.5 11.71875 37.5 Z M 7.8125 37.5 C 7.382812 37.5 7.03125 37.851562 7.03125 38.28125 L 7.03125 39.84375 C 7.03125 40.273438 7.382812 40.625 7.8125 40.625 C 8.242188 40.625 8.59375 40.273438 8.59375 39.84375 L 8.59375 38.28125 C 8.59375 37.851562 8.242188 37.5 7.8125 37.5 Z M 27.34375 37.5 C 26.914062 37.5 26.5625 37.851562 26.5625 38.28125 L 26.5625 39.84375 C 26.5625 40.273438 26.914062 40.625 27.34375 40.625 C 27.773438 40.625 28.125 40.273438 28.125 39.84375 L 28.125 38.28125 C 28.125 37.851562 27.773438 37.5 27.34375 37.5 Z M 31.25 37.5 C 30.820312 37.5 30.46875 37.851562 30.46875 38.28125 L 30.46875 39.84375 C 30.46875 40.273438 30.820312 40.625 31.25 40.625 C 31.679688 40.625 32.03125 40.273438 32.03125 39.84375 L 32.03125 38.28125 C 32.03125 37.851562 31.679688 37.5 31.25 37.5 Z M 35.15625 37.5 C 34.726562 37.5 34.375 37.851562 34.375 38.28125 L 34.375 39.84375 C 34.375 40.273438 34.726562 40.625 35.15625 40.625 C 35.585938 40.625 35.9375 40.273438 35.9375 39.84375 L 35.9375 38.28125 C 35.9375 37.851562 35.585938 37.5 35.15625 37.5 Z M 39.0625 37.5 C 38.632812 37.5 38.28125 37.851562 38.28125 38.28125 L 38.28125 39.84375 C 38.28125 40.273438 38.632812 40.625 39.0625 40.625 C 39.492188 40.625 39.84375 40.273438 39.84375 39.84375 L 39.84375 38.28125 C 39.84375 37.851562 39.492188 37.5 39.0625 37.5 Z M 42.96875 37.5 C 42.539062 37.5 42.1875 37.851562 42.1875 38.28125 L 42.1875 39.84375 C 42.1875 40.273438 42.539062 40.625 42.96875 40.625 C 43.398438 40.625 43.75 40.273438 43.75 39.84375 L 43.75 38.28125 C 43.75 37.851562 43.398438 37.5 42.96875 37.5 Z M 19.53125 37.5 C 19.101562 37.5 18.75 37.851562 18.75 38.28125 L 18.75 39.84375 C 18.75 40.273438 19.101562 40.625 19.53125 40.625 C 19.960938 40.625 20.3125 40.273438 20.3125 39.84375 L 20.3125 38.28125 C 20.3125 37.851562 19.960938 37.5 19.53125 37.5 Z M 23.4375 37.5 C 23.007812 37.5 22.65625 37.851562 22.65625 38.28125 L 22.65625 39.84375 C 22.65625 40.273438 23.007812 40.625 23.4375 40.625 C 23.867188 40.625 24.21875 40.273438 24.21875 39.84375 L 24.21875 38.28125 C 24.21875 37.851562 23.867188 37.5 23.4375 37.5 Z M 23.4375 37.5 "/>
<path style=" stroke:none;fill-rule:nonzero;fill:rgb(98.039216%,93.72549%,87.058824%);fill-opacity:1;" d="M 19.53125 18.75 L 22.65625 18.75 C 23.085938 18.75 23.4375 18.398438 23.4375 17.96875 C 23.4375 17.539062 23.085938 17.1875 22.65625 17.1875 L 19.53125 17.1875 C 19.101562 17.1875 18.75 17.539062 18.75 17.96875 C 18.75 18.398438 19.101562 18.75 19.53125 18.75 Z M 39.84375 17.1875 L 25.78125 17.1875 C 25.351562 17.1875 25 17.539062 25 17.96875 C 25 18.398438 25.351562 18.75 25.78125 18.75 L 39.84375 18.75 C 40.273438 18.75 40.625 18.398438 40.625 17.96875 C 40.625 17.539062 40.273438 17.1875 39.84375 17.1875 Z M 39.84375 23.4375 L 19.53125 23.4375 C 19.101562 23.4375 18.75 23.789062 18.75 24.21875 C 18.75 24.648438 19.101562 25 19.53125 25 L 39.84375 25 C 40.273438 25 40.625 24.648438 40.625 24.21875 C 40.625 23.789062 40.273438 23.4375 39.84375 23.4375 Z M 39.84375 29.6875 L 33.59375 29.6875 C 33.164062 29.6875 32.8125 30.039062 32.8125 30.46875 C 32.8125 30.898438 33.164062 31.25 33.59375 31.25 L 39.84375 31.25 C 40.273438 31.25 40.625 30.898438 40.625 30.46875 C 40.625 30.039062 40.273438 29.6875 39.84375 29.6875 Z M 19.53125 31.25 L 30.46875 31.25 C 30.898438 31.25 31.25 30.898438 31.25 30.46875 C 31.25 30.039062 30.898438 29.6875 30.46875 29.6875 L 19.53125 29.6875 C 19.101562 29.6875 18.75 30.039062 18.75 30.46875 C 18.75 30.898438 19.101562 31.25 19.53125 31.25 Z M 11.164062 20.085938 C 11.46875 20.390625 11.960938 20.390625 12.265625 20.085938 L 15.390625 16.960938 C 15.65625 16.652344 15.636719 16.1875 15.351562 15.898438 C 15.0625 15.613281 14.597656 15.59375 14.289062 15.859375 L 11.71875 18.429688 L 10.710938 17.421875 C 10.402344 17.15625 9.9375 17.175781 9.648438 17.460938 C 9.363281 17.75 9.34375 18.214844 9.609375 18.523438 Z M 11.164062 26.335938 C 11.46875 26.640625 11.960938 26.640625 12.265625 26.335938 L 15.390625 23.210938 C 15.65625 22.902344 15.636719 22.4375 15.351562 22.148438 C 15.0625 21.863281 14.597656 21.84375 14.289062 22.109375 L 11.71875 24.679688 L 10.710938 23.671875 C 10.402344 23.40625 9.9375 23.425781 9.648438 23.710938 C 9.363281 24 9.34375 24.464844 9.609375 24.773438 Z M 11.71875 32.8125 C 11.925781 32.8125 12.125 32.730469 12.273438 32.585938 L 15.398438 29.460938 C 15.664062 29.152344 15.644531 28.6875 15.359375 28.398438 C 15.070312 28.113281 14.605469 28.09375 14.296875 28.359375 L 11.71875 30.929688 L 10.710938 29.921875 C 10.402344 29.65625 9.9375 29.675781 9.648438 29.960938 C 9.363281 30.25 9.34375 30.714844 9.609375 31.023438 L 11.171875 32.585938 C 11.316406 32.730469 11.515625 32.8125 11.71875 32.8125 Z M 11.71875 32.8125 "/>
</g>
</svg>
