<?xml version="1.0" encoding="UTF-8"?>
<svg xmlns="http://www.w3.org/2000/svg" xmlns:xlink="http://www.w3.org/1999/xlink" width="50px" height="50px" viewBox="0 0 50 50" version="1.1">
<g id="surface167414">
<path style=" stroke:none;fill-rule:nonzero;fill:rgb(52.156863%,79.607843%,97.254902%);fill-opacity:1;" d="M 41.40625 44.574219 L 8.59375 44.574219 C 6.003906 44.574219 3.90625 42.476562 3.90625 39.886719 L 3.90625 7.074219 C 3.90625 4.484375 6.003906 2.386719 8.59375 2.386719 L 41.40625 2.386719 C 43.996094 2.386719 46.09375 4.484375 46.09375 7.074219 L 46.09375 39.886719 C 46.09375 42.476562 43.996094 44.574219 41.40625 44.574219 Z M 41.40625 44.574219 "/>
<path style=" stroke:none;fill-rule:nonzero;fill:rgb(67.45098%,89.019608%,100%);fill-opacity:1;" d="M 43.75 7.8125 L 6.25 7.8125 C 4.957031 7.8125 3.90625 6.761719 3.90625 5.46875 C 3.90625 3.742188 5.304688 2.34375 7.03125 2.34375 L 42.96875 2.34375 C 44.695312 2.34375 46.09375 3.742188 46.09375 5.46875 C 46.09375 6.761719 45.042969 7.8125 43.75 7.8125 Z M 43.75 7.8125 "/>
<path style=" stroke:none;fill-rule:nonzero;fill:rgb(55.294118%,42.352941%,62.352941%);fill-opacity:1;" d="M 41.40625 1.605469 L 8.59375 1.605469 C 5.578125 1.605469 3.125 4.058594 3.125 7.074219 L 3.125 39.886719 C 3.125 42.902344 5.578125 45.355469 8.59375 45.355469 L 41.40625 45.355469 C 44.421875 45.355469 46.875 42.902344 46.875 39.886719 L 46.875 7.074219 C 46.875 4.058594 44.421875 1.605469 41.40625 1.605469 Z M 45.3125 39.886719 C 45.3125 42.039062 43.558594 43.792969 41.40625 43.792969 L 8.59375 43.792969 C 6.441406 43.792969 4.6875 42.039062 4.6875 39.886719 L 4.6875 7.074219 C 4.6875 4.921875 6.441406 3.167969 8.59375 3.167969 L 17.1875 3.167969 L 17.1875 20.3125 L 14.0625 20.3125 L 14.0625 17.1875 C 14.0625 16.324219 13.363281 15.625 12.5 15.625 L 9.375 15.625 C 8.511719 15.625 7.8125 16.324219 7.8125 17.1875 L 7.8125 20.3125 C 7.8125 21.175781 8.511719 21.875 9.375 21.875 L 12.5 21.875 L 12.5 25 C 12.5 25.863281 13.199219 26.5625 14.0625 26.5625 L 23.4375 26.5625 C 24.300781 26.5625 25 25.863281 25 25 L 25 17.1875 L 29.6875 17.1875 L 29.6875 28.125 L 21.875 28.125 C 21.011719 28.125 20.3125 28.824219 20.3125 29.6875 L 20.3125 37.5 C 20.3125 38.363281 21.011719 39.0625 21.875 39.0625 L 29.6875 39.0625 C 30.550781 39.0625 31.25 38.363281 31.25 37.5 L 31.25 29.6875 L 40.300781 29.6875 L 36.949219 33.042969 C 36.640625 33.347656 36.640625 33.839844 36.949219 34.144531 C 37.101562 34.296875 37.300781 34.375 37.5 34.375 C 37.699219 34.375 37.898438 34.296875 38.050781 34.144531 L 42.738281 29.457031 C 42.746094 29.453125 42.75 29.441406 42.753906 29.433594 C 42.816406 29.367188 42.871094 29.292969 42.910156 29.203125 C 42.914062 29.195312 42.914062 29.1875 42.914062 29.183594 C 42.945312 29.101562 42.960938 29.019531 42.964844 28.933594 C 42.964844 28.910156 42.960938 28.882812 42.960938 28.855469 C 42.957031 28.789062 42.945312 28.726562 42.921875 28.664062 C 42.914062 28.636719 42.90625 28.613281 42.894531 28.585938 C 42.855469 28.5 42.808594 28.421875 42.742188 28.355469 L 38.054688 23.667969 C 37.75 23.359375 37.253906 23.359375 36.949219 23.667969 C 36.644531 23.972656 36.644531 24.464844 36.949219 24.769531 L 40.300781 28.125 L 31.25 28.125 L 31.25 17.1875 C 31.25 16.324219 30.550781 15.625 29.6875 15.625 L 25 15.625 C 24.136719 15.625 23.4375 16.324219 23.4375 17.1875 L 23.4375 25 L 14.0625 25 L 14.0625 21.875 L 17.1875 21.875 C 18.050781 21.875 18.75 21.175781 18.75 20.3125 L 18.75 3.167969 L 41.40625 3.167969 C 43.558594 3.167969 45.3125 4.921875 45.3125 7.074219 Z M 12.5 20.3125 L 9.375 20.3125 L 9.375 17.1875 L 12.5 17.1875 Z M 29.6875 29.6875 L 29.6875 37.5 L 21.875 37.5 L 21.875 29.6875 Z M 29.6875 29.6875 "/>
<path style=" stroke:none;fill-rule:nonzero;fill:rgb(55.294118%,42.352941%,62.352941%);fill-opacity:1;" d="M 10.9375 9.417969 C 11.371094 9.417969 11.71875 9.066406 11.71875 8.636719 L 11.71875 7.074219 C 11.71875 6.644531 11.371094 6.292969 10.9375 6.292969 C 10.503906 6.292969 10.15625 6.644531 10.15625 7.074219 L 10.15625 8.636719 C 10.15625 9.066406 10.503906 9.417969 10.9375 9.417969 Z M 7.8125 7.074219 C 7.8125 6.644531 7.464844 6.292969 7.03125 6.292969 C 6.597656 6.292969 6.25 6.644531 6.25 7.074219 L 6.25 8.636719 C 6.25 9.066406 6.597656 9.417969 7.03125 9.417969 C 7.464844 9.417969 7.8125 9.066406 7.8125 8.636719 Z M 21.875 6.292969 C 21.441406 6.292969 21.09375 6.644531 21.09375 7.074219 L 21.09375 8.636719 C 21.09375 9.066406 21.441406 9.417969 21.875 9.417969 C 22.308594 9.417969 22.65625 9.066406 22.65625 8.636719 L 22.65625 7.074219 C 22.65625 6.640625 22.308594 6.292969 21.875 6.292969 Z M 25.78125 6.292969 C 25.347656 6.292969 25 6.644531 25 7.074219 L 25 8.636719 C 25 9.066406 25.347656 9.417969 25.78125 9.417969 C 26.214844 9.417969 26.5625 9.066406 26.5625 8.636719 L 26.5625 7.074219 C 26.5625 6.640625 26.214844 6.292969 25.78125 6.292969 Z M 29.6875 6.292969 C 29.253906 6.292969 28.90625 6.644531 28.90625 7.074219 L 28.90625 8.636719 C 28.90625 9.066406 29.253906 9.417969 29.6875 9.417969 C 30.121094 9.417969 30.46875 9.066406 30.46875 8.636719 L 30.46875 7.074219 C 30.46875 6.640625 30.121094 6.292969 29.6875 6.292969 Z M 33.59375 6.292969 C 33.160156 6.292969 32.8125 6.644531 32.8125 7.074219 L 32.8125 8.636719 C 32.8125 9.066406 33.160156 9.417969 33.59375 9.417969 C 34.027344 9.417969 34.375 9.066406 34.375 8.636719 L 34.375 7.074219 C 34.375 6.640625 34.027344 6.292969 33.59375 6.292969 Z M 37.5 6.292969 C 37.066406 6.292969 36.71875 6.644531 36.71875 7.074219 L 36.71875 8.636719 C 36.71875 9.066406 37.066406 9.417969 37.5 9.417969 C 37.933594 9.417969 38.28125 9.066406 38.28125 8.636719 L 38.28125 7.074219 C 38.28125 6.640625 37.933594 6.292969 37.5 6.292969 Z M 41.40625 6.292969 C 40.972656 6.292969 40.625 6.644531 40.625 7.074219 L 40.625 8.636719 C 40.625 9.066406 40.972656 9.417969 41.40625 9.417969 C 41.839844 9.417969 42.1875 9.066406 42.1875 8.636719 L 42.1875 7.074219 C 42.1875 6.640625 41.839844 6.292969 41.40625 6.292969 Z M 14.84375 9.417969 C 15.277344 9.417969 15.625 9.066406 15.625 8.636719 L 15.625 7.074219 C 15.625 6.644531 15.277344 6.292969 14.84375 6.292969 C 14.410156 6.292969 14.0625 6.644531 14.0625 7.074219 L 14.0625 8.636719 C 14.0625 9.066406 14.410156 9.417969 14.84375 9.417969 Z M 14.84375 9.417969 "/>
</g>
</svg>
