<?xml version="1.0" encoding="UTF-8"?>
<svg xmlns="http://www.w3.org/2000/svg" xmlns:xlink="http://www.w3.org/1999/xlink" width="50px" height="50px" viewBox="0 0 50 50" version="1.1">
<g id="surface164624">
<path style=" stroke:none;fill-rule:nonzero;fill:rgb(80.392157%,63.137255%,65.490196%);fill-opacity:1;" d="M 7.03125 3.90625 L 42.96875 3.90625 C 43.832031 3.90625 44.53125 4.605469 44.53125 5.46875 L 44.53125 46.09375 C 44.53125 46.957031 43.832031 47.65625 42.96875 47.65625 L 7.03125 47.65625 C 6.167969 47.65625 5.46875 46.957031 5.46875 46.09375 L 5.46875 5.46875 C 5.46875 4.605469 6.167969 3.90625 7.03125 3.90625 Z M 7.03125 3.90625 "/>
<path style=" stroke:none;fill-rule:nonzero;fill:rgb(85.882353%,69.803922%,72.941176%);fill-opacity:1;" d="M 6.25 5.46875 C 6.25 5.039062 6.601562 4.6875 7.03125 4.6875 L 42.96875 4.6875 C 43.398438 4.6875 43.75 5.039062 43.75 5.46875 C 43.75 5.898438 43.398438 6.25 42.96875 6.25 L 7.03125 6.25 C 6.601562 6.25 6.25 5.898438 6.25 5.46875 Z M 6.25 5.46875 "/>
<path style=" stroke:none;fill-rule:nonzero;fill:rgb(98.039216%,93.72549%,87.058824%);fill-opacity:1;" d="M 39.84375 8.59375 L 10.15625 8.59375 L 10.15625 36.71875 L 16.40625 42.96875 L 39.84375 42.96875 Z M 39.84375 8.59375 "/>
<path style=" stroke:none;fill-rule:nonzero;fill:rgb(100%,97.254902%,93.333333%);fill-opacity:1;" d="M 15.136719 41.179688 C 15.183594 41.253906 15.214844 41.332031 15.234375 41.417969 C 15.632812 41.832031 16.003906 42.277344 16.300781 42.769531 C 16.320312 42.804688 16.324219 42.839844 16.339844 42.875 L 26.46875 42.875 L 39.84375 27.710938 L 39.84375 11.429688 Z M 12.890625 38.792969 L 37.890625 8.59375 L 34.375 8.59375 L 11.054688 37.171875 C 11.765625 37.589844 12.363281 38.160156 12.890625 38.792969 Z M 10.15625 33.921875 L 30.859375 8.59375 L 29.6875 8.59375 L 10.15625 32.445312 Z M 10.15625 33.921875 "/>
<path style=" stroke:none;fill-rule:nonzero;fill:rgb(67.45098%,89.019608%,100%);fill-opacity:1;" d="M 16.40625 42.96875 L 10.15625 36.71875 L 16.40625 36.71875 Z M 16.40625 42.96875 "/>
<path style=" stroke:none;fill-rule:nonzero;fill:rgb(97.647059%,86.666667%,56.078431%);fill-opacity:1;" d="M 32.8125 4.6875 L 25 0.78125 L 17.1875 4.6875 L 16.40625 10.15625 L 33.59375 10.15625 Z M 32.8125 4.6875 "/>
<path style=" stroke:none;fill-rule:nonzero;fill:rgb(100%,100%,100%);fill-opacity:1;" d="M 15.953125 16.40625 L 16.617188 17.625 L 17.84375 18.296875 L 16.617188 18.960938 L 15.953125 20.1875 L 15.28125 18.960938 L 14.0625 18.296875 L 15.28125 17.625 Z M 15.953125 16.40625 "/>
<path style=" stroke:none;fill-rule:nonzero;fill:rgb(59.607843%,42.352941%,63.137255%);fill-opacity:1;" d="M 25 3.125 C 24.136719 3.125 23.4375 3.824219 23.4375 4.6875 C 23.4375 5.550781 24.136719 6.25 25 6.25 C 25.863281 6.25 26.5625 5.550781 26.5625 4.6875 C 26.5625 3.824219 25.863281 3.125 25 3.125 Z M 25 3.125 "/>
<path style=" stroke:none;fill-rule:nonzero;fill:rgb(55.294118%,42.352941%,62.352941%);fill-opacity:1;" d="M 13.28125 12.5 C 12.851562 12.5 12.5 12.851562 12.5 13.28125 L 12.5 14.84375 C 12.5 15.273438 12.851562 15.625 13.28125 15.625 C 13.710938 15.625 14.0625 15.273438 14.0625 14.84375 L 14.0625 13.28125 C 14.0625 12.851562 13.710938 12.5 13.28125 12.5 Z M 17.1875 12.5 C 16.757812 12.5 16.40625 12.851562 16.40625 13.28125 L 16.40625 14.84375 C 16.40625 15.273438 16.757812 15.625 17.1875 15.625 C 17.617188 15.625 17.96875 15.273438 17.96875 14.84375 L 17.96875 13.28125 C 17.96875 12.851562 17.617188 12.5 17.1875 12.5 Z M 21.09375 15.625 C 21.523438 15.625 21.875 15.273438 21.875 14.84375 L 21.875 13.28125 C 21.875 12.851562 21.523438 12.5 21.09375 12.5 C 20.664062 12.5 20.3125 12.851562 20.3125 13.28125 L 20.3125 14.84375 C 20.3125 15.273438 20.664062 15.625 21.09375 15.625 Z M 25 15.625 C 25.429688 15.625 25.78125 15.273438 25.78125 14.84375 L 25.78125 13.28125 C 25.78125 12.851562 25.429688 12.5 25 12.5 C 24.570312 12.5 24.21875 12.851562 24.21875 13.28125 L 24.21875 14.84375 C 24.21875 15.273438 24.570312 15.625 25 15.625 Z M 28.90625 15.625 C 29.335938 15.625 29.6875 15.273438 29.6875 14.84375 L 29.6875 13.28125 C 29.6875 12.851562 29.335938 12.5 28.90625 12.5 C 28.476562 12.5 28.125 12.851562 28.125 13.28125 L 28.125 14.84375 C 28.125 15.273438 28.476562 15.625 28.90625 15.625 Z M 32.8125 15.625 C 33.242188 15.625 33.59375 15.273438 33.59375 14.84375 L 33.59375 13.28125 C 33.59375 12.851562 33.242188 12.5 32.8125 12.5 C 32.382812 12.5 32.03125 12.851562 32.03125 13.28125 L 32.03125 14.84375 C 32.03125 15.273438 32.382812 15.625 32.8125 15.625 Z M 36.71875 15.625 C 37.148438 15.625 37.5 15.273438 37.5 14.84375 L 37.5 13.28125 C 37.5 12.851562 37.148438 12.5 36.71875 12.5 C 36.289062 12.5 35.9375 12.851562 35.9375 13.28125 L 35.9375 14.84375 C 35.9375 15.273438 36.289062 15.625 36.71875 15.625 Z M 36.71875 15.625 "/>
<path style=" stroke:none;fill-rule:nonzero;fill:rgb(55.294118%,42.352941%,62.352941%);fill-opacity:1;" d="M 4.6875 5.46875 L 4.6875 46.09375 C 4.6875 47.386719 5.738281 48.4375 7.03125 48.4375 L 42.96875 48.4375 C 44.261719 48.4375 45.3125 47.386719 45.3125 46.09375 L 45.3125 5.46875 C 45.3125 4.175781 44.261719 3.125 42.96875 3.125 L 31.703125 3.125 L 29.59375 1.5625 C 26.855469 -0.429688 23.144531 -0.429688 20.40625 1.5625 L 18.296875 3.125 L 7.03125 3.125 C 5.738281 3.125 4.6875 4.175781 4.6875 5.46875 Z M 10.9375 9.375 L 15.765625 9.375 C 16.097656 10.308594 16.976562 10.933594 17.96875 10.9375 L 32.03125 10.9375 C 33.023438 10.933594 33.902344 10.308594 34.234375 9.375 L 39.0625 9.375 L 39.0625 42.1875 L 17.1875 42.1875 L 17.1875 37.5 C 17.1875 36.636719 16.488281 35.9375 15.625 35.9375 L 10.9375 35.9375 Z M 15.625 37.5 L 15.625 41.085938 L 12.039062 37.5 Z M 31.84375 5.132812 C 32.453125 5.574219 32.8125 6.28125 32.8125 7.03125 L 32.8125 8.59375 C 32.8125 9.023438 32.460938 9.375 32.03125 9.375 L 17.96875 9.375 C 17.539062 9.375 17.1875 9.023438 17.1875 8.59375 L 17.1875 7.03125 C 17.210938 6.304688 17.566406 5.628906 18.15625 5.203125 L 21.328125 2.859375 C 23.519531 1.265625 26.488281 1.265625 28.679688 2.859375 Z M 6.25 5.46875 C 6.25 5.039062 6.601562 4.6875 7.03125 4.6875 L 16.40625 4.6875 C 15.898438 5.363281 15.625 6.1875 15.625 7.03125 L 15.625 7.8125 L 10.9375 7.8125 C 10.074219 7.8125 9.375 8.511719 9.375 9.375 L 9.375 36.070312 C 9.375 36.691406 9.621094 37.289062 10.0625 37.726562 L 15.398438 43.0625 C 15.835938 43.503906 16.433594 43.75 17.054688 43.75 L 39.0625 43.75 C 39.925781 43.75 40.625 43.050781 40.625 42.1875 L 40.625 9.375 C 40.625 8.511719 39.925781 7.8125 39.0625 7.8125 L 34.375 7.8125 L 34.375 7.03125 C 34.375 6.1875 34.101562 5.363281 33.59375 4.6875 L 42.96875 4.6875 C 43.398438 4.6875 43.75 5.039062 43.75 5.46875 L 43.75 46.09375 C 43.75 46.523438 43.398438 46.875 42.96875 46.875 L 7.03125 46.875 C 6.601562 46.875 6.25 46.523438 6.25 46.09375 Z M 6.25 5.46875 "/>
<path style=" stroke:none;fill-rule:nonzero;fill:rgb(100%,92.156863%,60.784314%);fill-opacity:1;" d="M 24.609375 30.859375 L 35.582031 19.886719 L 43.390625 27.699219 L 32.421875 38.667969 Z M 24.609375 30.859375 "/>
<path style=" stroke:none;fill-rule:nonzero;fill:rgb(97.647059%,86.666667%,56.078431%);fill-opacity:1;" d="M 27.734375 33.195312 L 38.246094 22.683594 L 43.324219 27.761719 L 32.8125 38.273438 Z M 27.734375 33.195312 "/>
<path style=" stroke:none;fill-rule:nonzero;fill:rgb(94.901961%,51.372549%,64.705882%);fill-opacity:1;" d="M 43.867188 14.960938 L 48.34375 19.4375 C 49.257812 20.351562 49.257812 21.835938 48.34375 22.75 L 45.707031 25.386719 L 37.917969 17.597656 L 40.554688 14.960938 C 41.46875 14.046875 42.953125 14.046875 43.867188 14.960938 Z M 43.867188 14.960938 "/>
<path style=" stroke:none;fill-rule:nonzero;fill:rgb(76.078431%,80.392157%,90.588235%);fill-opacity:1;" d="M 35.519531 19.957031 L 37.894531 17.582031 L 45.707031 25.394531 L 43.332031 27.769531 Z M 35.519531 19.957031 "/>
<path style=" stroke:none;fill-rule:nonzero;fill:rgb(98.039216%,93.72549%,87.058824%);fill-opacity:1;" d="M 23.4375 38 L 24.054688 31.25 L 28.351562 31.867188 L 28.960938 33.703125 L 30.75 34.625 L 32.03125 39.226562 L 24.664062 39.226562 Z M 23.4375 38 "/>
<path style=" stroke:none;fill-rule:nonzero;fill:rgb(55.294118%,42.352941%,62.352941%);fill-opacity:1;" d="M 48.53125 18.0625 L 45.21875 14.75 C 44.003906 13.535156 42.140625 13.257812 40.625 14.0625 C 40.292969 14.273438 39.347656 15.027344 38.9375 15.484375 L 35.15625 19.265625 L 23.546875 30.945312 C 23.421875 31.070312 23.339844 31.230469 23.320312 31.40625 L 22.742188 36.34375 L 22.195312 40.195312 C 22.136719 40.621094 22.433594 41.019531 22.859375 41.078125 C 22.898438 41.082031 22.9375 41.085938 22.976562 41.085938 L 23.085938 41.085938 L 26.929688 40.539062 L 31.921875 40.007812 C 32.097656 39.988281 32.265625 39.90625 32.390625 39.78125 L 46.320312 25.78125 L 48.53125 23.570312 C 50.050781 22.046875 50.050781 19.585938 48.53125 18.0625 Z M 27.132812 38.9375 L 24.351562 36.15625 L 24.796875 32.359375 L 28.28125 32.726562 L 28.28125 34.234375 C 28.28125 34.660156 28.621094 35.007812 29.046875 35.015625 L 30.554688 35.015625 L 30.921875 38.539062 Z M 39.296875 30.65625 L 32.390625 37.585938 L 32.03125 34.15625 C 31.992188 33.753906 31.652344 33.449219 31.25 33.453125 L 29.828125 33.453125 L 29.828125 32.351562 L 34.015625 28.125 C 34.296875 27.796875 34.257812 27.304688 33.929688 27.023438 C 33.636719 26.773438 33.207031 26.773438 32.914062 27.023438 L 28.757812 31.179688 L 25.78125 30.898438 L 35.625 21.023438 L 42.25 27.648438 Z M 43.375 26.5625 L 36.71875 19.914062 L 38.007812 18.617188 L 44.632812 25.242188 Z M 47.433594 22.480469 C 47.433594 22.480469 47.429688 22.484375 47.429688 22.484375 L 45.773438 24.140625 L 39.140625 17.507812 L 40.796875 15.851562 C 41.710938 14.9375 43.195312 14.9375 44.109375 15.851562 L 47.421875 19.164062 C 48.339844 20.074219 48.347656 21.558594 47.433594 22.480469 Z M 47.433594 22.480469 "/>
</g>
</svg>
