<?xml version="1.0" encoding="UTF-8"?>
<svg xmlns="http://www.w3.org/2000/svg" xmlns:xlink="http://www.w3.org/1999/xlink" width="50px" height="50px" viewBox="0 0 50 50" version="1.1">
<g id="surface171893">
<path style=" stroke:none;fill-rule:nonzero;fill:rgb(80.392157%,63.137255%,65.490196%);fill-opacity:1;" d="M 2.601562 41.492188 L 6.320312 44.617188 L 14.78125 34.125 L 11.203125 31.195312 C 10.554688 30.664062 9.71875 30.414062 8.882812 30.503906 C 8.046875 30.597656 7.285156 31.019531 6.765625 31.679688 L 2.179688 37.5 C 1.78125 38.007812 1.5625 38.636719 1.5625 39.28125 C 1.5625 40.136719 1.945312 40.945312 2.601562 41.492188 Z M 2.601562 41.492188 "/>
<path style=" stroke:none;fill-rule:nonzero;fill:rgb(44.705882%,79.215686%,68.627451%);fill-opacity:1;" d="M 35.9375 22.65625 L 35.9375 17.1875 C 35.703125 14.421875 32.8125 13.28125 30.734375 13.28125 C 29.101562 13.28125 27.570312 14.082031 26.640625 15.421875 L 19.84375 25.21875 C 19.378906 25.890625 19.4375 26.796875 19.984375 27.40625 C 20.328125 27.785156 20.820312 28 21.335938 27.988281 C 21.847656 27.972656 22.328125 27.738281 22.65625 27.34375 L 28.125 20.3125 L 28.125 28.90625 L 26.1875 34.710938 C 25.917969 35.519531 25.484375 36.265625 24.914062 36.898438 L 20.226562 42.015625 C 19.308594 42.949219 19.308594 44.449219 20.226562 45.382812 C 21.117188 46.28125 22.550781 46.335938 23.507812 45.507812 L 28.664062 40.757812 C 29.335938 40.152344 29.871094 39.410156 30.226562 38.578125 L 31.96875 34.484375 L 39.84375 45.210938 C 40.527344 46.128906 41.804688 46.367188 42.773438 45.757812 C 43.765625 45.148438 44.109375 43.867188 43.554688 42.84375 L 36.1875 29.398438 C 36.023438 29.074219 35.9375 28.714844 35.9375 28.351562 L 35.9375 22.65625 L 38.039062 24.070312 L 38.210938 24.171875 L 41.289062 25.734375 C 41.738281 25.957031 42.257812 25.988281 42.730469 25.824219 C 43.203125 25.65625 43.585938 25.304688 43.796875 24.851562 C 44.210938 23.96875 43.867188 22.917969 43.015625 22.445312 L 39.929688 20.796875 C 39.355469 20.480469 38.855469 20.050781 38.460938 19.53125 L 35.9375 16.40625 "/>
<path style=" stroke:none;fill-rule:nonzero;fill:rgb(85.882353%,69.803922%,72.941176%);fill-opacity:1;" d="M 10.6875 31.671875 L 2.34375 41.695312 L 1.5625 38.351562 L 7.34375 31.03125 L 9.601562 30.25 Z M 10.6875 31.671875 "/>
<path style=" stroke:none;fill-rule:nonzero;fill:rgb(36.470588%,73.72549%,61.568627%);fill-opacity:1;" d="M 36.351562 16.273438 L 36.71875 23.179688 L 41.976562 25.90625 L 43.976562 23.898438 L 43.015625 22.289062 L 39.546875 20.851562 Z M 28.125 28.90625 L 32.289062 35.15625 L 29.75 39.976562 L 21.875 46.351562 L 19.523438 43.492188 L 24.546875 37.625 L 26.304688 33.59375 Z M 28.125 28.90625 "/>
<path style=" stroke:none;fill-rule:nonzero;fill:rgb(98.039216%,93.72549%,87.058824%);fill-opacity:1;" d="M 33.59375 3.90625 C 31.4375 3.90625 29.6875 5.65625 29.6875 7.8125 C 29.6875 9.96875 31.4375 11.71875 33.59375 11.71875 C 35.75 11.71875 37.5 9.96875 37.5 7.8125 C 37.5 5.65625 35.75 3.90625 33.59375 3.90625 Z M 33.59375 3.90625 "/>
<path style=" stroke:none;fill-rule:nonzero;fill:rgb(92.941176%,47.058824%,60%);fill-opacity:1;" d="M 6.25 42.96875 C 5.386719 42.96875 4.6875 43.667969 4.6875 44.53125 C 4.6875 45.394531 5.386719 46.09375 6.25 46.09375 C 7.113281 46.09375 7.8125 45.394531 7.8125 44.53125 C 7.8125 43.667969 7.113281 42.96875 6.25 42.96875 Z M 6.25 42.96875 "/>
<path style=" stroke:none;fill-rule:nonzero;fill:rgb(55.294118%,42.352941%,62.352941%);fill-opacity:1;" d="M 21.875 35.15625 L 21.875 33.59375 C 21.875 33.164062 21.523438 32.8125 21.09375 32.8125 C 20.664062 32.8125 20.3125 33.164062 20.3125 33.59375 L 20.3125 35.15625 C 20.3125 35.585938 20.664062 35.9375 21.09375 35.9375 C 21.523438 35.9375 21.875 35.585938 21.875 35.15625 Z M 44.53125 32.8125 C 44.101562 32.8125 43.75 33.164062 43.75 33.59375 L 43.75 35.15625 C 43.75 35.585938 44.101562 35.9375 44.53125 35.9375 C 44.960938 35.9375 45.3125 35.585938 45.3125 35.15625 L 45.3125 33.59375 C 45.3125 33.164062 44.960938 32.8125 44.53125 32.8125 Z M 48.4375 32.8125 C 48.007812 32.8125 47.65625 33.164062 47.65625 33.59375 L 47.65625 35.15625 C 47.65625 35.585938 48.007812 35.9375 48.4375 35.9375 C 48.867188 35.9375 49.21875 35.585938 49.21875 35.15625 L 49.21875 33.59375 C 49.21875 33.164062 48.867188 32.8125 48.4375 32.8125 Z M 33.59375 12.5 C 36.183594 12.5 38.28125 10.402344 38.28125 7.8125 C 38.28125 5.222656 36.183594 3.125 33.59375 3.125 C 31.003906 3.125 28.90625 5.222656 28.90625 7.8125 C 28.90625 10.402344 31.003906 12.5 33.59375 12.5 Z M 33.59375 4.6875 C 35.320312 4.6875 36.71875 6.085938 36.71875 7.8125 C 36.71875 9.539062 35.320312 10.9375 33.59375 10.9375 C 31.867188 10.9375 30.46875 9.539062 30.46875 7.8125 C 30.46875 6.085938 31.867188 4.6875 33.59375 4.6875 Z M 33.59375 4.6875 "/>
<path style=" stroke:none;fill-rule:nonzero;fill:rgb(55.294118%,42.352941%,62.352941%);fill-opacity:1;" d="M 40.625 35.9375 C 41.054688 35.9375 41.40625 35.585938 41.40625 35.15625 L 41.40625 33.59375 C 41.40625 33.164062 41.054688 32.8125 40.625 32.8125 C 40.195312 32.8125 39.84375 33.164062 39.84375 33.59375 L 39.84375 34.46875 L 36.882812 29.039062 C 36.773438 28.828125 36.71875 28.589844 36.71875 28.351562 L 36.71875 24.125 L 37.601562 24.71875 L 37.867188 24.867188 L 40.945312 26.429688 C 41.574219 26.742188 42.304688 26.789062 42.96875 26.5625 C 43.664062 26.332031 44.230469 25.820312 44.53125 25.148438 C 45.105469 23.882812 44.605469 22.390625 43.382812 21.726562 L 40.257812 20.078125 C 39.796875 19.828125 39.390625 19.488281 39.0625 19.078125 L 36.539062 15.953125 L 36.390625 15.804688 C 35.523438 13.617188 33.070312 12.5 30.734375 12.5 C 28.84375 12.496094 27.074219 13.421875 26 14.976562 L 19.203125 24.773438 C 18.609375 25.636719 18.609375 26.777344 19.203125 27.640625 L 14.703125 33.03125 L 11.71875 30.585938 C 10.90625 29.921875 9.863281 29.609375 8.820312 29.722656 C 7.777344 29.835938 6.820312 30.363281 6.171875 31.1875 L 1.5625 37.015625 C 0.339844 38.574219 0.578125 40.824219 2.101562 42.09375 L 4.054688 43.75 C 3.675781 44.769531 4.046875 45.914062 4.953125 46.515625 C 5.855469 47.117188 7.054688 47.019531 7.851562 46.28125 C 8.644531 45.539062 8.828125 44.351562 8.289062 43.40625 L 15.382812 34.648438 L 16.460938 33.359375 C 16.429688 33.433594 16.414062 33.511719 16.40625 33.59375 L 16.40625 35.15625 C 16.40625 35.585938 16.757812 35.9375 17.1875 35.9375 C 17.617188 35.9375 17.96875 35.585938 17.96875 35.15625 L 17.96875 33.59375 C 17.96875 33.164062 17.617188 32.8125 17.1875 32.8125 C 17.042969 32.816406 16.902344 32.863281 16.78125 32.945312 L 20.398438 28.617188 C 20.714844 28.742188 21.050781 28.800781 21.390625 28.78125 C 22.140625 28.75 22.84375 28.390625 23.304688 27.796875 L 27.34375 22.585938 L 27.34375 28.773438 L 25.78125 33.515625 C 25.757812 33.085938 25.390625 32.75 24.960938 32.773438 C 24.53125 32.796875 24.195312 33.164062 24.21875 33.59375 L 24.21875 35.15625 C 24.222656 35.480469 24.421875 35.769531 24.726562 35.882812 C 24.609375 36.050781 24.480469 36.214844 24.34375 36.367188 L 19.65625 41.476562 C 18.488281 42.707031 18.492188 44.632812 19.65625 45.863281 C 20.824219 47.09375 22.75 47.195312 24.039062 46.09375 L 29.195312 41.351562 C 29.949219 40.667969 30.546875 39.828125 30.945312 38.890625 L 32.148438 36.0625 L 39.179688 45.6875 C 39.753906 46.449219 40.65625 46.890625 41.609375 46.875 C 42.660156 46.875 43.636719 46.320312 44.167969 45.414062 C 44.703125 44.511719 44.71875 43.390625 44.210938 42.46875 Z M 36.71875 18.632812 L 37.851562 20.054688 C 38.3125 20.632812 38.886719 21.109375 39.539062 21.460938 L 42.664062 23.109375 C 43.164062 23.375 43.367188 23.984375 43.132812 24.5 C 43.015625 24.765625 42.792969 24.972656 42.515625 25.0625 C 42.230469 25.167969 41.914062 25.144531 41.648438 25 L 38.523438 23.4375 C 38.492188 23.425781 38.464844 23.410156 38.4375 23.390625 L 36.71875 22.234375 Z M 5.6875 45.078125 C 5.546875 44.929688 5.46875 44.734375 5.46875 44.53125 C 5.46875 44.101562 5.820312 43.75 6.25 43.75 C 6.679688 43.75 7.03125 44.101562 7.03125 44.53125 C 7.03125 44.960938 6.679688 45.3125 6.25 45.3125 C 6.09375 45.3125 5.941406 45.265625 5.8125 45.179688 Z M 7.101562 42.359375 C 6.832031 42.242188 6.542969 42.183594 6.25 42.1875 C 5.828125 42.1875 5.417969 42.300781 5.054688 42.515625 L 3.125 40.890625 C 2.632812 40.5 2.347656 39.910156 2.34375 39.28125 C 2.34375 38.8125 2.5 38.355469 2.789062 37.984375 L 7.382812 32.15625 C 7.765625 31.667969 8.328125 31.347656 8.945312 31.273438 C 9.238281 31.246094 9.53125 31.273438 9.8125 31.351562 L 4.023438 38.28125 C 3.746094 38.613281 3.792969 39.105469 4.125 39.382812 C 4.457031 39.660156 4.949219 39.613281 5.226562 39.28125 L 11.179688 32.148438 L 13.679688 34.203125 Z M 29.507812 38.28125 C 29.191406 39.007812 28.71875 39.660156 28.125 40.1875 L 23 44.921875 C 22.339844 45.414062 21.414062 45.332031 20.847656 44.734375 C 20.285156 44.136719 20.253906 43.210938 20.78125 42.578125 L 25.46875 37.453125 C 26.109375 36.738281 26.597656 35.898438 26.898438 34.984375 L 28.335938 30.664062 C 28.390625 30.757812 28.4375 30.859375 28.5 30.953125 L 31.070312 34.554688 Z M 42.359375 45.101562 C 41.738281 45.496094 40.917969 45.347656 40.476562 44.757812 L 33.984375 35.9375 C 33.984375 35.910156 33.984375 35.878906 33.984375 35.851562 L 30.9375 31.609375 L 29.867188 30.046875 C 29.335938 29.265625 28.945312 26.75 28.945312 25.453125 L 28.945312 20.3125 C 28.964844 19.960938 28.746094 19.644531 28.414062 19.53125 C 28.097656 19.425781 27.75 19.527344 27.546875 19.789062 L 22.078125 26.820312 C 21.960938 26.964844 21.808594 27.078125 21.632812 27.140625 C 21.539062 27.175781 21.4375 27.199219 21.335938 27.203125 C 21.039062 27.214844 20.753906 27.09375 20.554688 26.875 C 20.253906 26.535156 20.21875 26.03125 20.476562 25.65625 L 27.273438 15.859375 C 28.0625 14.726562 29.355469 14.054688 30.734375 14.0625 C 32.40625 14.0625 34.960938 14.914062 35.15625 17.1875 L 35.15625 28.351562 C 35.160156 28.847656 35.277344 29.332031 35.5 29.773438 L 42.84375 43.21875 C 43.203125 43.875 42.992188 44.695312 42.359375 45.09375 Z M 42.359375 45.101562 "/>
</g>
</svg>
