<?xml version="1.0" encoding="UTF-8"?>
<svg xmlns="http://www.w3.org/2000/svg" xmlns:xlink="http://www.w3.org/1999/xlink" width="50px" height="50px" viewBox="0 0 50 50" version="1.1">
<g id="surface169895">
<path style=" stroke:none;fill-rule:nonzero;fill:rgb(80.784314%,84.705882%,92.941176%);fill-opacity:1;" d="M 3.90625 7.03125 L 46.09375 7.03125 L 46.09375 14.84375 L 3.90625 14.84375 Z M 3.90625 7.03125 "/>
<path style=" stroke:none;fill-rule:nonzero;fill:rgb(52.156863%,79.607843%,97.254902%);fill-opacity:1;" d="M 3.90625 14.84375 L 46.09375 14.84375 L 46.09375 42.96875 L 3.90625 42.96875 Z M 3.90625 14.84375 "/>
<path style=" stroke:none;fill-rule:nonzero;fill:rgb(55.294118%,42.352941%,62.352941%);fill-opacity:1;" d="M 44.53125 6.25 L 5.46875 6.25 C 4.175781 6.25 3.125 7.300781 3.125 8.59375 L 3.125 41.40625 C 3.125 42.699219 4.175781 43.75 5.46875 43.75 L 44.53125 43.75 C 45.824219 43.75 46.875 42.699219 46.875 41.40625 L 46.875 8.59375 C 46.875 7.300781 45.824219 6.25 44.53125 6.25 Z M 5.46875 7.8125 L 44.53125 7.8125 C 44.960938 7.8125 45.3125 8.164062 45.3125 8.59375 L 45.3125 14.0625 L 4.6875 14.0625 L 4.6875 8.59375 C 4.6875 8.164062 5.039062 7.8125 5.46875 7.8125 Z M 44.53125 42.1875 L 5.46875 42.1875 C 5.039062 42.1875 4.6875 41.835938 4.6875 41.40625 L 4.6875 15.625 L 45.3125 15.625 L 45.3125 41.40625 C 45.3125 41.835938 44.960938 42.1875 44.53125 42.1875 Z M 44.53125 42.1875 "/>
<path style=" stroke:none;fill-rule:nonzero;fill:rgb(55.294118%,42.352941%,62.352941%);fill-opacity:1;" d="M 14.84375 12.5 C 15.273438 12.5 15.625 12.148438 15.625 11.71875 L 15.625 10.15625 C 15.625 9.726562 15.273438 9.375 14.84375 9.375 C 14.414062 9.375 14.0625 9.726562 14.0625 10.15625 L 14.0625 11.71875 C 14.0625 12.148438 14.414062 12.5 14.84375 12.5 Z M 10.9375 12.5 C 11.367188 12.5 11.71875 12.148438 11.71875 11.71875 L 11.71875 10.15625 C 11.71875 9.726562 11.367188 9.375 10.9375 9.375 C 10.507812 9.375 10.15625 9.726562 10.15625 10.15625 L 10.15625 11.71875 C 10.15625 12.148438 10.507812 12.5 10.9375 12.5 Z M 7.03125 12.5 C 7.460938 12.5 7.8125 12.148438 7.8125 11.71875 L 7.8125 10.15625 C 7.8125 9.726562 7.460938 9.375 7.03125 9.375 C 6.601562 9.375 6.25 9.726562 6.25 10.15625 L 6.25 11.71875 C 6.25 12.148438 6.601562 12.5 7.03125 12.5 Z M 26.5625 12.5 C 26.992188 12.5 27.34375 12.148438 27.34375 11.71875 L 27.34375 10.15625 C 27.34375 9.726562 26.992188 9.375 26.5625 9.375 C 26.132812 9.375 25.78125 9.726562 25.78125 10.15625 L 25.78125 11.71875 C 25.78125 12.148438 26.132812 12.5 26.5625 12.5 Z M 30.46875 12.5 C 30.898438 12.5 31.25 12.148438 31.25 11.71875 L 31.25 10.15625 C 31.25 9.726562 30.898438 9.375 30.46875 9.375 C 30.039062 9.375 29.6875 9.726562 29.6875 10.15625 L 29.6875 11.71875 C 29.6875 12.148438 30.039062 12.5 30.46875 12.5 Z M 34.375 12.5 C 34.804688 12.5 35.15625 12.148438 35.15625 11.71875 L 35.15625 10.15625 C 35.15625 9.726562 34.804688 9.375 34.375 9.375 C 33.945312 9.375 33.59375 9.726562 33.59375 10.15625 L 33.59375 11.71875 C 33.59375 12.148438 33.945312 12.5 34.375 12.5 Z M 38.28125 12.5 C 38.710938 12.5 39.0625 12.148438 39.0625 11.71875 L 39.0625 10.15625 C 39.0625 9.726562 38.710938 9.375 38.28125 9.375 C 37.851562 9.375 37.5 9.726562 37.5 10.15625 L 37.5 11.71875 C 37.5 12.148438 37.851562 12.5 38.28125 12.5 Z M 42.1875 12.5 C 42.617188 12.5 42.96875 12.148438 42.96875 11.71875 L 42.96875 10.15625 C 42.96875 9.726562 42.617188 9.375 42.1875 9.375 C 41.757812 9.375 41.40625 9.726562 41.40625 10.15625 L 41.40625 11.71875 C 41.40625 12.148438 41.757812 12.5 42.1875 12.5 Z M 18.75 12.5 C 19.179688 12.5 19.53125 12.148438 19.53125 11.71875 L 19.53125 10.15625 C 19.53125 9.726562 19.179688 9.375 18.75 9.375 C 18.320312 9.375 17.96875 9.726562 17.96875 10.15625 L 17.96875 11.71875 C 17.96875 12.148438 18.320312 12.5 18.75 12.5 Z M 22.65625 12.5 C 23.085938 12.5 23.4375 12.148438 23.4375 11.71875 L 23.4375 10.15625 C 23.4375 9.726562 23.085938 9.375 22.65625 9.375 C 22.226562 9.375 21.875 9.726562 21.875 10.15625 L 21.875 11.71875 C 21.875 12.148438 22.226562 12.5 22.65625 12.5 Z M 22.65625 12.5 "/>
<path style=" stroke:none;fill-rule:nonzero;fill:rgb(97.647059%,93.72549%,87.058824%);fill-opacity:1;" d="M 13.28125 21.96875 L 22.65625 21.96875 C 23.085938 21.96875 23.4375 21.617188 23.4375 21.1875 C 23.4375 20.757812 23.085938 20.40625 22.65625 20.40625 L 13.28125 20.40625 C 12.851562 20.40625 12.5 20.757812 12.5 21.1875 C 12.5 21.617188 12.851562 21.96875 13.28125 21.96875 Z M 20.3125 25.875 C 20.3125 26.304688 20.664062 26.65625 21.09375 26.65625 L 30.46875 26.65625 C 30.898438 26.65625 31.25 26.304688 31.25 25.875 C 31.25 25.445312 30.898438 25.09375 30.46875 25.09375 L 21.09375 25.09375 C 20.664062 25.09375 20.3125 25.445312 20.3125 25.875 Z M 38.28125 29.78125 L 28.90625 29.78125 C 28.476562 29.78125 28.125 30.132812 28.125 30.5625 C 28.125 30.992188 28.476562 31.34375 28.90625 31.34375 L 38.28125 31.34375 C 38.710938 31.34375 39.0625 30.992188 39.0625 30.5625 C 39.0625 30.132812 38.710938 29.78125 38.28125 29.78125 Z M 22.65625 36.03125 L 13.28125 36.03125 C 12.851562 36.03125 12.5 36.382812 12.5 36.8125 C 12.5 37.242188 12.851562 37.59375 13.28125 37.59375 L 22.65625 37.59375 C 23.085938 37.59375 23.4375 37.242188 23.4375 36.8125 C 23.4375 36.382812 23.085938 36.03125 22.65625 36.03125 Z M 22.65625 36.03125 "/>
</g>
</svg>
