<?xml version="1.0" encoding="UTF-8"?>
<svg xmlns="http://www.w3.org/2000/svg" xmlns:xlink="http://www.w3.org/1999/xlink" width="50px" height="50px" viewBox="0 0 50 50" version="1.1">
<g id="surface164238">
<path style=" stroke:none;fill-rule:nonzero;fill:rgb(98.039216%,93.72549%,87.058824%);fill-opacity:1;" d="M 46.09375 17.1875 C 46.09375 6.835938 37.695312 0.78125 27.34375 0.78125 C 17.148438 0.78125 8.851562 7.40625 8.59375 17.5 C 8.585938 17.8125 8.535156 18.117188 8.4375 18.414062 L 4.210938 31.117188 C 4.136719 31.339844 4.167969 31.585938 4.292969 31.785156 C 4.421875 31.984375 4.632812 32.113281 4.867188 32.140625 L 7.210938 32.398438 C 8.007812 32.488281 8.605469 33.160156 8.601562 33.960938 L 8.601562 41.046875 C 8.597656 41.9375 8.972656 42.789062 9.636719 43.386719 C 10.296875 43.984375 11.183594 44.269531 12.070312 44.171875 L 19.53125 43.3125 L 18.984375 47.445312 C 18.925781 47.894531 19.0625 48.34375 19.363281 48.683594 C 19.664062 49.023438 20.09375 49.214844 20.546875 49.210938 L 41.25 49.210938 C 41.695312 49.214844 42.117188 49.027344 42.417969 48.695312 C 42.714844 48.367188 42.859375 47.925781 42.8125 47.484375 L 41.664062 36.828125 C 41.539062 35.675781 41.742188 34.511719 42.25 33.46875 C 44.753906 28.40625 46.066406 22.835938 46.09375 17.1875 Z M 46.09375 17.1875 "/>
<path style=" stroke:none;fill-rule:nonzero;fill:rgb(52.156863%,79.607843%,97.254902%);fill-opacity:1;" d="M 26.5625 19.53125 C 23.972656 19.53125 21.875 21.628906 21.875 24.21875 C 21.875 26.808594 23.972656 28.90625 26.5625 28.90625 C 29.152344 28.90625 31.25 26.808594 31.25 24.21875 C 31.25 21.628906 29.152344 19.53125 26.5625 19.53125 Z M 26.5625 19.53125 "/>
<path style=" stroke:none;fill-rule:nonzero;fill:rgb(44.705882%,79.215686%,68.627451%);fill-opacity:1;" d="M 36.71875 11.71875 C 34.992188 11.71875 33.59375 13.117188 33.59375 14.84375 C 33.59375 16.570312 34.992188 17.96875 36.71875 17.96875 C 38.445312 17.96875 39.84375 16.570312 39.84375 14.84375 C 39.84375 13.117188 38.445312 11.71875 36.71875 11.71875 Z M 36.71875 11.71875 "/>
<path style=" stroke:none;fill-rule:nonzero;fill:rgb(100%,100%,100%);fill-opacity:1;" d="M 26.5625 34.375 C 25.699219 34.375 25 35.074219 25 35.9375 C 25 36.800781 25.699219 37.5 26.5625 37.5 C 27.425781 37.5 28.125 36.800781 28.125 35.9375 C 28.125 35.074219 27.425781 34.375 26.5625 34.375 Z M 26.5625 34.375 "/>
<path style=" stroke:none;fill-rule:nonzero;fill:rgb(92.941176%,47.058824%,60%);fill-opacity:1;" d="M 35.9375 28.90625 C 34.644531 28.90625 33.59375 29.957031 33.59375 31.25 C 33.59375 32.542969 34.644531 33.59375 35.9375 33.59375 C 37.230469 33.59375 38.28125 32.542969 38.28125 31.25 C 38.28125 29.957031 37.230469 28.90625 35.9375 28.90625 Z M 35.9375 28.90625 "/>
<path style=" stroke:none;fill-rule:nonzero;fill:rgb(67.45098%,71.764706%,81.568627%);fill-opacity:1;" d="M 17.1875 12.5 C 15.894531 12.5 14.84375 13.550781 14.84375 14.84375 C 14.84375 16.136719 15.894531 17.1875 17.1875 17.1875 C 18.480469 17.1875 19.53125 16.136719 19.53125 14.84375 C 19.53125 13.550781 18.480469 12.5 17.1875 12.5 Z M 17.1875 12.5 "/>
<path style=" stroke:none;fill-rule:nonzero;fill:rgb(97.647059%,89.019608%,68.235294%);fill-opacity:1;" d="M 14.84375 25 C 13.980469 25 13.28125 25.699219 13.28125 26.5625 C 13.28125 27.425781 13.980469 28.125 14.84375 28.125 C 15.707031 28.125 16.40625 27.425781 16.40625 26.5625 C 16.40625 25.699219 15.707031 25 14.84375 25 Z M 14.84375 25 "/>
<path style=" stroke:none;fill-rule:nonzero;fill:rgb(100%,96.862745%,94.117647%);fill-opacity:1;" d="M 14.84375 8.359375 C 15.640625 9.152344 16.890625 9.269531 17.820312 8.632812 C 20.558594 6.800781 23.785156 5.84375 27.078125 5.890625 C 30.53125 5.8125 33.925781 6.796875 36.804688 8.710938 C 37.734375 9.351562 38.988281 9.242188 39.789062 8.445312 L 40.140625 8.09375 C 40.617188 7.617188 40.867188 6.960938 40.828125 6.285156 C 40.785156 5.613281 40.457031 4.992188 39.921875 4.578125 C 36.242188 2.003906 31.835938 0.671875 27.34375 0.78125 C 22.886719 0.707031 18.527344 2.109375 14.953125 4.773438 C 14.429688 5.191406 14.109375 5.808594 14.074219 6.476562 C 14.035156 7.144531 14.285156 7.792969 14.757812 8.265625 Z M 14.84375 8.359375 "/>
<path style=" stroke:none;fill-rule:nonzero;fill:rgb(55.294118%,42.352941%,62.352941%);fill-opacity:1;" d="M 27.34375 7.03125 C 27.773438 7.03125 28.125 6.679688 28.125 6.25 L 28.125 4.6875 C 28.125 4.257812 27.773438 3.90625 27.34375 3.90625 C 26.914062 3.90625 26.5625 4.257812 26.5625 4.6875 L 26.5625 6.25 C 26.5625 6.679688 26.914062 7.03125 27.34375 7.03125 Z M 22.65625 6.96875 C 22.722656 7.246094 22.933594 7.46875 23.207031 7.542969 C 23.480469 7.621094 23.777344 7.542969 23.976562 7.335938 C 24.175781 7.132812 24.246094 6.835938 24.164062 6.5625 L 23.75 5.054688 C 23.636719 4.636719 23.207031 4.394531 22.789062 4.507812 C 22.371094 4.621094 22.128906 5.050781 22.242188 5.46875 Z M 34.570312 8.96875 C 34.75 9.074219 34.964844 9.101562 35.164062 9.046875 C 35.367188 8.992188 35.539062 8.859375 35.640625 8.679688 L 36.421875 7.328125 C 36.617188 6.957031 36.484375 6.5 36.121094 6.289062 C 35.757812 6.082031 35.292969 6.195312 35.070312 6.546875 L 34.289062 7.898438 C 34.183594 8.078125 34.15625 8.292969 34.207031 8.492188 C 34.261719 8.691406 34.390625 8.863281 34.570312 8.96875 Z M 19.046875 8.679688 C 19.269531 9.03125 19.734375 9.144531 20.097656 8.9375 C 20.460938 8.726562 20.59375 8.269531 20.398438 7.898438 L 19.617188 6.546875 C 19.394531 6.195312 18.929688 6.082031 18.566406 6.289062 C 18.203125 6.5 18.070312 6.957031 18.265625 7.328125 Z M 31.085938 7.523438 C 31.5 7.628906 31.921875 7.378906 32.03125 6.96875 L 32.445312 5.46875 C 32.539062 5.058594 32.292969 4.648438 31.886719 4.539062 C 31.480469 4.425781 31.0625 4.660156 30.9375 5.0625 L 30.53125 6.570312 C 30.421875 6.988281 30.671875 7.414062 31.085938 7.523438 Z M 31.085938 7.523438 "/>
<path style=" stroke:none;fill-rule:nonzero;fill:rgb(55.294118%,42.352941%,62.352941%);fill-opacity:1;" d="M 42.96875 33.8125 C 45.507812 28.636719 46.84375 22.953125 46.875 17.1875 C 46.875 7.03125 38.84375 0 27.34375 0 C 16.28125 0 8.070312 7.351562 7.8125 17.484375 C 7.808594 17.71875 7.773438 17.949219 7.703125 18.171875 L 3.46875 30.867188 C 3.320312 31.316406 3.382812 31.808594 3.636719 32.203125 C 3.890625 32.601562 4.3125 32.863281 4.78125 32.914062 L 7.125 33.171875 C 7.523438 33.214844 7.824219 33.554688 7.820312 33.953125 L 7.820312 41.039062 C 7.8125 42.152344 8.285156 43.21875 9.113281 43.964844 C 9.941406 44.710938 11.046875 45.066406 12.15625 44.945312 L 14.421875 44.695312 L 18.632812 44.226562 L 18.21875 47.351562 C 18.128906 48.023438 18.339844 48.703125 18.789062 49.210938 C 19.238281 49.71875 19.882812 50.003906 20.5625 50 L 41.265625 50 C 41.929688 50.003906 42.566406 49.722656 43.015625 49.230469 C 43.460938 48.738281 43.679688 48.078125 43.609375 47.414062 L 42.445312 36.71875 C 42.347656 35.71875 42.527344 34.714844 42.96875 33.8125 Z M 41.8125 48.179688 C 41.664062 48.34375 41.453125 48.4375 41.234375 48.4375 L 20.53125 48.4375 C 20.304688 48.4375 20.089844 48.34375 19.941406 48.175781 C 19.789062 48.003906 19.71875 47.777344 19.75 47.554688 L 20.21875 44.023438 L 22.742188 43.75 C 23.171875 43.703125 23.484375 43.3125 23.4375 42.882812 C 23.390625 42.453125 23 42.140625 22.570312 42.1875 L 20.4375 42.421875 L 11.976562 43.359375 C 11.3125 43.433594 10.648438 43.21875 10.148438 42.769531 C 9.652344 42.324219 9.371094 41.683594 9.375 41.015625 L 9.375 33.953125 C 9.382812 32.753906 8.480469 31.742188 7.289062 31.609375 L 4.945312 31.351562 L 9.179688 18.648438 C 9.300781 18.28125 9.367188 17.902344 9.375 17.515625 C 9.609375 8.273438 17.1875 1.5625 27.34375 1.5625 C 39.757812 1.5625 45.3125 9.375 45.3125 17.1875 C 45.277344 22.714844 43.988281 28.164062 41.546875 33.125 C 40.976562 34.296875 40.746094 35.609375 40.882812 36.90625 L 42.007812 47.578125 C 42.03125 47.796875 41.960938 48.015625 41.8125 48.179688 Z M 41.8125 48.179688 "/>
<path style=" stroke:none;fill-rule:nonzero;fill:rgb(55.294118%,42.352941%,62.352941%);fill-opacity:1;" d="M 17.1875 17.96875 C 18.914062 17.96875 20.3125 16.570312 20.3125 14.84375 C 20.3125 13.117188 18.914062 11.71875 17.1875 11.71875 C 15.460938 11.71875 14.0625 13.117188 14.0625 14.84375 C 14.0625 16.570312 15.460938 17.96875 17.1875 17.96875 Z M 17.1875 13.085938 C 18.160156 13.085938 18.945312 13.871094 18.945312 14.84375 C 18.945312 15.816406 18.160156 16.601562 17.1875 16.601562 C 16.214844 16.601562 15.429688 15.816406 15.429688 14.84375 C 15.429688 13.871094 16.214844 13.085938 17.1875 13.085938 Z M 26.5625 33.59375 C 25.269531 33.59375 24.21875 34.644531 24.21875 35.9375 C 24.21875 37.230469 25.269531 38.28125 26.5625 38.28125 C 27.855469 38.28125 28.90625 37.230469 28.90625 35.9375 C 28.90625 34.644531 27.855469 33.59375 26.5625 33.59375 Z M 26.5625 36.828125 C 26.070312 36.828125 25.671875 36.429688 25.671875 35.9375 C 25.671875 35.445312 26.070312 35.046875 26.5625 35.046875 C 27.054688 35.046875 27.453125 35.445312 27.453125 35.9375 C 27.453125 36.429688 27.054688 36.828125 26.5625 36.828125 Z M 36.71875 10.9375 C 34.5625 10.9375 32.8125 12.6875 32.8125 14.84375 C 32.816406 15.566406 33.019531 16.269531 33.398438 16.882812 L 30.015625 20.007812 C 28.042969 18.402344 25.222656 18.371094 23.210938 19.929688 L 20.867188 17.585938 C 20.5625 17.28125 20.0625 17.28125 19.757812 17.585938 C 19.453125 17.890625 19.453125 18.390625 19.757812 18.695312 L 22.101562 21.039062 C 21.441406 21.96875 21.089844 23.078125 21.09375 24.21875 C 21.09375 24.320312 21.09375 24.414062 21.09375 24.515625 L 16.835938 25.367188 C 16.25 24.390625 15.050781 23.972656 13.984375 24.382812 C 12.921875 24.789062 12.304688 25.902344 12.523438 27.019531 C 12.742188 28.136719 13.730469 28.9375 14.871094 28.914062 C 16.007812 28.890625 16.964844 28.054688 17.140625 26.929688 L 21.398438 26.078125 C 22.089844 27.980469 23.777344 29.34375 25.78125 29.625 L 25.78125 32.03125 C 25.78125 32.460938 26.132812 32.8125 26.5625 32.8125 C 26.992188 32.8125 27.34375 32.460938 27.34375 32.03125 L 27.34375 29.625 C 28.511719 29.449219 29.589844 28.902344 30.421875 28.0625 L 33.046875 30.03125 C 32.414062 31.515625 32.984375 33.238281 34.378906 34.046875 C 35.773438 34.859375 37.550781 34.503906 38.527344 33.222656 C 39.503906 31.9375 39.371094 30.128906 38.21875 29 C 37.066406 27.875 35.253906 27.78125 33.992188 28.789062 L 31.351562 26.8125 C 32.332031 25.011719 32.226562 22.8125 31.070312 21.117188 L 34.46875 17.992188 C 35.839844 19 37.707031 19.003906 39.082031 18 C 40.457031 16.996094 41.023438 15.21875 40.484375 13.601562 C 39.945312 11.988281 38.421875 10.910156 36.71875 10.9375 Z M 14.84375 27.539062 C 14.304688 27.539062 13.867188 27.101562 13.867188 26.5625 C 13.867188 26.023438 14.304688 25.585938 14.84375 25.585938 C 15.382812 25.585938 15.820312 26.023438 15.820312 26.5625 C 15.820312 27.101562 15.382812 27.539062 14.84375 27.539062 Z M 26.5625 28.421875 C 24.242188 28.421875 22.359375 26.539062 22.359375 24.21875 C 22.359375 21.898438 24.242188 20.015625 26.5625 20.015625 C 28.882812 20.015625 30.765625 21.898438 30.765625 24.21875 C 30.765625 26.539062 28.882812 28.421875 26.5625 28.421875 Z M 35.9375 29.5 C 36.648438 29.5 37.289062 29.929688 37.5625 30.585938 C 37.832031 31.246094 37.683594 32 37.175781 32.503906 C 36.671875 33.003906 35.914062 33.152344 35.257812 32.878906 C 34.601562 32.605469 34.175781 31.960938 34.179688 31.25 C 34.179688 30.277344 34.964844 29.492188 35.9375 29.492188 Z M 36.71875 17.296875 C 35.371094 17.296875 34.273438 16.203125 34.273438 14.855469 C 34.273438 13.503906 35.363281 12.410156 36.714844 12.40625 C 38.0625 12.402344 39.160156 13.496094 39.164062 14.84375 C 39.164062 16.195312 38.070312 17.289062 36.71875 17.289062 Z M 36.71875 17.296875 "/>
</g>
</svg>
