<?xml version="1.0" encoding="UTF-8"?>
<svg xmlns="http://www.w3.org/2000/svg" xmlns:xlink="http://www.w3.org/1999/xlink" width="50px" height="50px" viewBox="0 0 50 50" version="1.1">
<g id="surface384748">
<path style=" stroke:none;fill-rule:nonzero;fill:rgb(77.254902%,89.411765%,98.039216%);fill-opacity:1;" d="M 3.90625 11.71875 L 46.09375 11.71875 L 46.09375 42.96875 L 3.90625 42.96875 Z M 3.90625 11.71875 "/>
<path style=" stroke:none;fill-rule:nonzero;fill:rgb(89.019608%,94.901961%,100%);fill-opacity:1;" d="M 29.773438 42.96875 L 46.09375 26.648438 L 46.09375 12.5 L 43.914062 12.5 L 13.445312 42.96875 Z M 4.132812 42.96875 L 10.65625 42.96875 L 41.125 12.5 L 34.601562 12.5 Z M 3.90625 40.398438 L 31.804688 12.5 L 28.710938 12.5 L 3.90625 37.304688 Z M 3.90625 40.398438 "/>
<path style=" stroke:none;fill-rule:nonzero;fill:rgb(67.45098%,71.764706%,81.568627%);fill-opacity:1;" d="M 5.46875 7.03125 L 44.53125 7.03125 C 45.394531 7.03125 46.09375 7.730469 46.09375 8.59375 L 46.09375 13.28125 C 46.09375 14.144531 45.394531 14.84375 44.53125 14.84375 L 5.46875 14.84375 C 4.605469 14.84375 3.90625 14.144531 3.90625 13.28125 L 3.90625 8.59375 C 3.90625 7.730469 4.605469 7.03125 5.46875 7.03125 Z M 5.46875 7.03125 "/>
<path style=" stroke:none;fill-rule:nonzero;fill:rgb(97.647059%,89.019608%,68.235294%);fill-opacity:1;" d="M 10.15625 27.34375 L 22.65625 27.34375 L 22.65625 36.71875 L 10.15625 36.71875 Z M 10.15625 27.34375 "/>
<path style=" stroke:none;fill-rule:nonzero;fill:rgb(44.705882%,79.215686%,68.627451%);fill-opacity:1;" d="M 10.15625 19.53125 L 39.84375 19.53125 L 39.84375 22.65625 L 10.15625 22.65625 Z M 10.15625 19.53125 "/>
<path style=" stroke:none;fill-rule:nonzero;fill:rgb(92.156863%,58.823529%,59.215686%);fill-opacity:1;" d="M 10.15625 19.53125 L 27.34375 19.53125 L 27.34375 22.65625 L 10.15625 22.65625 Z M 10.15625 19.53125 "/>
<path style=" stroke:none;fill-rule:nonzero;fill:rgb(55.294118%,42.352941%,62.352941%);fill-opacity:1;" d="M 42.96875 14.0625 L 39.84375 14.0625 C 39.414062 14.0625 39.0625 14.414062 39.0625 14.84375 C 39.0625 15.273438 39.414062 15.625 39.84375 15.625 L 42.96875 15.625 C 43.398438 15.625 43.75 15.273438 43.75 14.84375 C 43.75 14.414062 43.398438 14.0625 42.96875 14.0625 Z M 42.96875 14.0625 "/>
<path style=" stroke:none;fill-rule:nonzero;fill:rgb(55.294118%,42.352941%,62.352941%);fill-opacity:1;" d="M 44.53125 6.25 L 5.46875 6.25 C 4.175781 6.25 3.125 7.300781 3.125 8.59375 L 3.125 41.40625 C 3.125 42.699219 4.175781 43.75 5.46875 43.75 L 44.53125 43.75 C 45.824219 43.75 46.875 42.699219 46.875 41.40625 L 46.875 8.59375 C 46.875 7.300781 45.824219 6.25 44.53125 6.25 Z M 45.3125 41.40625 C 45.3125 41.835938 44.960938 42.1875 44.53125 42.1875 L 5.46875 42.1875 C 5.039062 42.1875 4.6875 41.835938 4.6875 41.40625 L 4.6875 15.625 L 36.71875 15.625 C 37.148438 15.625 37.5 15.273438 37.5 14.84375 C 37.5 14.414062 37.148438 14.0625 36.71875 14.0625 L 4.6875 14.0625 L 4.6875 8.59375 C 4.6875 8.164062 5.039062 7.8125 5.46875 7.8125 L 44.53125 7.8125 C 44.960938 7.8125 45.3125 8.164062 45.3125 8.59375 Z M 45.3125 41.40625 "/>
<path style=" stroke:none;fill-rule:nonzero;fill:rgb(55.294118%,42.352941%,62.352941%);fill-opacity:1;" d="M 15.625 9.375 C 15.195312 9.375 14.84375 9.726562 14.84375 10.15625 L 14.84375 11.71875 C 14.84375 12.148438 15.195312 12.5 15.625 12.5 C 16.054688 12.5 16.40625 12.148438 16.40625 11.71875 L 16.40625 10.15625 C 16.40625 9.726562 16.054688 9.375 15.625 9.375 Z M 11.71875 9.375 C 11.289062 9.375 10.9375 9.726562 10.9375 10.15625 L 10.9375 11.71875 C 10.9375 12.148438 11.289062 12.5 11.71875 12.5 C 12.148438 12.5 12.5 12.148438 12.5 11.71875 L 12.5 10.15625 C 12.5 9.726562 12.148438 9.375 11.71875 9.375 Z M 7.8125 9.375 C 7.382812 9.375 7.03125 9.726562 7.03125 10.15625 L 7.03125 11.71875 C 7.03125 12.148438 7.382812 12.5 7.8125 12.5 C 8.242188 12.5 8.59375 12.148438 8.59375 11.71875 L 8.59375 10.15625 C 8.59375 9.726562 8.242188 9.375 7.8125 9.375 Z M 27.34375 9.375 C 26.914062 9.375 26.5625 9.726562 26.5625 10.15625 L 26.5625 11.71875 C 26.5625 12.148438 26.914062 12.5 27.34375 12.5 C 27.773438 12.5 28.125 12.148438 28.125 11.71875 L 28.125 10.15625 C 28.125 9.726562 27.773438 9.375 27.34375 9.375 Z M 27.34375 19.53125 C 26.914062 19.53125 26.5625 19.882812 26.5625 20.3125 L 26.5625 21.875 C 26.5625 22.304688 26.914062 22.65625 27.34375 22.65625 C 27.773438 22.65625 28.125 22.304688 28.125 21.875 L 28.125 20.3125 C 28.125 19.882812 27.773438 19.53125 27.34375 19.53125 Z M 31.25 9.375 C 30.820312 9.375 30.46875 9.726562 30.46875 10.15625 L 30.46875 11.71875 C 30.46875 12.148438 30.820312 12.5 31.25 12.5 C 31.679688 12.5 32.03125 12.148438 32.03125 11.71875 L 32.03125 10.15625 C 32.03125 9.726562 31.679688 9.375 31.25 9.375 Z M 35.15625 9.375 C 34.726562 9.375 34.375 9.726562 34.375 10.15625 L 34.375 11.71875 C 34.375 12.148438 34.726562 12.5 35.15625 12.5 C 35.585938 12.5 35.9375 12.148438 35.9375 11.71875 L 35.9375 10.15625 C 35.9375 9.726562 35.585938 9.375 35.15625 9.375 Z M 39.0625 12.5 C 39.492188 12.5 39.84375 12.148438 39.84375 11.71875 L 39.84375 10.15625 C 39.84375 9.726562 39.492188 9.375 39.0625 9.375 C 38.632812 9.375 38.28125 9.726562 38.28125 10.15625 L 38.28125 11.71875 C 38.28125 12.148438 38.632812 12.5 39.0625 12.5 Z M 42.96875 9.375 C 42.539062 9.375 42.1875 9.726562 42.1875 10.15625 L 42.1875 11.71875 C 42.1875 12.148438 42.539062 12.5 42.96875 12.5 C 43.398438 12.5 43.75 12.148438 43.75 11.71875 L 43.75 10.15625 C 43.75 9.726562 43.398438 9.375 42.96875 9.375 Z M 19.53125 9.375 C 19.101562 9.375 18.75 9.726562 18.75 10.15625 L 18.75 11.71875 C 18.75 12.148438 19.101562 12.5 19.53125 12.5 C 19.960938 12.5 20.3125 12.148438 20.3125 11.71875 L 20.3125 10.15625 C 20.3125 9.726562 19.960938 9.375 19.53125 9.375 Z M 23.4375 9.375 C 23.007812 9.375 22.65625 9.726562 22.65625 10.15625 L 22.65625 11.71875 C 22.65625 12.148438 23.007812 12.5 23.4375 12.5 C 23.867188 12.5 24.21875 12.148438 24.21875 11.71875 L 24.21875 10.15625 C 24.21875 9.726562 23.867188 9.375 23.4375 9.375 Z M 23.4375 9.375 "/>
<path style=" stroke:none;fill-rule:nonzero;fill:rgb(55.294118%,42.352941%,62.352941%);fill-opacity:1;" d="M 39.84375 18.75 L 10.15625 18.75 C 9.726562 18.75 9.375 19.101562 9.375 19.53125 L 9.375 22.65625 C 9.375 23.085938 9.726562 23.4375 10.15625 23.4375 L 39.84375 23.4375 C 40.273438 23.4375 40.625 23.085938 40.625 22.65625 L 40.625 19.53125 C 40.625 19.101562 40.273438 18.75 39.84375 18.75 Z M 39.0625 21.875 L 10.9375 21.875 L 10.9375 20.3125 L 39.0625 20.3125 Z M 22.65625 26.5625 L 10.15625 26.5625 C 9.726562 26.5625 9.375 26.914062 9.375 27.34375 L 9.375 36.71875 C 9.375 37.148438 9.726562 37.5 10.15625 37.5 L 22.65625 37.5 C 23.085938 37.5 23.4375 37.148438 23.4375 36.71875 L 23.4375 27.34375 C 23.4375 26.914062 23.085938 26.5625 22.65625 26.5625 Z M 21.875 35.9375 L 10.9375 35.9375 L 10.9375 28.125 L 21.875 28.125 Z M 38.28125 31.25 C 38.710938 31.25 39.0625 30.898438 39.0625 30.46875 C 39.0625 30.039062 38.710938 29.6875 38.28125 29.6875 L 36.71875 29.6875 C 36.289062 29.6875 35.9375 30.039062 35.9375 30.46875 C 35.9375 30.898438 36.289062 31.25 36.71875 31.25 Z M 27.34375 31.25 L 33.59375 31.25 C 34.023438 31.25 34.375 30.898438 34.375 30.46875 C 34.375 30.039062 34.023438 29.6875 33.59375 29.6875 L 27.34375 29.6875 C 26.914062 29.6875 26.5625 30.039062 26.5625 30.46875 C 26.5625 30.898438 26.914062 31.25 27.34375 31.25 Z M 32.03125 35.9375 L 27.34375 35.9375 C 26.914062 35.9375 26.5625 36.289062 26.5625 36.71875 C 26.5625 37.148438 26.914062 37.5 27.34375 37.5 L 32.03125 37.5 C 32.460938 37.5 32.8125 37.148438 32.8125 36.71875 C 32.8125 36.289062 32.460938 35.9375 32.03125 35.9375 Z M 39.84375 26.5625 L 27.34375 26.5625 C 26.914062 26.5625 26.5625 26.914062 26.5625 27.34375 C 26.5625 27.773438 26.914062 28.125 27.34375 28.125 L 39.84375 28.125 C 40.273438 28.125 40.625 27.773438 40.625 27.34375 C 40.625 26.914062 40.273438 26.5625 39.84375 26.5625 Z M 39.84375 32.8125 L 27.34375 32.8125 C 26.914062 32.8125 26.5625 33.164062 26.5625 33.59375 C 26.5625 34.023438 26.914062 34.375 27.34375 34.375 L 39.84375 34.375 C 40.273438 34.375 40.625 34.023438 40.625 33.59375 C 40.625 33.164062 40.273438 32.8125 39.84375 32.8125 Z M 39.84375 32.8125 "/>
</g>
</svg>
