<?xml version="1.0" encoding="UTF-8"?>
<svg xmlns="http://www.w3.org/2000/svg" xmlns:xlink="http://www.w3.org/1999/xlink" width="50px" height="50px" viewBox="0 0 50 50" version="1.1">
<g id="surface167505">
<path style=" stroke:none;fill-rule:nonzero;fill:rgb(98.039216%,93.72549%,87.058824%);fill-opacity:1;" d="M 46.65625 41.015625 L 34.15625 45.875 C 33.789062 46.019531 33.375 46.019531 33.007812 45.875 L 18.5 40.054688 C 18.152344 39.925781 17.769531 39.925781 17.421875 40.054688 L 4.921875 44.21875 C 4.679688 44.296875 4.414062 44.25 4.214844 44.09375 C 4.011719 43.941406 3.898438 43.699219 3.90625 43.445312 L 3.90625 12.84375 C 3.90625 12.171875 4.335938 11.570312 4.976562 11.359375 L 17.421875 7.210938 C 17.769531 7.082031 18.152344 7.082031 18.5 7.210938 L 33.023438 13.015625 C 33.390625 13.160156 33.804688 13.160156 34.171875 13.015625 L 46.59375 8.1875 C 46.832031 8.09375 47.105469 8.125 47.316406 8.269531 C 47.527344 8.417969 47.65625 8.65625 47.65625 8.914062 L 47.65625 39.554688 C 47.65625 40.203125 47.261719 40.78125 46.65625 41.015625 Z M 46.65625 41.015625 "/>
<path style=" stroke:none;fill-rule:nonzero;fill:rgb(77.254902%,89.411765%,98.039216%);fill-opacity:1;" d="M 44.53125 14.0625 L 44.53125 37.398438 C 44.53125 37.71875 44.332031 38.007812 44.03125 38.125 L 33.59375 42.609375 L 17.1875 36.226562 L 17.148438 36.226562 L 8.0625 39.242188 C 7.816406 39.324219 7.546875 39.28125 7.339844 39.125 C 7.132812 38.96875 7.015625 38.71875 7.03125 38.460938 L 7.03125 15.148438 C 7.011719 14.796875 7.230469 14.480469 7.5625 14.367188 L 17.1875 11.203125 L 17.695312 11.03125 C 17.871094 10.96875 18.058594 10.96875 18.234375 11.03125 L 33.304688 17.054688 C 33.394531 17.09375 33.496094 17.113281 33.59375 17.117188 C 33.691406 17.117188 33.789062 17.097656 33.882812 17.0625 L 43.46875 13.335938 C 43.707031 13.242188 43.980469 13.273438 44.191406 13.417969 C 44.402344 13.566406 44.53125 13.804688 44.53125 14.0625 Z M 44.53125 14.0625 "/>
<path style=" stroke:none;fill-rule:nonzero;fill:rgb(100%,96.862745%,94.117647%);fill-opacity:1;" d="M 33.59375 46.09375 L 17.1875 39.84375 L 17.1875 7.03125 L 33.59375 13.28125 Z M 33.59375 46.09375 "/>
<path style=" stroke:none;fill-rule:nonzero;fill:rgb(89.019608%,94.901961%,100%);fill-opacity:1;" d="M 33.59375 17.132812 L 33.59375 42.609375 L 17.1875 36.226562 L 17.1875 11.226562 L 17.695312 11.054688 C 17.871094 10.992188 18.058594 10.992188 18.234375 11.054688 L 33.304688 17.078125 C 33.398438 17.113281 33.496094 17.132812 33.59375 17.132812 Z M 33.59375 17.132812 "/>
<path style=" stroke:none;fill-rule:nonzero;fill:rgb(44.705882%,79.215686%,68.627451%);fill-opacity:1;" d="M 36.71875 20.3125 C 35.425781 20.3125 34.375 21.363281 34.375 22.65625 C 34.375 23.949219 35.425781 25 36.71875 25 C 38.011719 25 39.0625 23.949219 39.0625 22.65625 C 39.0625 21.363281 38.011719 20.3125 36.71875 20.3125 Z M 36.71875 20.3125 "/>
<path style=" stroke:none;fill-rule:nonzero;fill:rgb(97.647059%,89.019608%,68.235294%);fill-opacity:1;" d="M 20.3125 19.53125 C 19.449219 19.53125 18.75 20.230469 18.75 21.09375 C 18.75 21.957031 19.449219 22.65625 20.3125 22.65625 C 21.175781 22.65625 21.875 21.957031 21.875 21.09375 C 21.875 20.230469 21.175781 19.53125 20.3125 19.53125 Z M 14.84375 27.34375 C 13.980469 27.34375 13.28125 28.042969 13.28125 28.90625 C 13.28125 29.769531 13.980469 30.46875 14.84375 30.46875 C 15.707031 30.46875 16.40625 29.769531 16.40625 28.90625 C 16.40625 28.042969 15.707031 27.34375 14.84375 27.34375 Z M 14.84375 27.34375 "/>
<path style=" stroke:none;fill-rule:nonzero;fill:rgb(55.294118%,42.352941%,62.352941%);fill-opacity:1;" d="M 19.53125 34.765625 C 19.101562 34.765625 18.75 35.117188 18.75 35.546875 L 18.75 37.109375 C 18.75 37.539062 19.101562 37.890625 19.53125 37.890625 C 19.960938 37.890625 20.3125 37.539062 20.3125 37.109375 L 20.3125 35.546875 C 20.3125 35.117188 19.960938 34.765625 19.53125 34.765625 Z M 23.4375 36.328125 C 23.007812 36.328125 22.65625 36.679688 22.65625 37.109375 L 22.65625 38.671875 C 22.65625 39.101562 23.007812 39.453125 23.4375 39.453125 C 23.867188 39.453125 24.21875 39.101562 24.21875 38.671875 L 24.21875 37.109375 C 24.21875 36.679688 23.867188 36.328125 23.4375 36.328125 Z M 27.34375 37.695312 C 26.914062 37.695312 26.5625 38.046875 26.5625 38.476562 L 26.5625 40.039062 C 26.5625 40.46875 26.914062 40.820312 27.34375 40.820312 C 27.773438 40.820312 28.125 40.46875 28.125 40.039062 L 28.125 38.476562 C 28.125 38.046875 27.773438 37.695312 27.34375 37.695312 Z M 31.25 39.0625 C 30.820312 39.0625 30.46875 39.414062 30.46875 39.84375 L 30.46875 41.40625 C 30.46875 41.835938 30.820312 42.1875 31.25 42.1875 C 31.679688 42.1875 32.03125 41.835938 32.03125 41.40625 L 32.03125 39.84375 C 32.03125 39.414062 31.679688 39.0625 31.25 39.0625 Z M 31.25 39.0625 "/>
<path style=" stroke:none;fill-rule:nonzero;fill:rgb(55.294118%,42.352941%,62.352941%);fill-opacity:1;" d="M 47.757812 7.664062 C 47.332031 7.375 46.792969 7.3125 46.3125 7.5 L 33.890625 12.328125 C 33.707031 12.398438 33.503906 12.398438 33.320312 12.328125 L 18.789062 6.515625 C 18.277344 6.3125 17.710938 6.296875 17.1875 6.46875 L 4.726562 10.625 C 3.773438 10.945312 3.125 11.835938 3.125 12.84375 L 3.125 43.445312 C 3.125 43.949219 3.367188 44.417969 3.773438 44.714844 C 4.179688 45.007812 4.703125 45.085938 5.179688 44.929688 L 17.679688 40.765625 C 17.855469 40.703125 18.042969 40.703125 18.21875 40.765625 L 32.734375 46.59375 C 33.285156 46.8125 33.902344 46.8125 34.453125 46.59375 L 46.953125 41.734375 C 47.847656 41.382812 48.4375 40.515625 48.4375 39.554688 L 48.4375 8.953125 C 48.4375 8.4375 48.183594 7.957031 47.757812 7.664062 Z M 46.875 39.554688 C 46.875 39.875 46.675781 40.164062 46.375 40.28125 L 33.875 45.140625 C 33.691406 45.210938 33.488281 45.210938 33.304688 45.140625 L 18.789062 39.328125 C 18.277344 39.125 17.710938 39.109375 17.1875 39.28125 L 4.6875 43.445312 L 4.6875 12.84375 C 4.6875 12.507812 4.902344 12.210938 5.21875 12.101562 L 17.671875 7.953125 C 17.847656 7.890625 18.035156 7.890625 18.210938 7.953125 L 32.734375 13.78125 C 33.285156 14 33.902344 14 34.453125 13.78125 L 46.875 8.953125 Z M 46.875 39.554688 "/>
<path style=" stroke:none;fill-rule:nonzero;fill:rgb(55.294118%,42.352941%,62.352941%);fill-opacity:1;" d="M 18.523438 10.320312 C 18.179688 10.195312 17.796875 10.195312 17.453125 10.320312 L 7.296875 13.695312 C 6.675781 13.910156 6.257812 14.492188 6.25 15.148438 L 6.25 38.5 C 6.25 39.003906 6.492188 39.472656 6.898438 39.769531 C 7.304688 40.0625 7.828125 40.140625 8.304688 39.984375 L 16.648438 37.203125 C 17.058594 37.066406 17.28125 36.625 17.144531 36.214844 C 17.007812 35.804688 16.566406 35.582031 16.15625 35.71875 L 7.8125 38.5 L 7.8125 15.148438 L 17.96875 11.773438 L 33.039062 17.804688 C 33.40625 17.949219 33.820312 17.949219 34.1875 17.804688 L 43.75 14.0625 L 43.75 37.398438 L 33.3125 41.460938 C 32.964844 41.597656 32.761719 41.964844 32.832031 42.332031 C 32.898438 42.699219 33.21875 42.964844 33.59375 42.96875 C 33.691406 42.96875 33.785156 42.949219 33.875 42.914062 L 44.3125 38.851562 C 44.914062 38.621094 45.3125 38.042969 45.3125 37.398438 L 45.3125 14.0625 C 45.3125 13.546875 45.054688 13.066406 44.632812 12.777344 C 44.207031 12.488281 43.667969 12.425781 43.1875 12.609375 L 33.59375 16.34375 Z M 18.523438 10.320312 "/>
<path style=" stroke:none;fill-rule:nonzero;fill:rgb(55.294118%,42.352941%,62.352941%);fill-opacity:1;" d="M 39.84375 22.65625 C 39.84375 20.929688 38.445312 19.53125 36.71875 19.53125 C 34.992188 19.53125 33.59375 20.929688 33.59375 22.65625 C 33.59375 24.382812 34.992188 25.78125 36.71875 25.78125 C 38.445312 25.78125 39.84375 24.382812 39.84375 22.65625 Z M 35.15625 22.65625 C 35.15625 21.792969 35.855469 21.09375 36.71875 21.09375 C 37.582031 21.09375 38.28125 21.792969 38.28125 22.65625 C 38.28125 23.519531 37.582031 24.21875 36.71875 24.21875 C 35.855469 24.21875 35.15625 23.519531 35.15625 22.65625 Z M 31.25 34.375 C 34.703125 34.375 37.5 31.578125 37.5 28.125 L 37.5 27.34375 C 37.5 26.914062 37.148438 26.5625 36.71875 26.5625 C 36.289062 26.5625 35.9375 26.914062 35.9375 27.34375 L 35.9375 28.125 C 35.9375 30.714844 33.839844 32.8125 31.25 32.8125 C 28.660156 32.8125 26.5625 30.714844 26.5625 28.125 L 26.5625 26.5625 C 26.566406 24.011719 25.019531 21.714844 22.65625 20.757812 C 22.46875 19.625 21.492188 18.796875 20.34375 18.796875 C 19.195312 18.796875 18.21875 19.625 18.03125 20.757812 C 15.640625 21.695312 14.066406 23.996094 14.0625 26.5625 L 14.0625 26.703125 C 13.136719 27.039062 12.519531 27.921875 12.519531 28.90625 C 12.519531 29.890625 13.136719 30.773438 14.0625 31.109375 L 14.0625 32.8125 C 14.0625 33.242188 14.414062 33.59375 14.84375 33.59375 C 15.273438 33.59375 15.625 33.242188 15.625 32.8125 L 15.625 31.109375 C 16.550781 30.773438 17.167969 29.890625 17.167969 28.90625 C 17.167969 27.921875 16.550781 27.039062 15.625 26.703125 L 15.625 26.5625 C 15.625 24.746094 16.675781 23.09375 18.320312 22.320312 C 18.746094 23.011719 19.5 23.429688 20.3125 23.429688 C 21.125 23.429688 21.878906 23.011719 22.304688 22.320312 C 23.949219 23.09375 25 24.746094 25 26.5625 L 25 28.125 C 25 31.578125 27.796875 34.375 31.25 34.375 Z M 14.84375 29.6875 C 14.414062 29.6875 14.0625 29.335938 14.0625 28.90625 C 14.0625 28.476562 14.414062 28.125 14.84375 28.125 C 15.273438 28.125 15.625 28.476562 15.625 28.90625 C 15.625 29.335938 15.273438 29.6875 14.84375 29.6875 Z M 19.53125 21.09375 C 19.53125 20.664062 19.882812 20.3125 20.3125 20.3125 C 20.742188 20.3125 21.09375 20.664062 21.09375 21.09375 C 21.09375 21.523438 20.742188 21.875 20.3125 21.875 C 19.882812 21.875 19.53125 21.523438 19.53125 21.09375 Z M 19.53125 21.09375 "/>
</g>
</svg>
