<?xml version="1.0" encoding="UTF-8"?>
<svg xmlns="http://www.w3.org/2000/svg" xmlns:xlink="http://www.w3.org/1999/xlink" width="50px" height="50px" viewBox="0 0 50 50" version="1.1">
<g id="surface165738">
<path style=" stroke:none;fill-rule:nonzero;fill:rgb(80.784314%,84.705882%,92.941176%);fill-opacity:1;" d="M 4.6875 7.03125 L 45.3125 7.03125 C 45.742188 7.03125 46.09375 7.382812 46.09375 7.8125 L 46.09375 14.0625 C 46.09375 14.492188 45.742188 14.84375 45.3125 14.84375 L 4.6875 14.84375 C 4.257812 14.84375 3.90625 14.492188 3.90625 14.0625 L 3.90625 7.8125 C 3.90625 7.382812 4.257812 7.03125 4.6875 7.03125 Z M 4.6875 7.03125 "/>
<path style=" stroke:none;fill-rule:nonzero;fill:rgb(77.254902%,89.411765%,98.039216%);fill-opacity:1;" d="M 3.90625 14.84375 L 46.09375 14.84375 L 46.09375 42.1875 L 3.90625 42.1875 Z M 3.90625 14.84375 "/>
<path style=" stroke:none;fill-rule:nonzero;fill:rgb(89.019608%,94.901961%,100%);fill-opacity:1;" d="M 31.0625 42.96875 L 46.09375 27.9375 L 46.09375 14.90625 L 44.085938 14.90625 L 16.023438 42.96875 Z M 6.953125 42.96875 L 12.96875 42.96875 L 41.03125 14.90625 L 35.015625 14.90625 Z M 3.90625 41.5625 L 3.90625 42.1875 L 4.28125 42.1875 L 31.5625 14.90625 L 30.5625 14.90625 Z M 3.90625 41.5625 "/>
<path style=" stroke:none;fill-rule:nonzero;fill:rgb(100%,92.156863%,60.784314%);fill-opacity:1;" d="M 21.875 19.625 L 28.125 19.625 C 28.554688 19.625 28.90625 19.976562 28.90625 20.40625 L 28.90625 26.65625 C 28.90625 27.085938 28.554688 27.4375 28.125 27.4375 L 21.875 27.4375 C 21.445312 27.4375 21.09375 27.085938 21.09375 26.65625 L 21.09375 20.40625 C 21.09375 19.976562 21.445312 19.625 21.875 19.625 Z M 21.875 19.625 "/>
<path style=" stroke:none;fill-rule:nonzero;fill:rgb(92.941176%,47.058824%,60%);fill-opacity:1;" d="M 32.8125 19.625 L 39.0625 19.625 C 39.492188 19.625 39.84375 19.976562 39.84375 20.40625 L 39.84375 26.65625 C 39.84375 27.085938 39.492188 27.4375 39.0625 27.4375 L 32.8125 27.4375 C 32.382812 27.4375 32.03125 27.085938 32.03125 26.65625 L 32.03125 20.40625 C 32.03125 19.976562 32.382812 19.625 32.8125 19.625 Z M 32.8125 19.625 "/>
<path style=" stroke:none;fill-rule:nonzero;fill:rgb(44.705882%,79.215686%,68.627451%);fill-opacity:1;" d="M 10.9375 19.625 L 17.1875 19.625 C 17.617188 19.625 17.96875 19.976562 17.96875 20.40625 L 17.96875 26.65625 C 17.96875 27.085938 17.617188 27.4375 17.1875 27.4375 L 10.9375 27.4375 C 10.507812 27.4375 10.15625 27.085938 10.15625 26.65625 L 10.15625 20.40625 C 10.15625 19.976562 10.507812 19.625 10.9375 19.625 Z M 10.9375 19.625 "/>
<path style=" stroke:none;fill-rule:nonzero;fill:rgb(92.941176%,47.058824%,60%);fill-opacity:1;" d="M 21.875 30.5625 L 28.125 30.5625 C 28.554688 30.5625 28.90625 30.914062 28.90625 31.34375 L 28.90625 37.59375 C 28.90625 38.023438 28.554688 38.375 28.125 38.375 L 21.875 38.375 C 21.445312 38.375 21.09375 38.023438 21.09375 37.59375 L 21.09375 31.34375 C 21.09375 30.914062 21.445312 30.5625 21.875 30.5625 Z M 21.875 30.5625 "/>
<path style=" stroke:none;fill-rule:nonzero;fill:rgb(44.705882%,79.215686%,68.627451%);fill-opacity:1;" d="M 32.8125 30.5625 L 39.0625 30.5625 C 39.492188 30.5625 39.84375 30.914062 39.84375 31.34375 L 39.84375 37.59375 C 39.84375 38.023438 39.492188 38.375 39.0625 38.375 L 32.8125 38.375 C 32.382812 38.375 32.03125 38.023438 32.03125 37.59375 L 32.03125 31.34375 C 32.03125 30.914062 32.382812 30.5625 32.8125 30.5625 Z M 32.8125 30.5625 "/>
<path style=" stroke:none;fill-rule:nonzero;fill:rgb(52.156863%,79.607843%,97.254902%);fill-opacity:1;" d="M 10.9375 30.5625 L 17.1875 30.5625 C 17.617188 30.5625 17.96875 30.914062 17.96875 31.34375 L 17.96875 37.59375 C 17.96875 38.023438 17.617188 38.375 17.1875 38.375 L 10.9375 38.375 C 10.507812 38.375 10.15625 38.023438 10.15625 37.59375 L 10.15625 31.34375 C 10.15625 30.914062 10.507812 30.5625 10.9375 30.5625 Z M 10.9375 30.5625 "/>
<path style=" stroke:none;fill-rule:nonzero;fill:rgb(55.294118%,42.352941%,62.352941%);fill-opacity:1;" d="M 44.53125 6.25 L 5.46875 6.25 C 4.175781 6.25 3.125 7.300781 3.125 8.59375 L 3.125 41.40625 C 3.125 42.699219 4.175781 43.75 5.46875 43.75 L 44.53125 43.75 C 45.824219 43.75 46.875 42.699219 46.875 41.40625 L 46.875 8.59375 C 46.875 7.300781 45.824219 6.25 44.53125 6.25 Z M 5.46875 7.8125 L 44.53125 7.8125 C 44.960938 7.8125 45.3125 8.164062 45.3125 8.59375 L 45.3125 14.0625 L 4.6875 14.0625 L 4.6875 8.59375 C 4.6875 8.164062 5.039062 7.8125 5.46875 7.8125 Z M 44.53125 42.1875 L 5.46875 42.1875 C 5.039062 42.1875 4.6875 41.835938 4.6875 41.40625 L 4.6875 15.625 L 45.3125 15.625 L 45.3125 41.40625 C 45.3125 41.835938 44.960938 42.1875 44.53125 42.1875 Z M 44.53125 42.1875 "/>
<path style=" stroke:none;fill-rule:nonzero;fill:rgb(55.294118%,42.352941%,62.352941%);fill-opacity:1;" d="M 14.84375 12.5 C 15.273438 12.5 15.625 12.148438 15.625 11.71875 L 15.625 10.15625 C 15.625 9.726562 15.273438 9.375 14.84375 9.375 C 14.414062 9.375 14.0625 9.726562 14.0625 10.15625 L 14.0625 11.71875 C 14.0625 12.148438 14.414062 12.5 14.84375 12.5 Z M 10.9375 12.5 C 11.367188 12.5 11.71875 12.148438 11.71875 11.71875 L 11.71875 10.15625 C 11.71875 9.726562 11.367188 9.375 10.9375 9.375 C 10.507812 9.375 10.15625 9.726562 10.15625 10.15625 L 10.15625 11.71875 C 10.15625 12.148438 10.507812 12.5 10.9375 12.5 Z M 7.03125 12.5 C 7.460938 12.5 7.8125 12.148438 7.8125 11.71875 L 7.8125 10.15625 C 7.8125 9.726562 7.460938 9.375 7.03125 9.375 C 6.601562 9.375 6.25 9.726562 6.25 10.15625 L 6.25 11.71875 C 6.25 12.148438 6.601562 12.5 7.03125 12.5 Z M 26.5625 12.5 C 26.992188 12.5 27.34375 12.148438 27.34375 11.71875 L 27.34375 10.15625 C 27.34375 9.726562 26.992188 9.375 26.5625 9.375 C 26.132812 9.375 25.78125 9.726562 25.78125 10.15625 L 25.78125 11.71875 C 25.78125 12.148438 26.132812 12.5 26.5625 12.5 Z M 30.46875 12.5 C 30.898438 12.5 31.25 12.148438 31.25 11.71875 L 31.25 10.15625 C 31.25 9.726562 30.898438 9.375 30.46875 9.375 C 30.039062 9.375 29.6875 9.726562 29.6875 10.15625 L 29.6875 11.71875 C 29.6875 12.148438 30.039062 12.5 30.46875 12.5 Z M 34.375 12.5 C 34.804688 12.5 35.15625 12.148438 35.15625 11.71875 L 35.15625 10.15625 C 35.15625 9.726562 34.804688 9.375 34.375 9.375 C 33.945312 9.375 33.59375 9.726562 33.59375 10.15625 L 33.59375 11.71875 C 33.59375 12.148438 33.945312 12.5 34.375 12.5 Z M 38.28125 12.5 C 38.710938 12.5 39.0625 12.148438 39.0625 11.71875 L 39.0625 10.15625 C 39.0625 9.726562 38.710938 9.375 38.28125 9.375 C 37.851562 9.375 37.5 9.726562 37.5 10.15625 L 37.5 11.71875 C 37.5 12.148438 37.851562 12.5 38.28125 12.5 Z M 42.1875 12.5 C 42.617188 12.5 42.96875 12.148438 42.96875 11.71875 L 42.96875 10.15625 C 42.96875 9.726562 42.617188 9.375 42.1875 9.375 C 41.757812 9.375 41.40625 9.726562 41.40625 10.15625 L 41.40625 11.71875 C 41.40625 12.148438 41.757812 12.5 42.1875 12.5 Z M 18.75 12.5 C 19.179688 12.5 19.53125 12.148438 19.53125 11.71875 L 19.53125 10.15625 C 19.53125 9.726562 19.179688 9.375 18.75 9.375 C 18.320312 9.375 17.96875 9.726562 17.96875 10.15625 L 17.96875 11.71875 C 17.96875 12.148438 18.320312 12.5 18.75 12.5 Z M 22.65625 12.5 C 23.085938 12.5 23.4375 12.148438 23.4375 11.71875 L 23.4375 10.15625 C 23.4375 9.726562 23.085938 9.375 22.65625 9.375 C 22.226562 9.375 21.875 9.726562 21.875 10.15625 L 21.875 11.71875 C 21.875 12.148438 22.226562 12.5 22.65625 12.5 Z M 17.1875 18.84375 L 10.9375 18.84375 C 10.074219 18.84375 9.375 19.542969 9.375 20.40625 L 9.375 26.65625 C 9.375 27.519531 10.074219 28.21875 10.9375 28.21875 L 17.1875 28.21875 C 18.050781 28.21875 18.75 27.519531 18.75 26.65625 L 18.75 20.40625 C 18.75 19.542969 18.050781 18.84375 17.1875 18.84375 Z M 10.9375 26.65625 L 10.9375 20.40625 L 17.1875 20.40625 L 17.1875 26.65625 Z M 28.125 18.84375 L 21.875 18.84375 C 21.011719 18.84375 20.3125 19.542969 20.3125 20.40625 L 20.3125 26.65625 C 20.3125 27.519531 21.011719 28.21875 21.875 28.21875 L 28.125 28.21875 C 28.988281 28.21875 29.6875 27.519531 29.6875 26.65625 L 29.6875 20.40625 C 29.6875 19.542969 28.988281 18.84375 28.125 18.84375 Z M 21.875 26.65625 L 21.875 20.40625 L 28.125 20.40625 L 28.125 26.65625 Z M 17.1875 29.78125 L 10.9375 29.78125 C 10.074219 29.78125 9.375 30.480469 9.375 31.34375 L 9.375 37.59375 C 9.375 38.457031 10.074219 39.15625 10.9375 39.15625 L 17.1875 39.15625 C 18.050781 39.15625 18.75 38.457031 18.75 37.59375 L 18.75 31.34375 C 18.75 30.480469 18.050781 29.78125 17.1875 29.78125 Z M 10.9375 37.59375 L 10.9375 31.34375 L 17.1875 31.34375 L 17.1875 37.59375 Z M 28.125 29.78125 L 21.875 29.78125 C 21.011719 29.78125 20.3125 30.480469 20.3125 31.34375 L 20.3125 37.59375 C 20.3125 38.457031 21.011719 39.15625 21.875 39.15625 L 28.125 39.15625 C 28.988281 39.15625 29.6875 38.457031 29.6875 37.59375 L 29.6875 31.34375 C 29.6875 30.480469 28.988281 29.78125 28.125 29.78125 Z M 21.875 37.59375 L 21.875 31.34375 L 28.125 31.34375 L 28.125 37.59375 Z M 39.0625 29.78125 L 32.8125 29.78125 C 31.949219 29.78125 31.25 30.480469 31.25 31.34375 L 31.25 37.59375 C 31.25 38.457031 31.949219 39.15625 32.8125 39.15625 L 39.0625 39.15625 C 39.925781 39.15625 40.625 38.457031 40.625 37.59375 L 40.625 31.34375 C 40.625 30.480469 39.925781 29.78125 39.0625 29.78125 Z M 32.8125 37.59375 L 32.8125 31.34375 L 39.0625 31.34375 L 39.0625 37.59375 Z M 39.0625 18.84375 L 32.8125 18.84375 C 31.949219 18.84375 31.25 19.542969 31.25 20.40625 L 31.25 26.65625 C 31.25 27.519531 31.949219 28.21875 32.8125 28.21875 L 39.0625 28.21875 C 39.925781 28.21875 40.625 27.519531 40.625 26.65625 L 40.625 20.40625 C 40.625 19.542969 39.925781 18.84375 39.0625 18.84375 Z M 32.8125 26.65625 L 32.8125 20.40625 L 39.0625 20.40625 L 39.0625 26.65625 Z M 32.8125 26.65625 "/>
</g>
</svg>
