<?xml version="1.0" encoding="UTF-8"?>
<svg xmlns="http://www.w3.org/2000/svg" xmlns:xlink="http://www.w3.org/1999/xlink" width="50px" height="50px" viewBox="0 0 50 50" version="1.1">
<g id="surface165518">
<path style=" stroke:none;fill-rule:nonzero;fill:rgb(77.254902%,89.411765%,98.039216%);fill-opacity:1;" d="M 5.46875 5.46875 L 44.53125 5.46875 L 44.53125 44.53125 L 5.46875 44.53125 Z M 5.46875 5.46875 "/>
<path style=" stroke:none;fill-rule:nonzero;fill:rgb(89.019608%,94.901961%,100%);fill-opacity:1;" d="M 28.226562 44.632812 L 44.53125 28.335938 L 44.53125 18.179688 L 18.070312 44.632812 Z M 11.039062 44.703125 L 15.117188 44.703125 L 44.53125 15.289062 L 44.53125 11.210938 Z M 6.351562 44.429688 L 7.804688 44.429688 L 44.5625 7.664062 L 44.210938 5.492188 L 6.351562 43.34375 Z M 6.351562 44.429688 "/>
<path style=" stroke:none;fill-rule:nonzero;fill:rgb(55.294118%,42.352941%,62.352941%);fill-opacity:1;" d="M 11.71875 4.6875 L 5.46875 4.6875 C 5.039062 4.6875 4.6875 5.039062 4.6875 5.46875 L 4.6875 11.71875 C 4.6875 12.148438 5.039062 12.5 5.46875 12.5 C 5.898438 12.5 6.25 12.148438 6.25 11.71875 L 6.25 6.25 L 11.71875 6.25 C 12.148438 6.25 12.5 5.898438 12.5 5.46875 C 12.5 5.039062 12.148438 4.6875 11.71875 4.6875 Z M 14.84375 6.25 L 16.40625 6.25 C 16.835938 6.25 17.1875 5.898438 17.1875 5.46875 C 17.1875 5.039062 16.835938 4.6875 16.40625 4.6875 L 14.84375 4.6875 C 14.414062 4.6875 14.0625 5.039062 14.0625 5.46875 C 14.0625 5.898438 14.414062 6.25 14.84375 6.25 Z M 19.53125 6.25 L 21.09375 6.25 C 21.523438 6.25 21.875 5.898438 21.875 5.46875 C 21.875 5.039062 21.523438 4.6875 21.09375 4.6875 L 19.53125 4.6875 C 19.101562 4.6875 18.75 5.039062 18.75 5.46875 C 18.75 5.898438 19.101562 6.25 19.53125 6.25 Z M 24.21875 6.25 L 25.78125 6.25 C 26.210938 6.25 26.5625 5.898438 26.5625 5.46875 C 26.5625 5.039062 26.210938 4.6875 25.78125 4.6875 L 24.21875 4.6875 C 23.789062 4.6875 23.4375 5.039062 23.4375 5.46875 C 23.4375 5.898438 23.789062 6.25 24.21875 6.25 Z M 28.90625 6.25 L 30.46875 6.25 C 30.898438 6.25 31.25 5.898438 31.25 5.46875 C 31.25 5.039062 30.898438 4.6875 30.46875 4.6875 L 28.90625 4.6875 C 28.476562 4.6875 28.125 5.039062 28.125 5.46875 C 28.125 5.898438 28.476562 6.25 28.90625 6.25 Z M 35.15625 4.6875 L 33.59375 4.6875 C 33.164062 4.6875 32.8125 5.039062 32.8125 5.46875 C 32.8125 5.898438 33.164062 6.25 33.59375 6.25 L 35.15625 6.25 C 35.585938 6.25 35.9375 5.898438 35.9375 5.46875 C 35.9375 5.039062 35.585938 4.6875 35.15625 4.6875 Z M 16.40625 43.75 L 14.84375 43.75 C 14.414062 43.75 14.0625 44.101562 14.0625 44.53125 C 14.0625 44.960938 14.414062 45.3125 14.84375 45.3125 L 16.40625 45.3125 C 16.835938 45.3125 17.1875 44.960938 17.1875 44.53125 C 17.1875 44.101562 16.835938 43.75 16.40625 43.75 Z M 21.09375 43.75 L 19.53125 43.75 C 19.101562 43.75 18.75 44.101562 18.75 44.53125 C 18.75 44.960938 19.101562 45.3125 19.53125 45.3125 L 21.09375 45.3125 C 21.523438 45.3125 21.875 44.960938 21.875 44.53125 C 21.875 44.101562 21.523438 43.75 21.09375 43.75 Z M 25.78125 43.75 L 24.21875 43.75 C 23.789062 43.75 23.4375 44.101562 23.4375 44.53125 C 23.4375 44.960938 23.789062 45.3125 24.21875 45.3125 L 25.78125 45.3125 C 26.210938 45.3125 26.5625 44.960938 26.5625 44.53125 C 26.5625 44.101562 26.210938 43.75 25.78125 43.75 Z M 30.46875 43.75 L 28.90625 43.75 C 28.476562 43.75 28.125 44.101562 28.125 44.53125 C 28.125 44.960938 28.476562 45.3125 28.90625 45.3125 L 30.46875 45.3125 C 30.898438 45.3125 31.25 44.960938 31.25 44.53125 C 31.25 44.101562 30.898438 43.75 30.46875 43.75 Z M 35.15625 43.75 L 33.59375 43.75 C 33.164062 43.75 32.8125 44.101562 32.8125 44.53125 C 32.8125 44.960938 33.164062 45.3125 33.59375 45.3125 L 35.15625 45.3125 C 35.585938 45.3125 35.9375 44.960938 35.9375 44.53125 C 35.9375 44.101562 35.585938 43.75 35.15625 43.75 Z M 44.53125 37.5 C 44.101562 37.5 43.75 37.851562 43.75 38.28125 L 43.75 43.75 L 38.28125 43.75 C 37.851562 43.75 37.5 44.101562 37.5 44.53125 C 37.5 44.960938 37.851562 45.3125 38.28125 45.3125 L 44.53125 45.3125 C 44.960938 45.3125 45.3125 44.960938 45.3125 44.53125 L 45.3125 38.28125 C 45.3125 37.851562 44.960938 37.5 44.53125 37.5 Z M 44.53125 4.6875 L 38.28125 4.6875 C 37.851562 4.6875 37.5 5.039062 37.5 5.46875 C 37.5 5.898438 37.851562 6.25 38.28125 6.25 L 43.75 6.25 L 43.75 11.71875 C 43.75 12.148438 44.101562 12.5 44.53125 12.5 C 44.960938 12.5 45.3125 12.148438 45.3125 11.71875 L 45.3125 5.46875 C 45.3125 5.039062 44.960938 4.6875 44.53125 4.6875 Z M 11.71875 43.75 L 6.25 43.75 L 6.25 38.28125 C 6.25 37.851562 5.898438 37.5 5.46875 37.5 C 5.039062 37.5 4.6875 37.851562 4.6875 38.28125 L 4.6875 44.53125 C 4.6875 44.960938 5.039062 45.3125 5.46875 45.3125 L 11.71875 45.3125 C 12.148438 45.3125 12.5 44.960938 12.5 44.53125 C 12.5 44.101562 12.148438 43.75 11.71875 43.75 Z M 5.46875 21.875 C 5.898438 21.875 6.25 21.523438 6.25 21.09375 L 6.25 19.53125 C 6.25 19.101562 5.898438 18.75 5.46875 18.75 C 5.039062 18.75 4.6875 19.101562 4.6875 19.53125 L 4.6875 21.09375 C 4.6875 21.523438 5.039062 21.875 5.46875 21.875 Z M 5.46875 17.1875 C 5.898438 17.1875 6.25 16.835938 6.25 16.40625 L 6.25 14.84375 C 6.25 14.414062 5.898438 14.0625 5.46875 14.0625 C 5.039062 14.0625 4.6875 14.414062 4.6875 14.84375 L 4.6875 16.40625 C 4.6875 16.835938 5.039062 17.1875 5.46875 17.1875 Z M 5.46875 26.5625 C 5.898438 26.5625 6.25 26.210938 6.25 25.78125 L 6.25 24.21875 C 6.25 23.789062 5.898438 23.4375 5.46875 23.4375 C 5.039062 23.4375 4.6875 23.789062 4.6875 24.21875 L 4.6875 25.78125 C 4.6875 26.210938 5.039062 26.5625 5.46875 26.5625 Z M 5.46875 31.25 C 5.898438 31.25 6.25 30.898438 6.25 30.46875 L 6.25 28.90625 C 6.25 28.476562 5.898438 28.125 5.46875 28.125 C 5.039062 28.125 4.6875 28.476562 4.6875 28.90625 L 4.6875 30.46875 C 4.6875 30.898438 5.039062 31.25 5.46875 31.25 Z M 44.53125 18.75 C 44.101562 18.75 43.75 19.101562 43.75 19.53125 L 43.75 21.09375 C 43.75 21.523438 44.101562 21.875 44.53125 21.875 C 44.960938 21.875 45.3125 21.523438 45.3125 21.09375 L 45.3125 19.53125 C 45.3125 19.101562 44.960938 18.75 44.53125 18.75 Z M 44.53125 14.0625 C 44.101562 14.0625 43.75 14.414062 43.75 14.84375 L 43.75 16.40625 C 43.75 16.835938 44.101562 17.1875 44.53125 17.1875 C 44.960938 17.1875 45.3125 16.835938 45.3125 16.40625 L 45.3125 14.84375 C 45.3125 14.414062 44.960938 14.0625 44.53125 14.0625 Z M 44.53125 23.4375 C 44.101562 23.4375 43.75 23.789062 43.75 24.21875 L 43.75 25.78125 C 43.75 26.210938 44.101562 26.5625 44.53125 26.5625 C 44.960938 26.5625 45.3125 26.210938 45.3125 25.78125 L 45.3125 24.21875 C 45.3125 23.789062 44.960938 23.4375 44.53125 23.4375 Z M 44.53125 28.125 C 44.101562 28.125 43.75 28.476562 43.75 28.90625 L 43.75 30.46875 C 43.75 30.898438 44.101562 31.25 44.53125 31.25 C 44.960938 31.25 45.3125 30.898438 45.3125 30.46875 L 45.3125 28.90625 C 45.3125 28.476562 44.960938 28.125 44.53125 28.125 Z M 5.46875 35.9375 C 5.898438 35.9375 6.25 35.585938 6.25 35.15625 L 6.25 33.59375 C 6.25 33.164062 5.898438 32.8125 5.46875 32.8125 C 5.039062 32.8125 4.6875 33.164062 4.6875 33.59375 L 4.6875 35.15625 C 4.6875 35.585938 5.039062 35.9375 5.46875 35.9375 Z M 44.53125 32.8125 C 44.101562 32.8125 43.75 33.164062 43.75 33.59375 L 43.75 35.15625 C 43.75 35.585938 44.101562 35.9375 44.53125 35.9375 C 44.960938 35.9375 45.3125 35.585938 45.3125 35.15625 L 45.3125 33.59375 C 45.3125 33.164062 44.960938 32.8125 44.53125 32.8125 Z M 35.15625 14.0625 L 32.03125 14.0625 C 31.601562 14.0625 31.25 14.414062 31.25 14.84375 C 31.25 15.273438 31.601562 15.625 32.03125 15.625 L 35.15625 15.625 C 35.585938 15.625 35.9375 15.273438 35.9375 14.84375 C 35.9375 14.414062 35.585938 14.0625 35.15625 14.0625 Z M 14.84375 15.625 L 28.90625 15.625 C 29.335938 15.625 29.6875 15.273438 29.6875 14.84375 C 29.6875 14.414062 29.335938 14.0625 28.90625 14.0625 L 14.84375 14.0625 C 14.414062 14.0625 14.0625 14.414062 14.0625 14.84375 C 14.0625 15.273438 14.414062 15.625 14.84375 15.625 Z M 14.84375 18.75 L 30.46875 18.75 C 30.898438 18.75 31.25 18.398438 31.25 17.96875 C 31.25 17.539062 30.898438 17.1875 30.46875 17.1875 L 14.84375 17.1875 C 14.414062 17.1875 14.0625 17.539062 14.0625 17.96875 C 14.0625 18.398438 14.414062 18.75 14.84375 18.75 Z M 17.96875 32.8125 L 14.84375 32.8125 C 14.414062 32.8125 14.0625 33.164062 14.0625 33.59375 C 14.0625 34.023438 14.414062 34.375 14.84375 34.375 L 17.96875 34.375 C 18.398438 34.375 18.75 34.023438 18.75 33.59375 C 18.75 33.164062 18.398438 32.8125 17.96875 32.8125 Z M 32.03125 32.8125 L 21.09375 32.8125 C 20.664062 32.8125 20.3125 33.164062 20.3125 33.59375 C 20.3125 34.023438 20.664062 34.375 21.09375 34.375 L 32.03125 34.375 C 32.460938 34.375 32.8125 34.023438 32.8125 33.59375 C 32.8125 33.164062 32.460938 32.8125 32.03125 32.8125 Z M 14.84375 21.875 L 33.59375 21.875 C 34.023438 21.875 34.375 21.523438 34.375 21.09375 C 34.375 20.664062 34.023438 20.3125 33.59375 20.3125 L 14.84375 20.3125 C 14.414062 20.3125 14.0625 20.664062 14.0625 21.09375 C 14.0625 21.523438 14.414062 21.875 14.84375 21.875 Z M 14.84375 31.25 L 28.125 31.25 C 28.554688 31.25 28.90625 30.898438 28.90625 30.46875 C 28.90625 30.039062 28.554688 29.6875 28.125 29.6875 L 14.84375 29.6875 C 14.414062 29.6875 14.0625 30.039062 14.0625 30.46875 C 14.0625 30.898438 14.414062 31.25 14.84375 31.25 Z M 35.15625 26.5625 L 14.84375 26.5625 C 14.414062 26.5625 14.0625 26.914062 14.0625 27.34375 C 14.0625 27.773438 14.414062 28.125 14.84375 28.125 L 35.15625 28.125 C 35.585938 28.125 35.9375 27.773438 35.9375 27.34375 C 35.9375 26.914062 35.585938 26.5625 35.15625 26.5625 Z M 35.15625 26.5625 "/>
<path style=" stroke:none;fill-rule:nonzero;fill:rgb(100%,97.254902%,97.254902%);fill-opacity:1;" d="M 11.328125 8.59375 L 12.296875 10.359375 L 14.0625 11.328125 L 12.296875 12.296875 L 11.328125 14.0625 L 10.359375 12.296875 L 8.59375 11.328125 L 10.359375 10.359375 Z M 20.640625 36.71875 L 21.304688 37.9375 L 22.53125 38.609375 L 21.304688 39.273438 L 20.640625 40.5 L 19.96875 39.273438 L 18.75 38.609375 L 19.96875 37.9375 Z M 38.007812 18.75 L 38.460938 19.585938 L 39.296875 20.039062 L 38.460938 20.492188 L 38.007812 21.328125 L 37.546875 20.492188 L 36.71875 20.039062 L 37.546875 19.585938 Z M 38.007812 18.75 "/>
</g>
</svg>
