<?xml version="1.0" encoding="UTF-8"?>
<svg xmlns="http://www.w3.org/2000/svg" xmlns:xlink="http://www.w3.org/1999/xlink" width="50px" height="50px" viewBox="0 0 50 50" version="1.1">
<g id="surface169923">
<path style=" stroke:none;fill-rule:nonzero;fill:rgb(98.039216%,93.72549%,87.058824%);fill-opacity:1;" d="M 25 3.125 C 22.84375 3.125 21.09375 4.875 21.09375 7.03125 C 21.09375 9.1875 22.84375 10.9375 25 10.9375 C 27.15625 10.9375 28.90625 9.1875 28.90625 7.03125 C 28.90625 4.875 27.15625 3.125 25 3.125 Z M 25 3.125 "/>
<path style=" stroke:none;fill-rule:nonzero;fill:rgb(55.294118%,42.352941%,62.352941%);fill-opacity:1;" d="M 25 11.71875 C 22.410156 11.71875 20.3125 9.621094 20.3125 7.03125 C 20.3125 4.441406 22.410156 2.34375 25 2.34375 C 27.589844 2.34375 29.6875 4.441406 29.6875 7.03125 C 29.6875 9.621094 27.589844 11.71875 25 11.71875 Z M 25 3.90625 C 23.273438 3.90625 21.875 5.304688 21.875 7.03125 C 21.875 8.757812 23.273438 10.15625 25 10.15625 C 26.726562 10.15625 28.125 8.757812 28.125 7.03125 C 28.125 5.304688 26.726562 3.90625 25 3.90625 Z M 25 3.90625 "/>
<path style=" stroke:none;fill-rule:nonzero;fill:rgb(52.156863%,79.607843%,97.254902%);fill-opacity:1;" d="M 12.320312 11.71875 L 18.226562 11.71875 C 18.566406 11.71875 18.894531 11.828125 19.164062 12.03125 L 25 16.40625 L 27.125 29.84375 C 27.222656 30.515625 26.761719 31.136719 26.089844 31.238281 C 26.035156 31.246094 25.980469 31.25 25.921875 31.25 C 25.378906 31.253906 24.898438 30.890625 24.75 30.367188 L 21.875 20.3125 L 17.1875 28.125 L 20.960938 34.070312 C 21.046875 34.269531 21.09375 34.484375 21.09375 34.703125 L 21.09375 43.632812 C 21.09375 44.558594 20.339844 45.3125 19.414062 45.3125 C 18.582031 45.3125 17.875 44.707031 17.75 43.882812 L 16.40625 35.15625 L 12.5 31.25 L 6.648438 44.289062 C 6.40625 44.902344 5.816406 45.308594 5.15625 45.3125 C 4.292969 45.34375 3.570312 44.667969 3.539062 43.808594 C 3.53125 43.648438 3.550781 43.488281 3.59375 43.335938 L 9.375 22.65625 L 14.0625 15.625 L 11.71875 15.625 L 6.828125 20.515625 C 6.472656 20.871094 5.957031 21.015625 5.46875 20.898438 C 4.699219 20.691406 4.238281 19.902344 4.445312 19.128906 C 4.503906 18.917969 4.605469 18.71875 4.75 18.554688 L 10.015625 12.765625 C 10.601562 12.105469 11.4375 11.726562 12.320312 11.71875 Z M 12.320312 11.71875 "/>
<path style=" stroke:none;fill-rule:nonzero;fill:rgb(55.294118%,42.352941%,62.352941%);fill-opacity:1;" d="M 19.414062 46.09375 C 18.195312 46.101562 17.160156 45.210938 16.976562 44.007812 L 15.671875 35.53125 L 12.75 32.601562 L 7.359375 44.609375 C 6.957031 45.855469 5.621094 46.542969 4.375 46.140625 C 3.128906 45.738281 2.441406 44.402344 2.84375 43.15625 L 8.59375 22.445312 C 8.613281 22.367188 8.648438 22.292969 8.695312 22.226562 L 12.601562 16.40625 L 12.039062 16.40625 L 7.351562 21.09375 C 6.484375 21.960938 5.082031 21.960938 4.214844 21.097656 C 3.953125 20.835938 3.761719 20.515625 3.65625 20.164062 C 3.425781 19.417969 3.609375 18.605469 4.140625 18.03125 L 9.40625 12.242188 C 10.148438 11.410156 11.207031 10.9375 12.320312 10.9375 L 18.226562 10.9375 C 18.734375 10.9375 19.226562 11.101562 19.632812 11.40625 L 25.46875 15.78125 C 25.632812 15.902344 25.742188 16.082031 25.773438 16.28125 L 27.890625 29.6875 C 28.082031 30.777344 27.351562 31.8125 26.265625 32 C 26.152344 32.019531 26.035156 32.03125 25.921875 32.03125 C 25.027344 32.03125 24.246094 31.4375 24 30.578125 L 21.65625 22.257812 L 18.101562 28.125 L 21.617188 33.664062 C 21.640625 33.695312 21.660156 33.730469 21.671875 33.765625 C 21.804688 34.0625 21.871094 34.378906 21.875 34.703125 L 21.875 43.632812 C 21.871094 44.988281 20.769531 46.089844 19.414062 46.09375 Z M 12.5 30.46875 C 12.707031 30.46875 12.90625 30.550781 13.054688 30.695312 L 16.960938 34.601562 C 17.078125 34.71875 17.15625 34.875 17.179688 35.039062 L 18.523438 43.75 C 18.578125 44.199219 18.960938 44.535156 19.414062 44.53125 C 19.910156 44.527344 20.308594 44.128906 20.3125 43.632812 L 20.3125 34.703125 C 20.3125 34.613281 20.296875 34.523438 20.265625 34.4375 L 16.53125 28.546875 C 16.390625 28.304688 16.390625 28.007812 16.53125 27.765625 L 21.21875 19.953125 C 21.441406 19.582031 21.921875 19.460938 22.289062 19.683594 C 22.460938 19.785156 22.585938 19.949219 22.640625 20.140625 L 25.515625 30.1875 C 25.570312 30.375 25.742188 30.503906 25.9375 30.507812 C 26.066406 30.511719 26.1875 30.453125 26.265625 30.351562 C 26.347656 30.253906 26.386719 30.125 26.367188 30 L 24.28125 16.84375 L 18.695312 12.65625 C 18.558594 12.554688 18.394531 12.5 18.226562 12.5 L 12.320312 12.5 C 11.65625 12.503906 11.027344 12.789062 10.585938 13.28125 L 5.320312 19.054688 C 5.074219 19.328125 5.097656 19.746094 5.371094 19.992188 C 5.449219 20.0625 5.546875 20.113281 5.648438 20.140625 C 5.871094 20.191406 6.105469 20.125 6.273438 19.96875 L 11.164062 15.070312 C 11.3125 14.925781 11.511719 14.84375 11.71875 14.84375 L 14.0625 14.84375 C 14.351562 14.84375 14.613281 15.003906 14.75 15.257812 C 14.878906 15.507812 14.863281 15.804688 14.710938 16.039062 L 10.09375 22.96875 L 4.351562 43.546875 C 4.304688 43.785156 4.363281 44.03125 4.515625 44.21875 C 4.828125 44.570312 5.367188 44.597656 5.71875 44.285156 C 5.804688 44.207031 5.875 44.113281 5.921875 44.007812 L 11.789062 30.929688 C 11.894531 30.695312 12.109375 30.53125 12.359375 30.484375 Z M 12.5 30.46875 "/>
<path style=" stroke:none;fill-rule:nonzero;fill:rgb(93.72549%,78.431373%,55.686275%);fill-opacity:1;" d="M 25 44.53125 L 46.09375 44.53125 L 39.335938 32.859375 C 38.734375 31.832031 37.410156 31.488281 36.382812 32.09375 C 36.066406 32.277344 35.804688 32.542969 35.617188 32.859375 L 32.8125 36.71875 L 31.195312 36.71875 C 28.125 36.71875 27.34375 37.5 26.5625 39.84375 Z M 25 44.53125 "/>
<path style=" stroke:none;fill-rule:nonzero;fill:rgb(55.294118%,42.352941%,62.352941%);fill-opacity:1;" d="M 46.09375 45.3125 L 25 45.3125 C 24.75 45.3125 24.511719 45.1875 24.367188 44.984375 C 24.21875 44.78125 24.179688 44.519531 24.257812 44.28125 L 25.820312 39.59375 C 26.734375 35.9375 29.75 35.9375 31.195312 35.9375 L 32.414062 35.9375 L 34.984375 32.367188 C 35.519531 31.496094 36.476562 30.976562 37.5 31 C 38.539062 31.003906 39.5 31.558594 40.015625 32.460938 L 46.78125 44.179688 C 46.921875 44.421875 46.921875 44.71875 46.78125 44.960938 C 46.628906 45.191406 46.367188 45.324219 46.09375 45.3125 Z M 26.085938 43.75 L 44.742188 43.75 L 38.65625 33.25 C 38.421875 32.832031 37.980469 32.570312 37.5 32.5625 C 37.015625 32.558594 36.570312 32.8125 36.320312 33.226562 L 33.476562 37.132812 C 33.332031 37.363281 33.082031 37.5 32.8125 37.5 L 31.195312 37.5 C 29.421875 37.5 27.90625 37.6875 27.289062 40.03125 Z M 26.085938 43.75 "/>
<path style=" stroke:none;fill-rule:nonzero;fill:rgb(55.294118%,42.352941%,62.352941%);fill-opacity:1;" d="M 34.375 35.15625 C 34.25 35.152344 34.128906 35.125 34.015625 35.070312 L 26.6875 31.25 C 26.304688 31.054688 26.152344 30.585938 26.34375 30.203125 C 26.539062 29.816406 27.007812 29.664062 27.394531 29.855469 C 27.394531 29.855469 27.398438 29.859375 27.398438 29.859375 L 34.742188 33.632812 C 35.164062 33.734375 35.421875 34.15625 35.320312 34.578125 C 35.21875 35 34.796875 35.257812 34.375 35.15625 Z M 24.21875 29.90625 C 24.097656 29.910156 23.976562 29.878906 23.867188 29.820312 L 6.679688 21.007812 C 6.296875 20.808594 6.144531 20.335938 6.34375 19.953125 C 6.542969 19.570312 7.015625 19.417969 7.398438 19.617188 L 24.585938 28.429688 C 24.96875 28.628906 25.121094 29.097656 24.921875 29.480469 C 24.921875 29.484375 24.921875 29.484375 24.921875 29.484375 C 24.785156 29.746094 24.515625 29.910156 24.21875 29.90625 Z M 31.25 42.1875 C 30.820312 42.1875 30.46875 41.835938 30.46875 41.40625 L 30.46875 39.84375 C 30.46875 39.414062 30.820312 39.0625 31.25 39.0625 C 31.679688 39.0625 32.03125 39.414062 32.03125 39.84375 L 32.03125 41.40625 C 32.03125 41.835938 31.679688 42.1875 31.25 42.1875 Z M 35.15625 42.1875 C 34.726562 42.1875 34.375 41.835938 34.375 41.40625 L 34.375 39.84375 C 34.375 39.414062 34.726562 39.0625 35.15625 39.0625 C 35.585938 39.0625 35.9375 39.414062 35.9375 39.84375 L 35.9375 41.40625 C 35.9375 41.835938 35.585938 42.1875 35.15625 42.1875 Z M 39.0625 42.1875 C 38.632812 42.1875 38.28125 41.835938 38.28125 41.40625 L 38.28125 39.84375 C 38.28125 39.414062 38.632812 39.0625 39.0625 39.0625 C 39.492188 39.0625 39.84375 39.414062 39.84375 39.84375 L 39.84375 41.40625 C 39.84375 41.835938 39.492188 42.1875 39.0625 42.1875 Z M 39.0625 42.1875 "/>
</g>
</svg>
