<?xml version="1.0" encoding="UTF-8"?>
<svg xmlns="http://www.w3.org/2000/svg" xmlns:xlink="http://www.w3.org/1999/xlink" width="50px" height="50px" viewBox="0 0 50 50" version="1.1">
<g id="surface168139">
<path style=" stroke:none;fill-rule:nonzero;fill:rgb(98.039216%,93.72549%,87.058824%);fill-opacity:1;" d="M 42.96875 46.09375 L 5.46875 46.09375 L 5.46875 26.773438 L 25.78125 17.96875 L 25.78125 10.9375 L 42.96875 21.539062 Z M 42.96875 46.09375 "/>
<path style=" stroke:none;fill-rule:nonzero;fill:rgb(93.72549%,84.705882%,74.509804%);fill-opacity:1;" d="M 7.8125 42.1875 L 40.625 42.1875 C 41.917969 42.1875 42.96875 43.238281 42.96875 44.53125 L 42.96875 46.09375 L 5.46875 46.09375 L 5.46875 44.53125 C 5.46875 43.238281 6.519531 42.1875 7.8125 42.1875 Z M 7.8125 42.1875 "/>
<path style=" stroke:none;fill-rule:nonzero;fill:rgb(80.392157%,63.137255%,65.490196%);fill-opacity:1;" d="M 25 32.03125 L 31.25 32.03125 C 31.679688 32.03125 32.03125 32.382812 32.03125 32.8125 L 32.03125 45.3125 C 32.03125 45.742188 31.679688 46.09375 31.25 46.09375 L 25 46.09375 C 24.570312 46.09375 24.21875 45.742188 24.21875 45.3125 L 24.21875 32.8125 C 24.21875 32.382812 24.570312 32.03125 25 32.03125 Z M 25 32.03125 "/>
<path style=" stroke:none;fill-rule:nonzero;fill:rgb(77.254902%,89.411765%,98.039216%);fill-opacity:1;" d="M 9.375 32.03125 L 20.3125 32.03125 C 20.742188 32.03125 21.09375 32.382812 21.09375 32.8125 L 21.09375 37.5 C 21.09375 37.929688 20.742188 38.28125 20.3125 38.28125 L 9.375 38.28125 C 8.945312 38.28125 8.59375 37.929688 8.59375 37.5 L 8.59375 32.8125 C 8.59375 32.382812 8.945312 32.03125 9.375 32.03125 Z M 9.375 32.03125 "/>
<path style=" stroke:none;fill-rule:nonzero;fill:rgb(77.254902%,89.411765%,98.039216%);fill-opacity:1;" d="M 35.9375 32.03125 L 42.1875 32.03125 C 42.617188 32.03125 42.96875 32.382812 42.96875 32.8125 L 42.96875 37.5 C 42.96875 37.929688 42.617188 38.28125 42.1875 38.28125 L 35.9375 38.28125 C 35.507812 38.28125 35.15625 37.929688 35.15625 37.5 L 35.15625 32.8125 C 35.15625 32.382812 35.507812 32.03125 35.9375 32.03125 Z M 35.9375 32.03125 "/>
<path style=" stroke:none;fill-rule:nonzero;fill:rgb(77.254902%,89.411765%,98.039216%);fill-opacity:1;" d="M 28.125 21.875 C 26.832031 21.875 25.78125 22.925781 25.78125 24.21875 C 25.78125 25.511719 26.832031 26.5625 28.125 26.5625 C 29.417969 26.5625 30.46875 25.511719 30.46875 24.21875 C 30.46875 22.925781 29.417969 21.875 28.125 21.875 Z M 28.125 21.875 "/>
<path style=" stroke:none;fill-rule:nonzero;fill:rgb(97.647059%,86.666667%,56.078431%);fill-opacity:1;" d="M 41.40625 15.625 L 41.40625 7.03125 L 36.71875 7.03125 L 36.71875 12.5 "/>
<path style=" stroke:none;fill-rule:nonzero;fill:rgb(80.392157%,63.137255%,65.490196%);fill-opacity:1;" d="M 24.59375 10.382812 L 44.90625 22.71875 C 45.148438 22.867188 45.449219 22.871094 45.695312 22.730469 C 45.945312 22.59375 46.09375 22.328125 46.09375 22.046875 L 46.09375 19.1875 C 46.09375 18.917969 45.949219 18.664062 45.71875 18.523438 L 25.40625 6.1875 C 25.164062 6.039062 24.863281 6.035156 24.617188 6.175781 C 24.367188 6.3125 24.21875 6.578125 24.21875 6.859375 L 24.21875 9.71875 C 24.21875 9.988281 24.363281 10.242188 24.59375 10.382812 Z M 25.78125 17.453125 L 25.78125 14.46875 C 25.78125 14.203125 25.648438 13.957031 25.429688 13.8125 C 25.207031 13.667969 24.929688 13.644531 24.6875 13.75 L 2.8125 23.234375 C 2.527344 23.359375 2.34375 23.640625 2.34375 23.953125 L 2.34375 26.9375 C 2.34375 27.203125 2.476562 27.449219 2.695312 27.59375 C 2.917969 27.738281 3.195312 27.761719 3.4375 27.65625 L 25.3125 18.179688 C 25.601562 18.054688 25.785156 17.769531 25.78125 17.453125 Z M 25.78125 17.453125 "/>
<path style=" stroke:none;fill-rule:nonzero;fill:rgb(55.294118%,42.352941%,62.352941%);fill-opacity:1;" d="M 12.5 40.625 C 12.070312 40.625 11.71875 40.976562 11.71875 41.40625 L 11.71875 42.96875 C 11.71875 43.398438 12.070312 43.75 12.5 43.75 C 12.929688 43.75 13.28125 43.398438 13.28125 42.96875 L 13.28125 41.40625 C 13.28125 40.976562 12.929688 40.625 12.5 40.625 Z M 8.59375 40.625 C 8.164062 40.625 7.8125 40.976562 7.8125 41.40625 L 7.8125 42.96875 C 7.8125 43.398438 8.164062 43.75 8.59375 43.75 C 9.023438 43.75 9.375 43.398438 9.375 42.96875 L 9.375 41.40625 C 9.375 40.976562 9.023438 40.625 8.59375 40.625 Z M 20.3125 40.625 C 19.882812 40.625 19.53125 40.976562 19.53125 41.40625 L 19.53125 42.96875 C 19.53125 43.398438 19.882812 43.75 20.3125 43.75 C 20.742188 43.75 21.09375 43.398438 21.09375 42.96875 L 21.09375 41.40625 C 21.09375 40.976562 20.742188 40.625 20.3125 40.625 Z M 28.90625 37.5 C 28.476562 37.5 28.125 37.851562 28.125 38.28125 L 28.125 39.84375 C 28.125 40.273438 28.476562 40.625 28.90625 40.625 C 29.335938 40.625 29.6875 40.273438 29.6875 39.84375 L 29.6875 38.28125 C 29.6875 37.851562 29.335938 37.5 28.90625 37.5 Z M 16.40625 40.625 C 15.976562 40.625 15.625 40.976562 15.625 41.40625 L 15.625 42.96875 C 15.625 43.398438 15.976562 43.75 16.40625 43.75 C 16.835938 43.75 17.1875 43.398438 17.1875 42.96875 L 17.1875 41.40625 C 17.1875 40.976562 16.835938 40.625 16.40625 40.625 Z M 35.9375 40.625 C 35.507812 40.625 35.15625 40.976562 35.15625 41.40625 L 35.15625 42.96875 C 35.15625 43.398438 35.507812 43.75 35.9375 43.75 C 36.367188 43.75 36.71875 43.398438 36.71875 42.96875 L 36.71875 41.40625 C 36.71875 40.976562 36.367188 40.625 35.9375 40.625 Z M 39.84375 40.625 C 39.414062 40.625 39.0625 40.976562 39.0625 41.40625 L 39.0625 42.96875 C 39.0625 43.398438 39.414062 43.75 39.84375 43.75 C 40.273438 43.75 40.625 43.398438 40.625 42.96875 L 40.625 41.40625 C 40.625 40.976562 40.273438 40.625 39.84375 40.625 Z M 20.3125 31.25 L 9.375 31.25 C 8.511719 31.25 7.8125 31.949219 7.8125 32.8125 L 7.8125 37.5 C 7.8125 38.363281 8.511719 39.0625 9.375 39.0625 L 20.3125 39.0625 C 21.175781 39.0625 21.875 38.363281 21.875 37.5 L 21.875 32.8125 C 21.875 31.949219 21.175781 31.25 20.3125 31.25 Z M 9.375 37.5 L 9.375 32.8125 L 20.3125 32.8125 L 20.3125 37.5 Z M 9.375 37.5 "/>
<path style=" stroke:none;fill-rule:nonzero;fill:rgb(55.294118%,42.352941%,62.352941%);fill-opacity:1;" d="M 43.75 32.8125 L 43.75 22.929688 L 44.53125 23.382812 C 45.011719 23.660156 45.605469 23.660156 46.085938 23.386719 C 46.570312 23.113281 46.867188 22.601562 46.875 22.046875 L 46.875 19.1875 C 46.867188 18.636719 46.570312 18.128906 46.09375 17.851562 L 42.1875 15.460938 L 42.1875 7.8125 L 42.96875 7.8125 C 43.398438 7.8125 43.75 7.460938 43.75 7.03125 C 43.75 6.601562 43.398438 6.25 42.96875 6.25 L 35.15625 6.25 C 34.726562 6.25 34.375 6.601562 34.375 7.03125 C 34.375 7.460938 34.726562 7.8125 35.15625 7.8125 L 35.9375 7.8125 L 35.9375 11.671875 L 25.78125 5.523438 C 25.300781 5.246094 24.707031 5.246094 24.226562 5.519531 C 23.742188 5.792969 23.445312 6.304688 23.4375 6.859375 L 23.4375 9.71875 C 23.445312 10.269531 23.742188 10.777344 24.21875 11.054688 L 25 11.5625 C 24.996094 11.613281 24.996094 11.667969 25 11.71875 L 25 12.921875 C 24.789062 12.917969 24.578125 12.957031 24.382812 13.039062 L 15.625 16.828125 L 15.625 14.84375 C 15.625 14.414062 15.273438 14.0625 14.84375 14.0625 C 14.414062 14.0625 14.0625 14.414062 14.0625 14.84375 L 14.0625 17.507812 L 12.5 18.1875 L 12.5 10.15625 C 12.5 9.726562 12.148438 9.375 11.71875 9.375 C 11.289062 9.375 10.9375 9.726562 10.9375 10.15625 L 10.9375 18.75 C 10.933594 18.785156 10.933594 18.816406 10.9375 18.851562 L 2.507812 22.515625 C 1.933594 22.761719 1.5625 23.328125 1.5625 23.953125 L 1.5625 26.9375 C 1.5625 27.464844 1.824219 27.953125 2.265625 28.242188 C 2.703125 28.535156 3.257812 28.582031 3.742188 28.375 L 4.6875 27.960938 L 4.6875 45.3125 L 2.34375 45.3125 C 1.914062 45.3125 1.5625 45.664062 1.5625 46.09375 C 1.5625 46.523438 1.914062 46.875 2.34375 46.875 L 46.09375 46.875 C 46.523438 46.875 46.875 46.523438 46.875 46.09375 C 46.875 45.664062 46.523438 45.3125 46.09375 45.3125 L 43.75 45.3125 Z M 42.1875 37.5 L 35.9375 37.5 L 35.9375 32.8125 L 42.1875 32.8125 Z M 37.5 12.5 L 37.5 7.8125 L 40.625 7.8125 L 40.625 14.515625 L 37.5 12.601562 C 37.503906 12.566406 37.503906 12.535156 37.5 12.5 Z M 25 6.859375 L 45.3125 19.1875 L 45.3125 22.046875 L 25 9.71875 Z M 3.125 26.9375 L 3.125 23.953125 L 25 14.46875 L 25 17.453125 Z M 25 45.3125 L 25 32.8125 L 31.25 32.8125 L 31.25 45.3125 Z M 32.8125 45.3125 L 32.8125 32.8125 C 32.8125 31.949219 32.113281 31.25 31.25 31.25 L 25 31.25 C 24.136719 31.25 23.4375 31.949219 23.4375 32.8125 L 23.4375 45.3125 L 6.25 45.3125 L 6.25 27.34375 C 6.25 27.34375 6.25 27.34375 6.25 27.289062 L 25.617188 18.890625 C 26.191406 18.644531 26.5625 18.078125 26.5625 17.453125 L 26.5625 12.5 L 42.1875 21.976562 L 42.1875 31.25 L 35.9375 31.25 C 35.074219 31.25 34.375 31.949219 34.375 32.8125 L 34.375 37.5 C 34.375 38.363281 35.074219 39.0625 35.9375 39.0625 L 42.1875 39.0625 L 42.1875 45.3125 Z M 32.8125 45.3125 "/>
<path style=" stroke:none;fill-rule:nonzero;fill:rgb(55.294118%,42.352941%,62.352941%);fill-opacity:1;" d="M 28.125 21.09375 C 26.398438 21.09375 25 22.492188 25 24.21875 C 25 25.945312 26.398438 27.34375 28.125 27.34375 C 29.851562 27.34375 31.25 25.945312 31.25 24.21875 C 31.25 22.492188 29.851562 21.09375 28.125 21.09375 Z M 28.125 25.78125 C 27.261719 25.78125 26.5625 25.082031 26.5625 24.21875 C 26.5625 23.355469 27.261719 22.65625 28.125 22.65625 C 28.988281 22.65625 29.6875 23.355469 29.6875 24.21875 C 29.6875 25.082031 28.988281 25.78125 28.125 25.78125 Z M 28.125 25.78125 "/>
</g>
</svg>
