<?xml version="1.0" encoding="UTF-8"?>
<svg xmlns="http://www.w3.org/2000/svg" xmlns:xlink="http://www.w3.org/1999/xlink" width="50px" height="50px" viewBox="0 0 50 50" version="1.1">
<g id="surface167078">
<path style=" stroke:none;fill-rule:nonzero;fill:rgb(98.039216%,93.72549%,87.058824%);fill-opacity:1;" d="M 42.96875 22.65625 L 24.21875 7.03125 L 5.46875 22.65625 L 5.46875 44.53125 L 42.96875 44.53125 Z M 42.96875 22.65625 "/>
<path style=" stroke:none;fill-rule:nonzero;fill:rgb(92.941176%,47.058824%,60%);fill-opacity:1;" d="M 24.21875 5.46875 L 2.34375 23.4375 L 2.34375 26.46875 C 2.347656 26.769531 2.519531 27.042969 2.792969 27.171875 C 3.0625 27.296875 3.382812 27.257812 3.617188 27.070312 L 24.21875 10.15625 L 44.820312 27.078125 C 45.054688 27.269531 45.378906 27.304688 45.648438 27.175781 C 45.921875 27.046875 46.09375 26.769531 46.09375 26.46875 L 46.09375 23.4375 Z M 24.21875 5.46875 "/>
<path style=" stroke:none;fill-rule:nonzero;fill:rgb(97.647059%,86.666667%,56.078431%);fill-opacity:1;" d="M 5.46875 32.03125 L 27.34375 32.03125 L 27.34375 44.53125 L 5.46875 44.53125 Z M 5.46875 32.03125 "/>
<path style=" stroke:none;fill-rule:nonzero;fill:rgb(73.333333%,87.058824%,97.647059%);fill-opacity:1;" d="M 27.34375 32.03125 L 42.96875 32.03125 L 42.96875 44.53125 L 27.34375 44.53125 Z M 27.34375 32.03125 "/>
<path style=" stroke:none;fill-rule:nonzero;fill:rgb(55.294118%,42.352941%,62.352941%);fill-opacity:1;" d="M 44.320312 27.679688 C 44.789062 28.0625 45.433594 28.144531 45.980469 27.882812 C 46.527344 27.625 46.875 27.074219 46.875 26.46875 L 46.875 24.179688 C 46.875 23.476562 46.558594 22.8125 46.015625 22.367188 L 25.703125 5.679688 C 24.839844 4.96875 23.589844 4.96875 22.726562 5.679688 L 2.421875 22.367188 C 1.878906 22.8125 1.5625 23.476562 1.5625 24.179688 L 1.5625 26.476562 C 1.5625 27.082031 1.914062 27.632812 2.460938 27.890625 C 3.007812 28.148438 3.652344 28.070312 4.117188 27.6875 L 4.6875 27.21875 L 4.6875 43.75 L 2.34375 43.75 C 1.914062 43.75 1.5625 44.101562 1.5625 44.53125 C 1.5625 44.960938 1.914062 45.3125 2.34375 45.3125 L 46.09375 45.3125 C 46.523438 45.3125 46.875 44.960938 46.875 44.53125 C 46.875 44.101562 46.523438 43.75 46.09375 43.75 L 43.75 43.75 L 43.75 27.210938 Z M 3.125 26.46875 L 3.125 24.179688 C 3.125 23.945312 3.234375 23.726562 3.414062 23.578125 L 23.726562 6.890625 C 24.015625 6.652344 24.429688 6.652344 24.71875 6.890625 L 45.03125 23.578125 C 45.210938 23.726562 45.320312 23.945312 45.320312 24.179688 L 45.320312 26.476562 L 25.210938 9.960938 C 24.632812 9.488281 23.804688 9.488281 23.226562 9.960938 Z M 13.085938 20.3125 L 15.671875 18.1875 C 15.765625 18.515625 16.066406 18.742188 16.40625 18.75 C 16.835938 18.75 17.1875 18.398438 17.1875 17.96875 L 17.1875 17.1875 C 17.183594 17.117188 17.171875 17.042969 17.148438 16.976562 L 24.21875 11.164062 L 31.289062 16.976562 C 31.265625 17.042969 31.253906 17.117188 31.25 17.1875 L 31.25 17.96875 C 31.25 18.398438 31.601562 18.75 32.03125 18.75 C 32.371094 18.742188 32.671875 18.515625 32.765625 18.1875 L 35.351562 20.3125 Z M 11.1875 21.875 L 15.625 21.875 L 15.625 28.90625 C 15.625 29.335938 15.976562 29.6875 16.40625 29.6875 C 16.835938 29.6875 17.1875 29.335938 17.1875 28.90625 L 17.1875 21.875 L 32.8125 21.875 L 32.8125 31.25 L 6.25 31.25 L 6.25 25.929688 Z M 6.25 32.8125 L 26.5625 32.8125 L 26.5625 43.75 L 6.25 43.75 Z M 37.5 43.75 L 37.5 35.15625 C 37.5 34.726562 37.148438 34.375 36.71875 34.375 C 36.289062 34.375 35.9375 34.726562 35.9375 35.15625 L 35.9375 43.75 L 28.125 43.75 L 28.125 32.8125 L 42.1875 32.8125 L 42.1875 43.75 Z M 42.1875 31.25 L 34.375 31.25 L 34.375 21.875 L 37.257812 21.875 L 42.1875 25.929688 Z M 42.1875 31.25 "/>
<path style=" stroke:none;fill-rule:nonzero;fill:rgb(55.294118%,42.352941%,62.352941%);fill-opacity:1;" d="M 12.5 39.0625 C 12.070312 39.0625 11.71875 39.414062 11.71875 39.84375 L 11.71875 41.40625 C 11.71875 41.835938 12.070312 42.1875 12.5 42.1875 C 12.929688 42.1875 13.28125 41.835938 13.28125 41.40625 L 13.28125 39.84375 C 13.28125 39.414062 12.929688 39.0625 12.5 39.0625 Z M 8.59375 39.0625 C 8.164062 39.0625 7.8125 39.414062 7.8125 39.84375 L 7.8125 41.40625 C 7.8125 41.835938 8.164062 42.1875 8.59375 42.1875 C 9.023438 42.1875 9.375 41.835938 9.375 41.40625 L 9.375 39.84375 C 9.375 39.414062 9.023438 39.0625 8.59375 39.0625 Z M 20.3125 39.0625 C 19.882812 39.0625 19.53125 39.414062 19.53125 39.84375 L 19.53125 41.40625 C 19.53125 41.835938 19.882812 42.1875 20.3125 42.1875 C 20.742188 42.1875 21.09375 41.835938 21.09375 41.40625 L 21.09375 39.84375 C 21.09375 39.414062 20.742188 39.0625 20.3125 39.0625 Z M 24.21875 39.0625 C 23.789062 39.0625 23.4375 39.414062 23.4375 39.84375 L 23.4375 41.40625 C 23.4375 41.835938 23.789062 42.1875 24.21875 42.1875 C 24.648438 42.1875 25 41.835938 25 41.40625 L 25 39.84375 C 25 39.414062 24.648438 39.0625 24.21875 39.0625 Z M 16.40625 39.0625 C 15.976562 39.0625 15.625 39.414062 15.625 39.84375 L 15.625 41.40625 C 15.625 41.835938 15.976562 42.1875 16.40625 42.1875 C 16.835938 42.1875 17.1875 41.835938 17.1875 41.40625 L 17.1875 39.84375 C 17.1875 39.414062 16.835938 39.0625 16.40625 39.0625 Z M 20.3125 15.625 C 19.882812 15.625 19.53125 15.976562 19.53125 16.40625 L 19.53125 17.96875 C 19.53125 18.398438 19.882812 18.75 20.3125 18.75 C 20.742188 18.75 21.09375 18.398438 21.09375 17.96875 L 21.09375 16.40625 C 21.09375 15.976562 20.742188 15.625 20.3125 15.625 Z M 24.21875 15.625 C 23.789062 15.625 23.4375 15.976562 23.4375 16.40625 L 23.4375 17.96875 C 23.4375 18.398438 23.789062 18.75 24.21875 18.75 C 24.648438 18.75 25 18.398438 25 17.96875 L 25 16.40625 C 25 15.976562 24.648438 15.625 24.21875 15.625 Z M 28.125 15.625 C 27.695312 15.625 27.34375 15.976562 27.34375 16.40625 L 27.34375 17.96875 C 27.34375 18.398438 27.695312 18.75 28.125 18.75 C 28.554688 18.75 28.90625 18.398438 28.90625 17.96875 L 28.90625 16.40625 C 28.90625 15.976562 28.554688 15.625 28.125 15.625 Z M 28.125 15.625 "/>
</g>
</svg>
