<?xml version="1.0" encoding="UTF-8"?>
<svg xmlns="http://www.w3.org/2000/svg" xmlns:xlink="http://www.w3.org/1999/xlink" width="50px" height="50px" viewBox="0 0 50 50" version="1.1">
<g id="surface168808">
<path style=" stroke:none;fill-rule:nonzero;fill:rgb(67.45098%,71.764706%,81.568627%);fill-opacity:1;" d="M 35.15625 47.65625 L 14.84375 47.65625 L 17.1875 44.53125 L 32.8125 44.53125 Z M 35.15625 47.65625 "/>
<path style=" stroke:none;fill-rule:nonzero;fill:rgb(62.745098%,68.235294%,79.607843%);fill-opacity:1;" d="M 21.09375 39.84375 L 28.90625 39.84375 L 28.90625 44.53125 L 21.09375 44.53125 Z M 21.09375 39.84375 "/>
<path style=" stroke:none;fill-rule:nonzero;fill:rgb(76.078431%,80.392157%,90.588235%);fill-opacity:1;" d="M 47.65625 39.84375 L 2.34375 39.84375 C 1.480469 39.84375 0.78125 39.144531 0.78125 38.28125 L 0.78125 7.03125 C 0.78125 6.167969 1.480469 5.46875 2.34375 5.46875 L 47.65625 5.46875 C 48.519531 5.46875 49.21875 6.167969 49.21875 7.03125 L 49.21875 38.28125 C 49.21875 39.144531 48.519531 39.84375 47.65625 39.84375 Z M 47.65625 39.84375 "/>
<path style=" stroke:none;fill-rule:nonzero;fill:rgb(81.176471%,85.098039%,92.941176%);fill-opacity:1;" d="M 0.78125 35.15625 L 49.21875 35.15625 L 49.21875 37.5 L 0.78125 37.5 Z M 0.78125 35.15625 "/>
<path style=" stroke:none;fill-rule:nonzero;fill:rgb(77.254902%,89.411765%,98.039216%);fill-opacity:1;" d="M 0.78125 8.59375 L 49.21875 8.59375 L 49.21875 35.15625 L 0.78125 35.15625 Z M 0.78125 8.59375 "/>
<path style=" stroke:none;fill-rule:nonzero;fill:rgb(89.019608%,94.901961%,100%);fill-opacity:1;" d="M 35.882812 35.15625 L 49.191406 21.847656 L 49.164062 9.320312 L 23.324219 35.15625 Z M 14.957031 35.15625 L 19.976562 35.15625 L 46.539062 8.59375 L 41.519531 8.59375 Z M 11.605469 35.15625 L 38.167969 8.59375 L 33.984375 8.59375 L 7.421875 35.15625 Z M 11.605469 35.15625 "/>
<path style=" stroke:none;fill-rule:nonzero;fill:rgb(100%,97.254902%,97.254902%);fill-opacity:1;" d="M 7.421875 12.496094 L 8.390625 14.265625 L 10.160156 15.234375 L 8.390625 16.199219 L 7.421875 17.96875 L 6.457031 16.199219 L 4.6875 15.234375 L 6.457031 14.265625 Z M 44.078125 18.875 L 44.746094 20.097656 L 45.96875 20.765625 L 44.746094 21.433594 L 44.078125 22.65625 L 43.410156 21.433594 L 42.1875 20.765625 L 43.410156 20.097656 Z M 25.507812 28.675781 L 25.960938 29.507812 L 26.792969 29.960938 L 25.960938 30.417969 L 25.507812 31.25 L 25.050781 30.417969 L 24.21875 29.960938 L 25.050781 29.507812 Z M 25.507812 28.675781 "/>
<path style=" stroke:none;fill-rule:nonzero;fill:rgb(54.509804%,55.686275%,59.607843%);fill-opacity:1;" d="M 35.9375 30.46875 L 14.0625 30.46875 C 13.632812 30.46875 13.28125 30.117188 13.28125 29.6875 L 13.28125 15.625 C 13.28125 14.332031 14.332031 13.28125 15.625 13.28125 L 34.375 13.28125 C 35.667969 13.28125 36.71875 14.332031 36.71875 15.625 L 36.71875 29.6875 C 36.71875 30.117188 36.367188 30.46875 35.9375 30.46875 Z M 35.9375 30.46875 "/>
<path style=" stroke:none;fill-rule:nonzero;fill:rgb(100%,97.254902%,97.254902%);fill-opacity:1;" d="M 10.429688 27.894531 L 10.886719 28.726562 L 11.71875 29.179688 L 10.886719 29.636719 L 10.429688 30.46875 L 9.976562 29.636719 L 9.144531 29.179688 L 9.976562 28.726562 Z M 10.429688 27.894531 "/>
<path style=" stroke:none;fill-rule:nonzero;fill:rgb(67.45098%,71.764706%,81.568627%);fill-opacity:1;" d="M 36.71875 16.40625 L 13.28125 16.40625 L 13.28125 15.460938 C 13.28125 14.257812 14.257812 13.28125 15.460938 13.28125 L 34.539062 13.28125 C 35.742188 13.28125 36.71875 14.257812 36.71875 15.460938 Z M 36.71875 16.40625 "/>
<path style=" stroke:none;fill-rule:nonzero;fill:rgb(55.294118%,42.352941%,62.352941%);fill-opacity:1;" d="M 47.65625 4.6875 L 2.34375 4.6875 C 1.050781 4.6875 0 5.738281 0 7.03125 L 0 38.28125 C 0 39.574219 1.050781 40.625 2.34375 40.625 L 20.3125 40.625 L 20.3125 43.75 L 18.480469 43.75 C 17.4375 43.75 16.457031 44.15625 15.71875 44.894531 L 13.511719 47.105469 C 13.285156 47.328125 13.21875 47.664062 13.339844 47.957031 C 13.460938 48.246094 13.746094 48.4375 14.0625 48.4375 L 35.9375 48.4375 C 36.253906 48.4375 36.539062 48.246094 36.660156 47.957031 C 36.78125 47.664062 36.714844 47.328125 36.488281 47.105469 L 34.28125 44.894531 C 33.542969 44.15625 32.5625 43.75 31.519531 43.75 L 29.6875 43.75 L 29.6875 40.625 L 47.65625 40.625 C 48.949219 40.625 50 39.574219 50 38.28125 L 50 7.03125 C 50 5.738281 48.949219 4.6875 47.65625 4.6875 Z M 31.519531 45.3125 C 32.136719 45.3125 32.738281 45.5625 33.175781 46 L 34.050781 46.875 L 15.949219 46.875 L 16.824219 46 C 17.261719 45.5625 17.863281 45.3125 18.480469 45.3125 Z M 28.125 43.75 L 21.875 43.75 L 21.875 40.625 L 28.125 40.625 Z M 47.65625 39.0625 L 2.34375 39.0625 C 1.914062 39.0625 1.5625 38.710938 1.5625 38.28125 L 1.5625 35.9375 L 30.535156 35.9375 C 30.964844 35.9375 31.316406 35.585938 31.316406 35.15625 C 31.316406 34.726562 30.964844 34.375 30.535156 34.375 L 1.5625 34.375 L 1.5625 9.375 L 39.84375 9.375 C 40.273438 9.375 40.625 9.023438 40.625 8.59375 C 40.625 8.164062 40.273438 7.8125 39.84375 7.8125 L 1.5625 7.8125 L 1.5625 7.03125 C 1.5625 6.601562 1.914062 6.25 2.34375 6.25 L 47.65625 6.25 C 48.085938 6.25 48.4375 6.601562 48.4375 7.03125 L 48.4375 34.375 L 46.09375 34.375 C 45.664062 34.375 45.3125 34.726562 45.3125 35.15625 C 45.3125 35.585938 45.664062 35.9375 46.09375 35.9375 L 48.4375 35.9375 L 48.4375 38.28125 C 48.4375 38.710938 48.085938 39.0625 47.65625 39.0625 Z M 47.65625 39.0625 "/>
<path style=" stroke:none;fill-rule:nonzero;fill:rgb(98.823529%,42.745098%,45.490196%);fill-opacity:1;" d="M 34.375 33.59375 C 33.945312 33.59375 33.59375 33.945312 33.59375 34.375 L 33.59375 35.9375 C 33.59375 36.367188 33.945312 36.71875 34.375 36.71875 C 34.804688 36.71875 35.15625 36.367188 35.15625 35.9375 L 35.15625 34.375 C 35.15625 33.945312 34.804688 33.59375 34.375 33.59375 Z M 34.375 33.59375 "/>
<path style=" stroke:none;fill-rule:nonzero;fill:rgb(20.392157%,77.647059%,58.431373%);fill-opacity:1;" d="M 38.28125 33.59375 C 37.851562 33.59375 37.5 33.945312 37.5 34.375 L 37.5 35.9375 C 37.5 36.367188 37.851562 36.71875 38.28125 36.71875 C 38.710938 36.71875 39.0625 36.367188 39.0625 35.9375 L 39.0625 34.375 C 39.0625 33.945312 38.710938 33.59375 38.28125 33.59375 Z M 38.28125 33.59375 "/>
<path style=" stroke:none;fill-rule:nonzero;fill:rgb(36.862745%,69.019608%,86.666667%);fill-opacity:1;" d="M 42.1875 33.59375 C 41.757812 33.59375 41.40625 33.945312 41.40625 34.375 L 41.40625 35.9375 C 41.40625 36.367188 41.757812 36.71875 42.1875 36.71875 C 42.617188 36.71875 42.96875 36.367188 42.96875 35.9375 L 42.96875 34.375 C 42.96875 33.945312 42.617188 33.59375 42.1875 33.59375 Z M 42.1875 33.59375 "/>
<path style=" stroke:none;fill-rule:nonzero;fill:rgb(55.294118%,42.352941%,62.352941%);fill-opacity:1;" d="M 46.875 8.59375 C 46.875 8.164062 46.523438 7.8125 46.09375 7.8125 L 42.96875 7.8125 C 42.539062 7.8125 42.1875 8.164062 42.1875 8.59375 C 42.1875 9.023438 42.539062 9.375 42.96875 9.375 L 46.09375 9.375 C 46.523438 9.375 46.875 9.023438 46.875 8.59375 Z M 37.5 15.625 C 37.5 13.902344 36.097656 12.5 34.375 12.5 L 15.625 12.5 C 13.902344 12.5 12.5 13.902344 12.5 15.625 L 12.5 29.6875 C 12.5 30.550781 13.199219 31.25 14.0625 31.25 L 35.9375 31.25 C 36.800781 31.25 37.5 30.550781 37.5 29.6875 Z M 15.625 14.0625 L 34.375 14.0625 C 35.238281 14.0625 35.9375 14.761719 35.9375 15.625 L 14.0625 15.625 C 14.0625 14.761719 14.761719 14.0625 15.625 14.0625 Z M 14.0625 29.6875 L 14.0625 17.1875 L 35.9375 17.1875 L 35.9375 29.6875 Z M 14.0625 29.6875 "/>
</g>
</svg>
