<?xml version="1.0" encoding="UTF-8"?>
<svg xmlns="http://www.w3.org/2000/svg" xmlns:xlink="http://www.w3.org/1999/xlink" width="50px" height="50px" viewBox="0 0 50 50" version="1.1">
<g id="surface164502">
<path style=" stroke:none;fill-rule:nonzero;fill:rgb(98.039216%,93.72549%,87.058824%);fill-opacity:1;" d="M 45.828125 17.1875 C 45.828125 6.832031 37.433594 0.78125 27.078125 0.78125 C 16.878906 0.78125 8.585938 7.40625 8.335938 17.5 C 8.328125 17.808594 8.277344 18.117188 8.179688 18.410156 L 3.945312 31.113281 C 3.789062 31.585938 4.109375 32.082031 4.601562 32.136719 L 6.9375 32.398438 C 7.730469 32.484375 8.328125 33.152344 8.328125 33.949219 L 8.328125 41.039062 C 8.328125 42.902344 9.945312 44.351562 11.796875 44.144531 L 19.265625 43.316406 L 18.71875 47.449219 C 18.59375 48.386719 19.324219 49.21875 20.269531 49.21875 L 40.96875 49.21875 C 41.894531 49.21875 42.617188 48.414062 42.523438 47.492188 L 41.398438 36.832031 C 41.277344 35.675781 41.476562 34.511719 41.984375 33.472656 C 44.394531 28.535156 45.828125 22.992188 45.828125 17.1875 Z M 45.828125 17.1875 "/>
<path style=" stroke:none;fill-rule:nonzero;fill:rgb(44.705882%,79.215686%,68.627451%);fill-opacity:1;" d="M 38.257812 13.304688 L 23.4375 28.125 L 17.507812 22.195312 L 14.382812 25.320312 L 23.4375 34.375 L 41.382812 16.429688 Z M 38.257812 13.304688 "/>
<path style=" stroke:none;fill-rule:nonzero;fill:rgb(59.215686%,87.843137%,73.333333%);fill-opacity:1;" d="M 23.4375 30.535156 C 22.9375 30.535156 22.4375 30.34375 22.054688 29.964844 L 15.898438 23.804688 L 17.554688 22.148438 L 23.4375 28.03125 L 38.210938 13.257812 L 39.867188 14.914062 L 24.820312 29.964844 C 24.4375 30.34375 23.9375 30.535156 23.4375 30.535156 Z M 23.4375 30.535156 "/>
<path style=" stroke:none;fill-rule:nonzero;fill:rgb(100%,96.862745%,94.117647%);fill-opacity:1;" d="M 14.585938 8.355469 C 15.382812 9.152344 16.632812 9.269531 17.5625 8.628906 C 20.105469 6.875 23.316406 5.890625 26.8125 5.890625 C 30.535156 5.890625 33.929688 6.875 36.542969 8.710938 C 37.46875 9.359375 38.726562 9.238281 39.527344 8.441406 L 39.878906 8.085938 C 40.878906 7.085938 40.792969 5.414062 39.65625 4.570312 C 36.332031 2.105469 31.917969 0.78125 27.078125 0.78125 C 22.328125 0.78125 17.992188 2.21875 14.6875 4.773438 C 13.582031 5.628906 13.507812 7.277344 14.496094 8.265625 Z M 14.585938 8.355469 "/>
<path style=" stroke:none;fill-rule:nonzero;fill:rgb(55.294118%,42.352941%,62.352941%);fill-opacity:1;" d="M 27.34375 7.03125 C 27.777344 7.03125 28.125 6.679688 28.125 6.25 L 28.125 4.6875 C 28.125 4.257812 27.777344 3.90625 27.34375 3.90625 C 26.910156 3.90625 26.5625 4.257812 26.5625 4.6875 L 26.5625 6.25 C 26.5625 6.679688 26.910156 7.03125 27.34375 7.03125 Z M 22.644531 6.972656 C 22.738281 7.320312 23.054688 7.550781 23.398438 7.550781 C 23.46875 7.550781 23.535156 7.542969 23.601562 7.523438 C 24.019531 7.410156 24.265625 6.984375 24.15625 6.566406 L 23.75 5.058594 C 23.640625 4.640625 23.210938 4.394531 22.792969 4.503906 C 22.378906 4.617188 22.128906 5.042969 22.242188 5.460938 Z M 34.570312 8.96875 C 34.691406 9.039062 34.828125 9.074219 34.960938 9.074219 C 35.230469 9.074219 35.492188 8.933594 35.636719 8.683594 L 36.417969 7.328125 C 36.632812 6.957031 36.507812 6.476562 36.132812 6.261719 C 35.757812 6.046875 35.28125 6.175781 35.066406 6.546875 L 34.285156 7.902344 C 34.066406 8.273438 34.195312 8.75 34.570312 8.96875 Z M 19.050781 8.679688 C 19.195312 8.933594 19.457031 9.070312 19.726562 9.070312 C 19.859375 9.070312 19.996094 9.039062 20.117188 8.96875 C 20.492188 8.75 20.621094 8.273438 20.402344 7.898438 L 19.621094 6.546875 C 19.40625 6.171875 18.925781 6.046875 18.554688 6.261719 C 18.179688 6.476562 18.050781 6.953125 18.269531 7.328125 Z M 31.085938 7.523438 C 31.152344 7.542969 31.21875 7.550781 31.289062 7.550781 C 31.632812 7.550781 31.949219 7.320312 32.042969 6.972656 L 32.445312 5.460938 C 32.558594 5.042969 32.308594 4.617188 31.894531 4.503906 C 31.476562 4.394531 31.046875 4.640625 30.9375 5.058594 L 30.53125 6.566406 C 30.421875 6.984375 30.667969 7.414062 31.085938 7.523438 Z M 31.085938 7.523438 "/>
<path style=" stroke:none;fill-rule:nonzero;fill:rgb(55.294118%,42.352941%,62.352941%);fill-opacity:1;" d="M 42.953125 33.8125 C 45.519531 28.558594 46.875 22.808594 46.875 17.1875 C 46.875 7.066406 38.84375 0 27.34375 0 C 16.28125 0 8.070312 7.351562 7.820312 17.480469 C 7.8125 17.726562 7.773438 17.957031 7.707031 18.164062 L 3.472656 30.867188 C 3.320312 31.316406 3.378906 31.804688 3.636719 32.203125 C 3.890625 32.601562 4.308594 32.863281 4.78125 32.914062 L 7.117188 33.175781 C 7.511719 33.21875 7.8125 33.550781 7.8125 33.949219 L 7.8125 41.039062 C 7.8125 43.339844 9.824219 45.1875 12.148438 44.921875 L 14.414062 44.671875 C 14.414062 44.671875 14.417969 44.671875 14.417969 44.671875 L 18.625 44.203125 L 18.210938 47.347656 C 18.121094 48.019531 18.324219 48.691406 18.769531 49.199219 C 19.214844 49.707031 19.859375 50 20.53125 50 L 41.234375 50 C 41.894531 50 42.53125 49.71875 42.972656 49.222656 C 43.417969 48.730469 43.632812 48.070312 43.5625 47.410156 L 42.441406 36.75 C 42.335938 35.734375 42.511719 34.71875 42.953125 33.8125 Z M 41.8125 48.179688 C 41.664062 48.34375 41.457031 48.4375 41.234375 48.4375 L 20.53125 48.4375 C 20.304688 48.4375 20.09375 48.34375 19.945312 48.171875 C 19.796875 48 19.730469 47.78125 19.757812 47.554688 L 20.226562 44.023438 L 22.742188 43.746094 C 23.171875 43.695312 23.480469 43.3125 23.433594 42.882812 C 23.386719 42.453125 23.003906 42.140625 22.570312 42.191406 L 20.4375 42.429688 L 11.976562 43.367188 C 10.574219 43.519531 9.375 42.417969 9.375 41.039062 L 9.375 33.949219 C 9.375 32.753906 8.480469 31.753906 7.289062 31.621094 L 4.953125 31.363281 L 9.1875 18.65625 C 9.304688 18.300781 9.371094 17.917969 9.382812 17.519531 C 9.609375 8.273438 17.164062 1.5625 27.34375 1.5625 C 39.757812 1.5625 45.3125 9.410156 45.3125 17.1875 C 45.3125 22.570312 44.011719 28.082031 41.550781 33.128906 C 40.980469 34.296875 40.75 35.605469 40.886719 36.910156 L 42.011719 47.574219 C 42.035156 47.796875 41.964844 48.011719 41.8125 48.179688 Z M 41.8125 48.179688 "/>
<path style=" stroke:none;fill-rule:nonzero;fill:rgb(55.294118%,42.352941%,62.352941%);fill-opacity:1;" d="M 41.957031 15.855469 L 38.832031 12.730469 C 38.527344 12.421875 38.035156 12.421875 37.730469 12.730469 L 23.4375 27.019531 L 17.738281 21.324219 C 17.433594 21.015625 16.941406 21.015625 16.636719 21.324219 L 13.511719 24.449219 C 13.203125 24.753906 13.203125 25.246094 13.511719 25.550781 L 22.886719 34.925781 C 23.039062 35.078125 23.238281 35.15625 23.4375 35.15625 C 23.636719 35.15625 23.835938 35.078125 23.988281 34.925781 L 41.957031 16.957031 C 42.265625 16.652344 42.265625 16.160156 41.957031 15.855469 Z M 23.4375 33.269531 L 15.167969 25 L 17.1875 22.980469 L 22.886719 28.675781 C 23.191406 28.984375 23.683594 28.984375 23.988281 28.675781 L 38.28125 14.386719 L 40.300781 16.40625 Z M 23.4375 33.269531 "/>
</g>
</svg>
