<?xml version="1.0" encoding="UTF-8"?>
<svg xmlns="http://www.w3.org/2000/svg" xmlns:xlink="http://www.w3.org/1999/xlink" width="50px" height="50px" viewBox="0 0 50 50" version="1.1">
<g id="surface168752">
<path style=" stroke:none;fill-rule:nonzero;fill:rgb(77.254902%,89.411765%,98.039216%);fill-opacity:1;" d="M 0.78125 10.15625 L 42.96875 10.15625 L 42.96875 41.40625 L 0.78125 41.40625 Z M 0.78125 10.15625 "/>
<path style=" stroke:none;fill-rule:nonzero;fill:rgb(89.019608%,94.901961%,100%);fill-opacity:1;" d="M 34.457031 41.40625 L 42.96875 32.894531 L 42.96875 10.9375 L 40.792969 10.9375 L 10.324219 41.40625 Z M 1.003906 41.40625 L 7.535156 41.40625 L 38.003906 10.9375 L 31.472656 10.9375 Z M 0.78125 38.839844 L 28.683594 10.9375 L 25.585938 10.9375 L 0.78125 35.742188 Z M 0.78125 38.839844 "/>
<path style=" stroke:none;fill-rule:nonzero;fill:rgb(67.45098%,71.764706%,81.568627%);fill-opacity:1;" d="M 41.40625 10.15625 L 2.34375 10.15625 C 1.480469 10.15625 0.78125 9.457031 0.78125 8.59375 L 0.78125 7.03125 C 0.78125 6.167969 1.480469 5.46875 2.34375 5.46875 L 41.40625 5.46875 C 42.269531 5.46875 42.96875 6.167969 42.96875 7.03125 L 42.96875 8.59375 C 42.96875 9.457031 42.269531 10.15625 41.40625 10.15625 Z M 41.40625 10.15625 "/>
<path style=" stroke:none;fill-rule:nonzero;fill:rgb(92.941176%,47.058824%,60%);fill-opacity:1;" d="M 47.828125 46.09375 L 27.171875 46.09375 C 26.5625 46.09375 26.1875 45.425781 26.503906 44.90625 L 36.832031 27.9375 C 37.136719 27.4375 37.863281 27.4375 38.167969 27.9375 L 48.496094 44.90625 C 48.8125 45.425781 48.4375 46.09375 47.828125 46.09375 Z M 47.828125 46.09375 "/>
<path style=" stroke:none;fill-rule:nonzero;fill:rgb(55.294118%,42.352941%,62.352941%);fill-opacity:1;" d="M 12.5 35.9375 C 12.070312 35.9375 11.71875 36.285156 11.71875 36.71875 L 11.71875 38.28125 C 11.71875 38.714844 12.070312 39.0625 12.5 39.0625 C 12.929688 39.0625 13.28125 38.714844 13.28125 38.28125 L 13.28125 36.71875 C 13.28125 36.285156 12.929688 35.9375 12.5 35.9375 Z M 8.59375 35.9375 C 8.164062 35.9375 7.8125 36.285156 7.8125 36.71875 L 7.8125 38.28125 C 7.8125 38.714844 8.164062 39.0625 8.59375 39.0625 C 9.023438 39.0625 9.375 38.714844 9.375 38.28125 L 9.375 36.71875 C 9.375 36.285156 9.023438 35.9375 8.59375 35.9375 Z M 4.6875 35.9375 C 4.257812 35.9375 3.90625 36.285156 3.90625 36.71875 L 3.90625 38.28125 C 3.90625 38.714844 4.257812 39.0625 4.6875 39.0625 C 5.117188 39.0625 5.46875 38.714844 5.46875 38.28125 L 5.46875 36.71875 C 5.46875 36.285156 5.117188 35.9375 4.6875 35.9375 Z M 16.40625 35.9375 C 15.976562 35.9375 15.625 36.285156 15.625 36.71875 L 15.625 38.28125 C 15.625 38.714844 15.976562 39.0625 16.40625 39.0625 C 16.835938 39.0625 17.1875 38.714844 17.1875 38.28125 L 17.1875 36.71875 C 17.1875 36.285156 16.835938 35.9375 16.40625 35.9375 Z M 20.3125 35.9375 C 19.882812 35.9375 19.53125 36.285156 19.53125 36.71875 L 19.53125 38.28125 C 19.53125 38.714844 19.882812 39.0625 20.3125 39.0625 C 20.742188 39.0625 21.09375 38.714844 21.09375 38.28125 L 21.09375 36.71875 C 21.09375 36.285156 20.742188 35.9375 20.3125 35.9375 Z M 24.21875 35.9375 C 23.789062 35.9375 23.4375 36.285156 23.4375 36.71875 L 23.4375 38.28125 C 23.4375 38.714844 23.789062 39.0625 24.21875 39.0625 C 24.648438 39.0625 25 38.714844 25 38.28125 L 25 36.71875 C 25 36.285156 24.648438 35.9375 24.21875 35.9375 Z M 28.125 35.9375 C 27.695312 35.9375 27.34375 36.285156 27.34375 36.71875 L 27.34375 38.28125 C 27.34375 38.714844 27.695312 39.0625 28.125 39.0625 C 28.554688 39.0625 28.90625 38.714844 28.90625 38.28125 L 28.90625 36.71875 C 28.90625 36.285156 28.554688 35.9375 28.125 35.9375 Z M 14.84375 17.1875 L 17.96875 17.1875 C 18.398438 17.1875 18.75 16.839844 18.75 16.40625 C 18.75 15.972656 18.398438 15.625 17.96875 15.625 L 14.84375 15.625 C 14.414062 15.625 14.0625 15.972656 14.0625 16.40625 C 14.0625 16.839844 14.414062 17.1875 14.84375 17.1875 Z M 33.59375 15.625 L 21.09375 15.625 C 20.664062 15.625 20.3125 15.972656 20.3125 16.40625 C 20.3125 16.839844 20.664062 17.1875 21.09375 17.1875 L 33.59375 17.1875 C 34.023438 17.1875 34.375 16.839844 34.375 16.40625 C 34.375 15.972656 34.023438 15.625 33.59375 15.625 Z M 33.59375 21.875 L 14.84375 21.875 C 14.414062 21.875 14.0625 22.222656 14.0625 22.65625 C 14.0625 23.089844 14.414062 23.4375 14.84375 23.4375 L 33.59375 23.4375 C 34.023438 23.4375 34.375 23.089844 34.375 22.65625 C 34.375 22.222656 34.023438 21.875 33.59375 21.875 Z M 28.125 28.90625 C 28.125 28.472656 27.773438 28.125 27.34375 28.125 L 14.84375 28.125 C 14.414062 28.125 14.0625 28.472656 14.0625 28.90625 C 14.0625 29.339844 14.414062 29.6875 14.84375 29.6875 L 27.34375 29.6875 C 27.773438 29.6875 28.125 29.339844 28.125 28.90625 Z M 8.042969 18.519531 C 8.195312 18.671875 8.394531 18.75 8.59375 18.75 C 8.792969 18.75 8.992188 18.671875 9.144531 18.519531 L 12.269531 15.394531 C 12.578125 15.089844 12.578125 14.597656 12.269531 14.292969 C 11.964844 13.984375 11.472656 13.984375 11.167969 14.292969 L 8.59375 16.863281 L 7.582031 15.855469 C 7.277344 15.546875 6.785156 15.546875 6.480469 15.855469 C 6.171875 16.160156 6.171875 16.652344 6.480469 16.957031 Z M 8.042969 24.769531 C 8.195312 24.921875 8.394531 25 8.59375 25 C 8.792969 25 8.992188 24.921875 9.144531 24.769531 L 12.269531 21.644531 C 12.578125 21.339844 12.578125 20.847656 12.269531 20.542969 C 11.964844 20.234375 11.472656 20.234375 11.167969 20.542969 L 8.59375 23.113281 L 7.582031 22.105469 C 7.277344 21.796875 6.785156 21.796875 6.480469 22.105469 C 6.171875 22.410156 6.171875 22.902344 6.480469 23.207031 Z M 8.59375 31.25 C 8.792969 31.25 8.992188 31.171875 9.144531 31.019531 L 12.269531 27.894531 C 12.578125 27.589844 12.578125 27.097656 12.269531 26.792969 C 11.964844 26.484375 11.472656 26.484375 11.167969 26.792969 L 8.59375 29.363281 L 7.582031 28.355469 C 7.277344 28.046875 6.785156 28.046875 6.480469 28.355469 C 6.171875 28.660156 6.171875 29.152344 6.480469 29.457031 L 8.042969 31.019531 C 8.195312 31.171875 8.394531 31.25 8.59375 31.25 Z M 8.59375 31.25 "/>
<path style=" stroke:none;fill-rule:nonzero;fill:rgb(55.294118%,42.352941%,62.352941%);fill-opacity:1;" d="M 49.164062 44.5 L 43.75 35.601562 L 43.75 7.03125 C 43.75 5.742188 42.695312 4.6875 41.40625 4.6875 L 2.34375 4.6875 C 1.054688 4.6875 0 5.742188 0 7.03125 L 0 39.84375 C 0 41.132812 1.054688 42.1875 2.34375 42.1875 L 27.242188 42.1875 L 25.835938 44.5 C 25.546875 44.984375 25.53125 45.585938 25.8125 46.078125 C 26.085938 46.570312 26.609375 46.875 27.171875 46.875 L 47.828125 46.875 C 48.390625 46.875 48.914062 46.570312 49.1875 46.078125 C 49.46875 45.585938 49.453125 44.984375 49.164062 44.5 Z M 1.5625 7.03125 C 1.5625 6.601562 1.914062 6.25 2.34375 6.25 L 41.40625 6.25 C 41.835938 6.25 42.1875 6.601562 42.1875 7.03125 L 42.1875 9.375 L 1.5625 9.375 Z M 2.34375 40.625 C 1.914062 40.625 1.5625 40.273438 1.5625 39.84375 L 1.5625 10.9375 L 42.1875 10.9375 L 42.1875 33.039062 L 38.835938 27.53125 C 38.546875 27.0625 38.046875 26.78125 37.5 26.78125 C 36.953125 26.78125 36.453125 27.0625 36.164062 27.53125 L 28.195312 40.625 Z M 27.171875 45.3125 L 29.070312 42.1875 L 30.023438 40.625 L 37.5 28.34375 L 42.1875 36.039062 L 43.75 38.601562 L 47.835938 45.3125 Z M 27.171875 45.3125 "/>
<path style=" stroke:none;fill-rule:nonzero;fill:rgb(97.647059%,93.72549%,87.058824%);fill-opacity:1;" d="M 37.53125 40.625 C 36.667969 40.625 35.96875 41.324219 35.96875 42.1875 C 35.96875 43.050781 36.667969 43.75 37.53125 43.75 C 38.394531 43.75 39.09375 43.050781 39.09375 42.1875 C 39.09375 41.324219 38.394531 40.625 37.53125 40.625 Z M 37.5 39.84375 C 37.890625 39.84375 38.222656 39.554688 38.273438 39.164062 L 39 33.652344 C 39.03125 33.234375 38.886719 32.820312 38.605469 32.511719 C 38.035156 31.898438 36.964844 31.898438 36.394531 32.511719 C 36.113281 32.820312 35.96875 33.234375 36.003906 33.695312 L 36.726562 39.164062 C 36.777344 39.554688 37.109375 39.84375 37.5 39.84375 Z M 37.5 39.84375 "/>
</g>
</svg>
