<?xml version="1.0" encoding="UTF-8"?>
<svg xmlns="http://www.w3.org/2000/svg" xmlns:xlink="http://www.w3.org/1999/xlink" width="50px" height="50px" viewBox="0 0 50 50" version="1.1">
<g id="surface169866">
<path style=" stroke:none;fill-rule:nonzero;fill:rgb(97.647059%,89.019608%,68.235294%);fill-opacity:1;" d="M 44.53125 44.53125 L 5.46875 44.53125 C 4.605469 44.53125 3.90625 43.832031 3.90625 42.96875 L 3.90625 7.03125 C 3.90625 6.167969 4.605469 5.46875 5.46875 5.46875 L 44.53125 5.46875 C 45.394531 5.46875 46.09375 6.167969 46.09375 7.03125 L 46.09375 42.96875 C 46.09375 43.832031 45.394531 44.53125 44.53125 44.53125 Z M 44.53125 44.53125 "/>
<path style=" stroke:none;fill-rule:nonzero;fill:rgb(92.941176%,47.058824%,60%);fill-opacity:1;" d="M 3.90625 5.46875 L 22.65625 5.46875 L 22.65625 27.34375 L 3.90625 27.34375 Z M 3.90625 5.46875 "/>
<path style=" stroke:none;fill-rule:nonzero;fill:rgb(36.470588%,73.72549%,61.568627%);fill-opacity:1;" d="M 22.65625 5.46875 L 46.09375 5.46875 L 46.09375 18.75 L 22.65625 18.75 Z M 22.65625 5.46875 "/>
<path style=" stroke:none;fill-rule:nonzero;fill:rgb(52.156863%,79.607843%,97.254902%);fill-opacity:1;" d="M 3.90625 27.34375 L 23.4375 27.34375 L 23.4375 44.53125 L 3.90625 44.53125 Z M 3.90625 27.34375 "/>
<path style=" stroke:none;fill-rule:nonzero;fill:rgb(43.529412%,77.647059%,94.117647%);fill-opacity:1;" d="M 22.65625 44.53125 L 3.90625 44.53125 L 3.90625 42.96875 C 3.90625 41.675781 4.957031 40.625 6.25 40.625 L 20.3125 40.625 C 21.605469 40.625 22.65625 41.675781 22.65625 42.96875 Z M 22.65625 44.53125 "/>
<path style=" stroke:none;fill-rule:nonzero;fill:rgb(96.470588%,82.745098%,59.215686%);fill-opacity:1;" d="M 46.09375 44.53125 L 22.65625 44.53125 L 22.65625 42.96875 C 22.65625 41.675781 23.707031 40.625 25 40.625 L 43.75 40.625 C 45.042969 40.625 46.09375 41.675781 46.09375 42.96875 Z M 46.09375 44.53125 "/>
<path style=" stroke:none;fill-rule:nonzero;fill:rgb(94.901961%,51.372549%,64.705882%);fill-opacity:1;" d="M 3.90625 5.46875 L 27.34375 5.46875 L 27.34375 9.375 L 3.90625 9.375 Z M 3.90625 5.46875 "/>
<path style=" stroke:none;fill-rule:nonzero;fill:rgb(44.705882%,79.215686%,68.627451%);fill-opacity:1;" d="M 22.65625 5.46875 L 46.09375 5.46875 L 46.09375 9.375 L 22.65625 9.375 Z M 22.65625 5.46875 "/>
<path style=" stroke:none;fill-rule:nonzero;fill:rgb(55.294118%,42.352941%,62.352941%);fill-opacity:1;" d="M 44.53125 4.6875 L 5.46875 4.6875 C 4.175781 4.6875 3.125 5.738281 3.125 7.03125 L 3.125 42.96875 C 3.125 44.261719 4.175781 45.3125 5.46875 45.3125 L 44.53125 45.3125 C 45.824219 45.3125 46.875 44.261719 46.875 42.96875 L 46.875 7.03125 C 46.875 5.738281 45.824219 4.6875 44.53125 4.6875 Z M 45.3125 7.03125 L 45.3125 17.1875 L 23.4375 17.1875 L 23.4375 6.25 L 44.53125 6.25 C 44.960938 6.25 45.3125 6.601562 45.3125 7.03125 Z M 5.46875 6.25 L 21.875 6.25 L 21.875 26.5625 L 4.6875 26.5625 L 4.6875 7.03125 C 4.6875 6.601562 5.039062 6.25 5.46875 6.25 Z M 4.6875 42.96875 L 4.6875 28.125 L 21.875 28.125 L 21.875 43.75 L 5.46875 43.75 C 5.039062 43.75 4.6875 43.398438 4.6875 42.96875 Z M 44.53125 43.75 L 23.4375 43.75 L 23.4375 18.75 L 45.3125 18.75 L 45.3125 42.96875 C 45.3125 43.398438 44.960938 43.75 44.53125 43.75 Z M 44.53125 43.75 "/>
<path style=" stroke:none;fill-rule:nonzero;fill:rgb(55.294118%,42.352941%,62.352941%);fill-opacity:1;" d="M 10.9375 39.0625 C 10.507812 39.0625 10.15625 39.410156 10.15625 39.84375 L 10.15625 41.40625 C 10.15625 41.839844 10.507812 42.1875 10.9375 42.1875 C 11.367188 42.1875 11.71875 41.839844 11.71875 41.40625 L 11.71875 39.84375 C 11.71875 39.410156 11.367188 39.0625 10.9375 39.0625 Z M 7.03125 39.0625 C 6.601562 39.0625 6.25 39.410156 6.25 39.84375 L 6.25 41.40625 C 6.25 41.839844 6.601562 42.1875 7.03125 42.1875 C 7.460938 42.1875 7.8125 41.839844 7.8125 41.40625 L 7.8125 39.84375 C 7.8125 39.410156 7.460938 39.0625 7.03125 39.0625 Z M 26.5625 39.0625 C 26.132812 39.0625 25.78125 39.410156 25.78125 39.84375 L 25.78125 41.40625 C 25.78125 41.839844 26.132812 42.1875 26.5625 42.1875 C 26.992188 42.1875 27.34375 41.839844 27.34375 41.40625 L 27.34375 39.84375 C 27.34375 39.410156 26.992188 39.0625 26.5625 39.0625 Z M 30.46875 39.0625 C 30.039062 39.0625 29.6875 39.410156 29.6875 39.84375 L 29.6875 41.40625 C 29.6875 41.839844 30.039062 42.1875 30.46875 42.1875 C 30.898438 42.1875 31.25 41.839844 31.25 41.40625 L 31.25 39.84375 C 31.25 39.410156 30.898438 39.0625 30.46875 39.0625 Z M 34.375 39.0625 C 33.945312 39.0625 33.59375 39.410156 33.59375 39.84375 L 33.59375 41.40625 C 33.59375 41.839844 33.945312 42.1875 34.375 42.1875 C 34.804688 42.1875 35.15625 41.839844 35.15625 41.40625 L 35.15625 39.84375 C 35.15625 39.410156 34.804688 39.0625 34.375 39.0625 Z M 38.28125 39.0625 C 37.851562 39.0625 37.5 39.410156 37.5 39.84375 L 37.5 41.40625 C 37.5 41.839844 37.851562 42.1875 38.28125 42.1875 C 38.710938 42.1875 39.0625 41.839844 39.0625 41.40625 L 39.0625 39.84375 C 39.0625 39.410156 38.710938 39.0625 38.28125 39.0625 Z M 42.1875 39.0625 C 41.757812 39.0625 41.40625 39.410156 41.40625 39.84375 L 41.40625 41.40625 C 41.40625 41.839844 41.757812 42.1875 42.1875 42.1875 C 42.617188 42.1875 42.96875 41.839844 42.96875 41.40625 L 42.96875 39.84375 C 42.96875 39.410156 42.617188 39.0625 42.1875 39.0625 Z M 14.84375 39.0625 C 14.414062 39.0625 14.0625 39.410156 14.0625 39.84375 L 14.0625 41.40625 C 14.0625 41.839844 14.414062 42.1875 14.84375 42.1875 C 15.273438 42.1875 15.625 41.839844 15.625 41.40625 L 15.625 39.84375 C 15.625 39.410156 15.273438 39.0625 14.84375 39.0625 Z M 18.75 39.0625 C 18.320312 39.0625 17.96875 39.410156 17.96875 39.84375 L 17.96875 41.40625 C 17.96875 41.839844 18.320312 42.1875 18.75 42.1875 C 19.179688 42.1875 19.53125 41.839844 19.53125 41.40625 L 19.53125 39.84375 C 19.53125 39.410156 19.179688 39.0625 18.75 39.0625 Z M 18.75 39.0625 "/>
</g>
</svg>
