<?xml version="1.0" encoding="UTF-8"?>
<svg xmlns="http://www.w3.org/2000/svg" xmlns:xlink="http://www.w3.org/1999/xlink" width="50px" height="50px" viewBox="0 0 50 50" version="1.1">
<g id="surface168830">
<path style=" stroke:none;fill-rule:nonzero;fill:rgb(77.254902%,89.411765%,98.039216%);fill-opacity:1;" d="M 3.90625 14.84375 L 46.09375 14.84375 L 46.09375 42.96875 L 3.90625 42.96875 Z M 3.90625 14.84375 "/>
<path style=" stroke:none;fill-rule:nonzero;fill:rgb(89.019608%,94.901961%,100%);fill-opacity:1;" d="M 31.0625 42.96875 L 46.09375 27.9375 L 46.09375 14.90625 L 44.085938 14.90625 L 16.023438 42.96875 Z M 6.953125 42.96875 L 12.96875 42.96875 L 41.03125 14.90625 L 35.015625 14.90625 Z M 31.5625 14.90625 L 3.960938 42.507812 L 3.90625 42.523438 L 3.90625 41.554688 L 30.5625 14.90625 Z M 31.5625 14.90625 "/>
<path style=" stroke:none;fill-rule:nonzero;fill:rgb(97.647059%,86.666667%,56.078431%);fill-opacity:1;" d="M 10.15625 19.53125 L 39.84375 19.53125 L 39.84375 22.65625 L 10.15625 22.65625 Z M 10.15625 19.53125 "/>
<path style=" stroke:none;fill-rule:nonzero;fill:rgb(44.705882%,79.215686%,68.627451%);fill-opacity:1;" d="M 27.34375 27.34375 L 39.84375 27.34375 L 39.84375 36.71875 L 27.34375 36.71875 Z M 27.34375 27.34375 "/>
<path style=" stroke:none;fill-rule:nonzero;fill:rgb(80.784314%,84.705882%,92.941176%);fill-opacity:1;" d="M 3.90625 7.03125 L 46.09375 7.03125 L 46.09375 14.84375 L 3.90625 14.84375 Z M 3.90625 7.03125 "/>
<path style=" stroke:none;fill-rule:nonzero;fill:rgb(55.294118%,42.352941%,62.352941%);fill-opacity:1;" d="M 42.96875 14.0625 L 39.84375 14.0625 C 39.414062 14.0625 39.0625 14.414062 39.0625 14.84375 C 39.0625 15.273438 39.414062 15.625 39.84375 15.625 L 42.96875 15.625 C 43.398438 15.625 43.75 15.273438 43.75 14.84375 C 43.75 14.414062 43.398438 14.0625 42.96875 14.0625 Z M 42.96875 14.0625 "/>
<path style=" stroke:none;fill-rule:nonzero;fill:rgb(55.294118%,42.352941%,62.352941%);fill-opacity:1;" d="M 44.53125 6.25 L 5.46875 6.25 C 4.175781 6.25 3.125 7.300781 3.125 8.59375 L 3.125 41.40625 C 3.125 42.699219 4.175781 43.75 5.46875 43.75 L 44.53125 43.75 C 45.824219 43.75 46.875 42.699219 46.875 41.40625 L 46.875 8.59375 C 46.875 7.300781 45.824219 6.25 44.53125 6.25 Z M 45.3125 41.40625 C 45.3125 41.835938 44.960938 42.1875 44.53125 42.1875 L 5.46875 42.1875 C 5.039062 42.1875 4.6875 41.835938 4.6875 41.40625 L 4.6875 15.625 L 36.71875 15.625 C 37.148438 15.625 37.5 15.273438 37.5 14.84375 C 37.5 14.414062 37.148438 14.0625 36.71875 14.0625 L 4.6875 14.0625 L 4.6875 8.59375 C 4.6875 8.164062 5.039062 7.8125 5.46875 7.8125 L 44.53125 7.8125 C 44.960938 7.8125 45.3125 8.164062 45.3125 8.59375 Z M 45.3125 41.40625 "/>
<path style=" stroke:none;fill-rule:nonzero;fill:rgb(55.294118%,42.352941%,62.352941%);fill-opacity:1;" d="M 15.625 9.375 C 15.195312 9.375 14.84375 9.726562 14.84375 10.15625 L 14.84375 11.71875 C 14.84375 12.148438 15.195312 12.5 15.625 12.5 C 16.054688 12.5 16.40625 12.148438 16.40625 11.71875 L 16.40625 10.15625 C 16.40625 9.726562 16.054688 9.375 15.625 9.375 Z M 11.71875 9.375 C 11.289062 9.375 10.9375 9.726562 10.9375 10.15625 L 10.9375 11.71875 C 10.9375 12.148438 11.289062 12.5 11.71875 12.5 C 12.148438 12.5 12.5 12.148438 12.5 11.71875 L 12.5 10.15625 C 12.5 9.726562 12.148438 9.375 11.71875 9.375 Z M 7.8125 9.375 C 7.382812 9.375 7.03125 9.726562 7.03125 10.15625 L 7.03125 11.71875 C 7.03125 12.148438 7.382812 12.5 7.8125 12.5 C 8.242188 12.5 8.59375 12.148438 8.59375 11.71875 L 8.59375 10.15625 C 8.59375 9.726562 8.242188 9.375 7.8125 9.375 Z M 27.34375 9.375 C 26.914062 9.375 26.5625 9.726562 26.5625 10.15625 L 26.5625 11.71875 C 26.5625 12.148438 26.914062 12.5 27.34375 12.5 C 27.773438 12.5 28.125 12.148438 28.125 11.71875 L 28.125 10.15625 C 28.125 9.726562 27.773438 9.375 27.34375 9.375 Z M 31.25 9.375 C 30.820312 9.375 30.46875 9.726562 30.46875 10.15625 L 30.46875 11.71875 C 30.46875 12.148438 30.820312 12.5 31.25 12.5 C 31.679688 12.5 32.03125 12.148438 32.03125 11.71875 L 32.03125 10.15625 C 32.03125 9.726562 31.679688 9.375 31.25 9.375 Z M 35.15625 9.375 C 34.726562 9.375 34.375 9.726562 34.375 10.15625 L 34.375 11.71875 C 34.375 12.148438 34.726562 12.5 35.15625 12.5 C 35.585938 12.5 35.9375 12.148438 35.9375 11.71875 L 35.9375 10.15625 C 35.9375 9.726562 35.585938 9.375 35.15625 9.375 Z M 39.0625 12.5 C 39.492188 12.5 39.84375 12.148438 39.84375 11.71875 L 39.84375 10.15625 C 39.84375 9.726562 39.492188 9.375 39.0625 9.375 C 38.632812 9.375 38.28125 9.726562 38.28125 10.15625 L 38.28125 11.71875 C 38.28125 12.148438 38.632812 12.5 39.0625 12.5 Z M 42.96875 9.375 C 42.539062 9.375 42.1875 9.726562 42.1875 10.15625 L 42.1875 11.71875 C 42.1875 12.148438 42.539062 12.5 42.96875 12.5 C 43.398438 12.5 43.75 12.148438 43.75 11.71875 L 43.75 10.15625 C 43.75 9.726562 43.398438 9.375 42.96875 9.375 Z M 19.53125 9.375 C 19.101562 9.375 18.75 9.726562 18.75 10.15625 L 18.75 11.71875 C 18.75 12.148438 19.101562 12.5 19.53125 12.5 C 19.960938 12.5 20.3125 12.148438 20.3125 11.71875 L 20.3125 10.15625 C 20.3125 9.726562 19.960938 9.375 19.53125 9.375 Z M 23.4375 9.375 C 23.007812 9.375 22.65625 9.726562 22.65625 10.15625 L 22.65625 11.71875 C 22.65625 12.148438 23.007812 12.5 23.4375 12.5 C 23.867188 12.5 24.21875 12.148438 24.21875 11.71875 L 24.21875 10.15625 C 24.21875 9.726562 23.867188 9.375 23.4375 9.375 Z M 39.84375 18.75 L 10.15625 18.75 C 9.726562 18.75 9.375 19.101562 9.375 19.53125 L 9.375 22.65625 C 9.375 23.085938 9.726562 23.4375 10.15625 23.4375 L 39.84375 23.4375 C 40.273438 23.4375 40.625 23.085938 40.625 22.65625 L 40.625 19.53125 C 40.625 19.101562 40.273438 18.75 39.84375 18.75 Z M 39.0625 21.875 L 10.9375 21.875 L 10.9375 20.3125 L 39.0625 20.3125 Z M 39.84375 26.5625 L 27.34375 26.5625 C 26.914062 26.5625 26.5625 26.914062 26.5625 27.34375 L 26.5625 36.71875 C 26.5625 37.148438 26.914062 37.5 27.34375 37.5 L 39.84375 37.5 C 40.273438 37.5 40.625 37.148438 40.625 36.71875 L 40.625 27.34375 C 40.625 26.914062 40.273438 26.5625 39.84375 26.5625 Z M 39.0625 35.9375 L 28.125 35.9375 L 28.125 28.125 L 39.0625 28.125 Z M 21.09375 31.25 C 21.523438 31.25 21.875 30.898438 21.875 30.46875 C 21.875 30.039062 21.523438 29.6875 21.09375 29.6875 L 19.53125 29.6875 C 19.101562 29.6875 18.75 30.039062 18.75 30.46875 C 18.75 30.898438 19.101562 31.25 19.53125 31.25 Z M 10.15625 31.25 L 16.40625 31.25 C 16.835938 31.25 17.1875 30.898438 17.1875 30.46875 C 17.1875 30.039062 16.835938 29.6875 16.40625 29.6875 L 10.15625 29.6875 C 9.726562 29.6875 9.375 30.039062 9.375 30.46875 C 9.375 30.898438 9.726562 31.25 10.15625 31.25 Z M 14.84375 35.9375 L 10.15625 35.9375 C 9.726562 35.9375 9.375 36.289062 9.375 36.71875 C 9.375 37.148438 9.726562 37.5 10.15625 37.5 L 14.84375 37.5 C 15.273438 37.5 15.625 37.148438 15.625 36.71875 C 15.625 36.289062 15.273438 35.9375 14.84375 35.9375 Z M 22.65625 26.5625 L 10.15625 26.5625 C 9.726562 26.5625 9.375 26.914062 9.375 27.34375 C 9.375 27.773438 9.726562 28.125 10.15625 28.125 L 22.65625 28.125 C 23.085938 28.125 23.4375 27.773438 23.4375 27.34375 C 23.4375 26.914062 23.085938 26.5625 22.65625 26.5625 Z M 22.65625 32.8125 L 10.15625 32.8125 C 9.726562 32.8125 9.375 33.164062 9.375 33.59375 C 9.375 34.023438 9.726562 34.375 10.15625 34.375 L 22.65625 34.375 C 23.085938 34.375 23.4375 34.023438 23.4375 33.59375 C 23.4375 33.164062 23.085938 32.8125 22.65625 32.8125 Z M 22.65625 32.8125 "/>
</g>
</svg>
