<?xml version="1.0" encoding="UTF-8"?>
<svg xmlns="http://www.w3.org/2000/svg" xmlns:xlink="http://www.w3.org/1999/xlink" width="50px" height="50px" viewBox="0 0 50 50" version="1.1">
<g id="surface168874">
<path style=" stroke:none;fill-rule:nonzero;fill:rgb(77.254902%,89.411765%,98.039216%);fill-opacity:1;" d="M 0.78125 10.15625 L 42.96875 10.15625 L 42.96875 41.40625 L 0.78125 41.40625 Z M 0.78125 10.15625 "/>
<path style=" stroke:none;fill-rule:nonzero;fill:rgb(89.019608%,94.901961%,100%);fill-opacity:1;" d="M 27.429688 41.40625 L 42.96875 25.085938 L 42.96875 10.9375 L 40.789062 10.9375 L 10.320312 41.40625 Z M 1.007812 41.40625 L 7.53125 41.40625 L 38 10.9375 L 31.476562 10.9375 Z M 0.78125 38.835938 L 28.679688 10.9375 L 25.585938 10.9375 L 0.78125 35.742188 Z M 0.78125 38.835938 "/>
<path style=" stroke:none;fill-rule:nonzero;fill:rgb(67.45098%,71.764706%,81.568627%);fill-opacity:1;" d="M 2.34375 5.46875 L 41.40625 5.46875 C 42.269531 5.46875 42.96875 6.167969 42.96875 7.03125 L 42.96875 8.59375 C 42.96875 9.457031 42.269531 10.15625 41.40625 10.15625 L 2.34375 10.15625 C 1.480469 10.15625 0.78125 9.457031 0.78125 8.59375 L 0.78125 7.03125 C 0.78125 6.167969 1.480469 5.46875 2.34375 5.46875 Z M 2.34375 5.46875 "/>
<path style=" stroke:none;fill-rule:nonzero;fill:rgb(100%,92.156863%,60.784314%);fill-opacity:1;" d="M 38.28125 24.21875 C 32.242188 24.21875 27.34375 29.117188 27.34375 35.15625 C 27.34375 41.195312 32.242188 46.09375 38.28125 46.09375 C 44.320312 46.09375 49.21875 41.195312 49.21875 35.15625 C 49.21875 29.117188 44.320312 24.21875 38.28125 24.21875 Z M 38.28125 24.21875 "/>
<path style=" stroke:none;fill-rule:nonzero;fill:rgb(96.470588%,82.745098%,59.215686%);fill-opacity:1;" d="M 31.96875 41.46875 L 44.59375 28.84375 C 44.972656 28.457031 45.503906 28.257812 46.046875 28.304688 C 46.585938 28.351562 47.074219 28.640625 47.382812 29.085938 C 50.285156 33.425781 49.714844 39.210938 46.023438 42.898438 C 42.335938 46.589844 36.550781 47.160156 32.210938 44.257812 C 31.765625 43.949219 31.476562 43.460938 31.429688 42.921875 C 31.382812 42.378906 31.582031 41.847656 31.96875 41.46875 Z M 31.96875 41.46875 "/>
<path style=" stroke:none;fill-rule:nonzero;fill:rgb(73.333333%,87.058824%,97.647059%);fill-opacity:1;" d="M 38.28125 27.34375 C 33.964844 27.34375 30.46875 30.839844 30.46875 35.15625 C 30.46875 39.472656 33.964844 42.96875 38.28125 42.96875 C 42.597656 42.96875 46.09375 39.472656 46.09375 35.15625 C 46.09375 30.839844 42.597656 27.34375 38.28125 27.34375 Z M 38.28125 27.34375 "/>
<path style=" stroke:none;fill-rule:nonzero;fill:rgb(82.352941%,92.941176%,100%);fill-opacity:1;" d="M 38.28125 30.46875 C 35.691406 30.46875 33.59375 32.566406 33.59375 35.15625 C 33.59375 37.746094 35.691406 39.84375 38.28125 39.84375 C 40.871094 39.84375 42.96875 37.746094 42.96875 35.15625 C 42.96875 32.566406 40.871094 30.46875 38.28125 30.46875 Z M 38.28125 30.46875 "/>
<path style=" stroke:none;fill-rule:nonzero;fill:rgb(95.294118%,95.294118%,95.294118%);fill-opacity:1;" d="M 35.765625 30.90625 C 34.808594 30.90625 34.03125 31.683594 34.03125 32.640625 C 34.03125 33.597656 34.808594 34.375 35.765625 34.375 C 36.722656 34.375 37.5 33.597656 37.5 32.640625 C 37.5 31.683594 36.722656 30.90625 35.765625 30.90625 Z M 41.796875 37.242188 C 41.4375 37.242188 41.148438 37.53125 41.148438 37.890625 C 41.148438 38.25 41.4375 38.539062 41.796875 38.539062 C 42.15625 38.539062 42.445312 38.25 42.445312 37.890625 C 42.445312 37.53125 42.15625 37.242188 41.796875 37.242188 Z M 41.796875 37.242188 "/>
<path style=" stroke:none;fill-rule:nonzero;fill:rgb(80.392157%,63.137255%,65.490196%);fill-opacity:1;" d="M 26.957031 49.613281 L 23.863281 46.519531 L 29.332031 41.050781 L 32.425781 44.144531 Z M 26.957031 49.613281 "/>
<path style=" stroke:none;fill-rule:nonzero;fill:rgb(55.294118%,42.352941%,62.352941%);fill-opacity:1;" d="M 12.5 35.9375 C 12.070312 35.9375 11.71875 36.289062 11.71875 36.71875 L 11.71875 38.28125 C 11.71875 38.710938 12.070312 39.0625 12.5 39.0625 C 12.929688 39.0625 13.28125 38.710938 13.28125 38.28125 L 13.28125 36.71875 C 13.28125 36.289062 12.929688 35.9375 12.5 35.9375 Z M 8.59375 35.9375 C 8.164062 35.9375 7.8125 36.289062 7.8125 36.71875 L 7.8125 38.28125 C 7.8125 38.710938 8.164062 39.0625 8.59375 39.0625 C 9.023438 39.0625 9.375 38.710938 9.375 38.28125 L 9.375 36.71875 C 9.375 36.289062 9.023438 35.9375 8.59375 35.9375 Z M 4.6875 35.9375 C 4.257812 35.9375 3.90625 36.289062 3.90625 36.71875 L 3.90625 38.28125 C 3.90625 38.710938 4.257812 39.0625 4.6875 39.0625 C 5.117188 39.0625 5.46875 38.710938 5.46875 38.28125 L 5.46875 36.71875 C 5.46875 36.289062 5.117188 35.9375 4.6875 35.9375 Z M 16.40625 35.9375 C 15.976562 35.9375 15.625 36.289062 15.625 36.71875 L 15.625 38.28125 C 15.625 38.710938 15.976562 39.0625 16.40625 39.0625 C 16.835938 39.0625 17.1875 38.710938 17.1875 38.28125 L 17.1875 36.71875 C 17.1875 36.289062 16.835938 35.9375 16.40625 35.9375 Z M 20.3125 35.9375 C 19.882812 35.9375 19.53125 36.289062 19.53125 36.71875 L 19.53125 38.28125 C 19.53125 38.710938 19.882812 39.0625 20.3125 39.0625 C 20.742188 39.0625 21.09375 38.710938 21.09375 38.28125 L 21.09375 36.71875 C 21.09375 36.289062 20.742188 35.9375 20.3125 35.9375 Z M 24.21875 35.9375 C 23.789062 35.9375 23.4375 36.289062 23.4375 36.71875 L 23.4375 38.28125 C 23.4375 38.710938 23.789062 39.0625 24.21875 39.0625 C 24.648438 39.0625 25 38.710938 25 38.28125 L 25 36.71875 C 25 36.289062 24.648438 35.9375 24.21875 35.9375 Z M 14.84375 17.1875 L 17.96875 17.1875 C 18.398438 17.1875 18.75 16.835938 18.75 16.40625 C 18.75 15.976562 18.398438 15.625 17.96875 15.625 L 14.84375 15.625 C 14.414062 15.625 14.0625 15.976562 14.0625 16.40625 C 14.0625 16.835938 14.414062 17.1875 14.84375 17.1875 Z M 21.09375 17.1875 L 34.375 17.1875 C 34.804688 17.1875 35.15625 16.835938 35.15625 16.40625 C 35.15625 15.976562 34.804688 15.625 34.375 15.625 L 21.09375 15.625 C 20.664062 15.625 20.3125 15.976562 20.3125 16.40625 C 20.3125 16.835938 20.664062 17.1875 21.09375 17.1875 Z M 14.84375 23.4375 L 31.25 23.4375 C 31.679688 23.4375 32.03125 23.085938 32.03125 22.65625 C 32.03125 22.226562 31.679688 21.875 31.25 21.875 L 14.84375 21.875 C 14.414062 21.875 14.0625 22.226562 14.0625 22.65625 C 14.0625 23.085938 14.414062 23.4375 14.84375 23.4375 Z M 24.21875 28.125 L 14.84375 28.125 C 14.414062 28.125 14.0625 28.476562 14.0625 28.90625 C 14.0625 29.335938 14.414062 29.6875 14.84375 29.6875 L 24.21875 29.6875 C 24.648438 29.6875 25 29.335938 25 28.90625 C 25 28.476562 24.648438 28.125 24.21875 28.125 Z M 8.039062 18.523438 C 8.34375 18.828125 8.835938 18.828125 9.140625 18.523438 L 12.265625 15.398438 C 12.53125 15.089844 12.511719 14.625 12.226562 14.335938 C 11.9375 14.050781 11.472656 14.03125 11.164062 14.296875 L 8.59375 16.867188 L 7.585938 15.851562 C 7.277344 15.585938 6.8125 15.605469 6.523438 15.890625 C 6.238281 16.179688 6.21875 16.644531 6.484375 16.953125 Z M 8.039062 24.773438 C 8.34375 25.078125 8.835938 25.078125 9.140625 24.773438 L 12.265625 21.648438 C 12.53125 21.339844 12.511719 20.875 12.226562 20.585938 C 11.9375 20.300781 11.472656 20.28125 11.164062 20.546875 L 8.59375 23.117188 L 7.585938 22.101562 C 7.277344 21.835938 6.8125 21.855469 6.523438 22.140625 C 6.238281 22.429688 6.21875 22.894531 6.484375 23.203125 Z M 8.59375 31.25 C 8.800781 31.25 9 31.167969 9.148438 31.023438 L 12.273438 27.898438 C 12.539062 27.589844 12.519531 27.125 12.234375 26.835938 C 11.945312 26.550781 11.480469 26.53125 11.171875 26.796875 L 8.59375 29.367188 L 7.585938 28.351562 C 7.277344 28.085938 6.8125 28.105469 6.523438 28.390625 C 6.238281 28.679688 6.21875 29.144531 6.484375 29.453125 L 8.046875 31.015625 C 8.191406 31.164062 8.386719 31.246094 8.59375 31.25 Z M 8.59375 31.25 "/>
<path style=" stroke:none;fill-rule:nonzero;fill:rgb(55.294118%,42.352941%,62.352941%);fill-opacity:1;" d="M 43.75 24.796875 L 43.75 7.03125 C 43.75 5.738281 42.699219 4.6875 41.40625 4.6875 L 2.34375 4.6875 C 1.050781 4.6875 0 5.738281 0 7.03125 L 0 39.84375 C 0 41.136719 1.050781 42.1875 2.34375 42.1875 L 26.882812 42.1875 L 24.3125 44.757812 C 23.242188 45.941406 23.285156 47.753906 24.414062 48.882812 C 25.542969 50.011719 27.355469 50.054688 28.539062 48.984375 L 32.125 45.398438 C 32.183594 45.332031 32.246094 45.273438 32.3125 45.21875 C 35.976562 47.527344 40.617188 47.625 44.375 45.472656 C 48.132812 43.324219 50.398438 39.277344 50.269531 34.949219 C 50.140625 30.621094 47.632812 26.714844 43.75 24.796875 Z M 1.5625 7.03125 C 1.5625 6.601562 1.914062 6.25 2.34375 6.25 L 41.40625 6.25 C 41.835938 6.25 42.1875 6.601562 42.1875 7.03125 L 42.1875 9.375 L 1.5625 9.375 Z M 1.5625 39.84375 L 1.5625 10.9375 L 42.1875 10.9375 L 42.1875 24.125 C 37.644531 22.527344 32.585938 23.871094 29.433594 27.515625 C 26.285156 31.160156 25.683594 36.359375 27.921875 40.625 L 2.34375 40.625 C 1.914062 40.625 1.5625 40.273438 1.5625 39.84375 Z M 27.4375 47.882812 C 26.878906 48.441406 25.972656 48.441406 25.414062 47.882812 C 24.855469 47.324219 24.855469 46.417969 25.414062 45.859375 L 28.992188 42.28125 C 29.574219 43.039062 30.246094 43.722656 30.992188 44.320312 Z M 38.28125 45.3125 C 32.671875 45.3125 28.125 40.765625 28.125 35.15625 C 28.125 29.546875 32.671875 25 38.28125 25 C 43.890625 25 48.4375 29.546875 48.4375 35.15625 C 48.4375 40.765625 43.890625 45.3125 38.28125 45.3125 Z M 38.28125 45.3125 "/>
<path style=" stroke:none;fill-rule:nonzero;fill:rgb(55.294118%,42.352941%,62.352941%);fill-opacity:1;" d="M 38.210938 26.5625 C 33.503906 26.566406 29.691406 30.386719 29.695312 35.089844 C 29.699219 39.796875 33.515625 43.609375 38.222656 43.609375 C 42.925781 43.609375 46.742188 39.792969 46.742188 35.085938 C 46.734375 30.378906 42.917969 26.566406 38.210938 26.5625 Z M 38.210938 42.054688 C 34.367188 42.054688 31.25 38.9375 31.25 35.09375 C 31.25 31.25 34.367188 28.132812 38.210938 28.132812 C 42.054688 28.132812 45.171875 31.25 45.171875 35.09375 C 45.167969 38.9375 42.054688 42.050781 38.210938 42.054688 Z M 38.210938 42.054688 "/>
<path style=" stroke:none;fill-rule:nonzero;fill:rgb(55.294118%,42.352941%,62.352941%);fill-opacity:1;" d="M 43.3125 32.914062 C 42.445312 30.871094 40.4375 29.546875 38.21875 29.546875 C 37.789062 29.546875 37.4375 29.898438 37.4375 30.328125 C 37.4375 30.757812 37.789062 31.109375 38.21875 31.109375 C 39.8125 31.109375 41.25 32.058594 41.875 33.523438 C 42.046875 33.921875 42.503906 34.105469 42.902344 33.933594 C 43.300781 33.761719 43.484375 33.304688 43.3125 32.90625 Z M 43.3125 32.914062 "/>
</g>
</svg>
