<?xml version="1.0" encoding="UTF-8"?>
<svg xmlns="http://www.w3.org/2000/svg" xmlns:xlink="http://www.w3.org/1999/xlink" width="50px" height="50px" viewBox="0 0 50 50" version="1.1">
<g id="surface167045">
<path style=" stroke:none;fill-rule:nonzero;fill:rgb(76.078431%,80.392157%,90.588235%);fill-opacity:1;" d="M 5.46875 14.84375 L 44.53125 14.84375 L 44.53125 41.40625 C 44.53125 43.132812 43.132812 44.53125 41.40625 44.53125 L 8.59375 44.53125 C 6.867188 44.53125 5.46875 43.132812 5.46875 41.40625 Z M 5.46875 14.84375 "/>
<path style=" stroke:none;fill-rule:nonzero;fill:rgb(80.784314%,84.705882%,92.941176%);fill-opacity:1;" d="M 13.28125 44.53125 L 8.59375 44.53125 C 6.867188 44.53125 5.46875 43.132812 5.46875 41.40625 L 5.46875 15.625 L 13.28125 15.625 Z M 13.28125 44.53125 "/>
<path style=" stroke:none;fill-rule:nonzero;fill:rgb(70.980392%,76.862745%,87.843137%);fill-opacity:1;" d="M 5.46875 14.84375 L 44.53125 14.84375 L 44.53125 19.53125 L 5.46875 19.53125 Z M 5.46875 14.84375 "/>
<path style=" stroke:none;fill-rule:nonzero;fill:rgb(70.980392%,76.862745%,87.843137%);fill-opacity:1;" d="M 32.8125 15.625 L 44.53125 15.625 L 44.53125 41.40625 C 44.53125 43.132812 43.132812 44.53125 41.40625 44.53125 L 32.8125 44.53125 Z M 32.8125 15.625 "/>
<path style=" stroke:none;fill-rule:nonzero;fill:rgb(73.333333%,87.058824%,97.647059%);fill-opacity:1;" d="M 41.921875 11.71875 L 7.8125 11.71875 L 10.023438 9.507812 C 10.609375 8.921875 11.40625 8.59375 12.234375 8.59375 L 37.5 8.59375 C 38.328125 8.59375 39.125 8.921875 39.710938 9.507812 Z M 41.921875 11.71875 "/>
<path style=" stroke:none;fill-rule:nonzero;fill:rgb(97.647059%,89.019608%,68.235294%);fill-opacity:1;" d="M 45.3125 14.84375 L 4.6875 14.84375 C 3.824219 14.84375 3.125 14.144531 3.125 13.28125 C 3.125 12.417969 3.824219 11.71875 4.6875 11.71875 L 45.3125 11.71875 C 46.175781 11.71875 46.875 12.417969 46.875 13.28125 C 46.875 14.144531 46.175781 14.84375 45.3125 14.84375 Z M 45.3125 14.84375 "/>
<path style=" stroke:none;fill-rule:nonzero;fill:rgb(94.901961%,51.372549%,64.705882%);fill-opacity:1;" d="M 48.351562 23.085938 L 44.53125 25 L 44.53125 19.53125 L 47.65625 19.53125 C 48.519531 19.53125 49.21875 20.230469 49.21875 21.09375 L 49.21875 21.6875 C 49.21875 22.28125 48.882812 22.820312 48.351562 23.085938 Z M 1.648438 23.085938 L 5.46875 25 L 5.46875 19.53125 L 2.34375 19.53125 C 1.480469 19.53125 0.78125 20.230469 0.78125 21.09375 L 0.78125 21.6875 C 0.78125 22.28125 1.117188 22.820312 1.648438 23.085938 Z M 1.648438 23.085938 "/>
<path style=" stroke:none;fill-rule:nonzero;fill:rgb(97.647059%,89.019608%,68.235294%);fill-opacity:1;" d="M 21.09375 5.46875 L 28.90625 5.46875 L 28.90625 7.8125 L 21.09375 7.8125 Z M 21.09375 5.46875 "/>
<path style=" stroke:none;fill-rule:nonzero;fill:rgb(55.294118%,42.352941%,62.352941%);fill-opacity:1;" d="M 35.15625 40.625 L 8.59375 40.625 C 8.164062 40.625 7.8125 40.976562 7.8125 41.40625 C 7.8125 41.835938 8.164062 42.1875 8.59375 42.1875 L 35.15625 42.1875 C 35.585938 42.1875 35.9375 41.835938 35.9375 41.40625 C 35.9375 40.976562 35.585938 40.625 35.15625 40.625 Z M 41.40625 40.625 L 38.28125 40.625 C 37.851562 40.625 37.5 40.976562 37.5 41.40625 C 37.5 41.835938 37.851562 42.1875 38.28125 42.1875 L 41.40625 42.1875 C 41.835938 42.1875 42.1875 41.835938 42.1875 41.40625 C 42.1875 40.976562 41.835938 40.625 41.40625 40.625 Z M 9.375 23.4375 C 9.804688 23.4375 10.15625 23.085938 10.15625 22.65625 L 10.15625 21.09375 C 10.15625 20.664062 9.804688 20.3125 9.375 20.3125 C 8.945312 20.3125 8.59375 20.664062 8.59375 21.09375 L 8.59375 22.65625 C 8.59375 23.085938 8.945312 23.4375 9.375 23.4375 Z M 13.28125 23.4375 C 13.710938 23.4375 14.0625 23.085938 14.0625 22.65625 L 14.0625 21.09375 C 14.0625 20.664062 13.710938 20.3125 13.28125 20.3125 C 12.851562 20.3125 12.5 20.664062 12.5 21.09375 L 12.5 22.65625 C 12.5 23.085938 12.851562 23.4375 13.28125 23.4375 Z M 17.1875 23.4375 C 17.617188 23.4375 17.96875 23.085938 17.96875 22.65625 L 17.96875 21.09375 C 17.96875 20.664062 17.617188 20.3125 17.1875 20.3125 C 16.757812 20.3125 16.40625 20.664062 16.40625 21.09375 L 16.40625 22.65625 C 16.40625 23.085938 16.757812 23.4375 17.1875 23.4375 Z M 21.09375 23.4375 C 21.523438 23.4375 21.875 23.085938 21.875 22.65625 L 21.875 21.09375 C 21.875 20.664062 21.523438 20.3125 21.09375 20.3125 C 20.664062 20.3125 20.3125 20.664062 20.3125 21.09375 L 20.3125 22.65625 C 20.3125 23.085938 20.664062 23.4375 21.09375 23.4375 Z M 25 23.4375 C 25.429688 23.4375 25.78125 23.085938 25.78125 22.65625 L 25.78125 21.09375 C 25.78125 20.664062 25.429688 20.3125 25 20.3125 C 24.570312 20.3125 24.21875 20.664062 24.21875 21.09375 L 24.21875 22.65625 C 24.21875 23.085938 24.570312 23.4375 25 23.4375 Z M 28.90625 23.4375 C 29.335938 23.4375 29.6875 23.085938 29.6875 22.65625 L 29.6875 21.09375 C 29.6875 20.664062 29.335938 20.3125 28.90625 20.3125 C 28.476562 20.3125 28.125 20.664062 28.125 21.09375 L 28.125 22.65625 C 28.125 23.085938 28.476562 23.4375 28.90625 23.4375 Z M 32.8125 23.4375 C 33.242188 23.4375 33.59375 23.085938 33.59375 22.65625 L 33.59375 21.09375 C 33.59375 20.664062 33.242188 20.3125 32.8125 20.3125 C 32.382812 20.3125 32.03125 20.664062 32.03125 21.09375 L 32.03125 22.65625 C 32.03125 23.085938 32.382812 23.4375 32.8125 23.4375 Z M 37.5 21.09375 C 37.5 20.664062 37.148438 20.3125 36.71875 20.3125 C 36.289062 20.3125 35.9375 20.664062 35.9375 21.09375 L 35.9375 22.65625 C 35.9375 23.085938 36.289062 23.4375 36.71875 23.4375 C 37.148438 23.4375 37.5 23.085938 37.5 22.65625 Z M 40.625 23.4375 C 41.054688 23.4375 41.40625 23.085938 41.40625 22.65625 L 41.40625 21.09375 C 41.40625 20.664062 41.054688 20.3125 40.625 20.3125 C 40.195312 20.3125 39.84375 20.664062 39.84375 21.09375 L 39.84375 22.65625 C 39.84375 23.085938 40.195312 23.4375 40.625 23.4375 Z M 40.625 23.4375 "/>
<path style=" stroke:none;fill-rule:nonzero;fill:rgb(55.294118%,42.352941%,62.352941%);fill-opacity:1;" d="M 47.65625 18.75 L 45.3125 18.75 L 45.3125 15.625 C 46.605469 15.625 47.65625 14.574219 47.65625 13.28125 C 47.65625 11.988281 46.605469 10.9375 45.3125 10.9375 L 42.242188 10.9375 L 40.257812 8.953125 C 39.527344 8.222656 38.535156 7.8125 37.5 7.8125 L 29.6875 7.8125 L 29.6875 7.03125 C 29.6875 5.738281 28.636719 4.6875 27.34375 4.6875 L 22.65625 4.6875 C 21.363281 4.6875 20.3125 5.738281 20.3125 7.03125 L 20.3125 7.8125 L 12.234375 7.8125 C 11.199219 7.8125 10.203125 8.222656 9.46875 8.953125 L 7.492188 10.9375 L 4.6875 10.9375 C 3.394531 10.9375 2.34375 11.988281 2.34375 13.28125 C 2.34375 14.574219 3.394531 15.625 4.6875 15.625 L 4.6875 18.75 L 2.34375 18.75 C 1.050781 18.75 0 19.800781 0 21.09375 L 0 21.6875 C 0 22.574219 0.503906 23.386719 1.296875 23.78125 L 4.6875 25.492188 L 4.6875 41.40625 C 4.6875 43.5625 6.4375 45.3125 8.59375 45.3125 L 41.40625 45.3125 C 43.5625 45.3125 45.3125 43.5625 45.3125 41.40625 L 45.3125 25.492188 L 48.726562 23.789062 C 49.515625 23.386719 50.007812 22.570312 50 21.6875 L 50 21.09375 C 50 19.800781 48.949219 18.75 47.65625 18.75 Z M 4.6875 23.734375 L 1.992188 22.390625 C 1.726562 22.257812 1.558594 21.984375 1.5625 21.6875 L 1.5625 21.09375 C 1.5625 20.664062 1.914062 20.3125 2.34375 20.3125 L 4.6875 20.3125 Z M 21.875 7.03125 C 21.875 6.601562 22.226562 6.25 22.65625 6.25 L 27.34375 6.25 C 27.773438 6.25 28.125 6.601562 28.125 7.03125 L 28.125 7.8125 L 21.875 7.8125 Z M 10.578125 10.0625 C 11.015625 9.621094 11.613281 9.375 12.234375 9.375 L 37.5 9.375 C 38.121094 9.375 38.71875 9.621094 39.15625 10.0625 L 40.03125 10.9375 L 9.695312 10.9375 Z M 3.90625 13.28125 C 3.90625 12.851562 4.257812 12.5 4.6875 12.5 L 45.3125 12.5 C 45.742188 12.5 46.09375 12.851562 46.09375 13.28125 C 46.09375 13.710938 45.742188 14.0625 45.3125 14.0625 L 4.6875 14.0625 C 4.257812 14.0625 3.90625 13.710938 3.90625 13.28125 Z M 43.75 41.40625 C 43.75 42.699219 42.699219 43.75 41.40625 43.75 L 8.59375 43.75 C 7.300781 43.75 6.25 42.699219 6.25 41.40625 L 6.25 15.625 L 43.75 15.625 Z M 48.4375 21.6875 C 48.4375 21.980469 48.269531 22.25 48.007812 22.382812 L 45.3125 23.734375 L 45.3125 20.3125 L 47.65625 20.3125 C 48.085938 20.3125 48.4375 20.664062 48.4375 21.09375 Z M 48.4375 21.6875 "/>
</g>
</svg>
