<?xml version="1.0" encoding="UTF-8"?>
<svg xmlns="http://www.w3.org/2000/svg" xmlns:xlink="http://www.w3.org/1999/xlink" width="50px" height="50px" viewBox="0 0 50 50" version="1.1">
<g id="surface167066">
<path style=" stroke:none;fill-rule:nonzero;fill:rgb(44.705882%,79.215686%,68.627451%);fill-opacity:1;" d="M 9.304688 4.902344 C 8.105469 7.195312 10.105469 10.609375 13.777344 12.53125 C 17.445312 14.453125 21.394531 14.152344 22.59375 11.859375 C 23.792969 9.566406 21.792969 6.148438 18.125 4.226562 C 14.453125 2.304688 10.507812 2.605469 9.304688 4.902344 Z M 9.304688 4.902344 "/>
<path style=" stroke:none;fill-rule:nonzero;fill:rgb(59.215686%,87.843137%,73.333333%);fill-opacity:1;" d="M 15.15625 7.03125 C 18.203125 8.59375 20.703125 10.46875 22.421875 12.265625 C 22.5 12.1875 22.578125 12.03125 22.65625 11.953125 C 23.828125 9.6875 21.875 6.25 18.125 4.296875 C 14.609375 2.34375 10.78125 2.578125 9.453125 4.609375 C 11.25 5.15625 13.203125 5.9375 15.15625 7.03125 Z M 15.15625 7.03125 "/>
<path style=" stroke:none;fill-rule:nonzero;fill:rgb(44.705882%,79.215686%,68.627451%);fill-opacity:1;" d="M 33.148438 10.265625 C 30.308594 11.15625 28.558594 13.644531 29.242188 15.828125 C 29.921875 18.011719 32.78125 19.058594 35.621094 18.171875 C 38.464844 17.28125 40.214844 14.792969 39.53125 12.609375 C 38.847656 10.425781 35.992188 9.378906 33.148438 10.265625 Z M 33.148438 10.265625 "/>
<path style=" stroke:none;fill-rule:nonzero;fill:rgb(59.215686%,87.843137%,73.333333%);fill-opacity:1;" d="M 33.59375 13.984375 C 35.703125 13.359375 37.65625 12.890625 39.453125 12.578125 C 38.75 10.390625 35.9375 9.296875 33.046875 10.234375 C 30.3125 11.09375 28.59375 13.515625 29.140625 15.625 C 30.546875 15 32.03125 14.453125 33.59375 13.984375 Z M 33.59375 13.984375 "/>
<path style=" stroke:none;fill-rule:nonzero;fill:rgb(97.647059%,89.019608%,68.235294%);fill-opacity:1;" d="M 27.054688 3.558594 C 25.578125 5.578125 25.367188 7.9375 26.585938 8.828125 C 27.804688 9.722656 29.988281 8.808594 31.46875 6.789062 C 32.945312 4.769531 33.15625 2.410156 31.9375 1.515625 C 30.71875 0.625 28.53125 1.539062 27.054688 3.558594 Z M 27.054688 3.558594 "/>
<path style=" stroke:none;fill-rule:nonzero;fill:rgb(80.392157%,63.137255%,65.490196%);fill-opacity:1;" d="M 7.8125 28.90625 L 42.1875 28.90625 L 39.84375 46.875 L 37.5 49.21875 L 12.5 49.21875 L 10.15625 46.875 Z M 7.8125 28.90625 "/>
<path style=" stroke:none;fill-rule:nonzero;fill:rgb(82.745098%,66.27451%,69.019608%);fill-opacity:1;" d="M 17.96875 49.21875 L 11.71875 49.21875 L 9.375 44.53125 L 7.8125 28.90625 L 15.625 28.90625 Z M 17.96875 49.21875 "/>
<path style=" stroke:none;fill-rule:nonzero;fill:rgb(76.862745%,57.647059%,61.176471%);fill-opacity:1;" d="M 41.953125 31.25 L 42.1875 28.90625 L 7.8125 28.90625 L 8.046875 31.25 Z M 41.953125 31.25 "/>
<path style=" stroke:none;fill-rule:nonzero;fill:rgb(76.862745%,57.647059%,61.176471%);fill-opacity:1;" d="M 29.6875 28.90625 L 28.90625 49.21875 L 37.5 49.21875 L 39.84375 46.875 L 42.1875 28.90625 Z M 29.6875 28.90625 "/>
<path style=" stroke:none;fill-rule:nonzero;fill:rgb(80.392157%,63.137255%,65.490196%);fill-opacity:1;" d="M 42.96875 28.90625 L 7.03125 28.90625 C 6.171875 28.90625 5.46875 28.203125 5.46875 27.34375 L 5.46875 22.65625 C 5.46875 21.796875 6.171875 21.09375 7.03125 21.09375 L 42.96875 21.09375 C 43.828125 21.09375 44.53125 21.796875 44.53125 22.65625 L 44.53125 27.34375 C 44.53125 28.203125 43.828125 28.90625 42.96875 28.90625 Z M 42.96875 28.90625 "/>
<path style=" stroke:none;fill-rule:nonzero;fill:rgb(55.294118%,42.352941%,62.352941%);fill-opacity:1;" d="M 42.96875 20.3125 L 25.78125 20.3125 L 25.78125 18.75 C 25.78125 18.4375 25.78125 18.203125 25.78125 17.890625 C 26.5625 17.421875 27.421875 16.953125 28.203125 16.640625 C 29.140625 17.34375 31.484375 18.828125 34.0625 18.828125 C 34.53125 18.828125 35.078125 18.75 35.546875 18.671875 C 39.21875 17.65625 41.015625 12.96875 41.09375 12.8125 L 41.328125 12.265625 L 40.859375 11.875 C 40.703125 11.71875 36.796875 8.59375 33.125 9.53125 C 29.921875 10.390625 28.125 14.0625 27.65625 15.15625 C 27.03125 15.390625 26.484375 15.703125 25.859375 16.015625 C 26.09375 14.0625 26.484375 12.1875 27.1875 10.390625 C 28.359375 10.15625 31.171875 9.453125 32.421875 7.34375 C 33.984375 4.609375 32.34375 0.9375 32.265625 0.78125 L 32.03125 0.234375 L 31.484375 0.3125 C 31.328125 0.3125 27.265625 0.78125 25.703125 3.4375 C 24.375 5.78125 25.390625 8.90625 25.78125 9.765625 C 25.390625 10.859375 25 12.03125 24.765625 13.203125 C 24.453125 12.890625 24.140625 12.65625 23.828125 12.34375 L 23.828125 12.1875 C 23.828125 11.953125 23.125 5.546875 18.90625 3.125 C 14.84375 0.703125 8.984375 3.28125 8.75 3.4375 L 8.203125 3.671875 L 8.28125 4.21875 C 8.28125 4.453125 8.984375 10.859375 13.203125 13.28125 C 14.53125 14.0625 16.015625 14.296875 17.421875 14.296875 C 19.53125 14.296875 21.5625 13.671875 22.65625 13.28125 C 23.28125 13.828125 23.90625 14.453125 24.53125 15.078125 C 24.375 15.9375 24.296875 16.875 24.296875 17.8125 C 23.828125 17.578125 23.359375 17.421875 22.890625 17.1875 C 22.5 17.03125 22.03125 17.1875 21.875 17.578125 C 21.71875 17.96875 21.875 18.4375 22.265625 18.59375 C 22.96875 18.90625 23.671875 19.21875 24.375 19.453125 L 24.375 20.3125 L 7.03125 20.3125 C 5.703125 20.3125 4.6875 21.328125 4.6875 22.65625 L 4.6875 27.34375 C 4.6875 28.4375 5.390625 29.296875 6.40625 29.609375 L 9.6875 46.875 C 10.078125 48.75 11.640625 50.078125 13.515625 50.078125 L 36.484375 50.078125 C 38.359375 50.078125 40 48.75 40.3125 46.875 L 43.59375 29.609375 C 44.53125 29.296875 45.3125 28.4375 45.3125 27.34375 L 45.3125 22.65625 C 45.3125 21.328125 44.296875 20.3125 42.96875 20.3125 Z M 33.59375 11.015625 C 35.859375 10.390625 38.4375 11.953125 39.453125 12.65625 C 38.90625 13.828125 37.421875 16.40625 35.15625 17.03125 C 33.28125 17.5 31.25 16.5625 30 15.859375 C 30.390625 15.703125 30.703125 15.625 31.09375 15.46875 L 33.359375 14.765625 C 33.75 14.609375 33.984375 14.21875 33.90625 13.828125 C 33.828125 13.4375 33.359375 13.203125 32.96875 13.28125 L 30.703125 13.984375 C 30.46875 14.0625 30.234375 14.140625 29.921875 14.21875 C 30.625 13.046875 31.875 11.484375 33.59375 11.015625 Z M 13.984375 11.953125 C 11.171875 10.3125 10.234375 6.171875 9.921875 4.6875 C 11.328125 4.140625 15.390625 2.890625 18.28125 4.53125 C 20.703125 5.9375 21.71875 9.0625 22.109375 10.9375 C 21.796875 10.703125 21.40625 10.390625 21.015625 10.15625 L 17.265625 7.65625 C 16.875 7.34375 16.40625 7.5 16.171875 7.8125 C 15.9375 8.203125 16.015625 8.671875 16.40625 8.90625 L 20.15625 11.40625 C 20.46875 11.640625 20.859375 11.875 21.171875 12.109375 C 19.296875 12.65625 16.25 13.28125 13.984375 11.953125 Z M 27.109375 4.21875 C 27.96875 2.734375 30.078125 2.109375 31.09375 1.953125 C 31.40625 2.96875 31.953125 5.078125 31.09375 6.5625 C 30.46875 7.734375 29.0625 8.28125 27.96875 8.59375 C 28.359375 7.734375 28.75 6.875 29.296875 6.09375 C 29.53125 5.703125 29.375 5.234375 29.0625 5 C 28.671875 4.765625 28.203125 4.921875 27.96875 5.234375 C 27.5 5.9375 27.1875 6.71875 26.796875 7.421875 C 26.640625 6.484375 26.5625 5.15625 27.109375 4.21875 Z M 43.75 27.34375 C 43.75 27.8125 43.4375 28.125 42.96875 28.125 C 42.578125 28.125 42.265625 28.359375 42.1875 28.75 L 38.75 46.5625 C 38.59375 47.65625 37.578125 48.4375 36.484375 48.4375 L 13.515625 48.4375 C 12.421875 48.4375 11.40625 47.65625 11.25 46.5625 L 7.96875 29.6875 L 33.59375 29.6875 C 34.0625 29.6875 34.375 29.375 34.375 28.90625 C 34.375 28.4375 34.0625 28.125 33.59375 28.125 L 7.03125 28.125 C 6.5625 28.125 6.25 27.8125 6.25 27.34375 L 6.25 22.65625 C 6.25 22.1875 6.5625 21.875 7.03125 21.875 L 42.96875 21.875 C 43.4375 21.875 43.75 22.1875 43.75 22.65625 Z M 43.75 27.34375 "/>
<path style=" stroke:none;fill-rule:nonzero;fill:rgb(55.294118%,42.352941%,62.352941%);fill-opacity:1;" d="M 9.375 23.4375 C 8.90625 23.4375 8.59375 23.75 8.59375 24.21875 L 8.59375 25.78125 C 8.59375 26.25 8.90625 26.5625 9.375 26.5625 C 9.84375 26.5625 10.15625 26.25 10.15625 25.78125 L 10.15625 24.21875 C 10.15625 23.75 9.84375 23.4375 9.375 23.4375 Z M 13.28125 23.4375 C 12.8125 23.4375 12.5 23.75 12.5 24.21875 L 12.5 25.78125 C 12.5 26.25 12.8125 26.5625 13.28125 26.5625 C 13.75 26.5625 14.0625 26.25 14.0625 25.78125 L 14.0625 24.21875 C 14.0625 23.75 13.75 23.4375 13.28125 23.4375 Z M 17.1875 23.4375 C 16.71875 23.4375 16.40625 23.75 16.40625 24.21875 L 16.40625 25.78125 C 16.40625 26.25 16.71875 26.5625 17.1875 26.5625 C 17.65625 26.5625 17.96875 26.25 17.96875 25.78125 L 17.96875 24.21875 C 17.96875 23.75 17.65625 23.4375 17.1875 23.4375 Z M 21.09375 23.4375 C 20.625 23.4375 20.3125 23.75 20.3125 24.21875 L 20.3125 25.78125 C 20.3125 26.25 20.625 26.5625 21.09375 26.5625 C 21.5625 26.5625 21.875 26.25 21.875 25.78125 L 21.875 24.21875 C 21.875 23.75 21.5625 23.4375 21.09375 23.4375 Z M 25 23.4375 C 24.53125 23.4375 24.21875 23.75 24.21875 24.21875 L 24.21875 25.78125 C 24.21875 26.25 24.53125 26.5625 25 26.5625 C 25.46875 26.5625 25.78125 26.25 25.78125 25.78125 L 25.78125 24.21875 C 25.78125 23.75 25.46875 23.4375 25 23.4375 Z M 28.90625 23.4375 C 28.4375 23.4375 28.125 23.75 28.125 24.21875 L 28.125 25.78125 C 28.125 26.25 28.4375 26.5625 28.90625 26.5625 C 29.375 26.5625 29.6875 26.25 29.6875 25.78125 L 29.6875 24.21875 C 29.6875 23.75 29.375 23.4375 28.90625 23.4375 Z M 32.8125 23.4375 C 32.34375 23.4375 32.03125 23.75 32.03125 24.21875 L 32.03125 25.78125 C 32.03125 26.25 32.34375 26.5625 32.8125 26.5625 C 33.28125 26.5625 33.59375 26.25 33.59375 25.78125 L 33.59375 24.21875 C 33.59375 23.75 33.28125 23.4375 32.8125 23.4375 Z M 36.71875 26.5625 C 37.1875 26.5625 37.5 26.25 37.5 25.78125 L 37.5 24.21875 C 37.5 23.75 37.1875 23.4375 36.71875 23.4375 C 36.25 23.4375 35.9375 23.75 35.9375 24.21875 L 35.9375 25.78125 C 35.9375 26.25 36.25 26.5625 36.71875 26.5625 Z M 40.625 23.4375 C 40.15625 23.4375 39.84375 23.75 39.84375 24.21875 L 39.84375 25.78125 C 39.84375 26.25 40.15625 26.5625 40.625 26.5625 C 41.09375 26.5625 41.40625 26.25 41.40625 25.78125 L 41.40625 24.21875 C 41.40625 23.75 41.09375 23.4375 40.625 23.4375 Z M 35.15625 45.3125 L 32.03125 45.3125 C 31.5625 45.3125 31.25 45.625 31.25 46.09375 C 31.25 46.5625 31.5625 46.875 32.03125 46.875 L 35.15625 46.875 C 35.625 46.875 35.9375 46.5625 35.9375 46.09375 C 35.9375 45.625 35.625 45.3125 35.15625 45.3125 Z M 28.90625 45.3125 L 14.0625 45.3125 C 13.59375 45.3125 13.28125 45.625 13.28125 46.09375 C 13.28125 46.5625 13.59375 46.875 14.0625 46.875 L 28.90625 46.875 C 29.375 46.875 29.6875 46.5625 29.6875 46.09375 C 29.6875 45.625 29.375 45.3125 28.90625 45.3125 Z M 39.84375 28.125 L 36.71875 28.125 C 36.25 28.125 35.9375 28.4375 35.9375 28.90625 C 35.9375 29.375 36.25 29.6875 36.71875 29.6875 L 39.84375 29.6875 C 40.3125 29.6875 40.625 29.375 40.625 28.90625 C 40.625 28.4375 40.3125 28.125 39.84375 28.125 Z M 20.234375 17.578125 C 20.3125 17.65625 20.46875 17.65625 20.625 17.65625 C 20.9375 17.65625 21.171875 17.5 21.328125 17.265625 C 21.5625 16.875 21.40625 16.40625 21.015625 16.171875 L 20.078125 15.625 C 19.6875 15.390625 19.21875 15.546875 18.984375 15.9375 C 18.75 16.328125 18.90625 16.796875 19.296875 17.03125 Z M 20.234375 17.578125 "/>
</g>
</svg>
