<?xml version="1.0" encoding="UTF-8"?>
<svg xmlns="http://www.w3.org/2000/svg" xmlns:xlink="http://www.w3.org/1999/xlink" width="50px" height="50px" viewBox="0 0 50 50" version="1.1">
<g id="surface165365">
<path style=" stroke:none;fill-rule:nonzero;fill:rgb(54.509804%,55.686275%,59.607843%);fill-opacity:1;" d="M 31.109375 8.835938 C 30.921875 6.703125 27.90625 5 24.21875 5 C 20.53125 5 17.515625 6.703125 17.328125 8.835938 "/>
<path style=" stroke:none;fill-rule:nonzero;fill:rgb(54.509804%,55.686275%,59.607843%);fill-opacity:1;" d="M 9.890625 16.484375 C 10.46875 11.664062 16.664062 7.890625 24.21875 7.890625 C 31.664062 7.890625 37.78125 11.570312 38.523438 16.28125 "/>
<path style=" stroke:none;fill-rule:nonzero;fill:rgb(54.509804%,55.686275%,59.607843%);fill-opacity:1;" d="M 38.523438 16.265625 L 29.6875 16.335938 L 26.328125 16.335938 L 21.25 16.40625 L 9.890625 16.40625 C 10.40625 12.039062 15.554688 8.515625 22.148438 7.898438 C 22.835938 7.855469 23.527344 7.847656 24.21875 7.875 C 24.925781 7.871094 25.632812 7.90625 26.335938 7.976562 C 27.300781 8.066406 28.253906 8.226562 29.195312 8.453125 C 30.476562 8.75 31.71875 9.195312 32.898438 9.773438 C 33.628906 10.132812 34.328125 10.550781 34.984375 11.03125 C 36.8125 12.234375 38.085938 14.121094 38.523438 16.265625 Z M 38.523438 16.265625 "/>
<path style=" stroke:none;fill-rule:nonzero;fill:rgb(92.941176%,47.058824%,60%);fill-opacity:1;" d="M 10 16.5 C 8.695312 16.507812 7.558594 17.382812 7.21875 18.640625 C 6.574219 20.988281 6.246094 23.410156 6.25 25.84375 C 6.25 38.148438 14.296875 48.125 24.21875 48.125 C 34.140625 48.125 42.1875 38.148438 42.1875 25.84375 C 42.191406 23.410156 41.867188 20.988281 41.226562 18.640625 C 40.886719 17.382812 39.75 16.507812 38.445312 16.5 Z M 10 16.5 "/>
<path style=" stroke:none;fill-rule:nonzero;fill:rgb(94.901961%,51.372549%,64.705882%);fill-opacity:1;" d="M 42.1875 25.84375 C 42.210938 29.863281 41.304688 33.835938 39.546875 37.453125 C 39.300781 37.953125 38.828125 38.304688 38.28125 38.398438 C 37.730469 38.488281 37.171875 38.3125 36.773438 37.921875 C 36.230469 37.390625 36.097656 36.5625 36.453125 35.890625 C 38.191406 32.546875 39.089844 28.832031 39.0625 25.0625 C 39.0625 22.984375 38.804688 20.9375 37.554688 16.796875 L 39.710938 16.796875 C 40.457031 17.167969 41.007812 17.839844 41.226562 18.640625 C 41.867188 20.988281 42.1875 23.410156 42.1875 25.84375 Z M 42.1875 25.84375 "/>
<path style=" stroke:none;fill-rule:nonzero;fill:rgb(92.941176%,47.058824%,60%);fill-opacity:1;" d="M 39.0625 25.0625 C 39.105469 29.261719 37.984375 33.390625 35.828125 36.992188 L 38.398438 39.515625 C 35.15625 44.757812 29.984375 48.125 24.21875 48.125 C 14.296875 48.125 6.25 38.148438 6.25 25.84375 C 6.25 23.410156 6.570312 20.988281 7.210938 18.640625 C 7.550781 17.378906 8.691406 16.5 10 16.5 L 38.4375 16.5 C 38.878906 16.5 39.316406 16.601562 39.710938 16.796875 L 37.554688 16.796875 C 38.804688 20.9375 39.0625 22.984375 39.0625 25.0625 Z M 39.0625 25.0625 "/>
<path style=" stroke:none;fill-rule:nonzero;fill:rgb(87.843137%,40.392157%,56.078431%);fill-opacity:1;" d="M 20.546875 44.351562 L 20.546875 44.546875 C 20.445312 45.300781 19.980469 45.960938 19.304688 46.308594 C 18.628906 46.660156 17.824219 46.664062 17.148438 46.3125 C 10.726562 42.90625 6.25 35.023438 6.25 25.84375 C 6.246094 24.25 6.382812 22.664062 6.65625 21.09375 C 6.753906 20.582031 7.0625 20.132812 7.511719 19.863281 C 7.960938 19.59375 8.5 19.527344 9 19.679688 C 9.84375 19.941406 10.378906 20.765625 10.28125 21.640625 C 10.191406 22.519531 10.148438 23.398438 10.15625 24.28125 C 10.15625 32.234375 13.921875 39.0625 19.273438 41.960938 C 20.160156 42.40625 20.671875 43.367188 20.546875 44.351562 Z M 20.546875 44.351562 "/>
<path style=" stroke:none;fill-rule:nonzero;fill:rgb(59.607843%,60.784314%,63.921569%);fill-opacity:1;" d="M 32.898438 9.773438 L 26.3125 16.359375 L 21.25 16.40625 L 29.195312 8.453125 C 30.476562 8.75 31.71875 9.195312 32.898438 9.773438 Z M 38.523438 16.265625 L 29.6875 16.335938 L 35 11.03125 C 36.824219 12.238281 38.089844 14.121094 38.523438 16.265625 Z M 26.335938 7.976562 L 17.890625 16.40625 L 13.671875 16.40625 L 22.148438 7.976562 C 22.835938 7.90625 23.527344 7.871094 24.21875 7.875 C 24.925781 7.871094 25.632812 7.90625 26.335938 7.976562 Z M 26.335938 7.976562 "/>
<path style=" stroke:none;fill-rule:nonzero;fill:rgb(55.294118%,42.352941%,62.352941%);fill-opacity:1;" d="M 10.984375 25.9375 L 11.054688 25.9375 C 11.484375 25.953125 11.851562 25.617188 11.867188 25.1875 C 11.882812 24.757812 11.546875 24.390625 11.117188 24.375 L 9.554688 24.242188 C 9.125 24.207031 8.75 24.523438 8.710938 24.953125 C 8.683594 25.375 9 25.742188 9.421875 25.78125 Z M 17.351562 39.578125 L 16.460938 40.859375 C 16.210938 41.214844 16.296875 41.699219 16.652344 41.949219 C 17.007812 42.199219 17.492188 42.113281 17.742188 41.757812 L 18.640625 40.476562 C 18.890625 40.121094 18.804688 39.636719 18.449219 39.386719 C 18.09375 39.136719 17.609375 39.222656 17.359375 39.578125 Z M 14.328125 36.53125 L 13.132812 37.539062 C 12.804688 37.816406 12.761719 38.3125 13.039062 38.640625 C 13.316406 38.96875 13.8125 39.011719 14.140625 38.734375 L 15.335938 37.726562 C 15.664062 37.449219 15.707031 36.953125 15.429688 36.625 C 15.152344 36.296875 14.65625 36.253906 14.328125 36.53125 Z M 13.234375 33.1875 C 13.050781 32.800781 12.589844 32.632812 12.203125 32.8125 L 10.789062 33.476562 C 10.40625 33.664062 10.246094 34.125 10.425781 34.507812 C 10.609375 34.894531 11.0625 35.0625 11.453125 34.890625 L 12.867188 34.226562 C 13.253906 34.039062 13.417969 33.574219 13.234375 33.1875 Z M 12.007812 29.304688 C 11.933594 28.878906 11.527344 28.597656 11.101562 28.671875 L 9.539062 28.945312 C 9.109375 28.980469 8.789062 29.363281 8.824219 29.792969 C 8.859375 30.222656 9.242188 30.542969 9.671875 30.507812 L 9.8125 30.507812 L 11.375 30.234375 C 11.585938 30.199219 11.769531 30.078125 11.890625 29.902344 C 12.007812 29.730469 12.050781 29.511719 12.007812 29.304688 Z M 37.84375 22.078125 C 37.90625 22.460938 38.238281 22.738281 38.625 22.734375 L 38.75 22.734375 C 39.175781 22.664062 39.460938 22.261719 39.390625 21.835938 C 39.28125 21.1875 39.148438 20.539062 38.992188 19.90625 C 38.835938 19.550781 38.445312 19.359375 38.070312 19.464844 C 37.695312 19.566406 37.453125 19.925781 37.5 20.3125 C 37.617188 20.867188 37.742188 21.476562 37.84375 22.078125 Z M 38.929688 25 C 38.5 25 38.148438 25.351562 38.148438 25.78125 C 38.160156 28.398438 37.703125 30.996094 36.796875 33.453125 C 36.722656 33.648438 36.730469 33.863281 36.816406 34.054688 C 36.902344 34.242188 37.0625 34.390625 37.257812 34.460938 C 37.34375 34.492188 37.4375 34.507812 37.53125 34.507812 C 37.859375 34.507812 38.152344 34.304688 38.265625 34 C 39.234375 31.367188 39.726562 28.585938 39.710938 25.78125 C 39.710938 25.351562 39.359375 25 38.929688 25 Z M 24.21875 39.0625 C 23.789062 39.0625 23.4375 39.414062 23.4375 39.84375 L 23.4375 42.96875 C 23.4375 43.398438 23.789062 43.75 24.21875 43.75 C 24.648438 43.75 25 43.398438 25 42.96875 L 25 39.84375 C 25 39.414062 24.648438 39.0625 24.21875 39.0625 Z M 24.21875 39.0625 "/>
<path style=" stroke:none;fill-rule:nonzero;fill:rgb(55.294118%,42.352941%,62.352941%);fill-opacity:1;" d="M 48.398438 42.96875 L 46.054688 36.015625 C 45.539062 34.46875 44.484375 33.160156 43.085938 32.320312 L 42.304688 31.84375 C 42.742188 29.875 42.964844 27.863281 42.96875 25.84375 C 42.96875 25.65625 42.96875 25.460938 42.96875 25.273438 L 47.578125 25.851562 L 47.65625 25.851562 C 48.085938 25.878906 48.457031 25.546875 48.484375 25.117188 C 48.511719 24.6875 48.179688 24.316406 47.75 24.289062 L 42.875 23.679688 C 42.761719 22.207031 42.535156 20.742188 42.1875 19.304688 L 43.8125 18.609375 C 45.714844 17.8125 47.152344 16.191406 47.71875 14.210938 L 48.4375 11.71875 C 48.566406 11.289062 48.320312 10.832031 47.890625 10.703125 C 47.460938 10.574219 47.003906 10.820312 46.875 11.25 L 46.15625 13.773438 C 45.734375 15.300781 44.648438 16.554688 43.195312 17.1875 L 41.734375 17.8125 C 41.242188 16.800781 40.316406 16.070312 39.21875 15.828125 C 38.5625 12.65625 35.757812 9.992188 31.835938 8.476562 C 31.558594 7.3125 30.816406 6.3125 29.78125 5.710938 L 32.578125 2.914062 C 32.84375 2.605469 32.824219 2.140625 32.539062 1.851562 C 32.25 1.566406 31.785156 1.546875 31.476562 1.8125 L 28.351562 4.9375 C 25.695312 3.964844 22.78125 3.964844 20.125 4.9375 L 17 1.8125 C 16.691406 1.546875 16.226562 1.566406 15.9375 1.851562 C 15.652344 2.140625 15.632812 2.605469 15.898438 2.914062 L 18.695312 5.710938 C 17.664062 6.3125 16.925781 7.308594 16.648438 8.46875 C 12.742188 9.976562 9.921875 12.640625 9.265625 15.835938 C 8.167969 16.078125 7.242188 16.808594 6.75 17.820312 L 5.242188 17.1875 C 3.785156 16.566406 2.683594 15.320312 2.25 13.796875 L 1.5625 11.25 C 1.433594 10.820312 0.976562 10.574219 0.546875 10.703125 C 0.117188 10.832031 -0.128906 11.289062 0 11.71875 L 0.78125 14.210938 C 1.347656 16.191406 2.785156 17.8125 4.6875 18.609375 L 6.25 19.304688 C 5.902344 20.746094 5.667969 22.210938 5.554688 23.6875 L 0.6875 24.296875 C 0.257812 24.324219 -0.0742188 24.695312 -0.046875 25.125 C -0.0195312 25.554688 0.351562 25.886719 0.78125 25.859375 L 0.882812 25.859375 L 5.46875 25.273438 C 5.46875 25.460938 5.46875 25.648438 5.46875 25.84375 C 5.46875 27.863281 5.683594 29.878906 6.117188 31.851562 L 5.335938 32.328125 C 3.929688 33.164062 2.867188 34.472656 2.34375 36.023438 L 0.0390625 42.96875 C -0.0976562 43.378906 0.125 43.820312 0.535156 43.957031 C 0.945312 44.09375 1.386719 43.871094 1.523438 43.460938 L 3.867188 36.507812 C 4.265625 35.316406 5.078125 34.304688 6.15625 33.65625 L 6.546875 33.421875 C 9.070312 42.429688 16.039062 48.90625 24.21875 48.90625 C 32.398438 48.90625 39.367188 42.429688 41.921875 33.429688 L 42.3125 33.664062 C 43.390625 34.3125 44.203125 35.324219 44.601562 36.515625 L 46.945312 43.46875 C 47.082031 43.878906 47.523438 44.101562 47.933594 43.964844 C 48.34375 43.828125 48.566406 43.386719 48.429688 42.976562 Z M 24.21875 5.78125 C 26.71875 5.78125 28.90625 6.632812 29.859375 7.8125 C 28.019531 7.328125 26.121094 7.089844 24.21875 7.09375 C 22.320312 7.085938 20.425781 7.324219 18.585938 7.796875 C 19.53125 6.625 21.726562 5.78125 24.21875 5.78125 Z M 24.21875 8.65625 C 30.765625 8.65625 36.445312 11.710938 37.59375 15.6875 L 10.835938 15.6875 C 11.984375 11.71875 17.609375 8.65625 24.21875 8.65625 Z M 24.21875 47.34375 C 14.742188 47.34375 7.03125 37.695312 7.03125 25.84375 C 7.023438 23.46875 7.339844 21.101562 7.96875 18.8125 C 8.21875 17.894531 9.050781 17.257812 10 17.25 L 23.4375 17.25 L 23.4375 36.71875 C 23.4375 37.148438 23.789062 37.5 24.21875 37.5 C 24.648438 37.5 25 37.148438 25 36.71875 L 25 17.28125 L 38.4375 17.28125 C 39.386719 17.289062 40.21875 17.925781 40.46875 18.84375 C 41.097656 21.132812 41.414062 23.5 41.40625 25.875 C 41.40625 37.695312 33.695312 47.34375 24.21875 47.34375 Z M 24.21875 47.34375 "/>
</g>
</svg>
