<?xml version="1.0" encoding="UTF-8"?>
<svg xmlns="http://www.w3.org/2000/svg" xmlns:xlink="http://www.w3.org/1999/xlink" width="50px" height="50px" viewBox="0 0 50 50" version="1.1">
<g id="surface371769">
<path style=" stroke:none;fill-rule:nonzero;fill:rgb(85.490196%,86.27451%,92.54902%);fill-opacity:1;" d="M 31.382812 34.375 L 34.445312 31.316406 L 36.65625 33.523438 L 33.59375 36.585938 Z M 31.382812 34.375 "/>
<path style=" stroke:none;fill-rule:nonzero;fill:rgb(80.392157%,63.137255%,65.490196%);fill-opacity:1;" d="M 35.089844 35.355469 L 35.359375 35.085938 C 36.582031 33.863281 38.558594 33.863281 39.78125 35.085938 L 47.796875 43.101562 C 49.015625 44.320312 49.015625 46.300781 47.796875 47.519531 L 47.523438 47.789062 C 46.304688 49.011719 44.328125 49.011719 43.105469 47.789062 L 35.089844 39.773438 C 33.871094 38.554688 33.871094 36.574219 35.089844 35.355469 Z M 35.089844 35.355469 "/>
<path style=" stroke:none;fill-rule:nonzero;fill:rgb(76.862745%,57.647059%,61.176471%);fill-opacity:1;" d="M 34.050781 36.394531 C 34.699219 35.75 35.746094 35.75 36.394531 36.394531 L 46.488281 46.488281 C 47.132812 47.136719 47.132812 48.183594 46.488281 48.832031 C 45.839844 49.476562 44.789062 49.476562 44.144531 48.832031 L 34.050781 38.738281 C 33.40625 38.089844 33.40625 37.042969 34.050781 36.394531 Z M 34.050781 36.394531 "/>
<path style=" stroke:none;fill-rule:nonzero;fill:rgb(100%,92.156863%,60.784314%);fill-opacity:1;" d="M 19.53125 0.78125 C 9.175781 0.78125 0.78125 9.175781 0.78125 19.53125 C 0.78125 29.886719 9.175781 38.28125 19.53125 38.28125 C 29.886719 38.28125 38.28125 29.886719 38.28125 19.53125 C 38.28125 9.175781 29.886719 0.78125 19.53125 0.78125 Z M 19.53125 0.78125 "/>
<path style=" stroke:none;fill-rule:nonzero;fill:rgb(96.470588%,82.745098%,59.215686%);fill-opacity:1;" d="M 8.703125 30.359375 L 30.359375 8.703125 C 31.011719 8.050781 31.921875 7.71875 32.84375 7.800781 C 33.765625 7.882812 34.605469 8.367188 35.132812 9.125 C 40.132812 16.5625 39.171875 26.5 32.835938 32.839844 C 26.503906 39.179688 16.566406 40.148438 9.125 35.15625 C 8.359375 34.628906 7.867188 33.785156 7.785156 32.855469 C 7.703125 31.929688 8.039062 31.011719 8.703125 30.359375 Z M 8.703125 30.359375 "/>
<path style=" stroke:none;fill-rule:nonzero;fill:rgb(73.333333%,87.058824%,97.647059%);fill-opacity:1;" d="M 19.53125 5.46875 C 11.765625 5.46875 5.46875 11.765625 5.46875 19.53125 C 5.46875 27.296875 11.765625 33.59375 19.53125 33.59375 C 27.296875 33.59375 33.59375 27.296875 33.59375 19.53125 C 33.59375 11.765625 27.296875 5.46875 19.53125 5.46875 Z M 19.53125 5.46875 "/>
<path style=" stroke:none;fill-rule:nonzero;fill:rgb(82.352941%,92.941176%,100%);fill-opacity:1;" d="M 19.53125 14.0625 C 16.511719 14.0625 14.0625 16.511719 14.0625 19.53125 C 14.0625 22.550781 16.511719 25 19.53125 25 C 22.550781 25 25 22.550781 25 19.53125 C 25 16.511719 22.550781 14.0625 19.53125 14.0625 Z M 19.53125 14.0625 "/>
<path style=" stroke:none;fill-rule:nonzero;fill:rgb(95.294118%,95.294118%,95.294118%);fill-opacity:1;" d="M 16.40625 13.28125 C 14.679688 13.28125 13.28125 14.679688 13.28125 16.40625 C 13.28125 18.132812 14.679688 19.53125 16.40625 19.53125 C 18.132812 19.53125 19.53125 18.132812 19.53125 16.40625 C 19.53125 14.679688 18.132812 13.28125 16.40625 13.28125 Z M 23.046875 21.875 C 22.398438 21.875 21.875 22.398438 21.875 23.046875 C 21.875 23.695312 22.398438 24.21875 23.046875 24.21875 C 23.695312 24.21875 24.21875 23.695312 24.21875 23.046875 C 24.21875 22.398438 23.695312 21.875 23.046875 21.875 Z M 23.046875 21.875 "/>
<path style=" stroke:none;fill-rule:nonzero;fill:rgb(55.294118%,42.352941%,62.352941%);fill-opacity:1;" d="M 30.03125 9.039062 C 24.234375 3.242188 14.835938 3.242188 9.039062 9.039062 C 3.242188 14.835938 3.242188 24.234375 9.039062 30.03125 C 14.835938 35.828125 24.234375 35.828125 30.03125 30.03125 C 32.839844 27.261719 34.417969 23.480469 34.417969 19.535156 C 34.417969 15.589844 32.839844 11.808594 30.03125 9.039062 Z M 28.90625 28.90625 C 25.113281 32.714844 19.394531 33.859375 14.425781 31.804688 C 9.457031 29.753906 6.21875 24.90625 6.21875 19.53125 C 6.21875 14.15625 9.457031 9.308594 14.425781 7.257812 C 19.394531 5.203125 25.113281 6.347656 28.90625 10.15625 C 31.40625 12.632812 32.816406 16.011719 32.816406 19.53125 C 32.816406 23.050781 31.40625 26.429688 28.90625 28.90625 Z M 28.90625 28.90625 "/>
<path style=" stroke:none;fill-rule:nonzero;fill:rgb(55.294118%,42.352941%,62.352941%);fill-opacity:1;" d="M 24.375 11.5 C 25.023438 11.890625 25.621094 12.363281 26.15625 12.898438 C 26.460938 13.203125 26.957031 13.207031 27.261719 12.902344 C 27.566406 12.597656 27.570312 12.101562 27.265625 11.796875 C 26.640625 11.167969 25.9375 10.617188 25.179688 10.15625 C 24.820312 10.007812 24.40625 10.148438 24.207031 10.484375 C 24.011719 10.820312 24.09375 11.25 24.398438 11.492188 Z M 20.609375 8.648438 C 17.355469 8.320312 14.125 9.46875 11.804688 11.773438 C 11.582031 11.964844 11.484375 12.265625 11.554688 12.550781 C 11.621094 12.835938 11.84375 13.058594 12.128906 13.125 C 12.414062 13.195312 12.714844 13.097656 12.90625 12.875 C 14.890625 10.886719 17.664062 9.894531 20.460938 10.171875 C 20.890625 10.214844 21.277344 9.898438 21.320312 9.46875 C 21.363281 9.039062 21.046875 8.652344 20.617188 8.609375 Z M 20.609375 8.648438 "/>
<path style=" stroke:none;fill-rule:nonzero;fill:rgb(55.294118%,42.352941%,62.352941%);fill-opacity:1;" d="M 48.34375 42.546875 L 40.265625 34.46875 C 39.519531 33.726562 38.503906 33.320312 37.453125 33.335938 C 37.453125 33.226562 35.289062 31.0625 35.289062 31.0625 C 41.316406 22.828125 39.988281 11.339844 32.238281 4.699219 C 24.488281 -1.941406 12.933594 -1.5 5.71875 5.71875 C -1.5 12.933594 -1.941406 24.488281 4.699219 32.238281 C 11.339844 39.988281 22.828125 41.316406 31.0625 35.289062 C 31.0625 35.289062 33.234375 37.414062 33.335938 37.453125 C 33.4375 37.492188 33.335938 37.453125 33.335938 37.507812 C 33.335938 38.542969 33.746094 39.539062 34.476562 40.273438 L 42.546875 48.34375 C 44.070312 49.867188 46.546875 49.867188 48.070312 48.34375 L 48.335938 48.078125 C 49.859375 46.554688 49.859375 44.078125 48.335938 42.554688 Z M 1.5625 19.53125 C 1.5625 9.605469 9.605469 1.5625 19.53125 1.5625 C 29.457031 1.5625 37.5 9.605469 37.5 19.53125 C 37.5 29.457031 29.457031 37.5 19.53125 37.5 C 9.605469 37.5 1.5625 29.457031 1.5625 19.53125 Z M 34.46875 34.734375 C 34.175781 35.035156 33.933594 35.386719 33.75 35.765625 L 32.289062 34.304688 C 33.011719 33.679688 33.6875 33.003906 34.3125 32.28125 L 35.78125 33.75 C 35.402344 33.933594 35.050781 34.175781 34.75 34.46875 Z M 47.234375 46.96875 L 46.96875 47.234375 C 46.054688 48.148438 44.570312 48.148438 43.65625 47.234375 L 35.578125 39.15625 C 34.664062 38.242188 34.664062 36.757812 35.578125 35.84375 L 35.84375 35.578125 C 36.757812 34.664062 38.242188 34.664062 39.15625 35.578125 L 47.234375 43.65625 C 48.148438 44.570312 48.148438 46.054688 47.234375 46.96875 Z M 47.234375 46.96875 "/>
<path style=" stroke:none;fill-rule:nonzero;fill:rgb(55.294118%,42.352941%,62.352941%);fill-opacity:1;" d="M 26.710938 25.609375 C 26.402344 25.34375 25.9375 25.363281 25.648438 25.648438 C 25.363281 25.9375 25.34375 26.402344 25.609375 26.710938 L 26.710938 27.8125 C 27.019531 28.078125 27.484375 28.058594 27.773438 27.773438 C 28.058594 27.484375 28.078125 27.019531 27.8125 26.710938 Z M 12.351562 25.609375 L 11.25 26.710938 C 11.027344 26.902344 10.929688 27.203125 11 27.488281 C 11.066406 27.773438 11.289062 27.996094 11.574219 28.0625 C 11.859375 28.132812 12.160156 28.035156 12.351562 27.8125 L 13.453125 26.710938 C 13.71875 26.402344 13.699219 25.9375 13.414062 25.648438 C 13.125 25.363281 12.660156 25.34375 12.351562 25.609375 Z M 30.46875 18.75 L 28.90625 18.75 C 28.476562 18.75 28.125 19.101562 28.125 19.53125 C 28.125 19.960938 28.476562 20.3125 28.90625 20.3125 L 30.46875 20.3125 C 30.898438 20.3125 31.25 19.960938 31.25 19.53125 C 31.25 19.101562 30.898438 18.75 30.46875 18.75 Z M 10.9375 19.53125 C 10.9375 19.101562 10.585938 18.75 10.15625 18.75 L 8.59375 18.75 C 8.164062 18.75 7.8125 19.101562 7.8125 19.53125 C 7.8125 19.960938 8.164062 20.3125 8.59375 20.3125 L 10.15625 20.3125 C 10.585938 20.3125 10.9375 19.960938 10.9375 19.53125 Z M 19.53125 28.125 C 19.101562 28.125 18.75 28.476562 18.75 28.90625 L 18.75 30.46875 C 18.75 30.898438 19.101562 31.25 19.53125 31.25 C 19.960938 31.25 20.3125 30.898438 20.3125 30.46875 L 20.3125 28.90625 C 20.3125 28.476562 19.960938 28.125 19.53125 28.125 Z M 29.90625 23.085938 L 28.46875 22.476562 C 28.210938 22.355469 27.90625 22.382812 27.675781 22.554688 C 27.441406 22.722656 27.324219 23.003906 27.363281 23.289062 C 27.402344 23.574219 27.589844 23.8125 27.859375 23.914062 L 29.296875 24.523438 C 29.554688 24.644531 29.859375 24.617188 30.089844 24.445312 C 30.324219 24.277344 30.441406 23.996094 30.402344 23.710938 C 30.363281 23.425781 30.175781 23.1875 29.90625 23.085938 Z M 16.171875 27.445312 C 15.773438 27.277344 15.316406 27.460938 15.148438 27.859375 L 14.539062 29.296875 C 14.417969 29.554688 14.445312 29.859375 14.617188 30.089844 C 14.785156 30.324219 15.066406 30.441406 15.351562 30.402344 C 15.636719 30.363281 15.875 30.175781 15.976562 29.90625 L 16.585938 28.46875 C 16.753906 28.070312 16.570312 27.613281 16.171875 27.445312 Z M 11.5625 22.75 C 11.398438 22.351562 10.945312 22.160156 10.546875 22.320312 L 9.101562 22.90625 C 8.824219 23 8.625 23.238281 8.578125 23.523438 C 8.53125 23.808594 8.648438 24.097656 8.882812 24.273438 C 9.117188 24.445312 9.425781 24.476562 9.6875 24.351562 L 11.132812 23.765625 C 11.53125 23.601562 11.722656 23.148438 11.5625 22.75 Z M 23.765625 27.929688 C 23.585938 27.558594 23.148438 27.386719 22.765625 27.542969 C 22.386719 27.699219 22.1875 28.125 22.320312 28.515625 L 22.90625 29.960938 C 23.085938 30.332031 23.523438 30.503906 23.90625 30.347656 C 24.285156 30.191406 24.484375 29.765625 24.351562 29.375 Z M 23.765625 27.929688 "/>
</g>
</svg>
