<?xml version="1.0" encoding="UTF-8"?>
<svg xmlns="http://www.w3.org/2000/svg" xmlns:xlink="http://www.w3.org/1999/xlink" width="50px" height="50px" viewBox="0 0 50 50" version="1.1">
<g id="surface164548">
<path style=" stroke:none;fill-rule:nonzero;fill:rgb(77.254902%,89.411765%,98.039216%);fill-opacity:1;" d="M 5.46875 14.84375 L 44.53125 14.84375 L 44.53125 38.28125 L 5.46875 38.28125 Z M 5.46875 14.84375 "/>
<path style=" stroke:none;fill-rule:nonzero;fill:rgb(89.019608%,94.901961%,100%);fill-opacity:1;" d="M 32.8125 37.5 L 44.53125 25.78125 L 44.53125 15.625 L 42.96875 15.625 L 21.09375 37.5 Z M 13.28125 37.5 L 17.96875 37.5 L 39.84375 15.625 L 35.15625 15.625 Z M 10.15625 37.5 L 32.03125 15.625 L 28.125 15.625 L 6.25 37.5 Z M 10.15625 37.5 "/>
<path style=" stroke:none;fill-rule:nonzero;fill:rgb(100%,93.72549%,72.156863%);fill-opacity:1;" d="M 3.125 38.28125 L 46.09375 38.28125 C 46.523438 38.28125 46.875 38.632812 46.875 39.0625 L 46.875 40.625 C 46.875 41.054688 46.523438 41.40625 46.09375 41.40625 L 3.125 41.40625 C 2.695312 41.40625 2.34375 41.054688 2.34375 40.625 L 2.34375 39.0625 C 2.34375 38.632812 2.695312 38.28125 3.125 38.28125 Z M 3.125 38.28125 "/>
<path style=" stroke:none;fill-rule:nonzero;fill:rgb(67.45098%,71.764706%,81.568627%);fill-opacity:1;" d="M 3.90625 7.03125 L 46.09375 7.03125 C 46.957031 7.03125 47.65625 7.730469 47.65625 8.59375 L 47.65625 13.28125 C 47.65625 14.144531 46.957031 14.84375 46.09375 14.84375 L 3.90625 14.84375 C 3.042969 14.84375 2.34375 14.144531 2.34375 13.28125 L 2.34375 8.59375 C 2.34375 7.730469 3.042969 7.03125 3.90625 7.03125 Z M 3.90625 7.03125 "/>
<path style=" stroke:none;fill-rule:nonzero;fill:rgb(44.705882%,79.215686%,68.627451%);fill-opacity:1;" d="M 29.6875 28.125 C 28.824219 28.125 28.125 28.824219 28.125 29.6875 C 28.125 30.550781 28.824219 31.25 29.6875 31.25 C 30.550781 31.25 31.25 30.550781 31.25 29.6875 C 31.25 28.824219 30.550781 28.125 29.6875 28.125 Z M 23.4375 23.4375 C 22.574219 23.4375 21.875 24.136719 21.875 25 C 21.875 25.863281 22.574219 26.5625 23.4375 26.5625 C 24.300781 26.5625 25 25.863281 25 25 C 25 24.136719 24.300781 23.4375 23.4375 23.4375 Z M 14.84375 30.46875 C 13.980469 30.46875 13.28125 31.167969 13.28125 32.03125 C 13.28125 32.894531 13.980469 33.59375 14.84375 33.59375 C 15.707031 33.59375 16.40625 32.894531 16.40625 32.03125 C 16.40625 31.167969 15.707031 30.46875 14.84375 30.46875 Z M 14.84375 30.46875 "/>
<path style=" stroke:none;fill-rule:nonzero;fill:rgb(55.294118%,42.352941%,62.352941%);fill-opacity:1;" d="M 46.09375 15.625 C 47.386719 15.625 48.4375 14.574219 48.4375 13.28125 L 48.4375 8.59375 C 48.4375 7.300781 47.386719 6.25 46.09375 6.25 L 29.265625 6.25 L 26.742188 3.273438 C 26.296875 2.738281 25.636719 2.429688 24.941406 2.429688 C 24.246094 2.429688 23.585938 2.738281 23.140625 3.273438 L 20.726562 6.25 L 3.90625 6.25 C 2.613281 6.25 1.5625 7.300781 1.5625 8.59375 L 1.5625 13.28125 C 1.5625 14.574219 2.613281 15.625 3.90625 15.625 L 4.6875 15.625 L 4.6875 37.5 L 3.90625 37.5 C 2.613281 37.5 1.5625 38.550781 1.5625 39.84375 C 1.5625 41.136719 2.613281 42.1875 3.90625 42.1875 L 24.21875 42.1875 L 24.21875 45.3125 C 24.214844 45.355469 24.214844 45.402344 24.21875 45.445312 C 23.132812 45.8125 22.472656 46.914062 22.660156 48.046875 C 22.847656 49.179688 23.824219 50.007812 24.972656 50.007812 C 26.121094 50.007812 27.097656 49.179688 27.285156 48.046875 C 27.472656 46.914062 26.8125 45.8125 25.726562 45.445312 C 25.75 45.402344 25.765625 45.359375 25.78125 45.3125 L 25.78125 42.1875 L 46.09375 42.1875 C 47.386719 42.1875 48.4375 41.136719 48.4375 39.84375 C 48.4375 38.550781 47.386719 37.5 46.09375 37.5 L 45.3125 37.5 L 45.3125 15.625 Z M 25 48.4375 C 24.570312 48.4375 24.21875 48.085938 24.21875 47.65625 C 24.21875 47.226562 24.570312 46.875 25 46.875 C 25.429688 46.875 25.78125 47.226562 25.78125 47.65625 C 25.78125 48.085938 25.429688 48.4375 25 48.4375 Z M 24.351562 4.289062 C 24.5 4.109375 24.71875 4 24.953125 4 C 25.1875 3.988281 25.410156 4.089844 25.554688 4.273438 L 27.21875 6.25 L 22.742188 6.25 Z M 3.90625 14.0625 C 3.476562 14.0625 3.125 13.710938 3.125 13.28125 L 3.125 8.59375 C 3.125 8.164062 3.476562 7.8125 3.90625 7.8125 L 46.09375 7.8125 C 46.523438 7.8125 46.875 8.164062 46.875 8.59375 L 46.875 13.28125 C 46.875 13.710938 46.523438 14.0625 46.09375 14.0625 Z M 46.09375 39.0625 C 46.523438 39.0625 46.875 39.414062 46.875 39.84375 C 46.875 40.273438 46.523438 40.625 46.09375 40.625 L 3.90625 40.625 C 3.476562 40.625 3.125 40.273438 3.125 39.84375 C 3.125 39.414062 3.476562 39.0625 3.90625 39.0625 Z M 43.75 37.5 L 6.25 37.5 L 6.25 29.296875 L 12.5 31.90625 C 12.5 31.945312 12.5 31.992188 12.5 32.03125 C 12.5 33.324219 13.550781 34.375 14.84375 34.375 C 16.136719 34.375 17.1875 33.324219 17.1875 32.03125 C 17.183594 31.765625 17.132812 31.5 17.039062 31.25 L 22.226562 27.007812 C 23 27.476562 23.976562 27.460938 24.734375 26.960938 L 27.460938 29.007812 C 27.386719 29.226562 27.347656 29.457031 27.34375 29.6875 C 27.34375 30.980469 28.394531 32.03125 29.6875 32.03125 C 30.980469 32.03125 32.03125 30.980469 32.03125 29.6875 C 32.027344 29.339844 31.949219 28.992188 31.796875 28.679688 L 37.5 22.976562 L 37.5 26.15625 C 37.5 26.585938 37.851562 26.9375 38.28125 26.9375 C 38.710938 26.9375 39.0625 26.585938 39.0625 26.15625 L 39.0625 21.09375 C 39.0625 20.664062 38.710938 20.3125 38.28125 20.3125 L 33.210938 20.3125 C 32.78125 20.3125 32.429688 20.664062 32.429688 21.09375 C 32.429688 21.523438 32.78125 21.875 33.210938 21.875 L 36.390625 21.875 L 30.6875 27.578125 C 29.945312 27.214844 29.066406 27.273438 28.382812 27.734375 L 25.65625 25.6875 C 25.730469 25.464844 25.773438 25.234375 25.78125 25 C 25.78125 23.707031 24.730469 22.65625 23.4375 22.65625 C 22.144531 22.65625 21.09375 23.707031 21.09375 25 C 21.097656 25.265625 21.148438 25.53125 21.242188 25.78125 L 16.054688 30.023438 C 15.101562 29.433594 13.863281 29.613281 13.117188 30.453125 L 6.25 27.601562 L 6.25 15.625 L 43.75 15.625 Z M 15.773438 32.03125 C 15.773438 32.542969 15.355469 32.960938 14.84375 32.960938 C 14.332031 32.960938 13.914062 32.542969 13.914062 32.03125 C 13.914062 31.519531 14.332031 31.101562 14.84375 31.101562 C 15.355469 31.101562 15.773438 31.519531 15.773438 32.03125 Z M 23.4375 25.90625 C 22.9375 25.90625 22.53125 25.5 22.53125 25 C 22.53125 24.5 22.9375 24.09375 23.4375 24.09375 C 23.9375 24.09375 24.34375 24.5 24.34375 25 C 24.34375 25.5 23.9375 25.90625 23.4375 25.90625 Z M 30.59375 29.6875 C 30.59375 30.1875 30.1875 30.59375 29.6875 30.59375 C 29.1875 30.59375 28.78125 30.1875 28.78125 29.6875 C 28.78125 29.1875 29.1875 28.78125 29.6875 28.78125 C 30.1875 28.78125 30.59375 29.1875 30.59375 29.6875 Z M 30.59375 29.6875 "/>
<path style=" stroke:none;fill-rule:nonzero;fill:rgb(55.294118%,42.352941%,62.352941%);fill-opacity:1;" d="M 5.46875 9.375 C 5.039062 9.375 4.6875 9.726562 4.6875 10.15625 L 4.6875 11.71875 C 4.6875 12.148438 5.039062 12.5 5.46875 12.5 C 5.898438 12.5 6.25 12.148438 6.25 11.71875 L 6.25 10.15625 C 6.25 9.726562 5.898438 9.375 5.46875 9.375 Z M 9.375 9.375 C 8.945312 9.375 8.59375 9.726562 8.59375 10.15625 L 8.59375 11.71875 C 8.59375 12.148438 8.945312 12.5 9.375 12.5 C 9.804688 12.5 10.15625 12.148438 10.15625 11.71875 L 10.15625 10.15625 C 10.15625 9.726562 9.804688 9.375 9.375 9.375 Z M 13.28125 9.375 C 12.851562 9.375 12.5 9.726562 12.5 10.15625 L 12.5 11.71875 C 12.5 12.148438 12.851562 12.5 13.28125 12.5 C 13.710938 12.5 14.0625 12.148438 14.0625 11.71875 L 14.0625 10.15625 C 14.0625 9.726562 13.710938 9.375 13.28125 9.375 Z M 17.1875 9.375 C 16.757812 9.375 16.40625 9.726562 16.40625 10.15625 L 16.40625 11.71875 C 16.40625 12.148438 16.757812 12.5 17.1875 12.5 C 17.617188 12.5 17.96875 12.148438 17.96875 11.71875 L 17.96875 10.15625 C 17.96875 9.726562 17.617188 9.375 17.1875 9.375 Z M 21.09375 9.375 C 20.664062 9.375 20.3125 9.726562 20.3125 10.15625 L 20.3125 11.71875 C 20.3125 12.148438 20.664062 12.5 21.09375 12.5 C 21.523438 12.5 21.875 12.148438 21.875 11.71875 L 21.875 10.15625 C 21.875 9.726562 21.523438 9.375 21.09375 9.375 Z M 25 9.375 C 24.570312 9.375 24.21875 9.726562 24.21875 10.15625 L 24.21875 11.71875 C 24.21875 12.148438 24.570312 12.5 25 12.5 C 25.429688 12.5 25.78125 12.148438 25.78125 11.71875 L 25.78125 10.15625 C 25.78125 9.726562 25.429688 9.375 25 9.375 Z M 28.90625 9.375 C 28.476562 9.375 28.125 9.726562 28.125 10.15625 L 28.125 11.71875 C 28.125 12.148438 28.476562 12.5 28.90625 12.5 C 29.335938 12.5 29.6875 12.148438 29.6875 11.71875 L 29.6875 10.15625 C 29.6875 9.726562 29.335938 9.375 28.90625 9.375 Z M 32.8125 9.375 C 32.382812 9.375 32.03125 9.726562 32.03125 10.15625 L 32.03125 11.71875 C 32.03125 12.148438 32.382812 12.5 32.8125 12.5 C 33.242188 12.5 33.59375 12.148438 33.59375 11.71875 L 33.59375 10.15625 C 33.59375 9.726562 33.242188 9.375 32.8125 9.375 Z M 36.71875 9.375 C 36.289062 9.375 35.9375 9.726562 35.9375 10.15625 L 35.9375 11.71875 C 35.9375 12.148438 36.289062 12.5 36.71875 12.5 C 37.148438 12.5 37.5 12.148438 37.5 11.71875 L 37.5 10.15625 C 37.5 9.726562 37.148438 9.375 36.71875 9.375 Z M 40.625 9.375 C 40.195312 9.375 39.84375 9.726562 39.84375 10.15625 L 39.84375 11.71875 C 39.84375 12.148438 40.195312 12.5 40.625 12.5 C 41.054688 12.5 41.40625 12.148438 41.40625 11.71875 L 41.40625 10.15625 C 41.40625 9.726562 41.054688 9.375 40.625 9.375 Z M 45.3125 10.15625 C 45.3125 9.726562 44.960938 9.375 44.53125 9.375 C 44.101562 9.375 43.75 9.726562 43.75 10.15625 L 43.75 11.71875 C 43.75 12.148438 44.101562 12.5 44.53125 12.5 C 44.960938 12.5 45.3125 12.148438 45.3125 11.71875 Z M 45.3125 10.15625 "/>
</g>
</svg>
