<?xml version="1.0" encoding="UTF-8"?>
<svg xmlns="http://www.w3.org/2000/svg" xmlns:xlink="http://www.w3.org/1999/xlink" width="64px" height="64px" viewBox="0 0 64 64" version="1.1">
<g id="surface19691">
<path style=" stroke:none;fill-rule:nonzero;fill:rgb(89.019608%,94.901961%,100%);fill-opacity:1;" d="M 48.035156 19.1875 C 48.035156 19.1875 47 17 44 17 C 41 17 21.75 17 19.875 17 C 18 17 16.09375 18.957031 16.09375 18.957031 C 15.398438 20.144531 15 21.523438 15 23 L 15 40 C 15 37.238281 17.238281 35 20 35 C 22.269531 35 24.199219 36.519531 24.800781 38.601562 C 25.53125 37.628906 26.691406 37 28 37 C 28.53125 37 29.050781 37.109375 29.511719 37.300781 C 29.609375 34.351562 32.03125 32 35 32 C 37.699219 32 39.949219 33.949219 40.410156 36.519531 C 41.320312 35.578125 42.589844 35 44 35 C 46.761719 35 49 37.238281 49 40 L 49 23 C 49 21.617188 48.648438 20.320312 48.035156 19.1875 Z M 48.035156 19.1875 "/>
<path style=" stroke:none;fill-rule:nonzero;fill:rgb(97.647059%,86.666667%,56.078431%);fill-opacity:1;" d="M 44 35 C 42.589844 35 41.320312 35.578125 40.410156 36.519531 C 39.949219 33.949219 37.699219 32 35 32 C 32.03125 32 29.609375 34.351562 29.511719 37.300781 C 29.050781 37.109375 28.53125 37 28 37 C 26.691406 37 25.53125 37.628906 24.800781 38.601562 C 24.199219 36.519531 22.269531 35 20 35 C 17.238281 35 15 37.238281 15 40 L 15 51 C 15 55.421875 18.578125 59 23 59 L 41 59 C 45.421875 59 49 55.421875 49 51 L 49 40 C 49 37.238281 46.761719 35 44 35 Z M 44 35 "/>
<path style=" stroke:none;fill-rule:nonzero;fill:rgb(48.235294%,74.509804%,92.156863%);fill-opacity:1;" d="M 19 8 C 19 9.65625 20.34375 11 22 11 L 42 11 C 43.65625 11 45 9.65625 45 8 C 44 8 21 8 19 8 Z M 19 8 "/>
<path style=" stroke:none;fill-rule:nonzero;fill:rgb(93.72549%,78.431373%,55.686275%);fill-opacity:1;" d="M 16 54 C 16 57 21.089844 59 23 59 L 42 59 C 46 59 48 54 48 54 C 46.847656 54 17 54 16 54 Z M 16 54 "/>
<path style=" stroke:none;fill-rule:nonzero;fill:rgb(67.45098%,89.019608%,100%);fill-opacity:1;" d="M 45 8 C 45 6.34375 43.65625 5 42 5 L 22 5 C 20.34375 5 19 6.34375 19 8 C 20 8 43 8 45 8 Z M 45 8 "/>
<path style=" stroke:none;fill-rule:nonzero;fill:rgb(52.156863%,79.607843%,97.254902%);fill-opacity:1;" d="M 50.488281 15.679688 C 50.488281 16.050781 50.449219 16.421875 50.378906 16.769531 C 49.789062 19.75 47.160156 22 44 22 C 41.300781 22 38 19 38 19 C 38 19 34.699219 22 32 22 C 29.300781 22 26 19 26 19 C 26 19 22.699219 22 20 22 C 16.839844 22 14.210938 19.75 13.621094 16.769531 C 13.550781 16.421875 13.511719 16.050781 13.511719 15.679688 L 21 11 L 43 11 Z M 50.488281 15.679688 "/>
<path style=" stroke:none;fill-rule:nonzero;fill:rgb(100%,100%,100%);fill-opacity:1;" d="M 26.5 23 L 27.738281 25.261719 L 30 26.5 L 27.738281 27.738281 L 26.5 30 L 25.261719 27.738281 L 23 26.5 L 25.261719 25.261719 Z M 41.421875 27 L 42.269531 28.558594 L 43.839844 29.421875 L 42.269531 30.269531 L 41.421875 31.839844 L 40.558594 30.269531 L 39 29.421875 L 40.558594 28.558594 Z M 41.421875 27 "/>
<path style=" stroke:none;fill-rule:nonzero;fill:rgb(55.294118%,42.352941%,62.352941%);fill-opacity:1;" d="M 34 12 L 38 12 C 38.550781 12 39 11.554688 39 11 C 39 10.445312 38.550781 10 38 10 L 34 10 C 33.449219 10 33 10.445312 33 11 C 33 11.554688 33.449219 12 34 12 Z M 22 52 C 21.449219 52 21 52.445312 21 53 L 21 55 C 21 55.554688 21.449219 56 22 56 C 22.550781 56 23 55.554688 23 55 L 23 53 C 23 52.445312 22.550781 52 22 52 Z M 27 52 C 26.449219 52 26 52.445312 26 53 L 26 55 C 26 55.554688 26.449219 56 27 56 C 27.550781 56 28 55.554688 28 55 L 28 53 C 28 52.445312 27.550781 52 27 52 Z M 32 52 C 31.449219 52 31 52.445312 31 53 L 31 55 C 31 55.554688 31.449219 56 32 56 C 32.550781 56 33 55.554688 33 55 L 33 53 C 33 52.445312 32.550781 52 32 52 Z M 37 52 C 36.449219 52 36 52.445312 36 53 L 36 55 C 36 55.554688 36.449219 56 37 56 C 37.550781 56 38 55.554688 38 55 L 38 53 C 38 52.445312 37.550781 52 37 52 Z M 42 52 C 41.449219 52 41 52.445312 41 53 L 41 55 C 41 55.554688 41.449219 56 42 56 C 42.550781 56 43 55.554688 43 55 L 43 53 C 43 52.445312 42.550781 52 42 52 Z M 42 52 "/>
<path style=" stroke:none;fill-rule:nonzero;fill:rgb(55.294118%,42.352941%,62.352941%);fill-opacity:1;" d="M 51 16 C 51 15.972656 50.984375 15.949219 50.984375 15.921875 C 50.980469 15.851562 50.964844 15.785156 50.945312 15.722656 C 50.925781 15.660156 50.90625 15.601562 50.878906 15.546875 C 50.851562 15.492188 50.816406 15.445312 50.777344 15.394531 C 50.734375 15.339844 50.6875 15.289062 50.636719 15.242188 C 50.613281 15.226562 50.605469 15.199219 50.582031 15.183594 L 44.664062 10.960938 C 45.476562 10.226562 46 9.179688 46 8 C 46 5.792969 44.207031 4 42 4 L 22 4 C 19.792969 4 18 5.792969 18 8 C 18 9.5625 18.363281 10.3125 19.246094 11.023438 L 13.417969 15.1875 C 13.398438 15.203125 13.386719 15.226562 13.363281 15.246094 C 13.3125 15.289062 13.265625 15.339844 13.222656 15.394531 C 13.183594 15.445312 13.148438 15.492188 13.121094 15.550781 C 13.09375 15.605469 13.074219 15.660156 13.054688 15.722656 C 13.035156 15.789062 13.019531 15.855469 13.015625 15.921875 C 13.015625 15.949219 13 15.972656 13 16 C 13 17.589844 13.539062 19.054688 14.4375 20.230469 C 14.148438 21.121094 14 22.054688 14 23 L 14 51 C 14 55.964844 18.039062 60 23 60 L 41 60 C 45.960938 60 50 55.964844 50 51 L 50 23 C 50 22.054688 49.847656 21.128906 49.558594 20.238281 C 50.460938 19.058594 51 17.59375 51 16 Z M 48 23 L 48 35.539062 C 46.9375 34.585938 45.539062 34 44 34 C 42.898438 34 41.847656 34.292969 40.933594 34.839844 C 39.910156 32.546875 37.613281 31 35 31 C 31.898438 31 29.316406 33.136719 28.664062 36.046875 C 27.394531 35.871094 26.140625 36.195312 25.136719 36.898438 C 24.070312 35.140625 22.128906 34 20 34 C 18.460938 34 17.0625 34.585938 16 35.539062 L 16 23 C 16 22.597656 16.039062 22.203125 16.105469 21.8125 C 17.21875 22.5625 18.558594 23 20 23 C 22.171875 23 24.445312 22.023438 26 20.503906 C 27.554688 22.023438 29.824219 23 32 23 C 34.175781 23 36.441406 22.027344 37.988281 20.515625 C 39.515625 22.046875 41.75 23 44 23 C 45.441406 23 46.78125 22.5625 47.894531 21.8125 C 47.960938 22.203125 48 22.597656 48 23 Z M 22 6 L 42 6 C 43.101562 6 44 6.898438 44 8 C 44 9.101562 43.101562 10 42 10 C 41.449219 10 41 10.445312 41 11 C 41 11.554688 41.449219 12 42 12 C 42.203125 12 42.398438 11.96875 42.597656 11.941406 L 48.953125 16.480469 C 48.707031 19.007812 46.59375 21 44 21 C 41.980469 21 39.898438 19.964844 38.820312 18.425781 C 38.785156 18.378906 38.738281 18.351562 38.699219 18.3125 C 38.660156 18.273438 38.632812 18.222656 38.585938 18.1875 C 38.574219 18.183594 38.566406 18.179688 38.554688 18.175781 C 38.492188 18.132812 38.425781 18.109375 38.355469 18.085938 C 38.300781 18.0625 38.253906 18.035156 38.199219 18.023438 C 38.132812 18.011719 38.066406 18.015625 37.996094 18.015625 C 37.9375 18.015625 37.878906 18.007812 37.816406 18.019531 C 37.761719 18.03125 37.710938 18.058594 37.65625 18.078125 C 37.585938 18.105469 37.515625 18.128906 37.453125 18.167969 C 37.445312 18.175781 37.433594 18.175781 37.425781 18.179688 C 37.378906 18.214844 37.351562 18.257812 37.316406 18.296875 C 37.273438 18.335938 37.222656 18.363281 37.1875 18.414062 C 36.070312 19.960938 33.984375 21 32 21 C 30.054688 21 27.917969 19.9375 26.808594 18.410156 C 26.777344 18.367188 26.730469 18.34375 26.695312 18.304688 C 26.65625 18.269531 26.632812 18.222656 26.589844 18.191406 C 26.578125 18.183594 26.5625 18.183594 26.550781 18.175781 C 26.492188 18.136719 26.429688 18.113281 26.363281 18.089844 C 26.304688 18.066406 26.25 18.035156 26.1875 18.023438 C 26.128906 18.015625 26.070312 18.019531 26.011719 18.019531 C 25.941406 18.019531 25.875 18.011719 25.808594 18.027344 C 25.75 18.035156 25.699219 18.0625 25.644531 18.085938 C 25.578125 18.109375 25.511719 18.132812 25.453125 18.171875 C 25.4375 18.183594 25.425781 18.183594 25.410156 18.191406 C 25.367188 18.226562 25.339844 18.269531 25.304688 18.308594 C 25.265625 18.347656 25.222656 18.371094 25.191406 18.410156 C 24.082031 19.9375 21.945312 21 20 21 C 17.40625 21 15.292969 19.007812 15.046875 16.480469 L 21.320312 12 L 30 12 C 30.550781 12 31 11.554688 31 11 C 31 10.445312 30.550781 10 30 10 L 21.28125 10 C 20 9.21875 20 9.09375 20 8 C 20 6.898438 20.898438 6 22 6 Z M 48 51 C 48 51.511719 47.941406 52.007812 47.839844 52.484375 C 47.660156 52.199219 47.359375 52 47 52 C 46.449219 52 46 52.445312 46 53 L 46 55 C 46 55.242188 46.097656 55.453125 46.238281 55.628906 C 44.953125 57.078125 43.085938 58 41 58 L 23 58 C 20.914062 58 19.046875 57.078125 17.761719 55.628906 C 17.902344 55.453125 18 55.242188 18 55 L 18 53 C 18 52.445312 17.550781 52 17 52 C 16.640625 52 16.339844 52.199219 16.160156 52.484375 C 16.058594 52.007812 16 51.511719 16 51 L 16 40 C 16 37.792969 17.792969 36 20 36 C 21.773438 36 23.351562 37.183594 23.839844 38.878906 C 23.945312 39.242188 24.246094 39.515625 24.617188 39.582031 C 24.992188 39.652344 25.371094 39.503906 25.597656 39.199219 C 26.402344 38.132812 27.882812 37.707031 29.128906 38.222656 C 29.429688 38.347656 29.777344 38.316406 30.050781 38.140625 C 30.324219 37.960938 30.496094 37.660156 30.507812 37.332031 C 30.59375 34.902344 32.5625 33 35 33 C 37.179688 33 39.042969 34.554688 39.425781 36.695312 C 39.492188 37.066406 39.757812 37.367188 40.117188 37.476562 C 40.476562 37.585938 40.867188 37.484375 41.128906 37.214844 C 41.886719 36.433594 42.90625 36 44 36 C 46.207031 36 48 37.792969 48 40 Z M 48 51 "/>
</g>
</svg>
