<?xml version="1.0" encoding="UTF-8"?>
<svg xmlns="http://www.w3.org/2000/svg" xmlns:xlink="http://www.w3.org/1999/xlink" width="50px" height="50px" viewBox="0 0 50 50" version="1.1">
<g id="surface164462">
<path style=" stroke:none;fill-rule:nonzero;fill:rgb(98.039216%,93.72549%,87.058824%);fill-opacity:1;" d="M 27.6875 21.3125 C 27.515625 21.3125 26.976562 20.867188 26.695312 19.804688 C 26.414062 18.742188 26.695312 18.023438 26.796875 17.992188 C 26.796875 17.992188 27.828125 17.8125 27.84375 17.609375 C 27.859375 17.3125 27.890625 17.011719 27.945312 16.71875 C 27.976562 16.402344 27.960938 16.085938 27.898438 15.773438 C 27.753906 14.792969 27.730469 13.796875 27.828125 12.8125 C 28.007812 10.976562 29.085938 9.882812 30.71875 9.882812 C 30.84375 9.882812 30.964844 9.839844 31.0625 9.765625 C 32.167969 9.085938 33.4375 8.730469 34.734375 8.734375 L 35.3125 8.734375 C 38.804688 8.734375 41.320312 10.515625 42.34375 13.664062 C 41.945312 13.617188 42.078125 13.898438 41.796875 14.171875 C 41.515625 14.445312 40.828125 14.554688 41.085938 15.265625 C 41.390625 16.011719 41.566406 16.804688 41.601562 17.609375 C 41.601562 17.8125 42.632812 17.453125 42.640625 17.453125 C 42.933594 18.203125 42.972656 19.023438 42.75 19.796875 C 42.46875 20.859375 41.921875 21.304688 41.757812 21.304688 C 41.503906 21.308594 41.28125 21.476562 41.203125 21.71875 C 40.71875 23.371094 39.878906 24.894531 38.742188 26.1875 C 41.148438 27.539062 34.1875 29 33.859375 29 C 30.882812 29 29.210938 24.976562 28.242188 21.71875 C 28.167969 21.476562 27.941406 21.3125 27.6875 21.3125 Z M 27.6875 21.3125 "/>
<path style=" stroke:none;fill-rule:nonzero;fill:rgb(80.392157%,63.137255%,65.490196%);fill-opacity:1;" d="M 28.40625 15.15625 C 29.914062 15.054688 31.214844 14.0625 31.710938 12.632812 C 33.226562 13.140625 33.726562 14.648438 40.796875 14.148438 C 41.5 14.101562 41.578125 14.34375 41.804688 14.148438 C 42.03125 13.953125 41.4375 13.132812 41.804688 13.171875 C 40.953125 10.316406 38.25 8.421875 35.273438 8.59375 L 34.742188 8.59375 C 33.539062 8.589844 32.359375 8.921875 31.335938 9.554688 C 31.242188 9.625 31.132812 9.664062 31.015625 9.664062 C 29.507812 9.664062 28.507812 10.679688 28.335938 12.382812 C 28.246094 13.300781 28.269531 14.222656 28.40625 15.132812 Z M 28.40625 15.15625 "/>
<path style=" stroke:none;fill-rule:nonzero;fill:rgb(98.039216%,93.72549%,87.058824%);fill-opacity:1;" d="M 8.9375 21.3125 C 8.765625 21.3125 8.226562 20.867188 7.945312 19.804688 C 7.664062 18.742188 7.945312 18.023438 8.046875 17.992188 C 8.046875 17.992188 9.078125 17.8125 9.09375 17.609375 C 9.109375 17.3125 9.140625 17.011719 9.195312 16.71875 C 9.226562 16.402344 9.210938 16.085938 9.148438 15.773438 C 9.003906 14.792969 8.980469 13.796875 9.078125 12.8125 C 9.257812 10.976562 10.335938 9.882812 11.96875 9.882812 C 12.09375 9.882812 12.214844 9.839844 12.3125 9.765625 C 13.417969 9.085938 14.6875 8.730469 15.984375 8.734375 L 16.5625 8.734375 C 20.054688 8.734375 22.570312 10.515625 23.59375 13.664062 C 23.195312 13.617188 23.328125 13.898438 23.046875 14.171875 C 22.765625 14.445312 22.078125 14.554688 22.335938 15.265625 C 22.640625 16.011719 22.816406 16.804688 22.851562 17.609375 C 22.851562 17.8125 23.882812 17.453125 23.890625 17.453125 C 24.183594 18.203125 24.222656 19.023438 24 19.796875 C 23.71875 20.859375 23.171875 21.304688 23.007812 21.304688 C 22.753906 21.308594 22.53125 21.476562 22.453125 21.71875 C 21.96875 23.371094 21.128906 24.894531 19.992188 26.1875 C 22.398438 27.539062 15.4375 29 15.109375 29 C 12.132812 29 10.460938 24.976562 9.492188 21.71875 C 9.417969 21.476562 9.191406 21.3125 8.9375 21.3125 Z M 8.9375 21.3125 "/>
<path style=" stroke:none;fill-rule:nonzero;fill:rgb(44.705882%,79.215686%,68.627451%);fill-opacity:1;" d="M 37.5 36.835938 L 37.5 38.703125 C 37.5 39.515625 36.84375 40.171875 36.03125 40.171875 L 2.34375 40.171875 C 1.480469 40.171875 0.78125 39.472656 0.78125 38.609375 L 0.78125 36.835938 C 0.78125 34.003906 2.261719 31.375 4.6875 29.914062 L 12.070312 25.46875 C 13.9375 27.8125 16.40625 29.507812 19.140625 29.507812 C 21.875 29.507812 24.34375 27.828125 26.210938 25.46875 L 33.59375 29.914062 C 36.019531 31.375 37.5 34.003906 37.5 36.835938 Z M 37.5 36.835938 "/>
<path style=" stroke:none;fill-rule:nonzero;fill:rgb(92.941176%,47.058824%,60%);fill-opacity:1;" d="M 49.21875 36.835938 L 49.21875 38.703125 C 49.21875 39.515625 48.5625 40.171875 47.75 40.171875 L 14.0625 40.171875 C 13.199219 40.171875 12.5 39.472656 12.5 38.609375 L 12.5 36.835938 C 12.5 34.003906 13.980469 31.375 16.40625 29.914062 L 23.789062 25.46875 C 25.65625 27.8125 28.125 29.507812 30.859375 29.507812 C 33.59375 29.507812 36.0625 27.828125 37.929688 25.46875 L 45.3125 29.914062 C 47.738281 31.375 49.21875 34.003906 49.21875 36.835938 Z M 49.21875 36.835938 "/>
<path style=" stroke:none;fill-rule:nonzero;fill:rgb(86.666667%,39.215686%,53.72549%);fill-opacity:1;" d="M 46.09375 35.9375 L 16.40625 35.9375 C 14.679688 35.9375 13.28125 37.335938 13.28125 39.0625 C 13.28125 39.492188 13.632812 39.84375 14.0625 39.84375 L 48.4375 39.84375 C 48.867188 39.84375 49.21875 39.492188 49.21875 39.0625 C 49.21875 37.335938 47.820312 35.9375 46.09375 35.9375 Z M 46.09375 35.9375 "/>
<path style=" stroke:none;fill-rule:nonzero;fill:rgb(38.039216%,73.72549%,61.960784%);fill-opacity:1;" d="M 33.59375 35.9375 L 3.90625 35.9375 C 2.179688 35.9375 0.78125 37.335938 0.78125 39.0625 C 0.78125 39.492188 1.132812 39.84375 1.5625 39.84375 L 35.9375 39.84375 C 36.367188 39.84375 36.71875 39.492188 36.71875 39.0625 C 36.71875 37.335938 35.320312 35.9375 33.59375 35.9375 Z M 33.59375 35.9375 "/>
<path style=" stroke:none;fill-rule:nonzero;fill:rgb(80.392157%,63.137255%,65.490196%);fill-opacity:1;" d="M 9.65625 15.15625 C 11.164062 15.054688 12.464844 14.0625 12.960938 12.632812 C 14.476562 13.140625 14.976562 14.648438 22.046875 14.148438 C 22.75 14.101562 22.828125 14.34375 23.054688 14.148438 C 23.28125 13.953125 22.6875 13.132812 23.054688 13.171875 C 22.203125 10.316406 19.5 8.421875 16.523438 8.59375 L 15.992188 8.59375 C 14.789062 8.589844 13.609375 8.921875 12.585938 9.554688 C 12.492188 9.625 12.382812 9.664062 12.265625 9.664062 C 10.757812 9.664062 9.757812 10.679688 9.585938 12.382812 C 9.496094 13.300781 9.519531 14.222656 9.65625 15.132812 Z M 9.65625 15.15625 "/>
<path style=" stroke:none;fill-rule:nonzero;fill:rgb(76.078431%,80.392157%,90.588235%);fill-opacity:1;" d="M 42.96875 37.84375 L 42.96875 44.09375 L 7.03125 44.09375 L 7.03125 37.84375 C 7.03125 35.070312 8.484375 32.5 10.859375 31.070312 L 18.078125 26.71875 C 19.90625 29.0625 22.320312 30.671875 25 30.671875 C 27.679688 30.671875 30.09375 29.023438 31.921875 26.71875 L 39.140625 31.070312 C 41.515625 32.5 42.96875 35.070312 42.96875 37.84375 Z M 42.96875 37.84375 "/>
<path style=" stroke:none;fill-rule:nonzero;fill:rgb(83.921569%,87.45098%,94.901961%);fill-opacity:1;" d="M 32.382812 30.742188 L 25 34.429688 L 17.617188 30.734375 C 16.996094 30.425781 16.5625 29.835938 16.453125 29.152344 C 16.339844 28.46875 16.566406 27.773438 17.054688 27.28125 L 17.09375 27.242188 L 32.90625 27.242188 L 32.945312 27.28125 C 33.4375 27.773438 33.664062 28.46875 33.554688 29.15625 C 33.441406 29.84375 33.007812 30.433594 32.382812 30.742188 Z M 32.382812 30.742188 "/>
<path style=" stroke:none;fill-rule:nonzero;fill:rgb(98.039216%,93.72549%,87.058824%);fill-opacity:1;" d="M 16.242188 21.09375 C 16.03125 21.09375 15.359375 20.539062 15 19.21875 C 14.640625 17.898438 15 17.007812 15.132812 16.960938 C 15.132812 16.960938 16.421875 16.734375 16.429688 16.476562 C 16.449219 16.105469 16.488281 15.738281 16.554688 15.375 C 16.59375 14.984375 16.574219 14.589844 16.5 14.203125 C 16.320312 12.992188 16.289062 11.765625 16.40625 10.546875 C 16.632812 8.265625 17.96875 6.898438 20 6.898438 C 20.15625 6.898438 20.304688 6.851562 20.429688 6.757812 C 21.804688 5.910156 23.386719 5.464844 25 5.46875 L 25.71875 5.46875 C 30.0625 5.46875 33.203125 7.6875 34.484375 11.609375 C 33.992188 11.554688 34.15625 11.898438 33.804688 12.234375 C 33.453125 12.570312 32.59375 12.710938 32.921875 13.59375 C 33.3125 14.519531 33.542969 15.511719 33.59375 16.515625 C 33.59375 16.773438 34.875 16.320312 34.890625 16.320312 C 35.257812 17.257812 35.304688 18.289062 35.023438 19.257812 C 34.671875 20.578125 33.992188 21.132812 33.78125 21.132812 C 33.464844 21.136719 33.1875 21.347656 33.09375 21.648438 C 31.859375 25.695312 28.703125 29.796875 25 29.796875 C 21.296875 29.796875 18.140625 25.695312 16.929688 21.640625 C 16.851562 21.324219 16.570312 21.097656 16.242188 21.09375 Z M 16.242188 21.09375 "/>
<path style=" stroke:none;fill-rule:nonzero;fill:rgb(80.392157%,63.137255%,65.490196%);fill-opacity:1;" d="M 16.507812 14.273438 C 18.527344 14.136719 20.273438 12.804688 20.9375 10.890625 C 22.96875 11.570312 23.648438 13.601562 33.125 12.921875 C 34.0625 12.851562 34.203125 13.1875 34.476562 12.921875 C 34.75 12.65625 33.984375 11.5625 34.476562 11.617188 C 33.195312 7.6875 30.0625 5.46875 25.71875 5.46875 L 25 5.46875 C 23.386719 5.464844 21.804688 5.910156 20.429688 6.757812 C 20.304688 6.851562 20.15625 6.898438 20 6.898438 C 17.96875 6.898438 16.640625 8.265625 16.40625 10.546875 C 16.289062 11.773438 16.320312 13.011719 16.5 14.234375 Z M 16.507812 14.273438 "/>
<path style=" stroke:none;fill-rule:nonzero;fill:rgb(67.45098%,71.764706%,81.568627%);fill-opacity:1;" d="M 39.84375 40.625 L 10.15625 40.625 C 8.429688 40.625 7.03125 42.023438 7.03125 43.75 C 7.03125 44.179688 7.382812 44.53125 7.8125 44.53125 L 42.1875 44.53125 C 42.617188 44.53125 42.96875 44.179688 42.96875 43.75 C 42.96875 42.023438 41.570312 40.625 39.84375 40.625 Z M 39.84375 40.625 "/>
<path style=" stroke:none;fill-rule:nonzero;fill:rgb(55.294118%,42.352941%,62.352941%);fill-opacity:1;" d="M 19.164062 13.476562 C 19.519531 13.722656 20.003906 13.632812 20.25 13.28125 L 21.265625 11.71875 L 22.21875 12.1875 C 24.148438 13.125 26.265625 13.613281 28.414062 13.617188 L 30.125 13.617188 C 30.554688 13.617188 30.90625 13.265625 30.90625 12.835938 C 30.90625 12.40625 30.554688 12.054688 30.125 12.054688 L 28.421875 12.054688 C 26.511719 12.050781 24.625 11.617188 22.90625 10.78125 L 21.875 10.257812 C 21.21875 9.941406 20.433594 10.160156 20.03125 10.765625 L 18.960938 12.390625 C 18.71875 12.746094 18.808594 13.234375 19.164062 13.476562 Z M 30.898438 30.554688 L 25 33.5 L 19.101562 30.546875 C 18.71875 30.371094 18.265625 30.53125 18.074219 30.910156 C 17.886719 31.285156 18.035156 31.746094 18.40625 31.945312 L 24.65625 35.070312 C 24.875 35.179688 25.132812 35.179688 25.351562 35.070312 L 31.601562 31.945312 C 31.859375 31.828125 32.035156 31.574219 32.054688 31.292969 C 32.074219 31.007812 31.941406 30.734375 31.699219 30.578125 C 31.460938 30.425781 31.15625 30.414062 30.90625 30.546875 Z M 36.71875 39.0625 C 36.289062 39.0625 35.9375 39.414062 35.9375 39.84375 L 35.9375 41.40625 C 35.9375 41.835938 36.289062 42.1875 36.71875 42.1875 C 37.148438 42.1875 37.5 41.835938 37.5 41.40625 L 37.5 39.84375 C 37.5 39.414062 37.148438 39.0625 36.71875 39.0625 Z M 40.625 42.1875 C 41.054688 42.1875 41.40625 41.835938 41.40625 41.40625 L 41.40625 39.84375 C 41.40625 39.414062 41.054688 39.0625 40.625 39.0625 C 40.195312 39.0625 39.84375 39.414062 39.84375 39.84375 L 39.84375 41.40625 C 39.84375 41.835938 40.195312 42.1875 40.625 42.1875 Z M 32.8125 39.0625 C 32.382812 39.0625 32.03125 39.414062 32.03125 39.84375 L 32.03125 41.40625 C 32.03125 41.835938 32.382812 42.1875 32.8125 42.1875 C 33.242188 42.1875 33.59375 41.835938 33.59375 41.40625 L 33.59375 39.84375 C 33.59375 39.414062 33.242188 39.0625 32.8125 39.0625 Z M 28.90625 39.0625 C 28.476562 39.0625 28.125 39.414062 28.125 39.84375 L 28.125 41.40625 C 28.125 41.835938 28.476562 42.1875 28.90625 42.1875 C 29.335938 42.1875 29.6875 41.835938 29.6875 41.40625 L 29.6875 39.84375 C 29.6875 39.414062 29.335938 39.0625 28.90625 39.0625 Z M 25 39.0625 C 24.570312 39.0625 24.21875 39.414062 24.21875 39.84375 L 24.21875 41.40625 C 24.21875 41.835938 24.570312 42.1875 25 42.1875 C 25.429688 42.1875 25.78125 41.835938 25.78125 41.40625 L 25.78125 39.84375 C 25.78125 39.414062 25.429688 39.0625 25 39.0625 Z M 21.09375 39.0625 C 20.664062 39.0625 20.3125 39.414062 20.3125 39.84375 L 20.3125 41.40625 C 20.3125 41.835938 20.664062 42.1875 21.09375 42.1875 C 21.523438 42.1875 21.875 41.835938 21.875 41.40625 L 21.875 39.84375 C 21.875 39.414062 21.523438 39.0625 21.09375 39.0625 Z M 17.1875 39.0625 C 16.757812 39.0625 16.40625 39.414062 16.40625 39.84375 L 16.40625 41.40625 C 16.40625 41.835938 16.757812 42.1875 17.1875 42.1875 C 17.617188 42.1875 17.96875 41.835938 17.96875 41.40625 L 17.96875 39.84375 C 17.96875 39.414062 17.617188 39.0625 17.1875 39.0625 Z M 13.28125 39.0625 C 12.851562 39.0625 12.5 39.414062 12.5 39.84375 L 12.5 41.40625 C 12.5 41.835938 12.851562 42.1875 13.28125 42.1875 C 13.710938 42.1875 14.0625 41.835938 14.0625 41.40625 L 14.0625 39.84375 C 14.0625 39.414062 13.710938 39.0625 13.28125 39.0625 Z M 9.375 39.0625 C 8.945312 39.0625 8.59375 39.414062 8.59375 39.84375 L 8.59375 41.40625 C 8.59375 41.835938 8.945312 42.1875 9.375 42.1875 C 9.804688 42.1875 10.15625 41.835938 10.15625 41.40625 L 10.15625 39.84375 C 10.15625 39.414062 9.804688 39.0625 9.375 39.0625 Z M 9.375 39.0625 "/>
<path style=" stroke:none;fill-rule:nonzero;fill:rgb(55.294118%,42.352941%,62.352941%);fill-opacity:1;" d="M 46.359375 29.34375 L 39.90625 25.164062 C 40.710938 24.109375 41.339844 22.929688 41.765625 21.671875 C 42.578125 21.199219 43.144531 20.398438 43.328125 19.476562 C 43.757812 17.867188 43.328125 16.507812 42.304688 16.234375 L 42.242188 16.234375 C 42.167969 15.804688 42.058594 15.378906 41.914062 14.96875 L 42.132812 15.046875 C 42.402344 15.160156 42.710938 15.113281 42.933594 14.925781 C 43.15625 14.738281 43.257812 14.441406 43.195312 14.15625 C 42.535156 10.347656 39.140625 7.628906 35.28125 7.8125 L 34.757812 7.8125 C 34.269531 7.820312 33.785156 7.871094 33.304688 7.96875 C 31.378906 5.792969 28.578125 4.589844 25.671875 4.6875 L 25 4.6875 C 23.269531 4.699219 21.574219 5.160156 20.078125 6.03125 C 18.722656 6.074219 17.460938 6.730469 16.648438 7.8125 L 16.007812 7.8125 C 14.636719 7.816406 13.289062 8.175781 12.101562 8.859375 C 10.085938 8.96875 8.664062 10.421875 8.4375 12.6875 C 8.347656 13.667969 8.375 14.652344 8.515625 15.625 C 8.515625 15.8125 8.570312 16.039062 8.5625 16.085938 L 8.5625 16.195312 L 8.492188 16.195312 C 7.46875 16.46875 7.039062 17.835938 7.46875 19.4375 C 7.652344 20.359375 8.21875 21.160156 9.03125 21.632812 C 9.402344 22.742188 9.925781 23.796875 10.59375 24.757812 L 3.5625 29.296875 C 1.316406 30.753906 -0.0273438 33.257812 0 35.9375 L 0 38.445312 C 0.0078125 39.652344 0.988281 40.625 2.195312 40.625 L 6.25 40.625 L 6.25 42.96875 C 6.25 44.261719 7.300781 45.3125 8.59375 45.3125 L 41.40625 45.3125 C 42.699219 45.3125 43.75 44.261719 43.75 42.96875 L 43.75 40.625 L 47.742188 40.625 C 48.953125 40.625 49.9375 39.640625 49.9375 38.429688 L 49.9375 35.9375 C 49.945312 33.273438 48.597656 30.789062 46.359375 29.34375 Z M 20.3125 7.585938 C 20.480469 7.585938 20.644531 7.53125 20.78125 7.429688 C 22.050781 6.65625 23.511719 6.246094 25 6.25 L 25.671875 6.25 C 29.578125 6.25 32.484375 8.234375 33.703125 11.71875 C 33.273438 11.667969 32.84375 11.800781 32.515625 12.078125 C 32.09375 12.527344 32.007812 13.191406 32.296875 13.734375 C 32.648438 14.589844 32.847656 15.5 32.890625 16.421875 C 32.90625 16.699219 33.066406 16.949219 33.3125 17.078125 C 33.5625 17.203125 33.859375 17.191406 34.09375 17.039062 L 34.179688 16.992188 C 34.445312 17.613281 34.460938 18.3125 34.226562 18.945312 C 33.921875 20.078125 33.351562 20.59375 33.179688 20.617188 C 32.820312 20.601562 32.5 20.835938 32.398438 21.179688 C 31.3125 24.835938 28.335938 28.726562 24.96875 28.726562 C 21.601562 28.726562 18.625 24.820312 17.539062 21.179688 C 17.4375 20.835938 17.117188 20.601562 16.757812 20.617188 C 16.578125 20.617188 15.976562 20.078125 15.703125 18.945312 C 15.480469 18.308594 15.480469 17.613281 15.703125 16.976562 C 15.75 16.988281 15.789062 17.011719 15.828125 17.039062 C 16.0625 17.191406 16.359375 17.203125 16.609375 17.078125 C 16.855469 16.949219 17.015625 16.699219 17.03125 16.421875 C 17.046875 16.082031 17.082031 15.742188 17.140625 15.40625 C 17.207031 15.046875 17.222656 14.675781 17.1875 14.3125 C 17.019531 13.183594 16.992188 12.035156 17.101562 10.898438 C 17.296875 8.820312 18.5 7.585938 20.3125 7.585938 Z M 2.195312 39.0625 C 1.847656 39.0625 1.5625 38.777344 1.5625 38.429688 L 1.5625 35.9375 C 1.558594 33.808594 2.640625 31.824219 4.429688 30.671875 L 11.601562 26.03125 L 11.820312 26.257812 C 12.132812 26.558594 12.625 26.550781 12.925781 26.238281 C 13.226562 25.925781 13.21875 25.433594 12.90625 25.132812 C 11.71875 23.929688 10.847656 22.453125 10.375 20.828125 C 10.296875 20.5 10 20.269531 9.664062 20.273438 C 9.296875 19.980469 9.046875 19.558594 8.96875 19.09375 C 8.84375 18.691406 8.824219 18.261719 8.914062 17.851562 C 9.148438 17.957031 9.417969 17.941406 9.640625 17.808594 C 9.859375 17.675781 10 17.445312 10.015625 17.1875 C 10.027344 16.925781 10.054688 16.664062 10.101562 16.40625 C 10.132812 16.097656 10.121094 15.78125 10.0625 15.476562 C 9.933594 14.605469 9.914062 13.71875 10 12.84375 C 10.15625 11.28125 11.015625 10.414062 12.34375 10.414062 C 12.511719 10.414062 12.675781 10.359375 12.8125 10.257812 C 13.726562 9.703125 14.769531 9.398438 15.835938 9.375 C 15.683594 9.824219 15.582031 10.289062 15.53125 10.757812 C 15.410156 12.007812 15.441406 13.265625 15.625 14.507812 C 15.660156 14.726562 15.679688 14.949219 15.6875 15.171875 C 15.6875 15.265625 15.6875 15.367188 15.640625 15.460938 L 15.414062 15.5 C 14.226562 15.820312 13.742188 17.453125 14.265625 19.40625 C 14.476562 20.550781 15.191406 21.542969 16.210938 22.109375 C 16.695312 23.566406 17.398438 24.945312 18.289062 26.195312 L 11.320312 30.226562 C 8.1875 32.039062 6.257812 35.382812 6.25 39 L 6.25 39.0625 Z M 42.1875 42.96875 C 42.1875 43.398438 41.835938 43.75 41.40625 43.75 L 8.59375 43.75 C 8.164062 43.75 7.8125 43.398438 7.8125 42.96875 L 7.8125 39 C 7.8125 35.933594 9.445312 33.097656 12.101562 31.5625 L 19.28125 27.40625 C 20.691406 29.140625 22.769531 30.199219 25 30.320312 C 27.230469 30.199219 29.308594 29.140625 30.71875 27.40625 L 37.898438 31.5625 C 40.554688 33.097656 42.1875 35.933594 42.1875 39 Z M 48.375 38.429688 C 48.375 38.777344 48.089844 39.0625 47.742188 39.0625 L 43.75 39.0625 L 43.75 39 C 43.75 35.375 41.816406 32.027344 38.679688 30.210938 L 31.710938 26.171875 C 32.601562 24.921875 33.304688 23.542969 33.789062 22.085938 C 34.808594 21.519531 35.523438 20.527344 35.734375 19.382812 C 36.25 17.445312 35.734375 15.8125 34.585938 15.476562 L 34.375 15.460938 C 34.261719 14.734375 34.070312 14.023438 33.804688 13.335938 C 34.046875 13.382812 34.285156 13.453125 34.515625 13.546875 C 34.785156 13.660156 35.09375 13.613281 35.316406 13.425781 C 35.539062 13.238281 35.640625 12.941406 35.578125 12.65625 C 35.335938 11.503906 34.914062 10.398438 34.328125 9.375 C 34.476562 9.375 34.625 9.375 34.765625 9.375 L 35.289062 9.375 C 37.933594 9.214844 40.375 10.796875 41.304688 13.28125 C 41.015625 13.296875 40.738281 13.414062 40.523438 13.609375 C 40.148438 14.007812 40.0625 14.597656 40.3125 15.085938 C 40.582031 15.753906 40.730469 16.464844 40.75 17.1875 C 40.769531 17.46875 40.941406 17.714844 41.195312 17.835938 C 41.402344 17.929688 41.636719 17.929688 41.84375 17.835938 C 41.9375 18.25 41.921875 18.679688 41.796875 19.085938 C 41.707031 19.539062 41.480469 19.953125 41.140625 20.265625 C 40.78125 20.25 40.460938 20.484375 40.359375 20.828125 C 39.839844 22.679688 38.78125 24.335938 37.320312 25.585938 C 36.980469 25.851562 36.925781 26.34375 37.191406 26.683594 C 37.457031 27.023438 37.949219 27.078125 38.289062 26.8125 C 38.46875 26.671875 38.640625 26.523438 38.804688 26.359375 L 45.46875 30.671875 C 47.273438 31.816406 48.371094 33.800781 48.375 35.9375 Z M 48.375 38.429688 "/>
</g>
</svg>
