<?xml version="1.0" encoding="UTF-8"?>
<svg xmlns="http://www.w3.org/2000/svg" xmlns:xlink="http://www.w3.org/1999/xlink" width="50px" height="50px" viewBox="0 0 50 50" version="1.1">
<g id="surface164332">
<path style=" stroke:none;fill-rule:nonzero;fill:rgb(52.156863%,79.607843%,97.254902%);fill-opacity:1;" d="M 17.96875 3.90625 L 30.46875 3.90625 C 31.332031 3.90625 32.03125 4.605469 32.03125 5.46875 L 32.03125 14.84375 C 32.03125 15.707031 31.332031 16.40625 30.46875 16.40625 L 17.96875 16.40625 C 17.105469 16.40625 16.40625 15.707031 16.40625 14.84375 L 16.40625 5.46875 C 16.40625 4.605469 17.105469 3.90625 17.96875 3.90625 Z M 17.96875 3.90625 "/>
<path style=" stroke:none;fill-rule:nonzero;fill:rgb(44.705882%,79.215686%,68.627451%);fill-opacity:1;" d="M 2.34375 27.34375 L 11.71875 27.34375 C 12.582031 27.34375 13.28125 28.042969 13.28125 28.90625 L 13.28125 39.84375 C 13.28125 40.707031 12.582031 41.40625 11.71875 41.40625 L 2.34375 41.40625 C 1.480469 41.40625 0.78125 40.707031 0.78125 39.84375 L 0.78125 28.90625 C 0.78125 28.042969 1.480469 27.34375 2.34375 27.34375 Z M 2.34375 27.34375 "/>
<path style=" stroke:none;fill-rule:nonzero;fill:rgb(36.470588%,73.72549%,61.568627%);fill-opacity:1;" d="M 1.46875 41.40625 L 13.1875 41.40625 C 13.1875 41.40625 13.1875 41.203125 13.1875 41.101562 C 13.03125 39.496094 11.675781 38.273438 10.0625 38.28125 L 3.8125 38.28125 C 2.386719 38.277344 1.136719 39.242188 0.78125 40.625 C 0.777344 41.023438 1.074219 41.359375 1.46875 41.40625 Z M 1.46875 41.40625 "/>
<path style=" stroke:none;fill-rule:nonzero;fill:rgb(44.705882%,79.215686%,68.627451%);fill-opacity:1;" d="M 19.53125 32.03125 L 28.90625 32.03125 C 29.769531 32.03125 30.46875 32.730469 30.46875 33.59375 L 30.46875 44.53125 C 30.46875 45.394531 29.769531 46.09375 28.90625 46.09375 L 19.53125 46.09375 C 18.667969 46.09375 17.96875 45.394531 17.96875 44.53125 L 17.96875 33.59375 C 17.96875 32.730469 18.667969 32.03125 19.53125 32.03125 Z M 19.53125 32.03125 "/>
<path style=" stroke:none;fill-rule:nonzero;fill:rgb(36.470588%,73.72549%,61.568627%);fill-opacity:1;" d="M 18.75 46.09375 L 30.46875 46.09375 C 30.46875 46.09375 30.46875 45.890625 30.46875 45.789062 C 30.3125 44.183594 28.957031 42.960938 27.34375 42.96875 L 21.09375 42.96875 C 19.667969 42.96875 18.425781 43.933594 18.070312 45.3125 C 18.066406 45.707031 18.359375 46.042969 18.75 46.09375 Z M 18.75 46.09375 "/>
<path style=" stroke:none;fill-rule:nonzero;fill:rgb(44.705882%,79.215686%,68.627451%);fill-opacity:1;" d="M 36.71875 27.34375 L 46.09375 27.34375 C 46.957031 27.34375 47.65625 28.042969 47.65625 28.90625 L 47.65625 39.84375 C 47.65625 40.707031 46.957031 41.40625 46.09375 41.40625 L 36.71875 41.40625 C 35.855469 41.40625 35.15625 40.707031 35.15625 39.84375 L 35.15625 28.90625 C 35.15625 28.042969 35.855469 27.34375 36.71875 27.34375 Z M 36.71875 27.34375 "/>
<path style=" stroke:none;fill-rule:nonzero;fill:rgb(36.470588%,73.72549%,61.568627%);fill-opacity:1;" d="M 35.9375 41.40625 L 47.65625 41.40625 C 47.65625 41.40625 47.65625 41.203125 47.65625 41.101562 C 47.5 39.496094 46.144531 38.273438 44.53125 38.28125 L 38.28125 38.28125 C 36.855469 38.28125 35.613281 39.246094 35.257812 40.625 C 35.253906 41.019531 35.546875 41.355469 35.9375 41.40625 Z M 35.9375 41.40625 "/>
<path style=" stroke:none;fill-rule:nonzero;fill:rgb(48.235294%,74.509804%,92.156863%);fill-opacity:1;" d="M 17.1875 16.40625 L 32.03125 16.40625 C 32.03125 16.40625 32.03125 16.203125 32.03125 16.101562 C 31.875 14.496094 30.519531 13.273438 28.90625 13.28125 L 19.53125 13.28125 C 18.105469 13.28125 16.863281 14.246094 16.507812 15.625 C 16.503906 16.019531 16.796875 16.355469 17.1875 16.40625 Z M 17.1875 16.40625 "/>
<path style=" stroke:none;fill-rule:nonzero;fill:rgb(55.294118%,42.352941%,62.352941%);fill-opacity:1;" d="M 46.09375 26.5625 L 42.1875 26.5625 L 42.1875 24.21875 C 42.1875 22.925781 41.136719 21.875 39.84375 21.875 L 25 21.875 L 25 17.1875 L 30.46875 17.1875 C 31.761719 17.1875 32.8125 16.136719 32.8125 14.84375 L 32.8125 5.46875 C 32.8125 4.175781 31.761719 3.125 30.46875 3.125 L 17.96875 3.125 C 16.675781 3.125 15.625 4.175781 15.625 5.46875 L 15.625 14.84375 C 15.625 16.136719 16.675781 17.1875 17.96875 17.1875 L 23.4375 17.1875 L 23.4375 21.875 L 8.59375 21.875 C 7.300781 21.875 6.25 22.925781 6.25 24.21875 L 6.25 26.5625 L 2.34375 26.5625 C 1.050781 26.5625 0 27.613281 0 28.90625 L 0 39.84375 C 0 41.136719 1.050781 42.1875 2.34375 42.1875 L 11.71875 42.1875 C 13.011719 42.1875 14.0625 41.136719 14.0625 39.84375 L 14.0625 28.90625 C 14.0625 27.613281 13.011719 26.5625 11.71875 26.5625 L 7.8125 26.5625 L 7.8125 24.21875 C 7.8125 23.789062 8.164062 23.4375 8.59375 23.4375 L 23.4375 23.4375 L 23.4375 31.25 L 19.53125 31.25 C 18.238281 31.25 17.1875 32.300781 17.1875 33.59375 L 17.1875 44.53125 C 17.1875 45.824219 18.238281 46.875 19.53125 46.875 L 28.90625 46.875 C 30.199219 46.875 31.25 45.824219 31.25 44.53125 L 31.25 33.59375 C 31.25 32.300781 30.199219 31.25 28.90625 31.25 L 25 31.25 L 25 23.4375 L 39.84375 23.4375 C 40.273438 23.4375 40.625 23.789062 40.625 24.21875 L 40.625 26.5625 L 36.71875 26.5625 C 35.425781 26.5625 34.375 27.613281 34.375 28.90625 L 34.375 39.84375 C 34.375 41.136719 35.425781 42.1875 36.71875 42.1875 L 46.09375 42.1875 C 47.386719 42.1875 48.4375 41.136719 48.4375 39.84375 L 48.4375 28.90625 C 48.4375 27.613281 47.386719 26.5625 46.09375 26.5625 Z M 17.1875 14.84375 L 17.1875 5.46875 C 17.1875 5.039062 17.539062 4.6875 17.96875 4.6875 L 30.46875 4.6875 C 30.898438 4.6875 31.25 5.039062 31.25 5.46875 L 31.25 14.84375 C 31.25 15.273438 30.898438 15.625 30.46875 15.625 L 17.96875 15.625 C 17.539062 15.625 17.1875 15.273438 17.1875 14.84375 Z M 12.5 28.90625 L 12.5 39.84375 C 12.5 40.273438 12.148438 40.625 11.71875 40.625 L 2.34375 40.625 C 1.914062 40.625 1.5625 40.273438 1.5625 39.84375 L 1.5625 28.90625 C 1.5625 28.476562 1.914062 28.125 2.34375 28.125 L 11.71875 28.125 C 12.148438 28.125 12.5 28.476562 12.5 28.90625 Z M 29.6875 33.59375 L 29.6875 44.53125 C 29.6875 44.960938 29.335938 45.3125 28.90625 45.3125 L 19.53125 45.3125 C 19.101562 45.3125 18.75 44.960938 18.75 44.53125 L 18.75 33.59375 C 18.75 33.164062 19.101562 32.8125 19.53125 32.8125 L 28.90625 32.8125 C 29.335938 32.8125 29.6875 33.164062 29.6875 33.59375 Z M 46.875 39.84375 C 46.875 40.273438 46.523438 40.625 46.09375 40.625 L 36.71875 40.625 C 36.289062 40.625 35.9375 40.273438 35.9375 39.84375 L 35.9375 28.90625 C 35.9375 28.476562 36.289062 28.125 36.71875 28.125 L 46.09375 28.125 C 46.523438 28.125 46.875 28.476562 46.875 28.90625 Z M 46.875 39.84375 "/>
<path style=" stroke:none;fill-rule:nonzero;fill:rgb(55.294118%,42.352941%,62.352941%);fill-opacity:1;" d="M 20.3125 10.9375 C 19.882812 10.9375 19.53125 11.289062 19.53125 11.71875 L 19.53125 13.28125 C 19.53125 13.710938 19.882812 14.0625 20.3125 14.0625 C 20.742188 14.0625 21.09375 13.710938 21.09375 13.28125 L 21.09375 11.71875 C 21.09375 11.289062 20.742188 10.9375 20.3125 10.9375 Z M 25 13.28125 L 25 11.71875 C 25 11.289062 24.648438 10.9375 24.21875 10.9375 C 23.789062 10.9375 23.4375 11.289062 23.4375 11.71875 L 23.4375 13.28125 C 23.4375 13.710938 23.789062 14.0625 24.21875 14.0625 C 24.648438 14.0625 25 13.710938 25 13.28125 Z M 28.125 14.0625 C 28.554688 14.0625 28.90625 13.710938 28.90625 13.28125 L 28.90625 11.71875 C 28.90625 11.289062 28.554688 10.9375 28.125 10.9375 C 27.695312 10.9375 27.34375 11.289062 27.34375 11.71875 L 27.34375 13.28125 C 27.34375 13.710938 27.695312 14.0625 28.125 14.0625 Z M 20.3125 42.96875 C 20.3125 43.398438 20.664062 43.75 21.09375 43.75 L 27.34375 43.75 C 27.773438 43.75 28.125 43.398438 28.125 42.96875 C 28.125 42.539062 27.773438 42.1875 27.34375 42.1875 L 21.09375 42.1875 C 20.664062 42.1875 20.3125 42.539062 20.3125 42.96875 Z M 3.125 38.28125 C 3.125 38.710938 3.476562 39.0625 3.90625 39.0625 L 10.15625 39.0625 C 10.585938 39.0625 10.9375 38.710938 10.9375 38.28125 C 10.9375 37.851562 10.585938 37.5 10.15625 37.5 L 3.90625 37.5 C 3.476562 37.5 3.125 37.851562 3.125 38.28125 Z M 44.53125 37.5 L 38.28125 37.5 C 37.851562 37.5 37.5 37.851562 37.5 38.28125 C 37.5 38.710938 37.851562 39.0625 38.28125 39.0625 L 44.53125 39.0625 C 44.960938 39.0625 45.3125 38.710938 45.3125 38.28125 C 45.3125 37.851562 44.960938 37.5 44.53125 37.5 Z M 44.53125 37.5 "/>
</g>
</svg>
