<svg xmlns="http://www.w3.org/2000/svg" viewBox="0 0 80 80"><defs><style>.cls-1{fill:#a696b8;}.cls-2{fill:#0a668a;}.cls-3{fill:#bcb0ca;}.cls-4{fill:#dddded;}.cls-4,.cls-5,.cls-8{stroke:#0a668a;stroke-miterlimit:10;stroke-width:1.5px;}.cls-5{fill:#eac988;}.cls-6{fill:#b2986b;opacity:0.4;}.cls-7{fill:#f2dfb8;}.cls-8{fill:none;}</style></defs><title>Artboard 1</title><g id="Layer_2" data-name="Layer 2"><circle class="cls-1" cx="40" cy="40" r="34.25"/><path class="cls-2" d="M40,6.5A33.5,33.5,0,1,1,6.5,40,33.54,33.54,0,0,1,40,6.5M40,5A35,35,0,1,0,75,40,35,35,0,0,0,40,5Z"/></g><g id="Layer_3" data-name="Layer 3"><path class="cls-3" d="M58.53,10.31,10.31,58.53a35,35,0,0,0,8.27,9.14L67.67,18.58A35,35,0,0,0,58.53,10.31Z"/><path class="cls-3" d="M75,40a34.83,34.83,0,0,0-3.89-16L24,71.11A35,35,0,0,0,75,40Z"/><path class="cls-3" d="M6.35,49.61c.21.74.44,1.48.7,2.2L51.81,7.05c-.72-.26-1.45-.49-2.19-.7Z"/><path class="cls-2" d="M40,6.5A33.5,33.5,0,1,1,6.5,40,33.54,33.54,0,0,1,40,6.5M40,5A35,35,0,1,0,75,40,35,35,0,0,0,40,5Z"/></g><g id="Layer_1" data-name="Layer 1"><path class="cls-4" d="M40,51.68c-8.84,0-16-7.93-16-17.67V29.16c0-9.74,7.19-17.66,16-17.66s16,7.92,16,17.66V34C56,43.75,48.84,51.68,40,51.68Zm0-33.19c-5.34,0-9.68,4.78-9.68,10.67V34c0,5.89,4.34,10.68,9.68,10.68S49.69,39.9,49.69,34V29.16C49.69,23.27,45.34,18.49,40,18.49Z"/><rect class="cls-5" x="22" y="34.51" width="36" height="30.12" rx="2" ry="2"/><path class="cls-6" d="M45.14,45.53a5.14,5.14,0,1,0-7.87,4.35L36.53,58h6.94l-.74-8.14A5.13,5.13,0,0,0,45.14,45.53Z"/><rect class="cls-7" x="53" y="34.51" width="5" height="30.12" rx="1" ry="1"/><rect class="cls-7" x="49" y="34.51" width="2" height="30.12" rx="1" ry="1"/><rect class="cls-8" x="22" y="34.51" width="36" height="30.12" rx="2" ry="2"/><path class="cls-8" d="M45.14,45.53a5.14,5.14,0,1,0-7.87,4.35L36.53,58h6.94l-.74-8.14A5.13,5.13,0,0,0,45.14,45.53Z"/></g></svg>