<?xml version="1.0" encoding="utf-8"?>
<!-- Generator: Adobe Illustrator 21.0.2, SVG Export Plug-In . SVG Version: 6.00 Build 0)  -->
<svg version="1.1" xmlns="http://www.w3.org/2000/svg" xmlns:xlink="http://www.w3.org/1999/xlink" x="0px" y="0px"
	 viewBox="0 0 24 24" style="enable-background:new 0 0 24 24;" xml:space="preserve">
<style type="text/css">
	.st0{fill:#FFFFFF;}
	.st1{fill:#CCE7FF;}
	.st2{fill:none;stroke:#1078FF;stroke-linecap:round;stroke-linejoin:round;stroke-miterlimit:10;}
	.st3{fill:none;}
</style>
<g id="Duotone">
	<polygon class="st0" points="22.5,5.2 19.5,1.5 11.5,1.5 7,6.5 8.5,6.5 8.5,14.5 4,14.5 0.5,18.5 2.5,18.5 2.5,23.5 12.5,23.5 
		12.5,21.5 22.5,21.5 	"/>
	<rect x="8.5" y="6.5" class="st1" width="8" height="2.5"/>
	<polygon class="st1" points="16.5,21.5 22.5,21.5 22.5,5.2 19.5,1.5 16.5,5.2 	"/>
	<polygon class="st1" points="12.5,23.5 12.5,17.2 10.5,14.5 8.5,17.2 8.5,23.5 	"/>
	<rect x="2.5" y="18.5" class="st1" width="6" height="2"/>
	<polygon class="st2" points="0.5,18.5 7.5,18.5 10.5,14.5 4,14.5 	"/>
	<line class="st2" x1="13.5" y1="18.5" x2="10.5" y2="14.5"/>
	<polyline class="st2" points="2.5,18.5 2.5,23.5 8.5,23.5 8.5,17.2 	"/>
	<polyline class="st2" points="12.5,17.2 12.5,23.5 8.5,23.5 	"/>
	<polygon class="st2" points="7,6.5 15.5,6.5 19.5,1.5 11.5,1.5 	"/>
	<line class="st2" x1="19.5" y1="1.5" x2="23.5" y2="6.5"/>
	<line class="st2" x1="16.5" y1="21.5" x2="16.5" y2="5.2"/>
	<line class="st2" x1="8.5" y1="6.5" x2="8.5" y2="12.5"/>
	<polyline class="st2" points="15.5,21.5 22.5,21.5 22.5,5.2 	"/>
	<line class="st2" x1="18.5" y1="7.5" x2="18.5" y2="9.5"/>
	<line class="st2" x1="20.5" y1="7.5" x2="20.5" y2="9.5"/>
	<line class="st2" x1="18.5" y1="12.5" x2="18.5" y2="14.5"/>
	<line class="st2" x1="10.5" y1="21.5" x2="10.5" y2="23.5"/>
	<line class="st2" x1="20.5" y1="12.5" x2="20.5" y2="14.5"/>
	<line class="st2" x1="18.5" y1="17.5" x2="18.5" y2="19.5"/>
	<line class="st2" x1="20.5" y1="17.5" x2="20.5" y2="19.5"/>
</g>
<g id="Frames-24px">
	<rect class="st3" width="24" height="24"/>
</g>
</svg>
