<?xml version="1.0" encoding="utf-8"?>
<!-- Generator: Adobe Illustrator 21.0.2, SVG Export Plug-In . SVG Version: 6.00 Build 0)  -->
<svg version="1.1" xmlns="http://www.w3.org/2000/svg" xmlns:xlink="http://www.w3.org/1999/xlink" x="0px" y="0px"
	 viewBox="0 0 24 24" style="enable-background:new 0 0 24 24;" xml:space="preserve">
<style type="text/css">
	.st0{fill:#FFFFFF;}
	.st1{fill:#CCE7FF;}
	.st2{fill:none;stroke:#1078FF;stroke-linejoin:round;stroke-miterlimit:10;}
	.st3{fill:none;stroke:#1078FF;stroke-linecap:round;stroke-linejoin:round;stroke-miterlimit:10;}
	.st4{fill:#FFFFFF;stroke:#1078FF;stroke-linecap:round;stroke-linejoin:round;stroke-miterlimit:10;}
	.st5{fill:none;stroke:#1078FF;stroke-linecap:round;stroke-miterlimit:10;}
	.st6{fill:#1078FF;}
	.st7{fill:#CCE7FF;stroke:#1078FF;stroke-linecap:round;stroke-linejoin:round;stroke-miterlimit:10;}
	.st8{fill:none;}
</style>
<g id="Duotone">
	<polygon class="st0" points="0.5,13.5 2.5,19.5 4.5,19.5 3.2,13.5 	"/>
	<polygon class="st0" points="22.5,13.5 20.5,19.5 18.5,19.5 19.8,13.5 	"/>
	<polygon class="st0" points="14.5,11.5 14.5,9.5 6.5,9.5 6.5,11.5 4.5,11.5 4.5,21.5 18.5,21.5 18.5,11.5 	"/>
	<polygon class="st1" points="21.8,15.5 20.5,19.5 18.5,19.5 19.4,15.5 	"/>
	<polygon class="st1" points="1.2,15.5 2.5,19.5 4.5,19.5 3.6,15.5 	"/>
	<g>
		<polygon class="st1" points="18.5,11.5 13,11.5 7,17.5 12.5,17.5 		"/>
	</g>
	<rect x="4.5" y="11.5" class="st2" width="14" height="10"/>
	<polyline class="st2" points="4.5,17.5 12.5,17.5 18.5,11.5 	"/>
	<line class="st3" x1="15.5" y1="19.5" x2="16.5" y2="19.5"/>
	<rect x="6.5" y="9.5" class="st2" width="8" height="2"/>
	<line class="st2" x1="10.5" y1="9.5" x2="10.5" y2="11.5"/>
	<polyline class="st2" points="3.2,13.5 0.5,13.5 2.5,19.5 4.5,19.5 1.9,7.5 7.5,3.5 15.5,3.5 21.1,7.5 18.5,19.5 20.5,19.5 
		22.5,13.5 19.8,13.5 	"/>
</g>
<g id="Frames-24px">
	<rect class="st8" width="24" height="24"/>
</g>
</svg>
