<?xml version="1.0" encoding="utf-8"?>
<!-- Generator: Adobe Illustrator 21.0.2, SVG Export Plug-In . SVG Version: 6.00 Build 0)  -->
<svg version="1.1" xmlns="http://www.w3.org/2000/svg" xmlns:xlink="http://www.w3.org/1999/xlink" x="0px" y="0px"
	 viewBox="0 0 24 24" style="enable-background:new 0 0 24 24;" xml:space="preserve">
<style type="text/css">
	.st0{fill:#FFFFFF;}
	.st1{fill:#CCE7FF;}
	.st2{fill:none;stroke:#1078FF;stroke-linecap:round;stroke-linejoin:round;stroke-miterlimit:10;}
	.st3{fill:none;}
</style>
<g id="Duotone">
	<polygon class="st0" points="18,12.7 21.5,12 18.5,9 16.5,0.5 7.5,0.5 5.5,9 2.5,12 6,12.7 6,12.7 4,23.5 10,17.5 14,17.5 20,23.5 
		18,12.7 	"/>
	<polygon class="st1" points="12,14 6,12.7 6,12.7 10,17.5 14,17.5 18,12.7 18,12.7 	"/>
	<g>
		<polygon class="st2" points="16.5,0.5 18.5,9 21.5,12 12,14 2.5,12 5.5,9 7.5,0.5 		"/>
		<line class="st2" x1="14" y1="17.5" x2="10" y2="17.5"/>
		<polygon class="st2" points="10,17.5 6,12.7 4,23.5 		"/>
		<polygon class="st2" points="14,17.5 18,12.7 20,23.5 		"/>
	</g>
</g>
<g id="Frames-24px">
	<rect class="st3" width="24" height="24"/>
</g>
</svg>
