<?xml version="1.0" encoding="utf-8"?>
<!-- Generator: Adobe Illustrator 21.0.2, SVG Export Plug-In . SVG Version: 6.00 Build 0)  -->
<svg version="1.1" xmlns="http://www.w3.org/2000/svg" xmlns:xlink="http://www.w3.org/1999/xlink" x="0px" y="0px"
	 viewBox="0 0 24 24" style="enable-background:new 0 0 24 24;" xml:space="preserve">
<style type="text/css">
	.st0{fill:#FFFFFF;}
	.st1{fill:#CCE7FF;}
	.st2{fill:none;stroke:#1078FF;stroke-linecap:round;stroke-linejoin:round;stroke-miterlimit:10;}
	.st3{fill:none;}
</style>
<g id="Duotone">
	<polygon class="st0" points="20,10.5 17,3.5 7,3.5 4,10.5 0.5,10.5 4.5,18.5 8,18.5 16,18.5 19.5,18.5 23.5,10.5 	"/>
	<polygon class="st1" points="17.3,16 6.8,16 3.3,16 4.5,18.5 8,18.5 16,18.5 19.5,18.5 20.8,16 	"/>
	<g>
		<line class="st2" x1="6" y1="14.5" x2="18" y2="14.5"/>
		<line class="st2" x1="13.5" y1="7.5" x2="10.5" y2="9.5"/>
		<line class="st2" x1="10.5" y1="7.5" x2="13.5" y2="9.5"/>
		<line class="st2" x1="6.5" y1="18.5" x2="4" y2="23.5"/>
		<line class="st2" x1="17.5" y1="18.5" x2="20" y2="23.5"/>
		<polygon class="st2" points="8,18.5 4,10.5 0.5,10.5 4.5,18.5 		"/>
		<polygon class="st2" points="17,3.5 7,3.5 4,10.5 8,18.5 16,18.5 20,10.5 		"/>
		<polygon class="st2" points="16,18.5 20,10.5 23.5,10.5 19.5,18.5 		"/>
	</g>
</g>
<g id="Frames-24px">
	<rect class="st3" width="24" height="24"/>
</g>
</svg>
