<?xml version="1.0" encoding="utf-8"?>
<!-- Generator: Adobe Illustrator 21.0.2, SVG Export Plug-In . SVG Version: 6.00 Build 0)  -->
<svg version="1.1" xmlns="http://www.w3.org/2000/svg" xmlns:xlink="http://www.w3.org/1999/xlink" x="0px" y="0px"
	 viewBox="0 0 24 24" style="enable-background:new 0 0 24 24;" xml:space="preserve">
<style type="text/css">
	.st0{fill:#FFFFFF;}
	.st1{fill:none;stroke:#CCE7FF;stroke-linecap:round;stroke-linejoin:round;stroke-miterlimit:10;}
	.st2{fill:#CCE7FF;}
	.st3{fill:none;stroke:#1078FF;stroke-linecap:round;stroke-linejoin:round;stroke-miterlimit:10;}
	.st4{fill:none;}
</style>
<g id="Duotone">
	<polygon class="st0" points="21.5,17.5 14.5,15.5 14.5,13.5 15.5,13 15.5,10.5 17.5,9.5 17.5,7.5 15.5,7.5 15.5,0.5 13.5,1.5 
		11.5,0.5 9.5,1.5 7.5,0.5 7.5,7.5 5.5,7.5 5.5,9.5 7.5,10.5 7.5,13 8.5,13.5 8.5,15.5 1.5,17.5 0.5,23.5 22.5,23.5 	"/>
	<polygon class="st2" points="21.5,17.5 19.4,16.9 20.5,23.5 22.5,23.5 	"/>
	<rect x="7.5" y="5.5" class="st2" width="8" height="2"/>
	<polyline class="st3" points="22.5,23.5 21.5,17.5 14.5,15.5 14.5,18.5 8.5,18.5 8.5,23.5 	"/>
	<polyline class="st3" points="0.5,23.5 1.5,17.5 8.5,15.5 8.5,13.5 	"/>
	<line class="st3" x1="10.5" y1="22.5" x2="11.5" y2="22.5"/>
	<line class="st3" x1="10.5" y1="20.5" x2="11.5" y2="20.5"/>
	<polyline class="st3" points="15.5,7.5 15.5,13 11.5,15 7.5,13 7.5,7.5 	"/>
	<line class="st3" x1="7.5" y1="7.5" x2="15.5" y2="7.5"/>
	<polyline class="st3" points="7.5,7.5 7.5,0.5 9.5,1.5 11.5,0.5 13.5,1.5 15.5,0.5 15.5,7.5 	"/>
	<polyline class="st3" points="7.5,7.5 5.5,7.5 5.5,9.5 7.5,10.5 	"/>
	<polyline class="st3" points="15.5,7.5 17.5,7.5 17.5,9.5 15.5,10.5 	"/>
	<line class="st3" x1="9.5" y1="7.5" x2="9.5" y2="5.5"/>
	<line class="st3" x1="13.5" y1="7.5" x2="13.5" y2="5.5"/>
	<line class="st3" x1="11.5" y1="7.5" x2="11.5" y2="5.5"/>
	<line class="st3" x1="14.5" y1="15.5" x2="14.5" y2="13.5"/>
	<line class="st3" x1="9.5" y1="9.5" x2="9.5" y2="10"/>
	<line class="st3" x1="13.5" y1="9.5" x2="13.5" y2="10"/>
</g>
<g id="Frames-24px">
	<rect class="st4" width="24" height="24"/>
</g>
</svg>
