<?xml version="1.0" encoding="utf-8"?>
<!-- Generator: Adobe Illustrator 21.0.2, SVG Export Plug-In . SVG Version: 6.00 Build 0)  -->
<svg version="1.1" xmlns="http://www.w3.org/2000/svg" xmlns:xlink="http://www.w3.org/1999/xlink" x="0px" y="0px"
	 viewBox="0 0 24 24" style="enable-background:new 0 0 24 24;" xml:space="preserve">
<style type="text/css">
	.st0{fill:#FFFFFF;}
	.st1{fill:#CCE7FF;}
	.st2{fill:none;stroke:#1078FF;stroke-linecap:round;stroke-linejoin:round;stroke-miterlimit:10;}
	.st3{fill:none;}
</style>
<g id="Duotone">
	<path class="st0" d="M18.5,15.5v-7h-6L8,0.5H1.5v23h3V20l2-2l2,2v3.5h3V20l2-2l2,2v3.5h3V20l2-2l2,2v3.5h1v-8H18.5z M8.5,15.5h-4
		v-3l2-2l2,2V15.5z M15.5,15.5h-4v-3l2-2l2,2V15.5z"/>
	<rect x="1.5" y="8.5" class="st1" width="17" height="2"/>
	<rect x="1.5" y="15.5" class="st1" width="22" height="2"/>
	<line class="st2" x1="0.5" y1="23.5" x2="23.5" y2="23.5"/>
	<line class="st2" x1="0.5" y1="15.5" x2="23.5" y2="15.5"/>
	<line class="st2" x1="0.5" y1="8.5" x2="19.5" y2="8.5"/>
	<polyline class="st2" points="12.5,8.5 8,0.5 1.5,0.5 1.5,23.5 	"/>
	<polyline class="st2" points="4.5,23.5 4.5,20 6.5,18 8.5,20 8.5,23.5 	"/>
	<polyline class="st2" points="11.5,23.5 11.5,20 13.5,18 15.5,20 15.5,23.5 	"/>
	<polyline class="st2" points="4.5,15.5 4.5,12.5 6.5,10.5 8.5,12.5 8.5,15.5 	"/>
	<polyline class="st2" points="11.5,15.5 11.5,12.5 13.5,10.5 15.5,12.5 15.5,15.5 	"/>
	<polyline class="st2" points="18.5,23.5 18.5,20 20.5,18 22.5,20 22.5,23.5 	"/>
	<line class="st2" x1="4.5" y1="3.5" x2="4.5" y2="5.5"/>
	<line class="st2" x1="6.5" y1="3.5" x2="6.5" y2="5.5"/>
	<line class="st2" x1="18.5" y1="8.5" x2="18.5" y2="15.5"/>
</g>
<g id="Frames-24px">
	<rect class="st3" width="24" height="24"/>
</g>
</svg>
