<?xml version="1.0" encoding="utf-8"?>
<!-- Generator: Adobe Illustrator 21.0.2, SVG Export Plug-In . SVG Version: 6.00 Build 0)  -->
<svg version="1.1" xmlns="http://www.w3.org/2000/svg" xmlns:xlink="http://www.w3.org/1999/xlink" x="0px" y="0px"
	 viewBox="0 0 24 24" style="enable-background:new 0 0 24 24;" xml:space="preserve">
<style type="text/css">
	.st0{fill:#FFFFFF;}
	.st1{fill:#CCE7FF;}
	.st2{fill:none;stroke:#1078FF;stroke-linecap:round;stroke-linejoin:round;stroke-miterlimit:10;}
	.st3{fill:#1078FF;}
	.st4{fill:none;stroke:#1078FF;stroke-linecap:round;stroke-miterlimit:10;}
	.st5{fill:none;}
</style>
<g id="Duotone">
	<polygon class="st0" points="6.3,21.5 0.5,11.5 6.3,1.5 17.8,1.5 23.5,11.5 17.8,21.5 	"/>
	<polygon class="st1" points="6.3,21.5 17.8,1.5 23.5,11.5 17.8,21.5 	"/>
	<polygon class="st2" points="6.3,21.5 0.5,11.5 6.3,1.5 17.8,1.5 23.5,11.5 17.8,21.5 	"/>
	<polygon class="st2" points="23.5,11.5 6.3,1.5 5.5,13 6.3,21.5 15.5,19 	"/>
	<polyline class="st2" points="17.8,21.5 15.5,19 5.5,13 0.5,11.5 	"/>
	<polyline class="st2" points="5.5,13 15.6,6.9 17.8,1.5 	"/>
	<line class="st2" x1="15.5" y1="19" x2="15.6" y2="6.9"/>
</g>
<g id="Frames-24px">
	<rect class="st5" width="24" height="24"/>
</g>
</svg>
