<svg xmlns="http://www.w3.org/2000/svg" width="24" height="24" viewBox="0 0 24 24">
  <title>domino</title>
  <g id="Duotone">
    <polygon points="8.985 23.5 0.5 15.015 15.349 0.5 23.5 8.651 8.985 23.5" fill="#fff"/>
    <polygon points="16.452 15.861 7.895 7.786 15.349 0.5 23.5 8.651 16.452 15.861" fill="#cce7ff"/>
    <polygon points="8.985 23.5 0.5 15.015 15.349 0.5 23.5 8.651 8.985 23.5" fill="none" stroke="#1078ff" stroke-linecap="round" stroke-linejoin="round"/>
    <path d="M5.566,15.266h0M5,14.5a.2.2,0,0,0-.141.059l-.8.8a.2.2,0,0,0,0,.283l.8.8a.2.2,0,0,0,.283,0l.8-.8a.2.2,0,0,0,0-.283l-.8-.8A.2.2,0,0,0,5,14.5Z" fill="#1078ff"/>
    <line x1="7.895" y1="7.786" x2="16.452" y2="15.861" fill="none" stroke="#1078ff" stroke-linecap="round" stroke-linejoin="round"/>
    <path d="M9.066,18.766h0M8.5,18a.2.2,0,0,0-.141.059l-.8.8a.2.2,0,0,0,0,.283l.8.8a.2.2,0,0,0,.283,0l.8-.8a.2.2,0,0,0,0-.283l-.8-.8A.2.2,0,0,0,8.5,18Z" fill="#1078ff"/>
    <path d="M8.566,12.266h0M8,11.5a.2.2,0,0,0-.141.059l-.8.8a.2.2,0,0,0,0,.283l.8.8a.2.2,0,0,0,.283,0l.8-.8a.2.2,0,0,0,0-.283l-.8-.8A.2.2,0,0,0,8,11.5Z" fill="#1078ff"/>
    <path d="M13.066,7.766h0M12.5,7a.2.2,0,0,0-.141.059l-.8.8a.2.2,0,0,0,0,.283l.8.8a.2.2,0,0,0,.283,0l.8-.8a.2.2,0,0,0,0-.283l-.8-.8A.2.2,0,0,0,12.5,7Z" fill="#1078ff"/>
    <path d="M20.065,7.767h0M19.5,7a.2.2,0,0,0-.141.059l-.8.8a.2.2,0,0,0,0,.283l.8.8a.2.2,0,0,0,.283,0l.8-.8a.2.2,0,0,0,0-.283l-.8-.8A.2.2,0,0,0,19.5,7Z" fill="#1078ff"/>
  </g>
  <g id="Frames-24px">
    <rect width="24" height="24" fill="none"/>
  </g>
</svg>
