<?xml version="1.0" encoding="utf-8"?>
<!-- Generator: Adobe Illustrator 21.0.2, SVG Export Plug-In . SVG Version: 6.00 Build 0)  -->
<svg version="1.1" xmlns="http://www.w3.org/2000/svg" xmlns:xlink="http://www.w3.org/1999/xlink" x="0px" y="0px"
	 viewBox="0 0 24 24" style="enable-background:new 0 0 24 24;" xml:space="preserve">
<style type="text/css">
	.st0{fill:#CCE7FF;}
	.st1{fill:#FFFFFF;}
	.st2{fill:none;stroke:#1078FF;stroke-linecap:round;stroke-linejoin:round;stroke-miterlimit:10;}
	.st3{fill:#1078FF;}
	.st4{fill:none;}
</style>
<g id="Duotone">
	<polygon class="st1" points="5.5,21.5 1.5,17.5 5.5,13.5 11,13.5 12.5,17.5 18.5,19 18.5,21.5 	"/>
	<polygon class="st1" points="1.5,8.5 8.5,8.5 7.5,7 0.5,5.5 	"/>
	<polygon class="st0" points="16.9,19.5 6.8,19.5 4.5,17.5 1.5,17.5 5.5,21.5 18.5,21.5 	"/>
	<polygon class="st0" points="8.4,17.5 7.4,18 6.4,17.5 6.4,16 7.4,15.5 8.4,16 	"/>
	<polygon class="st2" points="5.5,21.5 1.5,17.5 5.5,13.5 11,13.5 12.5,17.5 18.5,19 18.5,21.5 	"/>
	<polyline class="st2" points="12.5,17.5 17.5,7.5 19.5,7.5 22.5,4.5 19.5,1.5 15.5,1.5 	"/>
	<line class="st2" x1="8.5" y1="13.5" x2="4" y2="8.5"/>
	<polygon class="st2" points="1.5,8.5 8.5,8.5 7.5,7 0.5,5.5 	"/>
	<line class="st2" x1="5.5" y1="21.5" x2="4" y2="23.5"/>
	<line class="st2" x1="18.5" y1="21.5" x2="20" y2="23.5"/>
	<polygon class="st2" points="8.4,17.5 7.4,18 6.4,17.5 6.4,16 7.4,15.5 8.4,16 	"/>
	<line class="st2" x1="8.1" y1="17.6" x2="9.6" y2="19.5"/>
	<line class="st2" x1="8.5" y1="19.5" x2="11.5" y2="19.5"/>
</g>
<g id="Frames-24px">
	<rect class="st4" width="24" height="24"/>
</g>
</svg>
