<?xml version="1.0" encoding="utf-8"?>
<!-- Generator: Adobe Illustrator 21.0.2, SVG Export Plug-In . SVG Version: 6.00 Build 0)  -->
<svg version="1.1" xmlns="http://www.w3.org/2000/svg" xmlns:xlink="http://www.w3.org/1999/xlink" x="0px" y="0px"
	 viewBox="0 0 24 24" style="enable-background:new 0 0 24 24;" xml:space="preserve">
<style type="text/css">
	.st0{fill:#FFFFFF;}
	.st1{fill:#CCE7FF;}
	.st2{fill:none;stroke:#1078FF;stroke-linecap:round;stroke-linejoin:round;stroke-miterlimit:10;}
	.st3{fill:#1078FF;}
	.st4{fill:none;}
</style>
<g id="Duotone">
	<polyline class="st0" points="21.5,15.5 21.5,9.5 16.5,8 16.5,15.5 	"/>
	<polyline class="st1" points="3.5,15.5 3.5,13.5 7.5,13.5 7.5,15.5 	"/>
	<polyline class="st1" points="3,20 0.5,15.5 23.5,15.5 21,20 	"/>
	<polygon class="st1" points="16.5,10.5 18.5,11 18.5,12.5 16.5,12.5 	"/>
	<polyline class="st2" points="3,20 0.5,15.5 23.5,15.5 21,20 	"/>
	<polyline class="st2" points="21.5,15.5 21.5,9.5 16.5,8 16.5,15.5 	"/>
	<polyline class="st2" points="2.5,6.5 11.5,6.5 11.5,15.5 	"/>
	<polyline class="st2" points="3.5,15.5 3.5,13.5 7.5,13.5 7.5,15.5 	"/>
	<line class="st2" x1="8" y1="6.5" x2="11.5" y2="10.5"/>
	<line class="st2" x1="5.5" y1="8.5" x2="5.5" y2="9"/>
	<line class="st2" x1="5.5" y1="11" x2="5.5" y2="11.5"/>
	<polygon class="st2" points="16.5,10.5 18.5,11 18.5,12.5 16.5,12.5 	"/>
	<polyline class="st2" points="19,1 20.5,3.5 22.5,1.5 	"/>
	<polyline class="st2" points="15,3.5 16,4.5 17,3.5 	"/>
	<polyline class="st2" points="0.5,23.5 3,22 5,23.5 7,22 9,23.5 11,22 13,23.5 15,22 17,23.5 19,22 21,23.5 23.5,22 	"/>
</g>
<g id="Frames-24px">
	<rect class="st4" width="24" height="24"/>
</g>
</svg>
