<?xml version="1.0" encoding="utf-8"?>
<!-- Generator: Adobe Illustrator 21.0.2, SVG Export Plug-In . SVG Version: 6.00 Build 0)  -->
<svg version="1.1" xmlns="http://www.w3.org/2000/svg" xmlns:xlink="http://www.w3.org/1999/xlink" x="0px" y="0px"
	 viewBox="0 0 24 24" style="enable-background:new 0 0 24 24;" xml:space="preserve">
<style type="text/css">
	.st0{fill:none;stroke:#58595B;stroke-linecap:round;stroke-linejoin:round;stroke-miterlimit:10;}
	.st1{fill:#FFFFFF;}
	.st2{fill:#CCE7FF;}
	.st3{fill:none;stroke:#1078FF;stroke-linecap:round;stroke-linejoin:round;stroke-miterlimit:10;}
	.st4{fill:none;}
</style>
<g id="Black">
	<g>
		<rect x="5.5" y="6.5" class="st0" width="12" height="15"/>
		<line class="st0" x1="5.5" y1="16.5" x2="17.5" y2="16.5"/>
		<polyline class="st0" points="17.5,8.5 22.5,8.5 20,16.5 17.5,16.5 		"/>
		<polyline class="st0" points="5.5,11 1.5,6.5 5.5,6.5 		"/>
		<line class="st0" x1="11.5" y1="13.5" x2="11.5" y2="6.5"/>
		<polyline class="st0" points="6,6.5 14.5,0.5 8.5,0.5 17,6.5 		"/>
		<line class="st0" x1="8" y1="21.5" x2="6.5" y2="23.5"/>
		<line class="st0" x1="15" y1="21.5" x2="16.5" y2="23.5"/>
		<line class="st0" x1="8.5" y1="13.5" x2="14.5" y2="13.5"/>
	</g>
</g>
<g id="Duotone">
	<rect x="5.5" y="6.5" class="st1" width="12" height="15"/>
	<polygon class="st1" points="17,6.5 11.5,2.6 6,6.5 	"/>
	<rect x="5.5" y="16.5" class="st2" width="12" height="5"/>
	<polygon class="st2" points="5.5,16.5 17.5,16.5 17.5,6.5 	"/>
	<polygon class="st2" points="5.5,11 1.5,6.5 5.5,6.5 	"/>
	<g>
		<polygon class="st2" points="8.5,0.5 11.5,2.6 14.5,0.5 		"/>
	</g>
	<g>
		<rect x="5.5" y="6.5" class="st3" width="12" height="15"/>
		<line class="st3" x1="5.5" y1="16.5" x2="17.5" y2="16.5"/>
		<polyline class="st3" points="17.5,8.5 22.5,8.5 20,16.5 17.5,16.5 		"/>
		<polyline class="st3" points="5.5,11 1.5,6.5 5.5,6.5 		"/>
		<line class="st3" x1="11.5" y1="13.5" x2="11.5" y2="6.5"/>
		<polyline class="st3" points="6,6.5 14.5,0.5 8.5,0.5 17,6.5 		"/>
		<line class="st3" x1="8" y1="21.5" x2="6.5" y2="23.5"/>
		<line class="st3" x1="15" y1="21.5" x2="16.5" y2="23.5"/>
		<line class="st3" x1="8.5" y1="13.5" x2="14.5" y2="13.5"/>
	</g>
</g>
<g id="Frames-24px">
	<rect class="st4" width="24" height="24"/>
</g>
</svg>
