<?xml version="1.0" encoding="utf-8"?>
<!-- Generator: Adobe Illustrator 21.0.2, SVG Export Plug-In . SVG Version: 6.00 Build 0)  -->
<svg version="1.1" xmlns="http://www.w3.org/2000/svg" xmlns:xlink="http://www.w3.org/1999/xlink" x="0px" y="0px"
	 viewBox="0 0 24 24" style="enable-background:new 0 0 24 24;" xml:space="preserve">
<style type="text/css">
	.st0{fill:#FFFFFF;}
	.st1{fill:#CCE7FF;}
	.st2{fill:none;stroke:#1078FF;stroke-linecap:round;stroke-linejoin:round;stroke-miterlimit:10;}
	.st3{fill:none;stroke:#1078FF;stroke-linejoin:round;stroke-miterlimit:10;}
	.st4{fill:none;}
</style>
<g id="Duotone">
	<polygon class="st0" points="11.5,3.8 20,5.8 17.5,13 15.8,13.8 11.5,11.5 7.3,13.8 5.5,13 3,5.8 	"/>
	<polygon class="st0" points="11.5,11.5 7.3,13.8 9.3,19.5 13.8,19.5 15.8,13.8 	"/>
	<polygon class="st0" points="7.3,13.8 5.5,13 3.8,13.8 0.5,17 4.5,21 8.3,16.7 	"/>
	<polygon class="st0" points="15.8,13.8 17.5,13 19.3,13.8 22.5,17 18.5,21 14.7,16.7 	"/>
	<polygon class="st1" points="11.5,19.5 13.8,19.5 15.8,13.8 11.5,11.5 	"/>
	<polygon class="st1" points="20,5.8 11.5,3.8 3,5.8 3.7,7.8 11.5,5.8 19.3,7.8 	"/>
	<polygon class="st1" points="20,5.8 17.5,13 15.8,13.8 11.5,11.5 7.3,13.8 5.5,13 	"/>
	<polygon class="st1" points="2.5,19 4.5,21 8.3,16.7 7.3,13.8 	"/>
	<polygon class="st1" points="20.5,19 18.5,21 14.7,16.7 15.8,13.8 	"/>
	<g>
		<polygon class="st2" points="11.5,3.8 20,5.8 17.5,13 15.8,13.8 11.5,11.5 7.3,13.8 5.5,13 3,5.8 		"/>
		<polyline class="st2" points="7.3,13.8 9.3,19.5 13.8,19.5 15.8,13.8 		"/>
		<line class="st2" x1="10" y1="14.5" x2="13" y2="14.5"/>
		<line class="st2" x1="11" y1="16.5" x2="12" y2="16.5"/>
		<polyline class="st2" points="5.5,13 3.8,13.8 0.5,17 4.5,21 8.3,16.7 		"/>
		<line class="st2" x1="2" y1="15.5" x2="5.9" y2="19.4"/>
		<polyline class="st2" points="17.5,13 19.3,13.8 22.5,17 18.5,21 14.7,16.7 		"/>
		<line class="st2" x1="21" y1="15.5" x2="17.1" y2="19.4"/>
		<polyline class="st2" points="3.7,7.8 11.5,5.8 19.3,7.8 		"/>
	</g>
</g>
<g id="Frames-24px">
	<rect class="st4" width="24" height="24"/>
</g>
</svg>
