<?xml version="1.0" encoding="utf-8"?>
<!-- Generator: Adobe Illustrator 21.0.2, SVG Export Plug-In . SVG Version: 6.00 Build 0)  -->
<svg version="1.1" xmlns="http://www.w3.org/2000/svg" xmlns:xlink="http://www.w3.org/1999/xlink" x="0px" y="0px"
	 viewBox="0 0 24 24" style="enable-background:new 0 0 24 24;" xml:space="preserve">
<style type="text/css">
	.st0{fill:#FFFFFF;}
	.st1{fill:#CCE7FF;}
	.st2{fill:none;stroke:#1078FF;stroke-linecap:round;stroke-linejoin:round;stroke-miterlimit:10;}
	.st3{fill:#1078FF;}
	.st4{fill:none;}
</style>
<g id="Duotone">
	<polyline class="st0" points="8.5,20.5 10.5,20.5 14,12.5 0.5,12.5 0.5,20.5 2.5,20.5 	"/>
	<polygon class="st0" points="9.5,0.5 0.5,5.5 3,6.5 5.5,5.5 9.5,7.5 13.5,5.5 16,6.5 18.5,5.5 	"/>
	<polygon class="st0" points="21.3,12.5 23,10.5 16.3,10.5 19.8,12.5 	"/>
	<polygon class="st1" points="17.5,21.8 20.5,23.5 23.5,21.8 23.5,18.3 20.5,16.5 17.5,18.3 	"/>
	<polygon class="st1" points="2.5,21.8 5.5,23.5 8.5,21.8 8.5,18.3 5.5,16.5 2.5,18.3 	"/>
	<polygon class="st1" points="8.5,20.5 10.5,20.5 14,12.5 0.5,20.5 2.5,20.5 	"/>
	<polygon class="st2" points="17.5,21.8 20.5,23.5 23.5,21.8 23.5,18.3 20.5,16.5 17.5,18.3 	"/>
	<polygon class="st2" points="2.5,21.8 5.5,23.5 8.5,21.8 8.5,18.3 5.5,16.5 2.5,18.3 	"/>
	<line class="st2" x1="13.1" y1="14.5" x2="0.5" y2="14.5"/>
	<polyline class="st2" points="8.5,20.5 10.5,20.5 14,12.5 0.5,12.5 0.5,20.5 2.5,20.5 	"/>
	<line class="st2" x1="10.5" y1="20.5" x2="17.5" y2="20.5"/>
	<polygon class="st2" points="9.5,0.5 0.5,5.5 3,6.5 5.5,5.5 9.5,7.5 13.5,5.5 16,6.5 18.5,5.5 	"/>
	<polyline class="st2" points="5.5,5.5 9.5,0.5 13.5,5.5 	"/>
	<line class="st2" x1="9.5" y1="7.5" x2="9.5" y2="12.5"/>
	<polygon class="st2" points="21.3,12.5 23,10.5 16.3,10.5 19.8,12.5 	"/>
	<line class="st2" x1="19" y1="12.1" x2="14.8" y2="20.5"/>
	<line class="st2" x1="16.2" y1="17.6" x2="12.5" y2="16"/>
	<line class="st2" x1="4.4" y1="18.9" x2="6.6" y2="21.1"/>
	<line class="st2" x1="6.6" y1="18.9" x2="4.4" y2="21.1"/>
	<line class="st2" x1="19.4" y1="18.9" x2="21.6" y2="21.1"/>
	<line class="st2" x1="21.6" y1="18.9" x2="19.4" y2="21.1"/>
</g>
<g id="Frames-24px">
	<rect class="st4" width="24" height="24"/>
</g>
</svg>
