<?xml version="1.0" encoding="utf-8"?>
<!-- Generator: Adobe Illustrator 21.0.2, SVG Export Plug-In . SVG Version: 6.00 Build 0)  -->
<svg version="1.1" xmlns="http://www.w3.org/2000/svg" xmlns:xlink="http://www.w3.org/1999/xlink" x="0px" y="0px"
	 viewBox="0 0 24 24" style="enable-background:new 0 0 24 24;" xml:space="preserve">
<style type="text/css">
	.st0{fill:#FFFFFF;}
	.st1{fill:none;stroke:#CCE7FF;stroke-linecap:round;stroke-linejoin:round;stroke-miterlimit:10;}
	.st2{fill:#CCE7FF;}
	.st3{fill:none;stroke:#1078FF;stroke-linecap:round;stroke-linejoin:round;stroke-miterlimit:10;}
	.st4{fill:none;}
</style>
<g id="Duotone">
	<polygon class="st0" points="18.5,11.5 18.5,4 10.5,0.5 2.5,4 2.5,11.5 0.5,11.5 0.5,15.5 2.5,16.5 2.5,20 10.5,23.5 18.5,20 
		18.5,16.5 20.5,15.5 20.5,11.5 	"/>
	<polygon class="st2" points="2.5,6 2.5,9.5 18.5,9.5 18.5,6 10.5,2.5 	"/>
	<polyline class="st3" points="2.5,11.5 0.5,11.5 0.5,15.5 2.5,16.5 	"/>
	<polyline class="st3" points="18.5,11.5 20.5,11.5 20.5,15.5 18.5,16.5 	"/>
	<polyline class="st3" points="7.5,18.5 10.5,20 13.5,18.5 	"/>
	<line class="st3" x1="7.5" y1="12.5" x2="7.5" y2="13.5"/>
	<line class="st3" x1="13.5" y1="12.5" x2="13.5" y2="13.5"/>
	<line class="st3" x1="2.5" y1="9.5" x2="22.5" y2="9.5"/>
	<line class="st3" x1="2.5" y1="7.5" x2="5.5" y2="7.5"/>
	<polygon class="st3" points="18.5,20 10.5,23.5 2.5,20 2.5,4 10.5,0.5 18.5,4 	"/>
</g>
<g id="Frames-24px">
	<rect class="st4" width="24" height="24"/>
</g>
</svg>
