<?xml version="1.0" encoding="utf-8"?>
<!-- Generator: Adobe Illustrator 21.0.2, SVG Export Plug-In . SVG Version: 6.00 Build 0)  -->
<svg version="1.1" xmlns="http://www.w3.org/2000/svg" xmlns:xlink="http://www.w3.org/1999/xlink" x="0px" y="0px"
	 viewBox="0 0 24 24" style="enable-background:new 0 0 24 24;" xml:space="preserve">
<style type="text/css">
	.st0{fill:#FFFFFF;}
	.st1{fill:#CCE7FF;}
	.st2{fill:none;stroke:#1078FF;stroke-linecap:round;stroke-linejoin:round;stroke-miterlimit:10;}
	.st3{fill:#1078FF;}
	.st4{fill:none;}
</style>
<g id="Duotone">
	<polygon class="st0" points="6.5,2.5 6.5,11 16.5,16 16.5,23.5 7.5,23.5 7.5,16 17.5,11 17.5,2.5 	"/>
	<polygon class="st0" points="4.5,2.5 19.5,2.5 18,0.5 6,0.5 	"/>
	<polygon class="st1" points="12,13.8 12,18 13.5,19.5 12,21 12,23.5 16.5,23.5 16.5,16 	"/>
	<polygon class="st1" points="12,10.5 10.1,8.2 6.5,11 9.5,12.5 9.5,10.5 	"/>
	<polygon class="st1" points="12.8,6.1 14,7.5 12.5,9 12.5,10.5 14.5,10.5 14.5,12.5 17.5,11 17.5,2.5 	"/>
	<g>
		<polyline class="st2" points="6.5,2.5 6.5,11 16.5,16 16.5,23.5 7.5,23.5 7.5,16 17.5,11 17.5,2.5 		"/>
		<polygon class="st2" points="4.5,2.5 19.5,2.5 18,0.5 6,0.5 		"/>
		<polygon class="st2" points="11.5,4.5 14,7.5 12.5,9 12.5,10.5 12,10.5 10,8 11.5,7 		"/>
		
			<rect x="10.9" y="18.4" transform="matrix(0.7071 -0.7071 0.7071 0.7071 -10.2739 14.1967)" class="st2" width="2.1" height="2.1"/>
		<line class="st2" x1="10.5" y1="19.5" x2="7.5" y2="19.5"/>
		<line class="st2" x1="16.5" y1="19.5" x2="13.5" y2="19.5"/>
		<polyline class="st2" points="9.5,12.5 9.5,10.5 14.5,10.5 14.5,12.5 		"/>
	</g>
</g>
<g id="Frames-24px">
	<rect class="st4" width="24" height="24"/>
</g>
</svg>
