<?xml version="1.0" encoding="utf-8"?>
<!-- Generator: Adobe Illustrator 21.0.2, SVG Export Plug-In . SVG Version: 6.00 Build 0)  -->
<svg version="1.1" xmlns="http://www.w3.org/2000/svg" xmlns:xlink="http://www.w3.org/1999/xlink" x="0px" y="0px"
	 viewBox="0 0 24 24" style="enable-background:new 0 0 24 24;" xml:space="preserve">
<style type="text/css">
	.st0{fill:#FFFFFF;}
	.st1{fill:#CCE7FF;}
	.st2{fill:none;stroke:#1078FF;stroke-linecap:round;stroke-linejoin:round;stroke-miterlimit:10;}
	.st3{fill:none;stroke:#1078FF;stroke-linejoin:round;stroke-miterlimit:10;}
	.st4{fill:none;stroke:#1078FF;stroke-linecap:round;stroke-miterlimit:10;}
	.st5{fill:none;}
</style>
<g id="Duotone">
	<polygon class="st0" points="5.5,13.5 9.5,7 9.5,3 5.5,0.5 1.5,3 1.5,7 	"/>
	<polygon class="st0" points="19.5,23.5 23.5,17 23.5,13 19.5,10.5 15.5,13 15.5,17 	"/>
	<polygon class="st1" points="5.5,0.5 5.5,3 7.5,4.3 7.5,6.3 5.5,7.5 5.5,13.5 9.5,7 9.5,3 	"/>
	<polygon class="st1" points="19.5,10.5 19.5,13 21.5,14.3 21.5,16.3 19.5,17.5 19.5,23.5 23.5,17 23.5,13 	"/>
	<polyline class="st2" points="6.5,22.5 5.5,22.5 5.5,21.5 	"/>
	<line class="st2" x1="14.5" y1="22.5" x2="15.5" y2="22.5"/>
	<line class="st2" x1="11.5" y1="22.5" x2="12.5" y2="22.5"/>
	<line class="st2" x1="8.5" y1="22.5" x2="9.5" y2="22.5"/>
	<line class="st2" x1="5.5" y1="15.5" x2="5.5" y2="16.5"/>
	<line class="st2" x1="5.5" y1="18.5" x2="5.5" y2="19.5"/>
	<polygon class="st2" points="19.5,23.5 23.5,17 23.5,13 19.5,10.5 15.5,13 15.5,17 	"/>
	<polygon class="st2" points="21.5,16.3 19.5,17.5 17.5,16.3 17.5,14.3 19.5,13 21.5,14.3 	"/>
	<polygon class="st2" points="5.5,13.5 9.5,7 9.5,3 5.5,0.5 1.5,3 1.5,7 	"/>
	<polygon class="st2" points="7.5,6.3 5.5,7.5 3.5,6.3 3.5,4.3 5.5,3 7.5,4.3 	"/>
</g>
<g id="Frames-24px">
	<rect class="st5" width="24" height="24"/>
</g>
</svg>
