<?xml version="1.0" encoding="utf-8"?>
<!-- Generator: Adobe Illustrator 21.0.2, SVG Export Plug-In . SVG Version: 6.00 Build 0)  -->
<svg version="1.1" xmlns="http://www.w3.org/2000/svg" xmlns:xlink="http://www.w3.org/1999/xlink" x="0px" y="0px"
	 viewBox="0 0 24 24" style="enable-background:new 0 0 24 24;" xml:space="preserve">
<style type="text/css">
	.st0{fill:#FFFFFF;}
	.st1{fill:#CCE7FF;}
	.st2{fill:none;stroke:#1078FF;stroke-linecap:round;stroke-linejoin:round;stroke-miterlimit:10;}
	.st3{fill:none;stroke:#1078FF;stroke-linejoin:round;stroke-miterlimit:10;}
	.st4{fill:none;}
</style>
<g id="Duotone">
	<polygon class="st0" points="19.5,14.5 19.5,5.5 5.5,5.5 5.5,1.5 0.5,1.5 0.5,8.5 1.5,8.5 1.5,17.5 16.5,17.5 16.5,23.5 22.5,23.5 
		22.5,14.5 	"/>
	<polygon class="st1" points="22.5,14.5 22.5,21.5 16.5,21.5 	"/>
	<polygon class="st1" points="1.5,14.5 19.5,14.5 19.5,5.5 	"/>
	<polygon class="st1" points="5.5,1.5 5.5,6.5 0.5,6.5 	"/>
	<g>
		<polyline class="st2" points="14.5,17.5 1.5,17.5 1.5,10.5 		"/>
		<polyline class="st2" points="7.5,5.5 19.5,5.5 19.5,12.5 		"/>
		<line class="st3" x1="10.5" y1="17.5" x2="10.5" y2="21.5"/>
		<line class="st2" x1="6.5" y1="21.5" x2="14.5" y2="21.5"/>
		<line class="st2" x1="1.5" y1="14.5" x2="14.5" y2="14.5"/>
		<rect x="0.5" y="1.5" class="st3" width="5" height="7"/>
		<rect x="16.5" y="14.5" class="st3" width="6" height="9"/>
		<line class="st2" x1="2.5" y1="6.5" x2="3.5" y2="6.5"/>
		<line class="st3" x1="16.5" y1="21.5" x2="22.5" y2="21.5"/>
		<g>
			<line class="st2" x1="14" y1="8" x2="17" y2="11"/>
			<line class="st2" x1="16.5" y1="7.5" x2="17.5" y2="8.5"/>
		</g>
	</g>
</g>
<g id="Frames-24px">
	<rect class="st4" width="24" height="24"/>
</g>
</svg>
