<?xml version="1.0" encoding="utf-8"?>
<!-- Generator: Adobe Illustrator 21.0.2, SVG Export Plug-In . SVG Version: 6.00 Build 0)  -->
<svg version="1.1" xmlns="http://www.w3.org/2000/svg" xmlns:xlink="http://www.w3.org/1999/xlink" x="0px" y="0px"
	 viewBox="0 0 24 24" style="enable-background:new 0 0 24 24;" xml:space="preserve">
<style type="text/css">
	.st0{fill:#FFFFFF;}
	.st1{fill:none;stroke:#CCE7FF;stroke-linecap:round;stroke-linejoin:round;stroke-miterlimit:10;}
	.st2{fill:#CCE7FF;}
	.st3{fill:none;stroke:#1078FF;stroke-linecap:round;stroke-linejoin:round;stroke-miterlimit:10;}
	.st4{fill:#CCE7FF;stroke:#1078FF;stroke-linecap:round;stroke-linejoin:round;stroke-miterlimit:10;}
	.st5{fill:none;}
</style>
<g id="Duotone">
	<polygon class="st0" points="20.5,2 18.5,5.5 18.5,20.5 22.5,20.5 22.5,5.5 	"/>
	<polygon class="st0" points="15.5,23.5 0.5,23.5 0.5,1.5 13.5,1.5 15.5,3.5 	"/>
	<polygon class="st2" points="18.5,20.5 18.5,22.5 20.5,23.5 22.5,22.5 22.5,20.5 	"/>
	<rect x="0.5" y="16.5" class="st2" width="15" height="3"/>
	<line class="st3" x1="20.5" y1="0.5" x2="20.5" y2="2"/>
	<polygon class="st3" points="20.5,2 18.5,5.5 20.5,7.5 22.5,5.5 	"/>
	<polyline class="st3" points="18.5,5.5 18.5,20.5 22.5,20.5 22.5,5.5 	"/>
	<line class="st3" x1="20.5" y1="7.5" x2="20.5" y2="18.5"/>
	<polygon class="st3" points="18.5,20.5 18.5,22.5 20.5,23.5 22.5,22.5 22.5,20.5 	"/>
	<line class="st3" x1="0.5" y1="16.5" x2="15.5" y2="16.5"/>
	<line class="st3" x1="0.5" y1="19.5" x2="15.5" y2="19.5"/>
	<polygon class="st3" points="11.5,10.5 8,12.5 4.5,10.5 4.5,6.5 8,4.5 11.5,6.5 	"/>
	<polygon class="st3" points="15.5,23.5 0.5,23.5 0.5,1.5 13.5,1.5 15.5,3.5 	"/>
</g>
<g id="Frames-24px">
	<rect class="st5" width="24" height="24"/>
</g>
</svg>
