<?xml version="1.0" encoding="utf-8"?>
<!-- Generator: Adobe Illustrator 21.0.2, SVG Export Plug-In . SVG Version: 6.00 Build 0)  -->
<svg version="1.1" xmlns="http://www.w3.org/2000/svg" xmlns:xlink="http://www.w3.org/1999/xlink" x="0px" y="0px"
	 viewBox="0 0 24 24" style="enable-background:new 0 0 24 24;" xml:space="preserve">
<style type="text/css">
	.st0{fill:#FFFFFF;}
	.st1{fill:#CCE7FF;}
	.st2{fill:none;stroke:#1078FF;stroke-linecap:round;stroke-linejoin:round;stroke-miterlimit:10;}
	.st3{fill:#1078FF;}
	.st4{fill:none;}
</style>
<g id="Duotone">
	<g>
		<polygon class="st0" points="16,10.5 20,6.5 16,2.5 7,2.5 3,6.5 7,10.5 		"/>
	</g>
	<polygon class="st0" points="15.5,23.5 7.5,23.5 6,16 8.5,13.5 14.5,13.5 17,16 	"/>
	<polygon class="st1" points="7.1,21.5 7.5,23.5 15.5,23.5 15.9,21.5 	"/>
	<g>
		<polygon class="st1" points="3,6.5 7,10.5 16,10.5 20,6.5 18,6.5 15.5,9 7.5,9 5,6.5 		"/>
	</g>
	<polygon class="st1" points="10.5,7 9,8 7.5,7 7.5,5.5 9,4.5 10.5,5.5 	"/>
	<polygon class="st1" points="12.5,7 14,8 15.5,7 15.5,5.5 14,4.5 12.5,5.5 	"/>
	<g>
		<g>
			<polygon class="st2" points="16,10.5 20,6.5 16,2.5 7,2.5 3,6.5 7,10.5 			"/>
		</g>
		<polygon class="st2" points="10.5,7 9,8 7.5,7 7.5,5.5 9,4.5 10.5,5.5 		"/>
		<polygon class="st2" points="12.5,7 14,8 15.5,7 15.5,5.5 14,4.5 12.5,5.5 		"/>
		<line class="st2" x1="11.5" y1="0.5" x2="11.5" y2="2.5"/>
		<polygon class="st2" points="15.5,23.5 7.5,23.5 6,16 8.5,13.5 14.5,13.5 17,16 		"/>
		<line class="st2" x1="11.5" y1="10.5" x2="11.5" y2="13.5"/>
		<line class="st2" x1="7.1" y1="21.5" x2="15.9" y2="21.5"/>
		<polyline class="st2" points="2.5,16 3,19 6.4,18 		"/>
		<polyline class="st2" points="0.5,12.5 0.5,14 2.5,16 4.5,14 4.5,12.5 		"/>
		<polyline class="st2" points="20.5,16 20,19 16.6,17.9 		"/>
		<polyline class="st2" points="22.5,12.5 22.5,14 20.5,16 18.5,14 18.5,12.5 		"/>
	</g>
</g>
<g id="Frames-24px">
	<rect class="st4" width="24" height="24"/>
</g>
</svg>
