<?xml version="1.0" encoding="utf-8"?>
<!-- Generator: Adobe Illustrator 21.0.2, SVG Export Plug-In . SVG Version: 6.00 Build 0)  -->
<svg version="1.1" xmlns="http://www.w3.org/2000/svg" xmlns:xlink="http://www.w3.org/1999/xlink" x="0px" y="0px"
	 viewBox="0 0 24 24" style="enable-background:new 0 0 24 24;" xml:space="preserve">
<style type="text/css">
	.st0{fill:#FFFFFF;}
	.st1{fill:#CCE7FF;}
	.st2{fill:none;stroke:#1078FF;stroke-linecap:round;stroke-linejoin:round;stroke-miterlimit:10;}
	.st3{fill:#FFFFFF;stroke:#1078FF;stroke-linecap:round;stroke-linejoin:round;stroke-miterlimit:10;}
	.st4{fill:none;stroke:#1078FF;stroke-linejoin:round;stroke-miterlimit:10;}
	.st5{fill:none;stroke:#1078FF;stroke-linecap:round;stroke-miterlimit:10;}
	.st6{fill:none;}
</style>
<g id="Duotone">
	<polygon class="st0" points="15.5,22 12.5,23.5 9,22.5 5.5,16.4 0.5,14.5 8,6.4 12,16.5 16,3.5 22.5,1.5 18.5,5.5 	"/>
	<polygon class="st1" points="5.5,16.4 3.5,15.5 7,15.5 10,20.5 12.5,21.5 14,20 17.5,4.5 22.5,1.5 18.5,5.5 15.5,22 12.5,23.5 
		9,22.5 	"/>
	<polyline class="st1" points="3.5,6.5 1.5,6.5 1.5,9 3.5,8 	"/>
	<line class="st2" x1="16" y1="11.4" x2="19" y2="12.4"/>
	<line class="st2" x1="15.5" y1="14.4" x2="18.5" y2="15.4"/>
	<line class="st2" x1="16.5" y1="8.4" x2="19.5" y2="9.4"/>
	<polygon class="st2" points="15.5,22 12.5,23.5 9,22.5 5.5,16.4 0.5,14.5 8,6.4 12,16.5 16,3.5 22.5,1.5 18.5,5.5 	"/>
	<line class="st2" x1="3.4" y1="15.6" x2="9.1" y2="9.3"/>
	<polyline class="st2" points="3.5,6.5 1.5,6.5 1.5,9 3.5,8 	"/>
	<line class="st2" x1="3.5" y1="2.9" x2="5" y2="2.5"/>
	<line class="st2" x1="3.5" y1="8" x2="3.5" y2="3"/>
</g>
<g id="Frames-24px">
	<rect class="st6" width="24" height="24"/>
</g>
</svg>
