<?xml version="1.0" encoding="utf-8"?>
<!-- Generator: Adobe Illustrator 21.0.2, SVG Export Plug-In . SVG Version: 6.00 Build 0)  -->
<svg version="1.1" xmlns="http://www.w3.org/2000/svg" xmlns:xlink="http://www.w3.org/1999/xlink" x="0px" y="0px"
	 viewBox="0 0 24 24" style="enable-background:new 0 0 24 24;" xml:space="preserve">
<style type="text/css">
	.st0{fill:#FFFFFF;}
	.st1{fill:#CCE7FF;}
	.st2{fill:none;stroke:#1078FF;stroke-linecap:round;stroke-linejoin:round;stroke-miterlimit:10;}
	.st3{fill:none;}
</style>
<g id="Duotone">
	<polyline class="st0" points="9.5,22.5 9.5,8.5 7,5 6.5,7.5 4,7.5 1.5,12.5 5.5,12.5 5.5,15.5 3,15.5 5.5,18.5 3.5,18.5 0.5,23.5 
		4.5,22.5 16,22.5 19.5,20 19.5,7.5 22.5,7.5 18.5,2 13.5,5.5 11,22.5 	"/>
	<polygon class="st1" points="11,22.5 13,20.5 15,20.5 17.5,18.5 17.5,8.5 19.5,7.5 19.5,20 16,22.5 	"/>
	<polygon class="st1" points="2.3,20.5 0.5,23.5 4.5,22.5 9.5,22.5 9.5,20.5 	"/>
	<polyline class="st2" points="9.5,22.5 9.5,8.5 7,5 6.5,7.5 4,7.5 1.5,12.5 5.5,12.5 5.5,15.5 3,15.5 5.5,18.5 3.5,18.5 0.5,23.5 
		4.5,22.5 16,22.5 19.5,20 19.5,7.5 22.5,7.5 18.5,2 13.5,5.5 11,22.5 	"/>
	<line class="st2" x1="5.5" y1="9.5" x2="5.5" y2="10.5"/>
</g>
<g id="Frames-24px">
	<rect class="st3" width="24" height="24"/>
</g>
</svg>
