<?xml version="1.0" encoding="utf-8"?>
<!-- Generator: Adobe Illustrator 21.0.2, SVG Export Plug-In . SVG Version: 6.00 Build 0)  -->
<svg version="1.1" xmlns="http://www.w3.org/2000/svg" xmlns:xlink="http://www.w3.org/1999/xlink" x="0px" y="0px"
	 viewBox="0 0 24 24" style="enable-background:new 0 0 24 24;" xml:space="preserve">
<style type="text/css">
	.st0{fill:#FFFFFF;}
	.st1{fill:#CCE7FF;}
	.st2{fill:none;stroke:#1078FF;stroke-linejoin:round;stroke-miterlimit:10;}
	.st3{fill:none;stroke:#1078FF;stroke-linecap:round;stroke-linejoin:round;stroke-miterlimit:10;}
	.st4{fill:#1078FF;}
	.st5{fill:none;}
</style>
<g id="Duotone">
	<rect x="7.3" y="8.3" transform="matrix(0.7071 -0.7071 0.7071 0.7071 -5.471 11.7931)" class="st0" width="8.5" height="8.5"/>
	<polygon class="st1" points="11.5,6.5 11.5,18.5 17.5,12.5 	"/>
	<rect x="7.3" y="8.3" transform="matrix(0.7071 -0.7071 0.7071 0.7071 -5.471 11.7931)" class="st2" width="8.5" height="8.5"/>
	<line class="st3" x1="6" y1="7" x2="1.5" y2="2.5"/>
	<line class="st3" x1="17" y1="7" x2="21.5" y2="2.5"/>
	<line class="st3" x1="17" y1="18" x2="21.5" y2="22.5"/>
	<line class="st3" x1="6" y1="18" x2="1.5" y2="22.5"/>
	<line class="st3" x1="3.5" y1="12.5" x2="0.5" y2="12.5"/>
	<line class="st3" x1="22.5" y1="12.5" x2="19.5" y2="12.5"/>
	<line class="st3" x1="11.5" y1="20.5" x2="11.5" y2="23.5"/>
	<line class="st3" x1="11.5" y1="1.5" x2="11.5" y2="4.5"/>
</g>
<g id="Frames-24px">
	<rect class="st5" width="24" height="24"/>
</g>
</svg>
