<?xml version="1.0" encoding="utf-8"?>
<!-- Generator: Adobe Illustrator 21.0.2, SVG Export Plug-In . SVG Version: 6.00 Build 0)  -->
<svg version="1.1" xmlns="http://www.w3.org/2000/svg" xmlns:xlink="http://www.w3.org/1999/xlink" x="0px" y="0px"
	 viewBox="0 0 24 24" style="enable-background:new 0 0 24 24;" xml:space="preserve">
<style type="text/css">
	.st0{fill:#FFFFFF;}
	.st1{fill:#CCE7FF;}
	.st2{fill:none;stroke:#1078FF;stroke-linecap:round;stroke-linejoin:round;stroke-miterlimit:10;}
	.st3{fill:none;}
</style>
<g id="Duotone">
	<polyline class="st0" points="15.7,13 18.5,11.7 18.5,4.7 12,1.5 5.5,4.7 5.5,11.7 8.3,13 	"/>
	<polygon class="st1" points="22.5,16.5 20,15 18,16.5 16,15 14,16.5 12,15 10,16.5 8,15 6,16.5 4,15 1.5,16.5 1.5,23.5 4,22 
		6,23.5 8,22 10,23.5 12,22 14,23.5 16,22 18,23.5 20,22 22.5,23.5 	"/>
	<polygon class="st1" points="18.5,4.7 5.5,11.7 8.3,13 15.7,13 18.5,11.7 	"/>
	<polyline class="st2" points="1.5,23.5 4,22 6,23.5 8,22 10,23.5 12,22 14,23.5 16,22 18,23.5 20,22 22.5,23.5 	"/>
	<polyline class="st2" points="1.5,20 4,18.5 6,20 8,18.5 10,20 12,18.5 14,20 16,18.5 18,20 20,18.5 22.5,20 	"/>
	<polyline class="st2" points="1.5,16.5 4,15 6,16.5 8,15 10,16.5 12,15 14,16.5 16,15 18,16.5 20,15 22.5,16.5 	"/>
	<polyline class="st2" points="15.7,13 18.5,11.7 18.5,4.7 12,1.5 5.5,4.7 5.5,11.7 8.3,13 	"/>
</g>
<g id="Frames-24px">
	<rect class="st3" width="24" height="24"/>
</g>
</svg>
