<svg xmlns="http://www.w3.org/2000/svg" width="24" height="24" viewBox="0 0 24 24">
  <title>television-1</title>
  <g id="Duotone">
    <rect x="2.5" y="7.5" width="18" height="15" fill="#fff"/>
    <polygon points="20.5 7.5 2.5 19.5 20.5 16.5 20.5 7.5" fill="#cce7ff"/>
    <rect x="2.5" y="7.5" width="18" height="15" fill="none" stroke="#1078ff" stroke-linejoin="round"/>
    <polyline points="8 4 11.5 7.498 15 4" fill="none" stroke="#1078ff" stroke-linecap="round" stroke-linejoin="round"/>
    <line x1="3.5" y1="22.5" x2="3.5" y2="23.5" fill="none" stroke="#1078ff" stroke-linecap="round" stroke-linejoin="round"/>
    <line x1="19.5" y1="22.5" x2="19.5" y2="23.5" fill="none" stroke="#1078ff" stroke-linecap="round" stroke-linejoin="round"/>
    <line x1="2.5" y1="19.498" x2="20.5" y2="16.498" fill="none" stroke="#1078ff" stroke-linecap="round" stroke-linejoin="round"/>
    <line x1="16.5" y1="2.5" x2="17.5" y2="1.5" fill="none" stroke="#1078ff" stroke-linecap="round" stroke-linejoin="round"/>
    <line x1="6.5" y1="2.5" x2="5.5" y2="1.5" fill="none" stroke="#1078ff" stroke-linecap="round" stroke-linejoin="round"/>
    <line x1="15" y1="10" x2="18" y2="13" fill="none" stroke="#1078ff" stroke-linecap="round" stroke-linejoin="round"/>
    <line x1="17.5" y1="9.501" x2="18.5" y2="10.5" fill="none" stroke="#1078ff" stroke-linecap="round" stroke-linejoin="round"/>
    <path d="M18,19a.2.2,0,0,0-.141.059l-.8.8a.2.2,0,0,0,0,.283l.8.8a.2.2,0,0,0,.283,0l.8-.8a.2.2,0,0,0,0-.283l-.8-.8A.2.2,0,0,0,18,19Z" fill="#1078ff"/>
  </g>
  <g id="Frames-24px">
    <rect width="24" height="24" fill="none"/>
  </g>
</svg>
