<?xml version="1.0" encoding="utf-8"?>
<!-- Generator: Adobe Illustrator 21.0.2, SVG Export Plug-In . SVG Version: 6.00 Build 0)  -->
<svg version="1.1" xmlns="http://www.w3.org/2000/svg" xmlns:xlink="http://www.w3.org/1999/xlink" x="0px" y="0px"
	 viewBox="0 0 24 24" style="enable-background:new 0 0 24 24;" xml:space="preserve">
<style type="text/css">
	.st0{fill:#FFFFFF;}
	.st1{fill:#CCE7FF;}
	.st2{fill:none;stroke:#1078FF;stroke-linecap:round;stroke-linejoin:round;stroke-miterlimit:10;}
	.st3{fill:#1078FF;}
	.st4{fill:none;}
</style>
<g id="Duotone">
	<polygon class="st0" points="13.5,7.5 13.5,3.5 14.5,3.5 14.5,0.5 8.5,0.5 8.5,3.5 9.5,3.5 9.5,7.5 1.5,7.5 1.5,23.5 21.5,23.5 
		21.5,7.5 	"/>
	<rect x="1.5" y="7.5" class="st1" width="20" height="2"/>
	<rect x="9.5" y="3.5" class="st1" width="4" height="2"/>
	<rect x="1.5" y="21.5" class="st1" width="20" height="2"/>
	<g>
		<rect x="1.5" y="7.5" class="st2" width="20" height="16"/>
		<rect x="9.5" y="3.5" class="st2" width="4" height="4"/>
		<rect x="8.5" y="0.5" class="st2" width="6" height="3"/>
		<polyline class="st2" points="8.5,3.5 3.5,3.5 3.5,7.5 		"/>
		<line class="st2" x1="1.5" y1="9.5" x2="21.5" y2="9.5"/>
		<line class="st2" x1="10.5" y1="0.5" x2="10.5" y2="3.5"/>
		<line class="st2" x1="12.5" y1="0.5" x2="12.5" y2="3.5"/>
		<line class="st2" x1="12" y1="13.5" x2="13" y2="12.5"/>
		<line class="st2" x1="6" y1="19.5" x2="10" y2="15.5"/>
		<line class="st2" x1="11" y1="19.5" x2="10" y2="20.5"/>
		<line class="st2" x1="17" y1="13.5" x2="13" y2="17.5"/>
	</g>
</g>
<g id="Frames-24px">
	<rect class="st4" width="24" height="24"/>
</g>
</svg>
