<?xml version="1.0" encoding="utf-8"?>
<!-- Generator: Adobe Illustrator 21.0.2, SVG Export Plug-In . SVG Version: 6.00 Build 0)  -->
<svg version="1.1" xmlns="http://www.w3.org/2000/svg" xmlns:xlink="http://www.w3.org/1999/xlink" x="0px" y="0px"
	 viewBox="0 0 24 24" style="enable-background:new 0 0 24 24;" xml:space="preserve">
<style type="text/css">
	.st0{fill:#FFFFFF;}
	.st1{fill:#CCE7FF;}
	.st2{fill:none;stroke:#1078FF;stroke-linecap:round;stroke-miterlimit:10;}
	.st3{fill:none;stroke:#1078FF;stroke-linecap:round;stroke-linejoin:round;stroke-miterlimit:10;}
	.st4{fill:none;stroke:#1078FF;stroke-linejoin:round;stroke-miterlimit:10;}
	.st5{fill:#1078FF;}
	.st6{fill:none;}
</style>
<g id="Duotone">
	<rect x="0.5" y="3.5" class="st0" width="23" height="18"/>
	<polygon class="st1" points="13.6,13.5 15.5,13.5 15.5,19.5 7.5,19.5 7.5,17.2 0.5,21.5 23.5,21.5 23.5,7.5 	"/>
	<g>
		<line class="st2" x1="2.5" y1="5.5" x2="3.5" y2="5.5"/>
		<line class="st2" x1="5.5" y1="5.5" x2="6.5" y2="5.5"/>
		<line class="st2" x1="8.5" y1="5.5" x2="9.5" y2="5.5"/>
		<rect x="0.5" y="3.5" class="st3" width="23" height="18"/>
		<line class="st3" x1="0.5" y1="7.5" x2="23.5" y2="7.5"/>
		<g>
			<rect x="7.5" y="13.5" class="st3" width="8" height="6"/>
			<polyline class="st3" points="8.5,13.5 8.5,12 11.5,10.5 14.5,12 14.5,13.5 			"/>
			<line class="st3" x1="11.5" y1="17.5" x2="11.5" y2="15.5"/>
		</g>
	</g>
</g>
<g id="Frames-24px">
	<rect class="st6" width="24" height="24"/>
</g>
</svg>
