<?xml version="1.0" encoding="utf-8"?>
<!-- Generator: Adobe Illustrator 21.0.2, SVG Export Plug-In . SVG Version: 6.00 Build 0)  -->
<svg version="1.1" xmlns="http://www.w3.org/2000/svg" xmlns:xlink="http://www.w3.org/1999/xlink" x="0px" y="0px"
	 viewBox="0 0 24 24" style="enable-background:new 0 0 24 24;" xml:space="preserve">
<style type="text/css">
	.st0{fill:#FFFFFF;}
	.st1{fill:#CCE7FF;}
	.st2{fill:none;stroke:#1078FF;stroke-linecap:round;stroke-linejoin:round;stroke-miterlimit:10;}
	.st3{fill:#1078FF;}
	.st4{fill:none;stroke:#1078FF;stroke-linejoin:round;stroke-miterlimit:10;}
	.st5{fill:#CCE7FF;stroke:#1078FF;stroke-linecap:round;stroke-linejoin:round;stroke-miterlimit:10;}
	.st6{fill:none;}
</style>
<g id="Duotone">
	<polygon class="st0" points="21.5,18 11.5,23.5 1.5,18 1.5,7 11.5,1.5 21.5,7 	"/>
	<g>
		<g>
			<polygon class="st1" points="19.4,16.7 11.5,21 3.6,16.7 1.5,18 11.5,23.5 21.5,18.2 			"/>
		</g>
	</g>
	<polygon class="st2" points="21.5,18 11.5,23.5 1.5,18 1.5,7 11.5,1.5 21.5,7 	"/>
	<polygon class="st2" points="14.5,11 11.5,12.5 8.5,11 8.5,7.5 11.5,6 14.5,7.5 	"/>
	<polyline class="st2" points="16.5,17.5 16.5,15 11.5,13.5 6.5,15 6.5,17.5 	"/>
	<line class="st2" x1="11.5" y1="15.5" x2="11.5" y2="17.5"/>
	<g>
		<g>
			<polygon class="st1" points="14.5,8.5 11,8.5 8.5,7.5 11.5,6 14.5,7.5 			"/>
		</g>
		<g>
			<polygon class="st4" points="14.5,8.5 11,8.5 8.5,7.5 11.5,6 14.5,7.5 			"/>
		</g>
	</g>
</g>
<g id="Frames-24px">
	<rect class="st6" width="24" height="24"/>
</g>
</svg>
