<?xml version="1.0" encoding="utf-8"?>
<!-- Generator: Adobe Illustrator 21.0.2, SVG Export Plug-In . SVG Version: 6.00 Build 0)  -->
<svg version="1.1" xmlns="http://www.w3.org/2000/svg" xmlns:xlink="http://www.w3.org/1999/xlink" x="0px" y="0px"
	 viewBox="0 0 24 24" style="enable-background:new 0 0 24 24;" xml:space="preserve">
<style type="text/css">
	.st0{fill:#FFFFFF;}
	.st1{fill:#CCE7FF;}
	.st2{fill:none;stroke:#1078FF;stroke-linecap:round;stroke-linejoin:round;stroke-miterlimit:10;}
	.st3{fill:none;}
</style>
<g id="Duotone">
	<polygon class="st0" points="12.5,3.5 8.5,7.5 15.5,14.5 15.5,18.5 22,17 23.5,9.5 19,10 	"/>
	<polygon class="st0" points="13.3,12.3 4.5,21 4.5,23.5 0.5,23.5 0.5,19.5 7.1,14.3 10.5,9.5 	"/>
	<rect x="15.7" y="4.1" transform="matrix(0.7071 -0.7071 0.7071 0.7071 0.4865 13.6746)" class="st0" width="2.1" height="4.2"/>
	<polygon class="st1" points="20.9,9.8 20.1,14.8 15.5,16.2 15.5,18.5 22,17 23.5,9.5 	"/>
	<rect x="16.4" y="5.9" transform="matrix(0.7071 -0.7071 0.7071 0.7071 0.1759 14.4246)" class="st1" width="2.1" height="2.1"/>
	<polygon class="st1" points="0.5,22.5 0.5,23.5 4.5,23.5 4.5,21 13.3,12.3 12,11 	"/>
	<g>
		<polygon class="st2" points="12.5,3.5 8.5,7.5 15.5,14.5 15.5,18.5 22,17 23.5,9.5 19,10 		"/>
		<polyline class="st2" points="13.3,12.3 4.5,21 4.5,23.5 0.5,23.5 0.5,19.5 7.1,14.3 10.5,9.5 		"/>
		<polyline class="st2" points="14.5,5.5 16,4 19,7 17.5,8.5 		"/>
		<polyline class="st2" points="15.5,16.2 20.1,14.8 20.9,9.8 		"/>
	</g>
</g>
<g id="Frames-24px">
	<rect class="st3" width="24" height="24"/>
</g>
</svg>
