<?xml version="1.0" encoding="utf-8"?>
<!-- Generator: Adobe Illustrator 21.0.2, SVG Export Plug-In . SVG Version: 6.00 Build 0)  -->
<svg version="1.1" xmlns="http://www.w3.org/2000/svg" xmlns:xlink="http://www.w3.org/1999/xlink" x="0px" y="0px"
	 viewBox="0 0 24 24" style="enable-background:new 0 0 24 24;" xml:space="preserve">
<style type="text/css">
	.st0{fill:#FFFFFF;}
	.st1{fill:#CCE7FF;}
	.st2{fill:none;stroke:#1078FF;stroke-linecap:round;stroke-linejoin:round;stroke-miterlimit:10;}
	.st3{fill:#1078FF;}
	.st4{fill:none;}
</style>
<g id="Duotone">
	<rect x="2.5" y="3.5" class="st0" width="14" height="18"/>
	<polygon class="st0" points="23,18 20,18 19.5,11.5 23.5,11.5 	"/>
	<polygon class="st1" points="2.5,13.5 9.5,16.5 16.5,13.5 16.5,6.5 	"/>
	<polyline class="st1" points="4.5,21.5 4.5,23 5.5,23.5 6.5,23 6.5,21.5 	"/>
	<polyline class="st1" points="12.5,21.5 12.5,23 13.5,23.5 14.5,23 14.5,21.5 	"/>
	<polygon class="st1" points="23,18 20,18 23.5,11.5 	"/>
	<rect x="2.5" y="3.5" class="st2" width="14" height="18"/>
	<polyline class="st2" points="2.5,13.5 9.5,16.5 16.5,13.5 	"/>
	<polygon class="st2" points="23,18 20,18 19.5,11.5 23.5,11.5 	"/>
	<line class="st2" x1="4.5" y1="19.5" x2="6.5" y2="19.5"/>
	<line class="st2" x1="12.5" y1="19.5" x2="14.5" y2="19.5"/>
	<polyline class="st2" points="0.5,8.5 0.5,6.5 2.5,6.5 16.5,6.5 	"/>
	<polyline class="st2" points="18.5,8.5 18.5,6.5 16.5,6.5 2.5,6.5 	"/>
	<polyline class="st2" points="4.5,21.5 4.5,23 5.5,23.5 6.5,23 6.5,21.5 	"/>
	<polyline class="st2" points="12.5,21.5 12.5,23 13.5,23.5 14.5,23 14.5,21.5 	"/>
	<line class="st2" x1="21.5" y1="18" x2="21.5" y2="23.5"/>
</g>
<g id="Frames-24px">
	<rect class="st4" width="24" height="24"/>
</g>
</svg>
