<?xml version="1.0" encoding="utf-8"?>
<!-- Generator: Adobe Illustrator 21.0.2, SVG Export Plug-In . SVG Version: 6.00 Build 0)  -->
<svg version="1.1" xmlns="http://www.w3.org/2000/svg" xmlns:xlink="http://www.w3.org/1999/xlink" x="0px" y="0px"
	 viewBox="0 0 24 24" style="enable-background:new 0 0 24 24;" xml:space="preserve">
<style type="text/css">
	.st0{fill:#FFFFFF;}
	.st1{fill:#CCE7FF;}
	.st2{fill:none;stroke:#1078FF;stroke-linecap:round;stroke-linejoin:round;stroke-miterlimit:10;}
	.st3{fill:#1078FF;}
	.st4{fill:none;}
</style>
<g id="Duotone">
	<polygon class="st0" points="16.5,18.5 6.5,18.5 6.5,14 6.5,6 9.5,2.5 13.5,2.5 16.5,6 16.5,14 	"/>
	<polygon class="st0" points="3.5,18.5 19.5,18.5 17.5,23.5 5.5,23.5 	"/>
	<polygon class="st1" points="9.5,5.5 6.5,9 6.5,14 6.5,17 6.5,18.5 16.5,18.5 16.5,17 16.5,14 16.5,9 13.5,5.5 	"/>
	<polygon class="st2" points="16.5,18.5 6.5,18.5 6.5,14 6.5,6 9.5,2.5 13.5,2.5 16.5,6 16.5,14 	"/>
	<polygon class="st2" points="3.5,18.5 19.5,18.5 17.5,23.5 5.5,23.5 	"/>
	<polyline class="st2" points="4.8,21.8 7.5,20.5 9.5,21.5 11.5,20.5 13.5,21.5 15.5,20.5 18.2,21.8 	"/>
	<line class="st2" x1="13.5" y1="16.5" x2="13.5" y2="12.5"/>
	<line class="st2" x1="13.5" y1="10.5" x2="13.5" y2="8.5"/>
	<line class="st2" x1="9.5" y1="10.5" x2="9.5" y2="13.5"/>
	<line class="st2" x1="9.5" y1="15.5" x2="9.5" y2="16.5"/>
	<line class="st2" x1="9.5" y1="7.5" x2="9.5" y2="8.5"/>
	<line class="st2" x1="13.5" y1="6.5" x2="13.5" y2="5.5"/>
	<line class="st2" x1="9.5" y1="2.5" x2="9.5" y2="0.5"/>
	<line class="st2" x1="6.5" y1="8.5" x2="4.5" y2="8.5"/>
	<line class="st2" x1="6.5" y1="11.5" x2="4.5" y2="11.5"/>
	<line class="st2" x1="6.5" y1="14.5" x2="4.5" y2="14.5"/>
	<line class="st2" x1="6.5" y1="6" x2="5" y2="5"/>
	<line class="st2" x1="8.1" y1="4.1" x2="6.5" y2="2.5"/>
	<line class="st2" x1="13.5" y1="2.5" x2="13.5" y2="0.5"/>
	<line class="st2" x1="16.5" y1="8.5" x2="18.5" y2="8.5"/>
	<line class="st2" x1="16.5" y1="11.5" x2="18.5" y2="11.5"/>
	<line class="st2" x1="16.5" y1="14.5" x2="18.5" y2="14.5"/>
	<line class="st2" x1="16.5" y1="6" x2="18" y2="5"/>
	<line class="st2" x1="14.9" y1="4.1" x2="16.5" y2="2.5"/>
</g>
<g id="Frames-24px">
	<rect class="st4" width="24" height="24"/>
</g>
</svg>
