<?xml version="1.0" encoding="utf-8"?>
<!-- Generator: Adobe Illustrator 21.0.2, SVG Export Plug-In . SVG Version: 6.00 Build 0)  -->
<svg version="1.1" xmlns="http://www.w3.org/2000/svg" xmlns:xlink="http://www.w3.org/1999/xlink" x="0px" y="0px"
	 viewBox="0 0 24 24" style="enable-background:new 0 0 24 24;" xml:space="preserve">
<style type="text/css">
	.st0{fill:#FFFFFF;}
	.st1{fill:#CCE7FF;}
	.st2{fill:none;stroke:#1078FF;stroke-linecap:round;stroke-linejoin:round;stroke-miterlimit:10;}
	.st3{fill:none;stroke:#1078FF;stroke-linejoin:round;stroke-miterlimit:10;}
	.st4{fill:#CCE7FF;stroke:#1078FF;stroke-linejoin:round;stroke-miterlimit:10;}
	.st5{fill:#CCE7FF;stroke:#1078FF;stroke-linecap:round;stroke-linejoin:round;stroke-miterlimit:10;}
	.st6{fill:none;stroke:#1078FF;stroke-miterlimit:10;}
	.st7{fill:none;}
</style>
<g id="Duotone">
	<polygon class="st0" points="19,5.5 18,2.5 11,2.5 10,5.5 0.5,5.5 0.5,20.5 22.5,20.5 22.5,5.5 	"/>
	<polygon class="st1" points="18.5,9.5 10.5,14 14.5,16.3 18.5,14 	"/>
	<polygon class="st1" points="20.5,18.5 2.5,18.5 0.5,20.5 22.5,20.5 	"/>
	<rect x="2.9" y="8.4" transform="matrix(0.7071 -0.7071 0.7071 0.7071 -5.5459 5.6109)" class="st1" width="2.1" height="2.1"/>
	<polygon class="st2" points="19,5.5 18,2.5 11,2.5 10,5.5 0.5,5.5 0.5,20.5 22.5,20.5 22.5,5.5 	"/>
	<rect x="2.9" y="8.4" transform="matrix(0.7071 -0.7071 0.7071 0.7071 -5.5459 5.6109)" class="st2" width="2.1" height="2.1"/>
	<line class="st2" x1="2.5" y1="3.5" x2="4.5" y2="3.5"/>
	<polygon class="st2" points="18.5,14 14.5,16.3 10.5,14 10.5,9.5 14.5,7.3 18.5,9.5 	"/>
	<polygon class="st2" points="20.5,15 14.5,18.5 8.5,15 8.5,8.5 14.5,5 20.5,8.5 	"/>
</g>
<g id="Frames-24px">
	<rect class="st7" width="24" height="24"/>
</g>
</svg>
