<?xml version="1.0" encoding="utf-8"?>
<!-- Generator: Adobe Illustrator 21.0.2, SVG Export Plug-In . SVG Version: 6.00 Build 0)  -->
<svg version="1.1" xmlns="http://www.w3.org/2000/svg" xmlns:xlink="http://www.w3.org/1999/xlink" x="0px" y="0px"
	 viewBox="0 0 24 24" style="enable-background:new 0 0 24 24;" xml:space="preserve">
<style type="text/css">
	.st0{fill:#FFFFFF;}
	.st1{fill:#CCE7FF;}
	.st2{fill:none;stroke:#1078FF;stroke-linecap:round;stroke-linejoin:round;stroke-miterlimit:10;}
	.st3{fill:none;}
</style>
<g id="Duotone">
	<polygon class="st0" points="21.5,14 12.3,8.9 12.3,8.9 14.5,8 14.5,0.5 11.5,2.5 7.5,2.5 4.5,0.5 4.5,8 6.5,8.8 6.5,23.5 
		21.5,23.5 23.5,20 	"/>
	<path class="st1" d="M9.5,10l-3-1.2c0,0,0,0.8,0,2l3,1.2l4.9-2l-2.1-1.2L9.5,10z"/>
	<path class="st1" d="M6.5,21.5c0,1.2,0,2,0,2l15,0l2-3.5h-2l-1,1.5H6.5z"/>
	<line class="st2" x1="7.5" y1="4.5" x2="7.5" y2="5.5"/>
	<line class="st2" x1="11.5" y1="4.5" x2="11.5" y2="5.5"/>
	<polyline class="st2" points="6.5,23.5 3,23.5 0.5,21 3,17.5 1,15.5 2.5,13.5 	"/>
	<polygon class="st2" points="11.5,2.5 7.5,2.5 4.5,0.5 4.5,8 9.5,10 14.5,8 14.5,0.5 	"/>
	<polyline class="st2" points="6.5,8.8 6.5,23.5 21.5,23.5 23.5,20 21.5,14 12.3,8.9 	"/>
	<line class="st2" x1="12.5" y1="23.5" x2="12.5" y2="14.5"/>
	<line class="st2" x1="9.5" y1="23.5" x2="9.5" y2="14.5"/>
	<polyline class="st2" points="18.5,17.5 16,17.5 12.5,21.5 	"/>
</g>
<g id="Frames-24px">
	<rect class="st3" width="24" height="24"/>
</g>
</svg>
