<?xml version="1.0" encoding="utf-8"?>
<!-- Generator: Adobe Illustrator 21.0.2, SVG Export Plug-In . SVG Version: 6.00 Build 0)  -->
<svg version="1.1" xmlns="http://www.w3.org/2000/svg" xmlns:xlink="http://www.w3.org/1999/xlink" x="0px" y="0px"
	 viewBox="0 0 24 24" style="enable-background:new 0 0 24 24;" xml:space="preserve">
<style type="text/css">
	.st0{fill:#FFFFFF;}
	.st1{fill:#CCE7FF;}
	.st2{fill:none;stroke:#1078FF;stroke-linecap:round;stroke-linejoin:round;stroke-miterlimit:10;}
	.st3{fill:none;}
</style>
<g id="Duotone">
	<polygon class="st0" points="7,23.5 0.5,17 0.5,8 7,1.5 16,1.5 22.5,8 22.5,17 16,23.5 	"/>
	<polygon class="st1" points="3.7,20.3 7,23.5 16,23.5 22.5,17 22.5,8 19.3,4.7 	"/>
	<line class="st2" x1="5.1" y1="18.9" x2="6.5" y2="17.5"/>
	<line class="st2" x1="11.5" y1="21.5" x2="11.5" y2="19.5"/>
	<line class="st2" x1="17.9" y1="18.9" x2="16.4" y2="17.5"/>
	<line class="st2" x1="5.1" y1="6.1" x2="6.5" y2="7.6"/>
	<line class="st2" x1="2.5" y1="12.5" x2="4.5" y2="12.5"/>
	<line class="st2" x1="20.5" y1="12.5" x2="18.5" y2="12.5"/>
	<line class="st2" x1="17.9" y1="6.1" x2="16.4" y2="7.6"/>
	<polyline class="st2" points="11.5,4.5 11.5,12.5 15.5,12.5 	"/>
	<polygon class="st2" points="7,23.5 0.5,17 0.5,8 7,1.5 16,1.5 22.5,8 22.5,17 16,23.5 	"/>
</g>
<g id="Frames-24px">
	<rect class="st3" width="24" height="24"/>
</g>
</svg>
