<?xml version="1.0" encoding="utf-8"?>
<!-- Generator: Adobe Illustrator 21.0.2, SVG Export Plug-In . SVG Version: 6.00 Build 0)  -->
<svg version="1.1" xmlns="http://www.w3.org/2000/svg" xmlns:xlink="http://www.w3.org/1999/xlink" x="0px" y="0px"
	 viewBox="0 0 24 24" style="enable-background:new 0 0 24 24;" xml:space="preserve">
<style type="text/css">
	.st0{fill:#FFFFFF;}
	.st1{fill:#CCE7FF;}
	.st2{fill:none;stroke:#1078FF;stroke-linecap:round;stroke-linejoin:round;stroke-miterlimit:10;}
	.st3{fill:none;stroke:#1078FF;stroke-linejoin:round;stroke-miterlimit:10;}
	.st4{fill:none;}
</style>
<g id="Duotone">
	<polygon class="st0" points="22.5,14 19,9.5 17.2,11.6 14.5,7.5 11.5,11 8.5,7.5 5.8,11.6 4,9.5 0.5,14 4.5,19.5 3,23.5 20,23.5 
		18.5,19.5 	"/>
	<polygon class="st1" points="22.5,14 19,9.5 17.2,11.6 14.5,7.5 11.5,11 11.5,23.5 20,23.5 18.5,19.5 	"/>
	<polygon class="st2" points="11.5,11 14.5,7.5 18.5,13.5 17,15 15.5,13.5 19,9.5 22.5,14 18.5,19.5 20,23.5 3,23.5 4.5,19.5 
		0.5,14 4,9.5 7.5,13.5 6,15 4.5,13.5 8.5,7.5 	"/>
	<line class="st2" x1="11.5" y1="11" x2="11.5" y2="0.5"/>
	<line class="st2" x1="8.5" y1="3.5" x2="14.5" y2="3.5"/>
	<line class="st2" x1="4.5" y1="19.5" x2="18.5" y2="19.5"/>
</g>
<g id="Frames-24px">
	<rect class="st4" width="24" height="24"/>
</g>
</svg>
