<?xml version="1.0" encoding="utf-8"?>
<!-- Generator: Adobe Illustrator 21.0.2, SVG Export Plug-In . SVG Version: 6.00 Build 0)  -->
<svg version="1.1" xmlns="http://www.w3.org/2000/svg" xmlns:xlink="http://www.w3.org/1999/xlink" x="0px" y="0px"
	 viewBox="0 0 24 24" style="enable-background:new 0 0 24 24;" xml:space="preserve">
<style type="text/css">
	.st0{fill:#FFFFFF;}
	.st1{fill:#CCE7FF;}
	.st2{fill:none;stroke:#1078FF;stroke-linecap:round;stroke-linejoin:round;stroke-miterlimit:10;}
	.st3{fill:none;stroke:#1078FF;stroke-linejoin:round;stroke-miterlimit:10;}
	.st4{fill:none;stroke:#1078FF;stroke-linecap:round;stroke-miterlimit:10;}
	.st5{fill:#1078FF;}
	.st6{fill:none;}
</style>
<g id="Duotone">
	<polygon class="st0" points="23.5,15.5 21,9.5 18.5,9.5 16,3.5 0.5,3.5 4,15.5 	"/>
	<polygon class="st1" points="16,3.5 18.5,9.5 14.1,9.5 	"/>
	<polygon class="st1" points="23.5,15.5 22.7,13.5 3.4,13.5 4,15.5 5.5,15.5 5.5,16.2 7,17.2 8.5,16.2 8.5,15.5 18.5,15.5 
		18.5,16.2 20,17.2 21.5,16.2 21.5,15.5 	"/>
	<g>
		<line class="st3" x1="18.5" y1="15.5" x2="8.5" y2="15.5"/>
		<line class="st3" x1="18.5" y1="9.5" x2="14.1" y2="9.5"/>
		<line class="st3" x1="12.1" y1="3.5" x2="16.1" y2="15.5"/>
		<line class="st3" x1="10.1" y1="15.5" x2="6" y2="3.5"/>
		<line class="st2" x1="11.5" y1="9.5" x2="10" y2="9.5"/>
		<line class="st2" x1="3.7" y1="14.5" x2="2.5" y2="14.5"/>
		<line class="st2" x1="3.5" y1="20.5" x2="1.5" y2="20.5"/>
		<line class="st2" x1="8.5" y1="20.5" x2="6.5" y2="20.5"/>
		<line class="st2" x1="13.5" y1="20.5" x2="11.5" y2="20.5"/>
		<line class="st2" x1="18.5" y1="20.5" x2="16.5" y2="20.5"/>
		<line class="st2" x1="23.5" y1="20.5" x2="21.5" y2="20.5"/>
		<polygon class="st3" points="18.5,16.3 20,17.3 21.5,16.3 21.5,14.8 20,13.8 18.5,14.8 		"/>
		<polygon class="st3" points="5.5,16.3 7,17.3 8.5,16.3 8.5,14.8 7,13.8 5.5,14.8 		"/>
		<polyline class="st3" points="21.5,15.5 23.5,15.5 21,9.5 18.5,9.5 16,3.5 0.5,3.5 4,15.5 5.5,15.5 		"/>
	</g>
</g>
<g id="Frames-24px">
	<rect class="st6" width="24" height="24"/>
</g>
</svg>
