<?xml version="1.0" encoding="utf-8"?>
<!-- Generator: Adobe Illustrator 21.0.2, SVG Export Plug-In . SVG Version: 6.00 Build 0)  -->
<svg version="1.1" xmlns="http://www.w3.org/2000/svg" xmlns:xlink="http://www.w3.org/1999/xlink" x="0px" y="0px"
	 viewBox="0 0 24 24" style="enable-background:new 0 0 24 24;" xml:space="preserve">
<style type="text/css">
	.st0{fill:#FFFFFF;}
	.st1{fill:#CCE7FF;}
	.st2{fill:none;stroke:#1078FF;stroke-linecap:round;stroke-linejoin:round;stroke-miterlimit:10;}
	.st3{fill:none;}
</style>
<g id="Duotone">
	<polygon class="st0" points="15.5,17.5 13.5,12.5 12.1,4.5 10.9,4.5 9.5,12.5 7.5,17.5 3.5,23.5 7,23.5 8,21.5 11.5,20 15,21.5 
		16,23.5 19.5,23.5 	"/>
	<polygon class="st1" points="10,2.5 13,2.5 12.5,4.5 10.5,4.5 	"/>
	<polyline class="st2" points="19.5,23.5 15.5,17.5 13.5,12.5 12.1,4.5 10.9,4.5 9.5,12.5 7.5,17.5 3.5,23.5 	"/>
	<polygon class="st2" points="10,2.5 13,2.5 12.5,4.5 10.5,4.5 	"/>
	<line class="st2" x1="11.5" y1="2.5" x2="11.5" y2="0.5"/>
	<line class="st2" x1="7.5" y1="12.5" x2="15.5" y2="12.5"/>
	<line class="st2" x1="5.5" y1="17.5" x2="17.5" y2="17.5"/>
	<polyline class="st2" points="16,23.5 15,21.5 11.5,20 8,21.5 7,23.5 	"/>
	<polyline class="st2" points="10.5,15.5 11.5,14.5 12.5,15.5 	"/>
</g>
<g id="Frames-24px">
	<rect class="st3" width="24" height="24"/>
</g>
</svg>
