<?xml version="1.0" encoding="utf-8"?>
<!-- Generator: Adobe Illustrator 21.0.2, SVG Export Plug-In . SVG Version: 6.00 Build 0)  -->
<svg version="1.1" xmlns="http://www.w3.org/2000/svg" xmlns:xlink="http://www.w3.org/1999/xlink" x="0px" y="0px"
	 viewBox="0 0 24 24" style="enable-background:new 0 0 24 24;" xml:space="preserve">
<style type="text/css">
	.st0{fill:#FFFFFF;}
	.st1{fill:#CCE7FF;}
	.st2{fill:#CCE7FF;stroke:#CCE7FF;stroke-width:0;stroke-linecap:round;stroke-linejoin:round;}
	.st3{fill:none;stroke:#1078FF;stroke-linecap:round;stroke-linejoin:round;stroke-miterlimit:10;}
	.st4{fill:none;stroke:#1078FF;stroke-linejoin:round;stroke-miterlimit:10;}
	.st5{fill:none;}
</style>
<g id="Duotone">
	<polygon class="st0" points="21.5,18 11.5,23.5 1.5,18 1.5,7 11.5,1.5 21.5,7 	"/>
	<polygon class="st2" points="1.5,18 11.5,23.5 21.5,18 19.4,16.7 11.5,21 3.6,16.7 	"/>
	<polygon class="st1" points="13.5,8.5 12,11.5 13,12.5 11.5,14 11,13.5 9.5,16.5 13.5,16.5 18.5,12.5 	"/>
	<polygon class="st3" points="21.5,18 11.5,23.5 1.5,18 1.5,7 11.5,1.5 21.5,7 	"/>
	<rect x="10.4" y="11.4" transform="matrix(0.7071 -0.7071 0.7071 0.7071 -5.4706 11.7929)" class="st3" width="2.1" height="2.1"/>
	<polygon class="st3" points="13.5,16.5 9.5,16.5 4.5,12.5 9.5,8.5 13.5,8.5 18.5,12.5 	"/>
</g>
<g id="Frames-24px">
	<rect class="st5" width="24" height="24"/>
</g>
</svg>
