<?xml version="1.0" encoding="utf-8"?>
<!-- Generator: Adobe Illustrator 21.0.2, SVG Export Plug-In . SVG Version: 6.00 Build 0)  -->
<svg version="1.1" xmlns="http://www.w3.org/2000/svg" xmlns:xlink="http://www.w3.org/1999/xlink" x="0px" y="0px"
	 viewBox="0 0 24 24" style="enable-background:new 0 0 24 24;" xml:space="preserve">
<style type="text/css">
	.st0{fill:#FFFFFF;}
	.st1{fill:#CCE7FF;}
	.st2{fill:none;stroke:#1078FF;stroke-linecap:round;stroke-linejoin:round;stroke-miterlimit:10;}
	.st3{fill:#1078FF;}
	.st4{fill:none;}
</style>
<g id="Duotone">
	<polygon class="st0" points="4.5,5.1 4.5,11.5 8,16.5 15,16.5 18.5,11.5 18.5,5 	"/>
	<polygon class="st1" points="15,9.5 8,9.5 4.5,5.1 11.5,0.5 18.5,5 	"/>
	<polygon class="st1" points="7,11.5 4.5,11.5 8,16.5 15,16.5 18.5,11.5 16,11.5 14,14.5 9,14.5 	"/>
	<polygon class="st2" points="15,9.5 8,9.5 4.5,5.1 11.5,0.5 18.5,5 	"/>
	<polyline class="st2" points="4.5,5.1 4.5,11.5 8,16.5 15,16.5 18.5,11.5 18.5,5 	"/>
	<polyline class="st2" points="14.5,5.5 11.5,3.5 8,5.5 10.5,7.5 12.1,6.7 	"/>
	<line class="st2" x1="13.5" y1="19.5" x2="11.5" y2="20.5"/>
	<line class="st2" x1="11.5" y1="22.5" x2="9.5" y2="21.5"/>
	<line class="st2" x1="11.5" y1="16.5" x2="11.5" y2="23.5"/>
	<polyline class="st2" points="15,9.5 10.5,14 10.5,16.5 	"/>
</g>
<g id="Frames-24px">
	<rect class="st4" width="24" height="24"/>
</g>
</svg>
