<?xml version="1.0" encoding="utf-8"?>
<!-- Generator: Adobe Illustrator 21.0.2, SVG Export Plug-In . SVG Version: 6.00 Build 0)  -->
<svg version="1.1" xmlns="http://www.w3.org/2000/svg" xmlns:xlink="http://www.w3.org/1999/xlink" x="0px" y="0px"
	 viewBox="0 0 24 24" style="enable-background:new 0 0 24 24;" xml:space="preserve">
<style type="text/css">
	.st0{fill:#FFFFFF;}
	.st1{fill:none;stroke:#CCE7FF;stroke-linecap:round;stroke-linejoin:round;stroke-miterlimit:10;}
	.st2{fill:#CCE7FF;}
	.st3{fill:none;stroke:#1078FF;stroke-linecap:round;stroke-linejoin:round;stroke-miterlimit:10;}
	.st4{fill:none;}
</style>
<g id="Duotone">
	<g>
		<polygon class="st0" points="18.5,14.8 20.5,13.4 20.5,11.5 18.5,11.5 18.5,4.6 11.5,0.5 4.5,4.6 4.5,11.5 2.5,11.5 2.5,13.4 
			4.5,14.8 7.3,20.9 11.5,23.5 15.7,20.9 		"/>
	</g>
	<polygon class="st2" points="4.5,6.6 4.5,8.5 18.5,8.5 18.5,6.6 11.5,2.5 	"/>
	<polygon class="st2" points="11.5,17 15,15 18.5,17.5 22.5,15 20.1,20.1 16.8,21.5 11.5,18.7 6.2,21.5 2.9,20.1 0.5,15 4.5,17.5 
		8,15 	"/>
	<line class="st3" x1="0.5" y1="8.5" x2="22.5" y2="8.5"/>
	<line class="st3" x1="8.5" y1="11.5" x2="8.5" y2="12.5"/>
	<line class="st3" x1="14.5" y1="11.5" x2="14.5" y2="12.5"/>
	<polygon class="st3" points="11.5,17 15,15 18.5,17.5 22.5,15 20.1,20.1 16.8,21.5 11.5,18.7 6.2,21.5 2.9,20.1 0.5,15 4.5,17.5 
		8,15 	"/>
	<polyline class="st3" points="15.7,20.9 11.5,23.5 7.3,20.9 	"/>
	<polyline class="st3" points="18.5,11.5 20.5,11.5 20.5,13.4 18.5,14.8 18.5,4.6 11.5,0.5 4.5,4.6 4.5,14.8 2.5,13.4 2.5,11.5 
		4.5,11.5 	"/>
	<line class="st3" x1="6.7" y1="6.2" x2="9.6" y2="4.5"/>
</g>
<g id="Frames-24px">
	<rect class="st4" width="24" height="24"/>
</g>
</svg>
