<?xml version="1.0" encoding="utf-8"?>
<!-- Generator: Adobe Illustrator 21.0.2, SVG Export Plug-In . SVG Version: 6.00 Build 0)  -->
<svg version="1.1" xmlns="http://www.w3.org/2000/svg" xmlns:xlink="http://www.w3.org/1999/xlink" x="0px" y="0px"
	 viewBox="0 0 24 24" style="enable-background:new 0 0 24 24;" xml:space="preserve">
<style type="text/css">
	.st0{fill:#FFFFFF;}
	.st1{fill:#CCE7FF;}
	.st2{fill:none;stroke:#1078FF;stroke-linejoin:round;stroke-miterlimit:10;}
	.st3{fill:none;stroke:#1078FF;stroke-linecap:round;stroke-linejoin:round;stroke-miterlimit:10;}
	.st4{fill:#FFFFFF;stroke:#1078FF;stroke-linecap:round;stroke-linejoin:round;stroke-miterlimit:10;}
	.st5{fill:none;stroke:#1078FF;stroke-linecap:round;stroke-miterlimit:10;}
	.st6{fill:#1078FF;}
	.st7{fill:#CCE7FF;stroke:#1078FF;stroke-linecap:round;stroke-linejoin:round;stroke-miterlimit:10;}
	.st8{fill:none;}
</style>
<g id="Duotone">
	<polygon class="st0" points="21.5,4.5 21.5,1.5 17.5,1.5 17.5,4.5 0.5,4.5 0.5,23.5 22.5,23.5 22.5,4.5 	"/>
	<polygon class="st1" points="17.5,3.5 21.5,3.5 21.5,5.4 19.5,7.5 17.5,5.4 	"/>
	<polygon class="st1" points="9.9,13.4 10.5,14 9,15.5 8.1,14.6 2.5,18 9,21.5 15.5,18 15.5,10 	"/>
	<polyline class="st3" points="15.5,4.5 0.5,4.5 0.5,23.5 22.5,23.5 22.5,7.5 	"/>
	<polygon class="st3" points="21.5,5.4 19.5,7.5 17.5,5.4 17.5,1.5 21.5,1.5 	"/>
	<polyline class="st3" points="19.5,7.5 19.5,20.5 18.5,21.5 17.5,20.5 17.5,18.5 19.5,18.5 	"/>
	<polygon class="st2" points="15.5,18 9,21.5 2.5,18 2.5,10 9,6.5 15.5,10 	"/>
	<rect x="7.9" y="12.9" transform="matrix(0.7071 -0.7071 0.7071 0.7071 -7.2635 10.4645)" class="st3" width="2.1" height="2.1"/>
	<polyline class="st3" points="4.5,13.6 4.5,11.4 6.1,10.5 	"/>
	<polyline class="st3" points="13.5,15.1 13.5,16.7 11.9,17.6 	"/>
	<line class="st3" x1="17.5" y1="3.5" x2="21.5" y2="3.5"/>
	<line class="st3" x1="2.5" y1="21.5" x2="3.5" y2="21.5"/>
</g>
<g id="Frames-24px">
	<rect class="st8" width="24" height="24"/>
</g>
</svg>
