<?xml version="1.0" encoding="utf-8"?>
<!-- Generator: Adobe Illustrator 21.0.2, SVG Export Plug-In . SVG Version: 6.00 Build 0)  -->
<svg version="1.1" xmlns="http://www.w3.org/2000/svg" xmlns:xlink="http://www.w3.org/1999/xlink" x="0px" y="0px"
	 viewBox="0 0 24 24" style="enable-background:new 0 0 24 24;" xml:space="preserve">
<style type="text/css">
	.st0{fill:#FFFFFF;}
	.st1{fill:#CCE7FF;}
	.st2{fill:none;stroke:#1078FF;stroke-linejoin:round;stroke-miterlimit:10;}
	.st3{fill:none;stroke:#1078FF;stroke-linecap:round;stroke-linejoin:round;stroke-miterlimit:10;}
	.st4{fill:#CCE7FF;stroke:#1078FF;stroke-linecap:round;stroke-linejoin:round;stroke-miterlimit:10;}
	.st5{fill:#1078FF;}
	.st6{fill:none;stroke:#1078FF;stroke-linecap:round;stroke-miterlimit:10;}
	.st7{fill:none;}
</style>
<g id="Duotone">
	<g>
		<polygon class="st0" points="3.5,16.5 1.5,16.5 1.5,19.5 3.5,19.5 6.5,23.5 8.5,23.5 8.5,12.5 6.5,12.5 		"/>
		<polygon class="st0" points="19.5,16.5 16.5,12.5 14.5,12.5 14.5,23.5 16.5,23.5 19.5,19.5 21.5,19.5 21.5,16.5 		"/>
		<polygon class="st0" points="19,5 11.5,1.5 4,5 5,7.5 11.5,4.5 18,7.5 		"/>
	</g>
	<g>
		<polygon class="st1" points="1.5,18 1.5,19.5 3.5,19.5 6.5,23.5 8.5,23.5 8.5,18 		"/>
		<polygon class="st1" points="21.5,18 21.5,19.5 19.5,19.5 16.5,23.5 14.5,23.5 14.5,18 		"/>
		<polygon class="st1" points="4.5,6.3 5,7.5 11.5,4.5 18,7.5 18.5,6.3 11.5,3 		"/>
	</g>
	<polygon class="st2" points="6.5,12.5 6.5,23.5 3.5,19.5 3.5,16.5 	"/>
	<polyline class="st2" points="4.5,6.3 0.5,8 3.5,12.9 3.5,16.5 	"/>
	<polyline class="st2" points="3.5,16.5 1.5,16.5 1.5,19.5 3.5,19.5 	"/>
	<polyline class="st2" points="6.5,12.5 8.5,12.5 8.5,23.5 6.5,23.5 	"/>
	<polygon class="st2" points="16.5,12.5 16.5,23.5 19.5,19.5 19.5,16.5 	"/>
	<polyline class="st2" points="18.5,6.3 22.5,8 19.5,12.9 19.5,16.5 	"/>
	<polyline class="st2" points="19.5,16.5 21.5,16.5 21.5,19.5 19.5,19.5 	"/>
	<polyline class="st2" points="16.5,12.5 14.5,12.5 14.5,23.5 16.5,23.5 	"/>
	<polygon class="st2" points="11.5,4.5 18,7.5 19,5 11.5,1.5 4,5 5,7.5 	"/>
</g>
<g id="Frames-24px">
	<rect class="st7" width="24" height="24"/>
</g>
</svg>
