<?xml version="1.0" encoding="utf-8"?>
<!-- Generator: Adobe Illustrator 21.0.2, SVG Export Plug-In . SVG Version: 6.00 Build 0)  -->
<svg version="1.1" xmlns="http://www.w3.org/2000/svg" xmlns:xlink="http://www.w3.org/1999/xlink" x="0px" y="0px"
	 viewBox="0 0 24 24" style="enable-background:new 0 0 24 24;" xml:space="preserve">
<style type="text/css">
	.st0{fill:#FFFFFF;}
	.st1{fill:#CCE7FF;}
	.st2{fill:none;stroke:#1078FF;stroke-linecap:round;stroke-linejoin:round;stroke-miterlimit:10;}
	.st3{fill:none;}
</style>
<g id="Duotone">
	<g>
		<polygon class="st0" points="18.5,2.5 16,0.5 7.5,0.5 4.5,2.5 4.5,7.5 11.5,12.5 18.5,7.5 		"/>
		<polygon class="st0" points="4.5,21.5 7.5,23.5 16,23.5 18.5,21.5 18.5,17.5 11.5,12.5 4.5,17.5 		"/>
	</g>
	<polygon class="st1" points="16,4.5 11.5,4.5 11.5,12.5 18.5,7.5 18.5,2.5 17.8,3 	"/>
	<polygon class="st1" points="11.5,12.5 18.5,17.5 18.5,21.5 16,23.5 11.5,23.5 	"/>
	<polygon class="st2" points="7.5,4.5 4.5,2.5 7.5,0.5 16,0.5 18.5,2.5 16,4.5 	"/>
	<polyline class="st2" points="18.5,2.5 18.5,7.5 11.5,12.5 4.5,7.5 4.5,2.5 	"/>
	<polygon class="st2" points="18.5,21.5 18.5,17.5 11.5,12.5 4.5,17.5 4.5,21.5 7.5,23.5 16,23.5 	"/>
	<polyline class="st2" points="14,7.5 11.5,9.5 9,7.5 	"/>
	<polyline class="st2" points="16,21 11.5,19.5 7,21 	"/>
	<line class="st2" x1="11.5" y1="15.5" x2="11.5" y2="16.5"/>
	<line class="st2" x1="11.5" y1="18.5" x2="11.5" y2="19.5"/>
</g>
<g id="Frames-24px">
	<rect class="st3" width="24" height="24"/>
</g>
</svg>
