<?xml version="1.0" encoding="utf-8"?>
<!-- Generator: Adobe Illustrator 21.0.2, SVG Export Plug-In . SVG Version: 6.00 Build 0)  -->
<svg version="1.1" xmlns="http://www.w3.org/2000/svg" xmlns:xlink="http://www.w3.org/1999/xlink" x="0px" y="0px"
	 viewBox="0 0 24 24" style="enable-background:new 0 0 24 24;" xml:space="preserve">
<style type="text/css">
	.st0{fill:#FFFFFF;}
	.st1{fill:none;stroke:#CCE7FF;stroke-linecap:round;stroke-linejoin:round;stroke-miterlimit:10;}
	.st2{fill:#CCE7FF;}
	.st3{fill:none;stroke:#1078FF;stroke-linecap:round;stroke-linejoin:round;stroke-miterlimit:10;}
	.st4{fill:none;}
</style>
<g id="Duotone">
	<polygon class="st0" points="19.5,13.5 19.5,8 11.5,5.5 3.5,8 3.5,13.5 1.5,13.5 1.5,16 3.5,17 3.5,20 11.5,23.5 19.5,20 19.5,17 
		21.5,16 21.5,13.5 	"/>
	<polygon class="st0" points="13.5,4 11.5,5.5 9.5,4 9.5,2 11.5,0.5 13.5,2 	"/>
	<polygon class="st2" points="10.9,7.5 3.5,9.8 3.5,13.5 10,10.5 	"/>
	<polygon class="st2" points="12.1,7.5 19.5,9.8 19.5,13.5 13,10.5 	"/>
	<polygon class="st2" points="11.5,0.5 13.5,2 13.5,4 11.5,5.5 	"/>
	<polygon class="st3" points="13.5,4 11.5,5.5 9.5,4 9.5,2 11.5,0.5 13.5,2 	"/>
	<polygon class="st3" points="11.5,5.5 19.5,8 19.5,20 11.5,23.5 3.5,20 3.5,8 	"/>
	<polyline class="st3" points="3.5,13.5 1.5,13.5 1.5,16 3.5,17 	"/>
	<polyline class="st3" points="7.5,15 8.5,14 9.5,15 	"/>
	<polyline class="st3" points="13.5,15 14.5,14 15.5,15 	"/>
	<line class="st3" x1="7.5" y1="5" x2="1.5" y2="2"/>
	<line class="st3" x1="15.5" y1="5" x2="21.5" y2="2"/>
	<polyline class="st3" points="19.5,13.5 21.5,13.5 21.5,16 19.5,17 	"/>
	<polyline class="st3" points="8.5,18.5 11.5,20 14.5,18.5 	"/>
	<polygon class="st3" points="3.5,8 3.5,13.5 10,10.5 11.5,5.5 	"/>
	<polygon class="st3" points="19.5,8 19.5,13.5 13,10.5 11.5,5.5 	"/>
</g>
<g id="Frames-24px">
	<rect class="st4" width="24" height="24"/>
</g>
</svg>
