<?xml version="1.0" encoding="utf-8"?>
<!-- Generator: Adobe Illustrator 21.0.2, SVG Export Plug-In . SVG Version: 6.00 Build 0)  -->
<svg version="1.1" xmlns="http://www.w3.org/2000/svg" xmlns:xlink="http://www.w3.org/1999/xlink" x="0px" y="0px"
	 viewBox="0 0 24 24" style="enable-background:new 0 0 24 24;" xml:space="preserve">
<style type="text/css">
	.st0{fill:#FFFFFF;}
	.st1{fill:#CCE7FF;}
	.st2{fill:none;stroke:#1078FF;stroke-linecap:round;stroke-linejoin:round;stroke-miterlimit:10;}
	.st3{fill:none;stroke:#1078FF;stroke-linejoin:round;stroke-miterlimit:10;}
	.st4{fill:none;stroke:#1078FF;stroke-linecap:round;stroke-miterlimit:10;}
	.st5{fill:none;}
</style>
<g id="Duotone">
	<polygon class="st0" points="12,23.5 4.5,11 4.5,5 12,0.5 19.5,5 19.5,11 	"/>
	<polygon class="st1" points="12,0.5 12,4.5 15.5,6.6 15.5,10.4 12,12.5 12,23.5 19.5,11 19.5,5 	"/>
	<path class="st1" d="M15.5,6.6c0-0.1-7,3.9-7,3.9l3.5,2.1l3.5-2.1V6.6z"/>
	<polygon class="st2" points="12,23.5 4.5,11 4.5,5 12,0.5 19.5,5 19.5,11 	"/>
	<polygon class="st2" points="8.5,6.6 12,4.5 15.5,6.6 15.5,10.4 12,12.5 8.5,10.4 	"/>
</g>
<g id="Frames-24px">
	<rect class="st5" width="24" height="24"/>
</g>
</svg>
