<?xml version="1.0" encoding="utf-8"?>
<!-- Generator: Adobe Illustrator 21.0.2, SVG Export Plug-In . SVG Version: 6.00 Build 0)  -->
<svg version="1.1" xmlns="http://www.w3.org/2000/svg" xmlns:xlink="http://www.w3.org/1999/xlink" x="0px" y="0px"
	 viewBox="0 0 24 24" style="enable-background:new 0 0 24 24;" xml:space="preserve">
<style type="text/css">
	.st0{fill:#FFFFFF;}
	.st1{fill:#CCE7FF;}
	.st2{fill:none;stroke:#1078FF;stroke-linecap:round;stroke-linejoin:round;stroke-miterlimit:10;}
	.st3{fill:none;stroke:#1078FF;stroke-linejoin:round;stroke-miterlimit:10;}
	.st4{fill:none;stroke:#1078FF;stroke-linecap:round;stroke-miterlimit:10;}
	.st5{fill:none;}
</style>
<g id="Duotone">
	<polygon class="st0" points="13.5,12.8 11.5,14 9.5,12.8 9.5,10.8 11.5,9.5 13.5,10.8 	"/>
	<polygon class="st1" points="13.5,12.8 13.5,10.8 11.5,9.5 11.5,14 	"/>
	<line class="st2" x1="11.5" y1="19.5" x2="11.5" y2="23.5"/>
	<line class="st2" x1="22.5" y1="12.5" x2="18.5" y2="12.5"/>
	<line class="st2" x1="4.5" y1="12.5" x2="0.5" y2="12.5"/>
	<line class="st2" x1="11.5" y1="0.5" x2="11.5" y2="4.5"/>
	<polygon class="st2" points="3.5,7 11.5,3 19.5,7 19.5,17 11.5,21 3.5,17 	"/>
	<polygon class="st2" points="13.5,12.8 11.5,14 9.5,12.8 9.5,10.8 11.5,9.5 13.5,10.8 	"/>
</g>
<g id="Frames-24px">
	<rect class="st5" width="24" height="24"/>
</g>
</svg>
