<?xml version="1.0" encoding="utf-8"?>
<!-- Generator: Adobe Illustrator 21.0.2, SVG Export Plug-In . SVG Version: 6.00 Build 0)  -->
<svg version="1.1" xmlns="http://www.w3.org/2000/svg" xmlns:xlink="http://www.w3.org/1999/xlink" x="0px" y="0px"
	 viewBox="0 0 24 24" style="enable-background:new 0 0 24 24;" xml:space="preserve">
<style type="text/css">
	.st0{fill:#FFFFFF;}
	.st1{fill:#CCE7FF;}
	.st2{fill:none;stroke:#1078FF;stroke-linecap:round;stroke-linejoin:round;stroke-miterlimit:10;}
	.st3{fill:none;stroke:#1078FF;stroke-linejoin:round;stroke-miterlimit:10;}
	.st4{fill:none;}
</style>
<g id="Duotone">
	<g>
		<polygon class="st0" points="15.5,0.5 7.5,0.5 7.5,4.5 11.5,6.5 15.5,4.5 		"/>
		<polygon class="st0" points="16.5,12 16.5,9.5 14,9.5 11.5,6.5 9,9.5 6.5,9.5 6.5,12 3.5,14.5 6.5,17 6.5,19.5 9,19.5 11.5,22.5 
			14,19.5 16.5,19.5 16.5,17 19.5,14.5 		"/>
	</g>
	<rect x="7.5" y="0.5" class="st1" width="8" height="2.5"/>
	<polygon class="st1" points="6.6,19.4 9,19.4 11.5,22.4 14,19.4 16.5,19.4 16.5,16.9 19.5,14.4 16.5,11.9 16.5,9.5 	"/>
	<polyline class="st2" points="7.5,0.5 7.5,4.5 11.5,6.5 15.5,4.5 15.5,0.5 	"/>
	<line class="st2" x1="4.5" y1="0.5" x2="18.5" y2="0.5"/>
	<line class="st2" x1="9.5" y1="0.5" x2="9.5" y2="5.5"/>
	<line class="st2" x1="13.5" y1="0.5" x2="13.5" y2="5.5"/>
	<g>
		<polygon class="st2" points="16.5,17 16.5,19.5 14,19.5 11.5,22.5 9,19.5 6.5,19.5 6.5,17 3.5,14.5 6.5,12 6.5,9.5 9,9.5 
			11.5,6.5 14,9.5 16.5,9.5 16.5,12 19.5,14.5 		"/>
	</g>
	<polygon class="st2" points="14.5,16.3 11.5,18 8.5,16.3 8.5,12.8 11.5,11 14.5,12.8 	"/>
</g>
<g id="Frames-24px">
	<rect class="st4" width="24" height="24"/>
</g>
</svg>
