<?xml version="1.0" encoding="utf-8"?>
<!-- Generator: Adobe Illustrator 21.0.2, SVG Export Plug-In . SVG Version: 6.00 Build 0)  -->
<svg version="1.1" xmlns="http://www.w3.org/2000/svg" xmlns:xlink="http://www.w3.org/1999/xlink" x="0px" y="0px"
	 viewBox="0 0 24 24" style="enable-background:new 0 0 24 24;" xml:space="preserve">
<style type="text/css">
	.st0{fill:#FFFFFF;}
	.st1{fill:#CCE7FF;}
	.st2{fill:none;stroke:#1078FF;stroke-linecap:round;stroke-linejoin:round;stroke-miterlimit:10;}
	.st3{fill:none;}
</style>
<g id="Duotone">
	<polygon class="st0" points="3.5,10 0.5,8.5 0.5,15.5 3.5,14 17.5,21.5 17.5,2.5 	"/>
	<polygon class="st1" points="0.5,12 0.5,15.5 3.5,14 17.5,21.5 17.5,12 	"/>
	<polyline class="st2" points="6.5,15.6 6.5,19.3 12.5,22.5 12.5,18.8 	"/>
	<line class="st2" x1="20.5" y1="12.5" x2="23.5" y2="12.5"/>
	<line class="st2" x1="20.5" y1="7.7" x2="23.5" y2="6.2"/>
	<line class="st2" x1="20.5" y1="17.7" x2="23.5" y2="19.2"/>
	<line class="st2" x1="3.5" y1="10" x2="3.5" y2="14"/>
	<polygon class="st2" points="17.5,21.5 3.5,14 0.5,15.5 0.5,8.5 3.5,10 17.5,2.5 	"/>
</g>
<g id="Frames-24px">
	<rect class="st3" width="24" height="24"/>
</g>
</svg>
