<?xml version="1.0" encoding="utf-8"?>
<!-- Generator: Adobe Illustrator 21.0.2, SVG Export Plug-In . SVG Version: 6.00 Build 0)  -->
<svg version="1.1" xmlns="http://www.w3.org/2000/svg" xmlns:xlink="http://www.w3.org/1999/xlink" x="0px" y="0px"
	 viewBox="0 0 24 24" style="enable-background:new 0 0 24 24;" xml:space="preserve">
<style type="text/css">
	.st0{fill:#FFFFFF;}
	.st1{fill:#CCE7FF;}
	.st2{fill:none;stroke:#1078FF;stroke-linecap:round;stroke-linejoin:round;stroke-miterlimit:10;}
	.st3{fill:none;stroke:#1078FF;stroke-linejoin:round;stroke-miterlimit:10;}
	.st4{fill:#CCE7FF;stroke:#1078FF;stroke-linecap:round;stroke-linejoin:round;stroke-miterlimit:10;}
	.st5{fill:none;stroke:#1078FF;stroke-linecap:round;stroke-miterlimit:10;}
	.st6{fill:none;}
</style>
<g id="Duotone">
	<polygon class="st0" points="13.2,7.5 10.3,5.5 9.9,3.4 8.2,2.3 5.8,2.4 4.1,4.9 4.9,7.2 6.5,8.4 8.6,8 11.5,10 14,9.8 	"/>
	<g>
		<g>
			<polygon class="st1" points="14,9.8 9.5,6.7 4.9,3.6 4.1,4.9 4.9,7.2 6.5,8.4 8.6,8 11.5,10 14,9.8 			"/>
		</g>
	</g>
	<polygon class="st2" points="8,15.5 14,15.5 20,19.5 14,23.5 8,23.5 2,19.5 	"/>
	<line class="st2" x1="20.5" y1="1.5" x2="20.5" y2="5.5"/>
	<line class="st2" x1="18.5" y1="3.5" x2="22.5" y2="3.5"/>
	<line class="st2" x1="2.5" y1="8.5" x2="2.5" y2="12.5"/>
	<line class="st2" x1="0.5" y1="10.5" x2="4.5" y2="10.5"/>
	<line class="st2" x1="21.5" y1="7.5" x2="21.5" y2="9.5"/>
	<line class="st2" x1="20.5" y1="8.5" x2="22.5" y2="8.5"/>
	<polyline class="st2" points="9.5,21 11.5,19.5 13.5,21 	"/>
	<line class="st2" x1="11.5" y1="19.5" x2="11.5" y2="10"/>
	<polyline class="st2" points="20,19.5 15,1.5 12.7,4.7 	"/>
	<line class="st2" x1="8.6" y1="10.4" x2="2" y2="19.5"/>
	<line class="st2" x1="5.7" y1="7.8" x2="9.1" y2="2.9"/>
	<polyline class="st2" points="10.3,5.5 9.9,3.4 8.2,2.3 5.8,2.4 4.1,4.9 4.9,7.2 6.5,8.4 8.6,8 	"/>
	<polygon class="st2" points="8.6,8 11.5,10 14,9.8 13.2,7.5 10.3,5.5 	"/>
</g>
<g id="Frames-24px">
	<rect class="st6" width="24" height="24"/>
</g>
</svg>
