<?xml version="1.0" encoding="utf-8"?>
<!-- Generator: Adobe Illustrator 21.0.2, SVG Export Plug-In . SVG Version: 6.00 Build 0)  -->
<svg version="1.1" xmlns="http://www.w3.org/2000/svg" xmlns:xlink="http://www.w3.org/1999/xlink" x="0px" y="0px"
	 viewBox="0 0 24 24" style="enable-background:new 0 0 24 24;" xml:space="preserve">
<style type="text/css">
	.st0{fill:#FFFFFF;}
	.st1{fill:#CCE7FF;}
	.st2{fill:none;stroke:#1078FF;stroke-linecap:round;stroke-linejoin:round;stroke-miterlimit:10;}
	.st3{fill:none;}
</style>
<g id="Duotone">
	<polygon class="st0" points="18.9,12.6 17.5,14 16,12.5 14.5,14 13.1,12.6 16,5.5 	"/>
	<polygon class="st1" points="10.5,18.7 12.5,23.5 23.5,23.5 18.9,12.6 17.5,14 16,12.5 14.5,14 13.1,12.6 	"/>
	<polygon class="st1" points="7.5,11.5 12.5,23.5 2.5,23.5 	"/>
	<polygon class="st2" points="7.5,11.5 12.5,23.5 2.5,23.5 	"/>
	<polygon class="st2" points="10.5,18.7 16,5.5 23.5,23.5 12.5,23.5 	"/>
	<polyline class="st2" points="0.5,3.5 2.5,1.5 4.5,3.5 6.5,1.5 8.5,3.5 10.5,1.5 12.5,3.5 	"/>
	<polyline class="st2" points="0.5,7.5 2.5,5.5 4.5,7.5 6.5,5.5 8.5,7.5 	"/>
	<polygon class="st2" points="18.9,12.6 17.5,14 16,12.5 14.5,14 13.1,12.6 16,5.5 	"/>
</g>
<g id="Frames-24px">
	<rect class="st3" width="24" height="24"/>
</g>
</svg>
