<?xml version="1.0" encoding="utf-8"?>
<!-- Generator: Adobe Illustrator 21.0.2, SVG Export Plug-In . SVG Version: 6.00 Build 0)  -->
<svg version="1.1" xmlns="http://www.w3.org/2000/svg" xmlns:xlink="http://www.w3.org/1999/xlink" x="0px" y="0px"
	 viewBox="0 0 24 24" style="enable-background:new 0 0 24 24;" xml:space="preserve">
<style type="text/css">
	.st0{fill:#FFFFFF;}
	.st1{fill:none;stroke:#1078FF;stroke-linejoin:round;stroke-miterlimit:10;}
	.st2{fill:none;stroke:#1078FF;stroke-linecap:round;stroke-linejoin:round;stroke-miterlimit:10;}
	.st3{fill:#CCE7FF;}
	.st4{fill:#1078FF;}
	.st5{fill:none;stroke:#1078FF;stroke-linecap:round;stroke-miterlimit:10;}
	.st6{fill:none;}
</style>
<g id="Duotone">
	<polyline class="st0" points="8.5,16.5 1.5,16.5 1.5,23.5 8.5,21.5 	"/>
	<polyline class="st0" points="23.5,13.5 16.5,13.5 16.5,20.5 23.5,18.5 	"/>
	<polygon class="st3" points="8.5,16.5 1.5,23.5 8.5,21.5 	"/>
	<polygon class="st3" points="23.5,13.5 16.5,20.5 23.5,18.5 	"/>
	<polyline class="st2" points="8.5,16.5 1.5,16.5 1.5,23.5 8.5,21.5 	"/>
	<polyline class="st2" points="23.5,13.5 16.5,13.5 16.5,20.5 23.5,18.5 	"/>
	<polyline class="st2" points="8.5,21.5 8.5,5.5 23.5,1.5 23.5,18.5 	"/>
	<line class="st2" x1="8.5" y1="9" x2="23.5" y2="5"/>
</g>
<g id="Frames-24px">
	<rect class="st6" width="24" height="24"/>
</g>
</svg>
