<?xml version="1.0" encoding="utf-8"?>
<!-- Generator: Adobe Illustrator 21.0.2, SVG Export Plug-In . SVG Version: 6.00 Build 0)  -->
<svg version="1.1" xmlns="http://www.w3.org/2000/svg" xmlns:xlink="http://www.w3.org/1999/xlink" x="0px" y="0px"
	 viewBox="0 0 24 24" style="enable-background:new 0 0 24 24;" xml:space="preserve">
<style type="text/css">
	.st0{fill:#FFFFFF;}
	.st1{fill:none;stroke:#CCE7FF;stroke-linecap:round;stroke-linejoin:round;stroke-miterlimit:10;}
	.st2{fill:#CCE7FF;}
	.st3{fill:none;stroke:#1078FF;stroke-linecap:round;stroke-linejoin:round;stroke-miterlimit:10;}
	.st4{fill:#CCE7FF;stroke:#1078FF;stroke-linecap:round;stroke-linejoin:round;stroke-miterlimit:10;}
	.st5{fill:none;}
</style>
<g id="Duotone">
	<polygon class="st0" points="0.5,2.5 0.5,23.5 10.5,23.5 14.5,19.5 14.5,2.5 	"/>
	<polygon class="st0" points="20.5,19.5 18.5,23.5 16.5,19.5 16.5,2.5 20.5,2.5 	"/>
	<rect x="18.5" y="2.5" class="st2" width="2" height="17"/>
	<rect x="9" y="19.5" class="st2" width="1.5" height="4"/>
	<g>
		<rect x="16.5" y="2.5" class="st3" width="4" height="17"/>
		<polyline class="st3" points="16.5,19.5 18.5,23.5 20.5,19.5 		"/>
		<line class="st3" x1="16.5" y1="7.5" x2="20.5" y2="7.5"/>
		<polyline class="st3" points="20.5,4.5 23.5,4.5 22.5,11 23,12 		"/>
		<line class="st3" x1="18.5" y1="2.5" x2="18.5" y2="1.5"/>
	</g>
	<g>
		<g>
			<polygon class="st3" points="14.5,2.5 14.5,19.5 10.5,23.5 0.5,23.5 0.5,2.5 			"/>
			<polyline class="st3" points="10.5,23.5 10.5,19.5 14.5,19.5 			"/>
		</g>
		<polyline class="st3" points="2.5,8 4,9.5 6.5,6.5 		"/>
		<line class="st3" x1="8.5" y1="8.5" x2="12.5" y2="8.5"/>
		<polyline class="st3" points="2.5,15 4,16.5 6.5,13.5 		"/>
		<line class="st3" x1="8.5" y1="15.5" x2="12.5" y2="15.5"/>
	</g>
</g>
<g id="Frames-24px">
	<rect class="st5" width="24" height="24"/>
</g>
</svg>
