<?xml version="1.0" encoding="utf-8"?>
<!-- Generator: Adobe Illustrator 21.0.2, SVG Export Plug-In . SVG Version: 6.00 Build 0)  -->
<svg version="1.1" xmlns="http://www.w3.org/2000/svg" xmlns:xlink="http://www.w3.org/1999/xlink" x="0px" y="0px"
	 viewBox="0 0 24 24" style="enable-background:new 0 0 24 24;" xml:space="preserve">
<style type="text/css">
	.st0{fill:#FFFFFF;}
	.st1{fill:#CCE7FF;}
	.st2{fill:none;stroke:#1078FF;stroke-linecap:round;stroke-linejoin:round;stroke-miterlimit:10;}
	.st3{fill:#CCE7FF;stroke:#1078FF;stroke-linecap:round;stroke-linejoin:round;stroke-miterlimit:10;}
	.st4{fill:#1078FF;}
	.st5{fill:none;}
</style>
<g id="Duotone">
	<polygon class="st0" points="15,13.5 18.5,13.5 22.5,17.5 22.5,23.5 15.5,23.5 0.5,8.5 0.5,1.5 6.5,1.5 10.5,5.5 10.5,9 	"/>
	<polygon class="st1" points="0.5,8.5 15.5,23.5 21.5,23.5 0.5,2.5 	"/>
	<polyline class="st2" points="15.5,3.5 15.5,8.5 20.5,8.5 	"/>
	<line class="st2" x1="15.5" y1="8.5" x2="22.5" y2="1.5"/>
	<polygon class="st2" points="15,13.5 18.5,13.5 22.5,17.5 22.5,23.5 15.5,23.5 0.5,8.5 0.5,1.5 6.5,1.5 10.5,5.5 10.5,9 	"/>
</g>
<g id="Frames-24px">
	<rect class="st5" width="24" height="24"/>
</g>
</svg>
