<?xml version="1.0" encoding="utf-8"?>
<!-- Generator: Adobe Illustrator 21.0.2, SVG Export Plug-In . SVG Version: 6.00 Build 0)  -->
<svg version="1.1" xmlns="http://www.w3.org/2000/svg" xmlns:xlink="http://www.w3.org/1999/xlink" x="0px" y="0px"
	 viewBox="0 0 24 24" style="enable-background:new 0 0 24 24;" xml:space="preserve">
<style type="text/css">
	.st0{fill:#FFFFFF;}
	.st1{fill:#CCE7FF;}
	.st2{fill:none;stroke:#1078FF;stroke-linecap:round;stroke-linejoin:round;stroke-miterlimit:10;}
	.st3{fill:#1078FF;}
	.st4{fill:none;}
</style>
<g id="Duotone">
	<polygon class="st0" points="19,17.5 15.7,18.9 15.7,18.9 14.5,16.5 8.5,16.5 7.3,18.9 4,17.5 0.5,23.5 22.5,23.5 	"/>
	<polygon class="st0" points="15.5,10.1 15.9,5.9 22.5,4.1 19.7,10.5 	"/>
	<polygon class="st0" points="7.5,10.1 7.1,5.9 0.5,4.1 3.3,10.5 	"/>
	<polygon class="st1" points="14.5,16.5 11.5,0.5 8.5,16.5 	"/>
	<polygon class="st1" points="15.5,10.1 22.5,4.1 19.7,10.5 	"/>
	<polygon class="st1" points="7.5,10.1 0.5,4.1 3.3,10.5 	"/>
	<polygon class="st1" points="3,23.5 5,20.5 7.5,22 9.5,19 13.5,19 15.5,22 18,20.5 20,23.5 	"/>
	<polyline class="st2" points="15.7,18.9 19,17.5 22.5,23.5 0.5,23.5 4,17.5 7.3,18.9 	"/>
	<polyline class="st2" points="16.5,20.5 14.5,16.5 8.5,16.5 6.5,20.5 	"/>
	<polygon class="st2" points="14.5,16.5 11.5,0.5 8.5,16.5 	"/>
	<polygon class="st2" points="7.5,10.1 7.1,5.9 0.5,4.1 3.3,10.5 	"/>
	<line class="st2" x1="4.4" y1="7.5" x2="7.5" y2="10.1"/>
	<polygon class="st2" points="15.5,10.1 15.9,5.9 22.5,4.1 19.7,10.5 	"/>
	<line class="st2" x1="18.6" y1="7.5" x2="15.5" y2="10.1"/>
</g>
<g id="Frames-24px">
	<rect class="st4" width="24" height="24"/>
</g>
</svg>
