<?xml version="1.0" encoding="utf-8"?>
<!-- Generator: Adobe Illustrator 21.0.2, SVG Export Plug-In . SVG Version: 6.00 Build 0)  -->
<svg version="1.1" xmlns="http://www.w3.org/2000/svg" xmlns:xlink="http://www.w3.org/1999/xlink" x="0px" y="0px"
	 viewBox="0 0 24 24" style="enable-background:new 0 0 24 24;" xml:space="preserve">
<style type="text/css">
	.st0{fill:#FFFFFF;}
	.st1{fill:#CCE7FF;}
	.st2{fill:none;stroke:#1078FF;stroke-linecap:round;stroke-linejoin:round;stroke-miterlimit:10;}
	.st3{fill:none;stroke:#1078FF;stroke-linejoin:round;stroke-miterlimit:10;}
	.st4{fill:none;stroke:#1078FF;stroke-linecap:round;stroke-miterlimit:10;}
	.st5{fill:none;}
</style>
<g id="Duotone">
	<path class="st0" d="M23,17l-1-5.5h-1V16l-1.7-5.5h4.2l-2-9h-19l-2,9h4.2L3,16v-4.5H2L1,17l0.5,3.5l-1,3h6l0.5-2l4-5L10,16
		l-2.5,1.5l1.8-7h5.5l1.8,7L14,16l-1,0.5l4,5l0.5,2h6l-1-3L23,17z M5.5,16l0.8-5.5h1.3L5.5,16z M16.4,10.5h1.3l0.8,5.5L16.4,10.5z"
		/>
	<polygon class="st1" points="5,9.5 6.5,9.5 6.3,10.5 7.6,10.5 8,9.5 9.5,9.5 9.3,10.5 14.8,10.5 14.5,9.5 16,9.5 16.4,10.5 
		17.7,10.5 17.5,9.5 19,9.5 19.3,10.5 23.5,10.5 23.1,8.5 0.9,8.5 0.5,10.5 4.7,10.5 	"/>
	<g>
		<line class="st2" x1="12.5" y1="10.5" x2="11.5" y2="10.5"/>
		<line class="st2" x1="5.5" y1="4.5" x2="6" y2="4.5"/>
		<line class="st2" x1="8" y1="4.5" x2="8.5" y2="4.5"/>
		<line class="st2" x1="10.5" y1="4.5" x2="11" y2="4.5"/>
		<line class="st2" x1="13" y1="4.5" x2="13.5" y2="4.5"/>
		<line class="st2" x1="15.5" y1="4.5" x2="16" y2="4.5"/>
		<line class="st2" x1="18" y1="4.5" x2="18.5" y2="4.5"/>
		<line class="st2" x1="4.5" y1="6.5" x2="5" y2="6.5"/>
		<line class="st2" x1="7" y1="6.5" x2="7.5" y2="6.5"/>
		<line class="st2" x1="9.5" y1="6.5" x2="10" y2="6.5"/>
		<line class="st2" x1="12" y1="6.5" x2="12.5" y2="6.5"/>
		<line class="st2" x1="14.5" y1="6.5" x2="15" y2="6.5"/>
		<line class="st2" x1="17" y1="6.5" x2="17.5" y2="6.5"/>
		<line class="st2" x1="19.5" y1="6.5" x2="20" y2="6.5"/>
		<polyline class="st2" points="0.5,10.5 2.5,1.5 21.5,1.5 23.5,10.5 		"/>
		<polyline class="st2" points="0.5,23.5 1.5,20.5 1,17 2,11.5 3,11.5 3,16 5,9.5 6.5,9.5 5.5,16 8,9.5 9.5,9.5 7.5,17.5 10,16 
			11,16.5 7,21.5 6.5,23.5 		"/>
		<polyline class="st2" points="23.5,23.5 22.5,20.5 23,17 22,11.5 21,11.5 21,16 19,9.5 17.5,9.5 18.5,16 16,9.5 14.5,9.5 
			16.5,17.5 14,16 13,16.5 17,21.5 17.5,23.5 		"/>
	</g>
</g>
<g id="Frames-24px">
	<rect class="st5" width="24" height="24"/>
</g>
</svg>
