<?xml version="1.0" encoding="utf-8"?>
<!-- Generator: Adobe Illustrator 21.0.2, SVG Export Plug-In . SVG Version: 6.00 Build 0)  -->
<svg version="1.1" xmlns="http://www.w3.org/2000/svg" xmlns:xlink="http://www.w3.org/1999/xlink" x="0px" y="0px"
	 viewBox="0 0 24 24" style="enable-background:new 0 0 24 24;" xml:space="preserve">
<style type="text/css">
	.st0{fill:#FFFFFF;}
	.st1{fill:#CCE7FF;}
	.st2{fill:none;stroke:#1078FF;stroke-linecap:round;stroke-linejoin:round;stroke-miterlimit:10;}
	.st3{fill:#1078FF;}
	.st4{fill:none;}
</style>
<g id="Duotone">
	<polygon class="st0" points="21.5,13.5 21.5,8.5 17.5,7 13.5,8.5 13.5,13.5 	"/>
	<polygon class="st0" points="19.5,5 17.5,6 15.5,5 15.5,2.5 17.5,1.5 19.5,2.5 	"/>
	<polygon class="st0" points="7.5,8.5 5,10 2.5,8.5 2.5,5.5 5,4 7.5,5.5 	"/>
	<polygon class="st0" points="7.5,23.5 7.5,17.5 9.5,17.5 9.5,12.5 5,11 0.5,12.5 0.5,17.5 2.5,17.5 2.5,23.5 	"/>
	<polygon class="st1" points="17.5,1.5 17.5,6 19.5,5 19.5,2.5 	"/>
	<polygon class="st1" points="17.5,7 17.5,13.5 21.5,13.5 21.5,8.5 	"/>
	<polygon class="st1" points="7.5,8.5 5,10 5,4 7.5,5.5 	"/>
	<polygon class="st1" points="5,11 5,23.5 7.5,23.5 7.5,17.5 9.5,17.5 9.5,12.5 	"/>
	<line class="st2" x1="23.5" y1="13.5" x2="11.5" y2="13.5"/>
	<line class="st2" x1="23.5" y1="15.5" x2="11.5" y2="15.5"/>
	<polygon class="st2" points="19.5,5 17.5,6 15.5,5 15.5,2.5 17.5,1.5 19.5,2.5 	"/>
	<polygon class="st2" points="7.5,8.5 5,10 2.5,8.5 2.5,5.5 5,4 7.5,5.5 	"/>
	<polygon class="st2" points="7.5,23.5 7.5,17.5 9.5,17.5 9.5,12.5 5,11 0.5,12.5 0.5,17.5 2.5,17.5 2.5,23.5 	"/>
	<polyline class="st2" points="21.5,13.5 21.5,8.5 17.5,7 13.5,8.5 13.5,13.5 	"/>
	<line class="st2" x1="17.5" y1="9.5" x2="17.5" y2="11.5"/>
</g>
<g id="Frames-24px">
	<rect class="st4" width="24" height="24"/>
</g>
</svg>
