<?xml version="1.0" encoding="utf-8"?>
<!-- Generator: Adobe Illustrator 21.0.2, SVG Export Plug-In . SVG Version: 6.00 Build 0)  -->
<svg version="1.1" xmlns="http://www.w3.org/2000/svg" xmlns:xlink="http://www.w3.org/1999/xlink" x="0px" y="0px"
	 viewBox="0 0 24 24" style="enable-background:new 0 0 24 24;" xml:space="preserve">
<style type="text/css">
	.st0{fill:#FFFFFF;}
	.st1{fill:#1078FF;}
	.st2{fill:#CCE7FF;}
	.st3{fill:none;stroke:#1078FF;stroke-linecap:round;stroke-linejoin:round;stroke-miterlimit:10;}
	.st4{fill:none;}
</style>
<g id="Duotone">
	<polyline class="st0" points="8,13.5 9,15.5 6,15.5 2.5,17.5 2.5,21 6,23.5 16.5,23.5 20,21 20,17.5 16.5,15.5 13.5,15.5 
		14.5,13.5 	"/>
	<polygon class="st0" points="16.3,0.5 19.6,0.7 21.5,3.5 19.8,6.5 16.4,6.3 14.6,3.6 	"/>
	<polygon class="st2" points="2.5,19.5 2.5,21 6,23.5 16.5,23.5 20,21 20,19.5 	"/>
	<polygon class="st2" points="16.7,9.2 19.2,11.4 15.9,11.6 14.4,9.8 	"/>
	<polygon class="st2" points="11.8,11 8.7,10 10.1,12.9 12.4,13.3 	"/>
	<polygon class="st2" points="19.6,0.7 21.5,3.5 19.8,6.5 16.4,6.3 	"/>
	<polyline class="st3" points="8,13.5 9,15.5 6,15.5 2.5,17.5 2.5,21 6,23.5 16.5,23.5 20,21 20,17.5 16.5,15.5 13.5,15.5 
		14.5,13.5 	"/>
	<line class="st3" x1="2.5" y1="19.5" x2="20" y2="19.5"/>
	<line class="st3" x1="16.4" y1="6.3" x2="7.7" y2="21.5"/>
	<polygon class="st3" points="16.7,9.2 19.2,11.4 15.9,11.6 14.4,9.8 	"/>
	<polygon class="st3" points="11.8,11 8.7,10 10.1,12.9 12.4,13.3 	"/>
	<polygon class="st3" points="16.3,0.5 19.6,0.7 21.5,3.5 19.8,6.5 16.4,6.3 14.6,3.5 	"/>
	<polyline class="st3" points="21.5,3.5 18.2,3.3 16.3,0.5 	"/>
</g>
<g id="Frames-24px">
	<rect class="st4" width="24" height="24"/>
</g>
</svg>
