<?xml version="1.0" encoding="utf-8"?>
<!-- Generator: Adobe Illustrator 21.0.2, SVG Export Plug-In . SVG Version: 6.00 Build 0)  -->
<svg version="1.1" xmlns="http://www.w3.org/2000/svg" xmlns:xlink="http://www.w3.org/1999/xlink" x="0px" y="0px"
	 viewBox="0 0 24 24" style="enable-background:new 0 0 24 24;" xml:space="preserve">
<style type="text/css">
	.st0{fill:#FFFFFF;}
	.st1{fill:#CCE7FF;}
	.st2{fill:none;stroke:#1078FF;stroke-linecap:round;stroke-linejoin:round;stroke-miterlimit:10;}
	.st3{fill:#1078FF;}
	.st4{fill:none;stroke:#1078FF;stroke-linejoin:round;stroke-miterlimit:10;}
	.st5{fill:none;}
</style>
<g id="Duotone">
	<polygon class="st0" points="4.7,18.1 2.7,5.4 11.4,2.6 20.3,5.4 18,18.1 11.4,21.3 	"/>
	<path class="st1" d="M11.4,0.5L0.5,4l2.4,15.5l8.5,4l8.5-4L22.5,4L11.4,0.5z M18,18.1l-6.7,3.1l-6.7-3.1L2.7,5.4l8.6-2.8l8.9,2.8
		L18,18.1z"/>
	<polygon class="st1" points="11.4,2.6 8.1,3.6 18.7,14.2 19.4,10.4 11.7,2.7 	"/>
	<g>
		<polygon class="st1" points="4.7,18.1 11.4,21.3 12,21 3.9,12.9 		"/>
		<polygon class="st1" points="4.7,4.7 2.7,5.4 3.1,7.6 15,19.5 18,18.1 18,18 		"/>
	</g>
	<g>
		<polygon class="st2" points="11.4,0.5 22.5,4 19.9,19.5 11.4,23.5 2.9,19.5 0.5,4 		"/>
		<polygon class="st2" points="4.7,18.1 2.7,5.4 11.4,2.6 20.3,5.4 18,18.1 11.4,21.3 		"/>
		<line class="st2" x1="11.7" y1="2.7" x2="19.4" y2="10.4"/>
		<line class="st2" x1="8.1" y1="3.6" x2="18.7" y2="14.2"/>
		<line class="st2" x1="4.7" y1="4.7" x2="18" y2="18"/>
		<line class="st2" x1="3.1" y1="7.6" x2="15" y2="19.5"/>
		<line class="st2" x1="3.9" y1="12.9" x2="12" y2="21"/>
	</g>
</g>
<g id="Frames-24px">
	<rect class="st5" width="24" height="24"/>
</g>
</svg>
