<?xml version="1.0" encoding="utf-8"?>
<!-- Generator: Adobe Illustrator 21.0.2, SVG Export Plug-In . SVG Version: 6.00 Build 0)  -->
<svg version="1.1" xmlns="http://www.w3.org/2000/svg" xmlns:xlink="http://www.w3.org/1999/xlink" x="0px" y="0px"
	 viewBox="0 0 24 24" style="enable-background:new 0 0 24 24;" xml:space="preserve">
<style type="text/css">
	.st0{fill:#FFFFFF;}
	.st1{fill:#CCE7FF;}
	.st2{fill:none;stroke:#1078FF;stroke-linecap:round;stroke-linejoin:round;stroke-miterlimit:10;}
	.st3{fill:#1078FF;}
	.st4{fill:none;}
</style>
<g id="Duotone">
	<polygon class="st0" points="20.5,12.5 14.5,12.5 14.4,12.3 14.4,12.3 17,5.5 11.5,3.5 9.5,9.5 6.5,9.5 6.5,16.3 0.5,14 3.5,20 
		22,20 22.2,17.5 	"/>
	<polygon class="st1" points="16.2,7.6 10.7,5.9 11.5,3.5 17,5.5 	"/>
	<polyline class="st1" points="6.5,11.5 11.5,11.5 11.5,13.5 6.5,13.5 	"/>
	<polygon class="st1" points="3.5,20 0.5,14 9.5,17.5 23.5,17.5 22,20 	"/>
	<polyline class="st2" points="3.5,20 0.5,14 9.5,17.5 23.5,17.5 22,20 	"/>
	<polyline class="st2" points="6.5,16.3 6.5,9.5 12,9.5 14.5,12.5 22,12.5 	"/>
	<line class="st2" x1="20.5" y1="12.5" x2="22.2" y2="17.5"/>
	<polyline class="st2" points="9.5,9.5 11.5,3.5 17,5.5 14.4,12.3 	"/>
	<polygon class="st2" points="16.2,7.6 10.7,5.9 11.5,3.5 17,5.5 	"/>
	<polyline class="st2" points="14.5,1.5 15.5,0.5 17.5,2.5 19.5,0.5 21.5,2.5 23.5,0.5 	"/>
	<line class="st2" x1="14.5" y1="12.5" x2="14.5" y2="14.5"/>
	<line class="st2" x1="21.2" y1="14.5" x2="14.5" y2="14.5"/>
	<line class="st2" x1="17.5" y1="14.5" x2="17.5" y2="12.5"/>
	<polyline class="st2" points="6.5,11.5 11.5,11.5 11.5,13.5 6.5,13.5 	"/>
	<polyline class="st2" points="0.5,23.5 3,22 5,23.5 7,22 9,23.5 11,22 13,23.5 15,22 17,23.5 19,22 21,23.5 23.5,22 	"/>
</g>
<g id="Frames-24px">
	<rect class="st4" width="24" height="24"/>
</g>
</svg>
