<?xml version="1.0" encoding="utf-8"?>
<!-- Generator: Adobe Illustrator 21.0.2, SVG Export Plug-In . SVG Version: 6.00 Build 0)  -->
<svg version="1.1" xmlns="http://www.w3.org/2000/svg" xmlns:xlink="http://www.w3.org/1999/xlink" x="0px" y="0px"
	 viewBox="0 0 24 24" style="enable-background:new 0 0 24 24;" xml:space="preserve">
<style type="text/css">
	.st0{fill:#FFFFFF;}
	.st1{fill:#CCE7FF;}
	.st2{fill:none;stroke:#1078FF;stroke-linecap:round;stroke-linejoin:round;stroke-miterlimit:10;}
	.st3{fill:none;stroke:#1078FF;stroke-linejoin:round;stroke-miterlimit:10;}
	.st4{fill:#1078FF;}
	.st5{fill:none;}
</style>
<g id="Duotone">
	<polygon class="st0" points="21.5,13.5 21.5,6.5 14.5,6.5 14.5,13.5 12.5,13.5 12.5,7.5 0.5,7.5 0.5,21.5 11.5,21.5 12.5,21.5 
		23.5,21.5 23.5,13.5 	"/>
	<rect x="14.5" y="11.5" class="st1" width="7" height="2"/>
	<polygon class="st1" points="11.5,19.5 11.5,19 0.5,19 0.5,21.5 11.5,21.5 23.5,21.5 23.5,19.5 	"/>
	<g>
		<polyline class="st2" points="9.5,21.5 0.5,21.5 0.5,7.5 12.5,7.5 12.5,11.5 		"/>
		<rect x="11.5" y="13.5" class="st2" width="12" height="8"/>
		<rect x="14.5" y="6.5" class="st2" width="7" height="7"/>
		<polyline class="st2" points="3.5,10.5 3.5,3.5 9.5,3.5 9.5,10.5 		"/>
		<polyline class="st2" points="16.5,8.5 16.5,4.5 19.5,4.5 19.5,8.5 		"/>
		<line class="st2" x1="11.5" y1="17.5" x2="23.5" y2="17.5"/>
		<line class="st2" x1="17.5" y1="21.5" x2="17.5" y2="13.5"/>
	</g>
</g>
<g id="Frames-24px">
	<rect class="st5" width="24" height="24"/>
</g>
</svg>
