<?xml version="1.0" encoding="utf-8"?>
<!-- Generator: Adobe Illustrator 21.0.2, SVG Export Plug-In . SVG Version: 6.00 Build 0)  -->
<svg version="1.1" xmlns="http://www.w3.org/2000/svg" xmlns:xlink="http://www.w3.org/1999/xlink" x="0px" y="0px"
	 viewBox="0 0 24 24" style="enable-background:new 0 0 24 24;" xml:space="preserve">
<style type="text/css">
	.st0{fill:#FFFFFF;}
	.st1{fill:#CCE7FF;}
	.st2{fill:none;stroke:#1078FF;stroke-linecap:round;stroke-linejoin:round;stroke-miterlimit:10;}
	.st3{fill:none;stroke:#1078FF;stroke-linecap:round;stroke-linejoin:round;}
	.st4{fill:#1078FF;}
	.st5{fill:none;stroke:#1078FF;stroke-linejoin:round;stroke-miterlimit:10;}
	.st6{fill:none;}
</style>
<g id="Duotone">
	<polygon class="st0" points="14.5,5.5 14.5,1.5 7.5,1.5 7.5,5.5 3.5,5.5 3.5,19.5 7.5,19.5 7.5,23.5 14.5,23.5 14.5,19.5 
		18.5,19.5 18.5,5.5 	"/>
	<polygon class="st1" points="11,17 16,12 13.5,9 11,11 	"/>
	<polygon class="st1" points="14,9.7 16,12 11,17 8.7,14.7 3.5,19.5 18.5,19.5 18.5,5.5 	"/>
	<rect x="3.5" y="5.5" class="st2" width="15" height="14"/>
	<line class="st2" x1="7.5" y1="3.5" x2="14.5" y2="3.5"/>
	<polyline class="st2" points="7.5,5.5 7.5,1.5 14.5,1.5 14.5,5.5 	"/>
	<line class="st2" x1="7.5" y1="21.5" x2="14.5" y2="21.5"/>
	<polyline class="st2" points="7.5,19.5 7.5,23.5 14.5,23.5 14.5,19.5 	"/>
	<line class="st2" x1="18.5" y1="11.5" x2="19.5" y2="11.5"/>
	<g>
		<polygon class="st2" points="11,17 16,12 13.5,9 11,11 8.5,9 6,12 		"/>
		<polygon class="st2" points="11,17 16,12 13.5,9 11,11 8.5,9 6,12 		"/>
	</g>
	<polygon class="st2" points="11,17 16,12 13.5,9 11,11 8.5,9 6,12 	"/>
</g>
<g id="Frames-24px">
	<rect class="st6" width="24" height="24"/>
</g>
</svg>
