<?xml version="1.0" encoding="utf-8"?>
<!-- Generator: Adobe Illustrator 21.0.2, SVG Export Plug-In . SVG Version: 6.00 Build 0)  -->
<svg version="1.1" xmlns="http://www.w3.org/2000/svg" xmlns:xlink="http://www.w3.org/1999/xlink" x="0px" y="0px"
	 viewBox="0 0 24 24" style="enable-background:new 0 0 24 24;" xml:space="preserve">
<style type="text/css">
	.st0{fill:#FFFFFF;}
	.st1{fill:#CCE7FF;}
	.st2{fill:none;stroke:#1078FF;stroke-linecap:round;stroke-linejoin:round;stroke-miterlimit:10;}
	.st3{fill:none;stroke:#1078FF;stroke-linejoin:round;stroke-miterlimit:10;}
	.st4{fill:#1078FF;}
	.st5{fill:none;}
</style>
<g id="Duotone">
	<polygon class="st0" points="22.5,17.8 12,23.5 1.5,17.8 1.5,6.3 12,0.5 22.5,6.3 	"/>
	<polygon class="st1" points="20,16.5 12,21 4,16.5 1.5,17.8 12,23.5 22.5,17.8 	"/>
	<polyline class="st2" points="7.5,14.5 9.5,16.5 14.5,16.5 16.5,14.5 	"/>
	<polyline class="st2" points="6,9.5 8,8 10,9.5 	"/>
	<polyline class="st2" points="14,9.5 16,8 18,9.5 	"/>
	<polygon class="st3" points="22.5,17.8 12,23.5 1.5,17.8 1.5,6.3 12,0.5 22.5,6.3 	"/>
</g>
<g id="Frames-24px">
	<rect class="st5" width="24" height="24"/>
</g>
</svg>
