<?xml version="1.0" encoding="utf-8"?>
<!-- Generator: Adobe Illustrator 21.0.2, SVG Export Plug-In . SVG Version: 6.00 Build 0)  -->
<svg version="1.1" xmlns="http://www.w3.org/2000/svg" xmlns:xlink="http://www.w3.org/1999/xlink" x="0px" y="0px" width="24px"
	 height="24px" viewBox="0 0 24 24" enable-background="new 0 0 24 24" xml:space="preserve">
<g id="Duotone">
	<polygon fill="#FFFFFF" points="8.5,7.5 8.5,3.5 4.5,3.5 4.5,7.5 1.5,7.5 1.5,23.5 11.5,23.5 11.5,7.5 	"/>
	<polygon fill="#FFFFFF" points="21,1.5 18,2.25 16.983,4.284 10.5,5.5 16.983,6.716 18,8.75 21,9.5 23.5,5.5 	"/>
	<rect x="6.5" y="7.5" fill="#CCE7FF" width="5" height="16"/>
	<rect x="6.5" y="3.5" fill="#CCE7FF" width="2" height="4"/>
	<polygon fill="#CCE7FF" points="10.5,5.5 16.983,6.715 18,8.75 21,9.5 23.5,5.5 	"/>
	<polyline fill="none" stroke="#1078FF" stroke-linecap="round" stroke-linejoin="round" stroke-miterlimit="10" points="18.5,7 
		10.5,5.5 18.5,4 	"/>
	<polyline fill="none" stroke="#1078FF" stroke-linecap="round" stroke-linejoin="round" stroke-miterlimit="10" points="
		16.983,4.285 18,2.25 21,1.5 23.5,5.5 21,9.5 18,8.75 16.983,6.715 	"/>
	
		<line fill="#FFFFFF" stroke="#1078FF" stroke-linecap="round" stroke-linejoin="round" stroke-miterlimit="10" x1="1.5" y1="23.5" x2="11.5" y2="13.5"/>
	
		<rect x="1.5" y="7.5" fill="none" stroke="#1078FF" stroke-linecap="round" stroke-linejoin="round" stroke-miterlimit="10" width="10" height="16"/>
	<polyline fill="none" stroke="#1078FF" stroke-linecap="round" stroke-linejoin="round" stroke-miterlimit="10" points="4.5,7.5 
		4.5,3.5 8.5,3.5 8.5,7.5 	"/>
	
		<line fill="none" stroke="#1078FF" stroke-linecap="round" stroke-linejoin="round" stroke-miterlimit="10" x1="8.5" y1="5.5" x2="6.5" y2="5.5"/>
	
		<line fill="none" stroke="#1078FF" stroke-linecap="round" stroke-linejoin="round" stroke-miterlimit="10" x1="1.5" y1="17.5" x2="11.5" y2="7.5"/>
</g>
<g id="Frames-24px">
	<rect fill="none" width="24" height="24"/>
</g>
</svg>
