<?xml version="1.0" encoding="utf-8"?>
<!-- Generator: Adobe Illustrator 21.0.2, SVG Export Plug-In . SVG Version: 6.00 Build 0)  -->
<svg version="1.1" xmlns="http://www.w3.org/2000/svg" xmlns:xlink="http://www.w3.org/1999/xlink" x="0px" y="0px"
	 viewBox="0 0 24 24" style="enable-background:new 0 0 24 24;" xml:space="preserve">
<style type="text/css">
	.st0{fill:#FFFFFF;}
	.st1{fill:none;stroke:#CCE7FF;stroke-linecap:round;stroke-linejoin:round;stroke-miterlimit:10;}
	.st2{fill:#CCE7FF;}
	.st3{fill:none;stroke:#1078FF;stroke-linecap:round;stroke-linejoin:round;stroke-miterlimit:10;}
	.st4{fill:none;}
</style>
<g id="Duotone">
	<polygon class="st0" points="19.5,10.5 19.5,4 11.5,0.5 3.5,4 3.5,10.5 1.5,10.5 1.5,14.5 3.5,15.5 3.5,19 11.5,23.5 19.5,19 
		19.5,15.5 21.5,14.5 21.5,10.5 	"/>
	<line class="st1" x1="5.5" y1="5.3" x2="7.5" y2="4.5"/>
	<polygon class="st2" points="13.9,3.1 11.5,2 9.1,3.1 8,2 11.5,5.5 15,2 	"/>
	<polygon class="st2" points="15,17.5 11.5,15.5 8,17.5 3.5,15 3.5,19 11.5,23.5 19.5,19 19.5,15 	"/>
	<polygon class="st2" points="10.5,10 10.5,12 9,13.5 7,13.5 5.5,12 	"/>
	<polygon class="st2" points="17.5,10 17.5,12 16,13.5 14,13.5 12.5,12 	"/>
	<polyline class="st3" points="3.5,10.5 1.5,10.5 1.5,14.5 3.5,15.5 	"/>
	<polyline class="st3" points="19.5,10.5 21.5,10.5 21.5,14.5 19.5,15.5 	"/>
	<line class="st3" x1="10.5" y1="10.5" x2="12.5" y2="10.5"/>
	<polyline class="st3" points="3.5,15 8,17.5 11.5,15.5 15,17.5 19.5,15 	"/>
	<line class="st3" x1="10.5" y1="18.5" x2="12.5" y2="18.5"/>
	<polygon class="st3" points="19.5,19 11.5,23.5 3.5,19 3.5,4 11.5,0.5 19.5,4 	"/>
	<polygon class="st3" points="7,13.5 5.5,12 5.5,10 7,8.5 9,8.5 10.5,10 10.5,12 9,13.5 	"/>
	<polygon class="st3" points="14,13.5 12.5,12 12.5,10 14,8.5 16,8.5 17.5,10 17.5,12 16,13.5 	"/>
	<polygon class="st3" points="15,2 11.5,5.5 8,2 11.5,0.5 	"/>
</g>
<g id="Frames-24px">
	<rect class="st4" width="24" height="24"/>
</g>
</svg>
