<?xml version="1.0" encoding="utf-8"?>
<!-- Generator: Adobe Illustrator 21.0.2, SVG Export Plug-In . SVG Version: 6.00 Build 0)  -->
<svg version="1.1" xmlns="http://www.w3.org/2000/svg" xmlns:xlink="http://www.w3.org/1999/xlink" x="0px" y="0px"
	 viewBox="0 0 24 24" style="enable-background:new 0 0 24 24;" xml:space="preserve">
<style type="text/css">
	.st0{fill:none;stroke:#58595B;stroke-linecap:round;stroke-linejoin:round;stroke-miterlimit:10;}
	.st1{fill:#FFFFFF;}
	.st2{fill:#CCE7FF;}
	.st3{fill:none;stroke:#1078FF;stroke-linecap:round;stroke-linejoin:round;stroke-miterlimit:10;}
	.st4{fill:none;}
</style>
<g id="Black">
	<g>
		<polyline class="st0" points="15.5,13.7 16,10 19.5,8.5 13,1.5 8,1.5 1.5,8.5 5,10 5.5,13.7 		"/>
		<polygon class="st0" points="13,23.5 20.5,17.5 12.5,11.5 8.5,11.5 0.5,17.5 8,23.5 		"/>
		<line class="st0" x1="20.5" y1="17.5" x2="0.5" y2="17.5"/>
		<polyline class="st0" points="8.5,11.5 10.5,8 12.5,11.5 		"/>
		<polyline class="st0" points="16.5,14.5 22,12 22.5,13.5 20,15 20,17.1 		"/>
		<line class="st0" x1="6.1" y1="3.5" x2="14.9" y2="3.5"/>
		<polyline class="st0" points="22.5,10 23.5,9 21.5,7 22.5,6 		"/>
	</g>
</g>
<g id="Duotone">
	<polygon class="st1" points="13,23.5 20.5,17.5 12.5,11.5 8.5,11.5 0.5,17.5 8,23.5 	"/>
	<polygon class="st1" points="16.5,14.5 22,12 22.5,13.5 20,15 20,17.1 	"/>
	<polygon class="st2" points="8.5,11.5 10.5,8 12.5,11.5 	"/>
	<polygon class="st2" points="14.9,3.5 13,1.5 8,1.5 6.1,3.5 	"/>
	<polygon class="st2" points="10.5,23.5 13,23.5 20.5,17.5 12.5,11.5 10.5,11.5 	"/>
	<g>
		<polyline class="st3" points="15.5,13.7 16,10 19.5,8.5 13,1.5 8,1.5 1.5,8.5 5,10 5.5,13.7 		"/>
		<polygon class="st3" points="13,23.5 20.5,17.5 12.5,11.5 8.5,11.5 0.5,17.5 8,23.5 		"/>
		<line class="st3" x1="20.5" y1="17.5" x2="0.5" y2="17.5"/>
		<polyline class="st3" points="8.5,11.5 10.5,8 12.5,11.5 		"/>
		<polyline class="st3" points="16.5,14.5 22,12 22.5,13.5 20,15 20,17.1 		"/>
		<line class="st3" x1="6.1" y1="3.5" x2="14.9" y2="3.5"/>
		<polyline class="st3" points="22.5,10 23.5,9 21.5,7 22.5,6 		"/>
	</g>
</g>
<g id="Frames-24px">
	<rect class="st4" width="24" height="24"/>
</g>
</svg>
