<?xml version="1.0" encoding="utf-8"?>
<!-- Generator: Adobe Illustrator 21.0.2, SVG Export Plug-In . SVG Version: 6.00 Build 0)  -->
<svg version="1.1" xmlns="http://www.w3.org/2000/svg" xmlns:xlink="http://www.w3.org/1999/xlink" x="0px" y="0px"
	 viewBox="0 0 24 24" style="enable-background:new 0 0 24 24;" xml:space="preserve">
<style type="text/css">
	.st0{fill:#FFFFFF;}
	.st1{fill:#CCE7FF;}
	.st2{fill:none;stroke:#1078FF;stroke-linecap:round;stroke-linejoin:round;stroke-miterlimit:10;}
	.st3{fill:#1078FF;}
	.st4{fill:none;}
</style>
<g id="Duotone">
	<polygon class="st0" points="19.5,20.5 4.5,20.5 4.5,7.5 12,4.5 19.5,7.5 	"/>
	<path class="st1" d="M15.5,1.5h-7l-8,3v17h23v-17L15.5,1.5z M19.5,20.5h-15v-13l7.5-3l7.5,3V20.5z"/>
	<polygon class="st1" points="14.5,8.5 9.5,13.5 14.5,13.5 	"/>
	<line class="st2" x1="4" y1="23.5" x2="6" y2="20.5"/>
	<line class="st2" x1="20" y1="23.5" x2="18" y2="20.5"/>
	<polygon class="st2" points="19.5,20.5 4.5,20.5 4.5,7.5 12,4.5 19.5,7.5 	"/>
	<polyline class="st2" points="23.5,21.5 23.5,4.5 15.5,1.5 8.5,1.5 0.5,4.5 0.5,21.5 	"/>
	<rect x="9.5" y="8.5" class="st2" width="5" height="12"/>
	<line class="st2" x1="9.5" y1="13.5" x2="14.5" y2="13.5"/>
	<line class="st2" x1="6.5" y1="9.5" x2="6.5" y2="13.5"/>
	<line class="st2" x1="17.5" y1="10" x2="17.5" y2="13.5"/>
	<line class="st2" x1="4.7" y1="22.5" x2="19.3" y2="22.5"/>
	<line class="st2" x1="6.5" y1="16.5" x2="6.5" y2="17.5"/>
	<line class="st2" x1="17.5" y1="16.5" x2="17.5" y2="17.5"/>
</g>
<g id="Frames-24px">
	<rect class="st4" width="24" height="24"/>
</g>
</svg>
