<?xml version="1.0" encoding="utf-8"?>
<!-- Generator: Adobe Illustrator 21.0.2, SVG Export Plug-In . SVG Version: 6.00 Build 0)  -->
<svg version="1.1" xmlns="http://www.w3.org/2000/svg" xmlns:xlink="http://www.w3.org/1999/xlink" x="0px" y="0px"
	 viewBox="0 0 24 24" style="enable-background:new 0 0 24 24;" xml:space="preserve">
<style type="text/css">
	.st0{fill:#FFFFFF;}
	.st1{fill:#CCE7FF;}
	.st2{fill:none;stroke:#1078FF;stroke-linecap:round;stroke-linejoin:round;stroke-miterlimit:10;}
	.st3{fill:#1078FF;}
	.st4{fill:none;}
</style>
<g id="Duotone">
	<polyline class="st0" points="22.5,6.5 7.3,6.5 0.5,14.5 3.9,20.5 22.5,20.5 	"/>
	<polygon class="st1" points="8.5,9.5 8.5,14.5 0.5,14.5 	"/>
	<path class="st1" d="M11.5,18.5v-0.4c0-0.9,0-0.4,0-6.9h5v7.3H11.5z"/>
	<polygon class="st1" points="22.5,9.5 19.5,14.5 22.5,14.5 	"/>
	<polyline class="st2" points="22.5,6.5 7.3,6.5 0.5,14.5 3.9,20.5 22.5,20.5 	"/>
	<polygon class="st2" points="4.7,9.5 8.5,9.5 8.5,14.5 0.5,14.5 	"/>
	<polyline class="st2" points="22.5,9.5 19.5,9.5 19.5,14.5 22.5,14.5 	"/>
	<polyline class="st2" points="13.7,6.5 16.5,4.5 13,1.5 	"/>
	<path class="st2" d="M11.5,18.5V18c0-1.1,0-0.4,0-8.5h5v9H11.5z"/>
	<line class="st2" x1="10" y1="1.5" x2="16.5" y2="1.5"/>
	<line class="st2" x1="22.5" y1="18.5" x2="2.7" y2="18.5"/>
</g>
<g id="Frames-24px">
	<rect class="st4" width="24" height="24"/>
</g>
</svg>
