<?xml version="1.0" encoding="utf-8"?>
<!-- Generator: Adobe Illustrator 21.0.2, SVG Export Plug-In . SVG Version: 6.00 Build 0)  -->
<svg version="1.1" xmlns="http://www.w3.org/2000/svg" xmlns:xlink="http://www.w3.org/1999/xlink" x="0px" y="0px"
	 viewBox="0 0 24 24" style="enable-background:new 0 0 24 24;" xml:space="preserve">
<style type="text/css">
	.st0{fill:#FFFFFF;}
	.st1{fill:#CCE7FF;}
	.st2{fill:none;stroke:#1078FF;stroke-linecap:round;stroke-linejoin:round;stroke-miterlimit:10;}
	.st3{fill:#1078FF;}
	.st4{fill:none;}
</style>
<g id="Duotone">
	<polyline class="st0" points="8.5,20.5 7,15.5 2.5,15.5 0.5,20.5 	"/>
	<polygon class="st0" points="23.5,20.5 22,14.5 22.5,11.5 11.5,11.5 11.5,13.5 14.3,16.3 15.5,14.5 11.7,20.5 	"/>
	<polyline class="st1" points="6.5,20.5 6.5,22.3 4.5,23.5 2.5,22.3 2.5,20.5 	"/>
	<polyline class="st1" points="21.5,20.5 21.5,22.3 19.5,23.5 17.5,22.3 17.5,20.5 	"/>
	<polyline class="st1" points="8.1,7.3 4.5,5.5 4.5,10 8,8.3 	"/>
	<polygon class="st1" points="11.7,20.5 21.5,20.5 20.5,16.5 14.2,16.5 	"/>
	<polygon class="st1" points="6.5,20.5 5.5,17.5 4,17.5 2.7,20.5 	"/>
	<polygon class="st1" points="11.5,13 11.5,13.5 14.3,16.3 15.5,14.5 22,14.5 22.3,13 	"/>
	<polyline class="st2" points="6.5,20.5 6.5,22.3 4.5,23.5 2.5,22.3 2.5,20.5 	"/>
	<polyline class="st2" points="21.5,20.5 21.5,22.3 19.5,23.5 17.5,22.3 17.5,20.5 	"/>
	<polyline class="st2" points="10.5,4.5 8.5,4.5 7,15.5 	"/>
	<polyline class="st2" points="8.1,7.3 4.5,5.5 4.5,10 8,8.3 	"/>
	<polyline class="st2" points="8.5,20.5 7,15.5 2.5,15.5 0.5,20.5 	"/>
	<polygon class="st2" points="11.7,20.5 15.5,14.5 22,14.5 23.5,20.5 	"/>
	<line class="st2" x1="17.5" y1="16.5" x2="19.5" y2="16.5"/>
	<polygon class="st2" points="14.3,16.3 11.5,13.5 11.5,11.5 22.5,11.5 22,14.5 15.5,14.5 	"/>
	<line class="st2" x1="12" y1="20.5" x2="0.5" y2="20.5"/>
</g>
<g id="Frames-24px">
	<rect class="st4" width="24" height="24"/>
</g>
</svg>
