<?xml version="1.0" encoding="utf-8"?>
<!-- Generator: Adobe Illustrator 21.0.2, SVG Export Plug-In . SVG Version: 6.00 Build 0)  -->
<svg version="1.1" xmlns="http://www.w3.org/2000/svg" xmlns:xlink="http://www.w3.org/1999/xlink" x="0px" y="0px"
	 viewBox="0 0 24 24" style="enable-background:new 0 0 24 24;" xml:space="preserve">
<style type="text/css">
	.st0{fill:#FFFFFF;}
	.st1{fill:#CCE7FF;}
	.st2{fill:none;stroke:#1078FF;stroke-linecap:round;stroke-linejoin:round;stroke-miterlimit:10;}
	.st3{fill:none;stroke:#1078FF;stroke-linejoin:round;stroke-miterlimit:10;}
	.st4{fill:#1078FF;}
	.st5{fill:none;}
</style>
<g id="Duotone">
	<polygon class="st0" points="23.5,9.5 19.5,9.5 19.5,4.5 0.5,4.5 0.5,21.5 19.5,21.5 19.5,15.5 23.5,15.5 	"/>
	<rect x="0.5" y="19.5" class="st1" width="19" height="2"/>
	<g>
		<polygon class="st1" points="19.5,9.5 21.5,9.5 21.5,2.5 3,2.5 0.5,4.5 19.5,4.5 		"/>
		<rect x="19.5" y="15.5" class="st1" width="2" height="4"/>
	</g>
	<g>
		<polyline class="st2" points="19.5,15.5 19.5,21.5 0.5,21.5 0.5,4.5 19.5,4.5 19.5,9.5 		"/>
		<polyline class="st2" points="21.5,15.5 21.5,19.5 19.5,19.5 		"/>
		<polyline class="st2" points="0.5,4.5 3,2.5 21.5,2.5 21.5,9.5 		"/>
		<line class="st2" x1="17.5" y1="12.5" x2="18.5" y2="12.5"/>
		<polygon class="st3" points="16.5,15.5 23.5,15.5 23.5,9.5 16.5,9.5 14,12.5 		"/>
	</g>
</g>
<g id="Frames-24px">
	<rect class="st5" width="24" height="24"/>
</g>
</svg>
