<?xml version="1.0" encoding="utf-8"?>
<!-- Generator: Adobe Illustrator 21.0.2, SVG Export Plug-In . SVG Version: 6.00 Build 0)  -->
<svg version="1.1" xmlns="http://www.w3.org/2000/svg" xmlns:xlink="http://www.w3.org/1999/xlink" x="0px" y="0px" width="24px"
	 height="24px" viewBox="0 0 24 24" enable-background="new 0 0 24 24" xml:space="preserve">
<g id="Black">
	<g>
		<polyline fill="none" stroke="#58595B" stroke-linejoin="round" stroke-miterlimit="10" points="21.5,15.5 23.5,15.5 21,9.5 
			18.5,9.5 16,3.5 0.5,3.5 4,15.5 5.5,15.5 		"/>
		<polygon fill="none" stroke="#58595B" stroke-linejoin="round" stroke-miterlimit="10" points="18.5,16.25 20,17.25 21.5,16.25 
			21.5,14.75 20,13.75 18.5,14.75 		"/>
		<polygon fill="none" stroke="#58595B" stroke-linejoin="round" stroke-miterlimit="10" points="5.5,16.25 7,17.25 8.5,16.25 
			8.5,14.75 7,13.75 5.5,14.75 		"/>
		<line fill="none" stroke="#58595B" stroke-linejoin="round" stroke-miterlimit="10" x1="18.5" y1="15.5" x2="8.5" y2="15.5"/>
		<line fill="none" stroke="#58595B" stroke-linejoin="round" stroke-miterlimit="10" x1="18.5" y1="9.5" x2="14.083" y2="9.5"/>
		<line fill="none" stroke="#58595B" stroke-linejoin="round" stroke-miterlimit="10" x1="12.083" y1="3.5" x2="16.083" y2="15.5"/>
		<line fill="none" stroke="#58595B" stroke-linejoin="round" stroke-miterlimit="10" x1="10.085" y1="15.5" x2="6" y2="3.5"/>
		
			<line fill="none" stroke="#58595B" stroke-linecap="round" stroke-linejoin="round" stroke-miterlimit="10" x1="11.5" y1="9.5" x2="10" y2="9.5"/>
		
			<line fill="none" stroke="#58595B" stroke-linecap="round" stroke-linejoin="round" stroke-miterlimit="10" x1="3.708" y1="14.5" x2="2.5" y2="14.5"/>
		
			<line fill="none" stroke="#58595B" stroke-linecap="round" stroke-linejoin="round" stroke-miterlimit="10" x1="3.5" y1="20.5" x2="1.5" y2="20.5"/>
		
			<line fill="none" stroke="#58595B" stroke-linecap="round" stroke-linejoin="round" stroke-miterlimit="10" x1="8.5" y1="20.5" x2="6.5" y2="20.5"/>
		
			<line fill="none" stroke="#58595B" stroke-linecap="round" stroke-linejoin="round" stroke-miterlimit="10" x1="13.5" y1="20.5" x2="11.5" y2="20.5"/>
		
			<line fill="none" stroke="#58595B" stroke-linecap="round" stroke-linejoin="round" stroke-miterlimit="10" x1="18.5" y1="20.5" x2="16.5" y2="20.5"/>
		
			<line fill="none" stroke="#58595B" stroke-linecap="round" stroke-linejoin="round" stroke-miterlimit="10" x1="23.5" y1="20.5" x2="21.5" y2="20.5"/>
	</g>
</g>
<g id="Frames-24px">
	<rect fill="none" width="24" height="24"/>
</g>
</svg>
