<?xml version="1.0" encoding="utf-8"?>
<!-- Generator: Adobe Illustrator 21.0.2, SVG Export Plug-In . SVG Version: 6.00 Build 0)  -->
<svg version="1.1" xmlns="http://www.w3.org/2000/svg" xmlns:xlink="http://www.w3.org/1999/xlink" x="0px" y="0px" width="24px"
	 height="24px" viewBox="0 0 24 24" enable-background="new 0 0 24 24" xml:space="preserve">
<g id="Black">
	<g>
		<polygon fill="none" stroke="#58595B" stroke-linejoin="round" stroke-miterlimit="10" points="4.25,11.5 1.5,6.5 4.25,1.5 
			9.75,1.5 12.5,6.5 9.75,11.5 		"/>
		<polygon fill="none" stroke="#58595B" stroke-linejoin="round" stroke-miterlimit="10" points="15.75,11.5 14,8.5 15.75,5.5 
			19.25,5.5 21,8.5 19.25,11.5 		"/>
		<rect x="5.5" y="13.5" fill="none" stroke="#58595B" stroke-linejoin="round" stroke-miterlimit="10" width="11" height="6"/>
		<polyline fill="none" stroke="#58595B" stroke-linecap="round" stroke-linejoin="round" stroke-miterlimit="10" points="6.5,23.5 
			10.5,19.5 14.5,23.5 		"/>
		<polygon fill="none" stroke="#58595B" stroke-linejoin="round" stroke-miterlimit="10" points="16.5,16.499 21.5,13.5 21.5,19.5 
					"/>
		<g>
			<path fill="#58595B" d="M6.999,5.501c-0.051,0-0.102,0.02-0.141,0.059L6.059,6.359c-0.078,0.078-0.078,0.205,0,0.283l0.799,0.799
				C6.897,7.48,6.948,7.5,6.999,7.5s0.102-0.02,0.141-0.059L7.94,6.642c0.078-0.078,0.078-0.205,0-0.283L7.141,5.56
				C7.102,5.521,7.051,5.501,6.999,5.501L6.999,5.501z"/>
		</g>
		<g>
			<path fill="#58595B" d="M17.499,7.501c-0.051,0-0.102,0.02-0.141,0.059l-0.799,0.799c-0.078,0.078-0.078,0.205,0,0.283
				l0.799,0.799C17.397,9.48,17.448,9.5,17.499,9.5c0.051,0,0.102-0.02,0.141-0.059l0.799-0.799c0.078-0.078,0.078-0.205,0-0.283
				L17.641,7.56C17.602,7.521,17.551,7.501,17.499,7.501L17.499,7.501z"/>
		</g>
	</g>
</g>
<g id="Frames-24px">
	<rect fill="none" width="24" height="24"/>
</g>
</svg>
