<?xml version="1.0" encoding="utf-8"?>
<!-- Generator: Adobe Illustrator 21.0.2, SVG Export Plug-In . SVG Version: 6.00 Build 0)  -->
<svg version="1.1" xmlns="http://www.w3.org/2000/svg" xmlns:xlink="http://www.w3.org/1999/xlink" x="0px" y="0px" width="24px"
	 height="24px" viewBox="0 0 24 24" enable-background="new 0 0 24 24" xml:space="preserve">
<g id="Black">
	<g>
		<polyline fill="none" stroke="#58595B" stroke-linecap="round" stroke-linejoin="round" stroke-miterlimit="10" points="6.5,20.5 
			6.5,22.25 4.5,23.5 2.5,22.25 2.5,20.5 		"/>
		<polyline fill="none" stroke="#58595B" stroke-linecap="round" stroke-linejoin="round" stroke-miterlimit="10" points="
			21.5,20.5 21.5,22.25 19.5,23.5 17.5,22.25 17.5,20.5 		"/>
		<polyline fill="none" stroke="#58595B" stroke-linecap="round" stroke-linejoin="round" stroke-miterlimit="10" points="
			14.332,16.336 11.5,13.5 11.5,11.5 22.5,11.5 22,14.5 23.5,20.5 0.5,20.5 		"/>
		<polyline fill="none" stroke="#58595B" stroke-linecap="round" stroke-linejoin="round" stroke-miterlimit="10" points="10.5,4.5 
			8.5,4.5 7,15.5 		"/>
		<polyline fill="none" stroke="#58595B" stroke-linecap="round" stroke-linejoin="round" stroke-miterlimit="10" points="
			8.117,7.309 4.5,5.5 4.5,10 7.988,8.256 		"/>
		<polyline fill="none" stroke="#58595B" stroke-linecap="round" stroke-linejoin="round" stroke-miterlimit="10" points="8.5,20.5 
			7,15.5 2.5,15.5 0.5,20.5 		"/>
		<polyline fill="none" stroke="#58595B" stroke-linecap="round" stroke-linejoin="round" stroke-miterlimit="10" points="
			11.682,20.5 15.5,14.5 22,14.5 		"/>
		
			<line fill="none" stroke="#58595B" stroke-linecap="round" stroke-linejoin="round" stroke-miterlimit="10" x1="17.5" y1="16.5" x2="19.5" y2="16.5"/>
	</g>
</g>
<g id="Frames-24px">
	<rect fill="none" width="24" height="24"/>
</g>
</svg>
