<?xml version="1.0" encoding="utf-8"?>
<!-- Generator: Adobe Illustrator 21.0.2, SVG Export Plug-In . SVG Version: 6.00 Build 0)  -->
<svg version="1.1" xmlns="http://www.w3.org/2000/svg" xmlns:xlink="http://www.w3.org/1999/xlink" x="0px" y="0px" width="24px"
	 height="24px" viewBox="0 0 24 24" enable-background="new 0 0 24 24" xml:space="preserve">
<g id="Black">
	<g>
		<g>
			<polyline fill="none" stroke="#58595B" stroke-linecap="round" stroke-linejoin="round" stroke-miterlimit="10" points="6,8 
				7.5,9.5 11.5,9.5 13,8 			"/>
			
				<line fill="none" stroke="#58595B" stroke-linecap="round" stroke-linejoin="round" stroke-miterlimit="10" x1="7.5" y1="4.5" x2="7.5" y2="5.378"/>
			
				<line fill="none" stroke="#58595B" stroke-linecap="round" stroke-linejoin="round" stroke-miterlimit="10" x1="11.5" y1="4.5" x2="11.5" y2="5.378"/>
		</g>
		<g>
			<polyline fill="none" stroke="#58595B" stroke-linecap="round" stroke-linejoin="round" stroke-miterlimit="10" points="
				8.5,14.5 4.5,14.5 0.5,18.5 0.5,1.5 18.5,1.5 18.5,9.5 			"/>
			<polygon fill="none" stroke="#58595B" stroke-linecap="round" stroke-linejoin="round" stroke-miterlimit="10" points="
				22.5,11.5 10.5,11.5 10.5,20.5 19.5,20.5 22.5,23.5 			"/>
		</g>
		<g>
			<g>
				<g>
					<path fill="#58595B" d="M13.999,14.501c-0.051,0-0.102,0.019-0.141,0.059l-0.799,0.799c-0.078,0.078-0.078,0.205,0,0.283
						l0.799,0.799c0.039,0.039,0.09,0.059,0.141,0.059c0.051,0,0.102-0.019,0.142-0.059l0.799-0.799
						c0.078-0.078,0.078-0.205,0-0.283l-0.799-0.799C14.102,14.52,14.05,14.501,13.999,14.501L13.999,14.501z"/>
				</g>
				<g>
					<path fill="#58595B" d="M17,14.501c-0.051,0-0.102,0.019-0.141,0.059l-0.8,0.799c-0.078,0.078-0.078,0.205,0,0.283l0.8,0.799
						c0.039,0.039,0.09,0.059,0.141,0.059s0.102-0.019,0.141-0.059l0.8-0.799c0.078-0.078,0.078-0.205,0-0.283l-0.8-0.799
						C17.102,14.52,17.051,14.501,17,14.501L17,14.501z"/>
				</g>
				<g>
					<path fill="#58595B" d="M20,14.501c-0.051,0-0.102,0.019-0.141,0.059l-0.8,0.799c-0.078,0.078-0.078,0.205,0,0.283l0.8,0.799
						c0.039,0.039,0.09,0.059,0.141,0.059s0.102-0.019,0.141-0.059l0.8-0.799c0.078-0.078,0.078-0.205,0-0.283l-0.8-0.799
						C20.102,14.52,20.051,14.501,20,14.501L20,14.501z"/>
				</g>
			</g>
		</g>
	</g>
</g>
<g id="Frames-24px">
	<rect fill="none" width="24" height="24"/>
</g>
</svg>
