<?xml version="1.0" encoding="utf-8"?>
<!-- Generator: Adobe Illustrator 21.0.2, SVG Export Plug-In . SVG Version: 6.00 Build 0)  -->
<svg version="1.1" xmlns="http://www.w3.org/2000/svg" xmlns:xlink="http://www.w3.org/1999/xlink" x="0px" y="0px" width="24px"
	 height="24px" viewBox="0 0 24 24" enable-background="new 0 0 24 24" xml:space="preserve">
<g id="Black">
	<g>
		<polygon fill="none" stroke="#58595B" stroke-linecap="round" stroke-linejoin="round" stroke-miterlimit="10" points="
			8.985,23.5 0.5,15.015 15.349,0.5 23.5,8.651 		"/>
		<g>
			<path fill="#58595B" d="M5.566,15.266h0.005H5.566 M5,14.501c-0.051,0-0.102,0.019-0.141,0.059l-0.799,0.799
				c-0.078,0.078-0.078,0.205,0,0.283l0.799,0.799C4.898,16.48,4.949,16.499,5,16.499c0.051,0,0.102-0.019,0.141-0.059l0.799-0.799
				c0.078-0.078,0.078-0.205,0-0.283l-0.799-0.799C5.102,14.52,5.051,14.501,5,14.501L5,14.501z"/>
		</g>
		
			<line fill="none" stroke="#58595B" stroke-linecap="round" stroke-linejoin="round" stroke-miterlimit="10" x1="7.895" y1="7.786" x2="16.452" y2="15.861"/>
		<g>
			<path fill="#58595B" d="M9.066,18.766h0.005H9.066 M8.5,18.001c-0.051,0-0.102,0.019-0.141,0.059l-0.799,0.799
				c-0.078,0.078-0.078,0.205,0,0.283l0.799,0.799c0.039,0.039,0.09,0.059,0.141,0.059c0.051,0,0.102-0.019,0.141-0.059l0.799-0.799
				c0.078-0.078,0.078-0.205,0-0.283l-0.799-0.799C8.602,18.02,8.551,18.001,8.5,18.001L8.5,18.001z"/>
		</g>
		<g>
			<path fill="#58595B" d="M8.566,12.266h0.005H8.566 M8,11.501c-0.051,0-0.102,0.019-0.141,0.059l-0.799,0.799
				c-0.078,0.078-0.078,0.205,0,0.283l0.799,0.799C7.898,13.48,7.949,13.499,8,13.499c0.051,0,0.102-0.019,0.141-0.059l0.799-0.799
				c0.078-0.078,0.078-0.205,0-0.283l-0.799-0.799C8.102,11.52,8.051,11.501,8,11.501L8,11.501z"/>
		</g>
		<g>
			<path fill="#58595B" d="M13.066,7.766h0.005H13.066 M12.5,7.001c-0.051,0-0.102,0.02-0.141,0.059l-0.799,0.799
				c-0.078,0.078-0.078,0.205,0,0.283l0.799,0.799c0.039,0.039,0.09,0.059,0.141,0.059c0.051,0,0.102-0.019,0.141-0.059l0.799-0.799
				c0.078-0.078,0.078-0.205,0-0.283l-0.799-0.799C12.602,7.02,12.551,7.001,12.5,7.001L12.5,7.001z"/>
		</g>
		<g>
			<path fill="#58595B" d="M20.066,7.766h0.005H20.066 M19.5,7.001c-0.051,0-0.102,0.02-0.141,0.059l-0.799,0.799
				c-0.078,0.078-0.078,0.205,0,0.283l0.799,0.799c0.039,0.039,0.09,0.059,0.141,0.059c0.051,0,0.102-0.019,0.141-0.059l0.799-0.799
				c0.078-0.078,0.078-0.205,0-0.283l-0.799-0.799C19.602,7.02,19.551,7.001,19.5,7.001L19.5,7.001z"/>
		</g>
	</g>
</g>
<g id="Frames-24px">
	<rect fill="none" width="24" height="24"/>
</g>
</svg>
