<?xml version="1.0" encoding="utf-8"?>
<!-- Generator: Adobe Illustrator 21.0.2, SVG Export Plug-In . SVG Version: 6.00 Build 0)  -->
<svg version="1.1" xmlns="http://www.w3.org/2000/svg" xmlns:xlink="http://www.w3.org/1999/xlink" x="0px" y="0px" width="24px"
	 height="24px" viewBox="0 0 24 24" enable-background="new 0 0 24 24" xml:space="preserve">
<g id="Black">
	<g>
		<polyline fill="none" stroke="#58595B" stroke-linecap="round" stroke-linejoin="round" stroke-miterlimit="10" points="15.5,4.5 
			0.5,4.5 0.5,23.5 22.5,23.5 22.5,7.5 		"/>
		<polygon fill="none" stroke="#58595B" stroke-linecap="round" stroke-linejoin="round" stroke-miterlimit="10" points="
			21.5,5.441 19.5,7.5 17.5,5.441 17.5,1.5 21.5,1.5 		"/>
		<polyline fill="none" stroke="#58595B" stroke-linecap="round" stroke-linejoin="round" stroke-miterlimit="10" points="19.5,7.5 
			19.5,20.5 18.5,21.5 17.5,20.5 17.5,18.5 19.5,18.5 		"/>
		<polygon fill="none" stroke="#58595B" stroke-linejoin="round" stroke-miterlimit="10" points="15.5,18 9,21.5 2.5,18 2.5,10 
			9,6.5 15.5,10 		"/>
		
			<rect x="7.939" y="12.939" transform="matrix(0.7071 -0.7071 0.7071 0.7071 -7.2635 10.4645)" fill="none" stroke="#58595B" stroke-linecap="round" stroke-linejoin="round" stroke-miterlimit="10" width="2.121" height="2.121"/>
		<polyline fill="none" stroke="#58595B" stroke-linecap="round" stroke-linejoin="round" stroke-miterlimit="10" points="
			4.5,13.559 4.5,11.392 6.056,10.511 		"/>
		<polyline fill="none" stroke="#58595B" stroke-linecap="round" stroke-linejoin="round" stroke-miterlimit="10" points="
			13.5,15.059 13.5,16.726 11.944,17.607 		"/>
		
			<line fill="none" stroke="#58595B" stroke-linecap="round" stroke-linejoin="round" stroke-miterlimit="10" x1="17.5" y1="3.5" x2="21.5" y2="3.5"/>
		
			<line fill="none" stroke="#58595B" stroke-linecap="round" stroke-linejoin="round" stroke-miterlimit="10" x1="2.5" y1="21.5" x2="3.5" y2="21.5"/>
	</g>
</g>
<g id="Frames-24px">
	<rect fill="none" width="24" height="24"/>
</g>
</svg>
