<?xml version="1.0" encoding="utf-8"?>
<!-- Generator: Adobe Illustrator 21.0.2, SVG Export Plug-In . SVG Version: 6.00 Build 0)  -->
<svg version="1.1" xmlns="http://www.w3.org/2000/svg" xmlns:xlink="http://www.w3.org/1999/xlink" x="0px" y="0px" width="24px"
	 height="24px" viewBox="0 0 24 24" enable-background="new 0 0 24 24" xml:space="preserve">
<g id="Black">
	<g>
		<polygon fill="none" stroke="#58595B" stroke-linejoin="round" stroke-miterlimit="10" points="6.5,12.5 6.5,23.5 3.5,19.5 
			3.5,16.5 		"/>
		<polyline fill="none" stroke="#58595B" stroke-linejoin="round" stroke-miterlimit="10" points="4.504,6.259 0.5,8 3.5,12.941 
			3.5,16.5 		"/>
		<polyline fill="none" stroke="#58595B" stroke-linejoin="round" stroke-miterlimit="10" points="3.5,16.5 1.5,16.5 1.5,19.5 
			3.5,19.5 		"/>
		<polyline fill="none" stroke="#58595B" stroke-linejoin="round" stroke-miterlimit="10" points="6.5,12.5 8.5,12.5 8.5,23.5 
			6.5,23.5 		"/>
		<polygon fill="none" stroke="#58595B" stroke-linejoin="round" stroke-miterlimit="10" points="16.5,12.5 16.5,23.5 19.5,19.5 
			19.5,16.5 		"/>
		<polyline fill="none" stroke="#58595B" stroke-linejoin="round" stroke-miterlimit="10" points="18.496,6.259 22.5,8 19.5,12.941 
			19.5,16.5 		"/>
		<polyline fill="none" stroke="#58595B" stroke-linejoin="round" stroke-miterlimit="10" points="19.5,16.5 21.5,16.5 21.5,19.5 
			19.5,19.5 		"/>
		<polyline fill="none" stroke="#58595B" stroke-linejoin="round" stroke-miterlimit="10" points="16.5,12.5 14.5,12.5 14.5,23.5 
			16.5,23.5 		"/>
		<polygon fill="none" stroke="#58595B" stroke-linejoin="round" stroke-miterlimit="10" points="11.5,4.5 18,7.5 19,5 11.5,1.5 
			4,5 5,7.5 		"/>
	</g>
</g>
<g id="Frames-24px">
	<rect fill="none" width="24" height="24"/>
</g>
</svg>
