<?xml version="1.0" encoding="utf-8"?>
<!-- Generator: Adobe Illustrator 21.0.2, SVG Export Plug-In . SVG Version: 6.00 Build 0)  -->
<svg version="1.1" xmlns="http://www.w3.org/2000/svg" xmlns:xlink="http://www.w3.org/1999/xlink" x="0px" y="0px" width="24px"
	 height="24px" viewBox="0 0 24 24" enable-background="new 0 0 24 24" xml:space="preserve">
<g id="Black">
	<g>
		<g>
			<polygon fill="none" stroke="#58595B" stroke-linecap="round" stroke-linejoin="round" stroke-miterlimit="10" points="16.5,17 
				16.5,19.5 14,19.5 11.5,22.5 9,19.5 6.5,19.5 6.5,17 3.5,14.5 6.5,12 6.5,9.5 9,9.5 11.5,6.5 14,9.5 16.5,9.5 16.5,12 19.5,14.5 
							"/>
		</g>
		<polyline fill="none" stroke="#58595B" stroke-linecap="round" stroke-linejoin="round" stroke-miterlimit="10" points="7.5,0.5 
			7.5,4.5 11.5,6.5 15.5,4.5 15.5,0.5 		"/>
		
			<line fill="none" stroke="#58595B" stroke-linecap="round" stroke-linejoin="round" stroke-miterlimit="10" x1="4.5" y1="0.5" x2="18.5" y2="0.5"/>
		
			<line fill="none" stroke="#58595B" stroke-linecap="round" stroke-linejoin="round" stroke-miterlimit="10" x1="9.5" y1="0.5" x2="9.5" y2="5.5"/>
		
			<line fill="none" stroke="#58595B" stroke-linecap="round" stroke-linejoin="round" stroke-miterlimit="10" x1="13.5" y1="0.5" x2="13.5" y2="5.5"/>
		<polygon fill="none" stroke="#58595B" stroke-linecap="round" stroke-linejoin="round" stroke-miterlimit="10" points="
			14.5,16.25 11.5,18 8.5,16.25 8.5,12.75 11.5,11 14.5,12.75 		"/>
	</g>
</g>
<g id="Frames-24px">
	<rect fill="none" width="24" height="24"/>
</g>
</svg>
