<?xml version="1.0" encoding="utf-8"?>
<!-- Generator: Adobe Illustrator 21.0.2, SVG Export Plug-In . SVG Version: 6.00 Build 0)  -->
<svg version="1.1" xmlns="http://www.w3.org/2000/svg" xmlns:xlink="http://www.w3.org/1999/xlink" x="0px" y="0px" width="24px"
	 height="24px" viewBox="0 0 24 24" enable-background="new 0 0 24 24" xml:space="preserve">
<g id="Black">
	<g>
		<polyline fill="none" stroke="#58595B" stroke-linecap="round" stroke-linejoin="round" stroke-miterlimit="10" points="1.5,23.5 
			4,22 6,23.5 8,22 10,23.5 12,22 14,23.5 16,22 18,23.5 20,22 22.5,23.5 		"/>
		<polyline fill="none" stroke="#58595B" stroke-linecap="round" stroke-linejoin="round" stroke-miterlimit="10" points="1.5,20 
			4,18.5 6,20 8,18.5 10,20 12,18.5 14,20 16,18.5 18,20 20,18.5 22.5,20 		"/>
		<polyline fill="none" stroke="#58595B" stroke-linecap="round" stroke-linejoin="round" stroke-miterlimit="10" points="1.5,16.5 
			4,15 6,16.5 8,15 10,16.5 12,15 14,16.5 16,15 18,16.5 20,15 22.5,16.5 		"/>
		<polyline fill="none" stroke="#58595B" stroke-linecap="round" stroke-linejoin="round" stroke-miterlimit="10" points="
			15.692,13 18.5,11.75 18.5,4.75 12,1.5 5.5,4.75 5.5,11.75 8.308,13 		"/>
	</g>
</g>
<g id="Frames-24px">
	<rect fill="none" width="24" height="24"/>
</g>
</svg>
