<?xml version="1.0" encoding="utf-8"?>
<!-- Generator: Adobe Illustrator 21.0.0, SVG Export Plug-In . SVG Version: 6.00 Build 0)  -->
<svg version="1.1" id="Layer_1" xmlns="http://www.w3.org/2000/svg" xmlns:xlink="http://www.w3.org/1999/xlink" x="0px" y="0px"
	 viewBox="0 0 24 24" style="enable-background:new 0 0 24 24;" xml:space="preserve">
<style type="text/css">
	.st0{fill:#58595B;}
	.st1{fill:none;}
</style>
<g>
	<path class="st0" d="M21.8,9.6l-6.5-4c-0.1-0.1-0.3-0.1-0.5,0l-3.5,1.8l-0.7-1.9l4-0.4c0.2,0,0.3-0.1,0.4-0.3l2-4
		C17,0.5,17,0.3,16.9,0.2C16.7,0,16.5,0,16.3,0l-4,1.5c-0.1,0-0.1,0.1-0.2,0.1L9.9,3.9L9,1.3C8.9,1.1,8.6,0.9,8.3,1
		C8.1,1.1,7.9,1.4,8,1.7l2,5.3L7.2,5.6c-0.2-0.1-0.3-0.1-0.5,0l-6.5,4C0.1,9.7,0,9.9,0,10.1l2.5,11.5c0,0.1,0.1,0.2,0.2,0.3l3,2
		C5.8,24,5.9,24,6,24c0.1,0,0.2,0,0.2-0.1l4.8-2.4l4.8,2.4c0.1,0,0.1,0.1,0.2,0.1c0.1,0,0.2,0,0.3-0.1l3-2c0.1-0.1,0.2-0.2,0.2-0.3
		L22,10.1C22,9.9,21.9,9.7,21.8,9.6z M12.8,2.4l2.7-1L14.2,4l-3.3,0.3L12.8,2.4z M18.6,21.2L16,22.9l-4.7-2.4c0,0,0,0,0,0
		c0,0-0.1,0-0.1,0c0,0-0.1,0-0.1,0c0,0-0.1,0-0.1,0c0,0-0.1,0-0.1,0c0,0,0,0,0,0L6,22.9l-2.6-1.7l-2.4-11l6-3.7l3.8,1.9c0,0,0,0,0,0
		c0,0,0.1,0,0.1,0c0,0,0.1,0,0.1,0c0,0,0,0,0,0c0,0,0,0,0,0c0,0,0,0,0.1,0c0,0,0,0,0,0c0,0,0,0,0.1,0c0,0,0,0,0,0c0,0,0,0,0,0
		c0,0,0,0,0,0L15,6.6l6,3.7L18.6,21.2z"/>
	<path class="st0" d="M9.7,11c-0.2-0.1-0.4,0-0.6,0.1l-2.5,3c-0.2,0.2-0.2,0.5,0,0.6l2.5,3C9.2,17.9,9.4,18,9.5,18
		c0.1,0,0.1,0,0.2,0c0.2-0.1,0.3-0.3,0.3-0.5v-6C10,11.3,9.9,11.1,9.7,11z M9,16.1l-1.3-1.6L9,12.9V16.1z"/>
	<path class="st0" d="M12.3,11c-0.2,0.1-0.3,0.3-0.3,0.5v6c0,0.2,0.1,0.4,0.3,0.5c0.1,0,0.1,0,0.2,0c0.1,0,0.3-0.1,0.4-0.2l2.5-3
		c0.2-0.2,0.2-0.5,0-0.6l-2.5-3C12.7,11,12.5,11,12.3,11z M13,12.9l1.3,1.6L13,16.1V12.9z"/>
</g>
<g id="Frames-24px">
	<rect class="st1" width="24" height="24"/>
</g>
</svg>
