<?xml version="1.0" encoding="utf-8"?>
<!-- Generator: Adobe Illustrator 21.0.0, SVG Export Plug-In . SVG Version: 6.00 Build 0)  -->
<svg version="1.1" id="Layer_1" xmlns="http://www.w3.org/2000/svg" xmlns:xlink="http://www.w3.org/1999/xlink" x="0px" y="0px"
	 viewBox="0 0 24 24" style="enable-background:new 0 0 24 24;" xml:space="preserve">
<style type="text/css">
	.st0{fill:#58595B;}
	.st1{fill:none;}
</style>
<path class="st0" d="M23.9,9.2C23.8,9,23.6,9,23.4,9l-4.3,0.5l-1-1l1.1-1.1c0.2-0.2,0.2-0.5,0-0.7l-3-3c-0.2-0.2-0.5-0.2-0.7,0
	l-1.1,1.1l-1.6-1.6c-0.2-0.2-0.5-0.2-0.7,0l-4,4C8,7.3,8,7.7,8.1,7.9l1.7,1.7L6.8,14l-6.6,5.1C0.1,19.2,0,19.4,0,19.5v4
	C0,23.8,0.2,24,0.5,24h4C4.8,24,5,23.8,5,23.5v-2.3l8.2-8.2l1.8,1.8v3.8c0,0.2,0.1,0.3,0.2,0.4c0.1,0.1,0.2,0.1,0.3,0.1
	c0,0,0.1,0,0.1,0l6.5-1.5c0.2,0,0.3-0.2,0.4-0.4L24,9.6C24,9.4,24,9.3,23.9,9.2z M16,4.7L18.3,7l-0.8,0.8l-2.3-2.3L16,4.7z
	 M4.1,20.6C4.1,20.7,4,20.9,4,21v2H1v-3.2l6.4-5c0,0,0.1-0.1,0.1-0.1l3-4.3l2,2L4.1,20.6z M9.2,7.5l3.3-3.3l6.1,6.1
	c0.1,0.1,0.3,0.2,0.4,0.1l1.2-0.1l-0.6,4.1L16,15.6v-1.1c0-0.1-0.1-0.3-0.1-0.4L9.2,7.5z M21.6,16.6L16,17.9v-1.3l4.3-1.3
	c0.2-0.1,0.3-0.2,0.3-0.4l0.7-4.6l1.5-0.2L21.6,16.6z"/>
<g id="Frames-24px">
	<rect class="st1" width="24" height="24"/>
</g>
</svg>
