<?xml version="1.0" encoding="utf-8"?>
<!-- Generator: Adobe Illustrator 21.0.0, SVG Export Plug-In . SVG Version: 6.00 Build 0)  -->
<svg version="1.1" id="Layer_1" xmlns="http://www.w3.org/2000/svg" xmlns:xlink="http://www.w3.org/1999/xlink" x="0px" y="0px"
	 viewBox="0 0 24 24" style="enable-background:new 0 0 24 24;" xml:space="preserve">
<style type="text/css">
	.st0{fill:#58595B;}
	.st1{fill:none;}
</style>
<path class="st0" d="M23.7,12l-3-1c-0.1-0.1-0.3,0-0.4,0.1L18.8,12H18V8c0-0.2-0.1-0.3-0.3-0.4L10,3.2V1.5C10,1.2,9.8,1,9.5,1
	S9,1.2,9,1.5v1.9l-4.4,6.9c-0.1,0.2-0.1,0.5,0.1,0.7C4.8,11,4.9,11,5,11c0.2,0,0.3-0.1,0.4-0.2l4.2-6.6L17,8.3V12H4.2l-1.9-1.9
	c-0.2-0.2-0.5-0.2-0.7,0s-0.2,0.5,0,0.7L2.8,12H1.7l-0.9-0.9c-0.2-0.2-0.5-0.2-0.7,0s-0.2,0.5,0,0.7l0.6,0.6l-0.6,0.6
	c-0.2,0.2-0.2,0.5,0,0.7C0.2,14,0.4,14,0.5,14s0.3,0,0.4-0.1L1.7,13h1.1l-1.1,1.1c-0.2,0.2-0.2,0.5,0,0.7C1.7,15,1.9,15,2,15
	s0.3,0,0.4-0.1L4.2,13H17v3.7l-7.3,4.1l-4.2-6.6C5.3,14,5,13.9,4.7,14.1c-0.2,0.1-0.3,0.5-0.1,0.7L9,21.6v1.9C9,23.8,9.2,24,9.5,24
	s0.5-0.2,0.5-0.5v-1.7l7.7-4.4c0.2-0.1,0.3-0.3,0.3-0.4v-4h0.8l1.4,0.9c0.1,0.1,0.2,0.1,0.3,0.1c0.1,0,0.1,0,0.2,0l3-1
	c0.2-0.1,0.3-0.3,0.3-0.5S23.9,12.1,23.7,12z M20.6,12.9l-0.7-0.4l0.7-0.4l1.3,0.4L20.6,12.9z"/>
<g id="Frames-24px">
	<rect class="st1" width="24" height="24"/>
</g>
</svg>
