<?xml version="1.0" encoding="utf-8"?>
<!-- Generator: Adobe Illustrator 21.0.0, SVG Export Plug-In . SVG Version: 6.00 Build 0)  -->
<svg version="1.1" id="Layer_1" xmlns="http://www.w3.org/2000/svg" xmlns:xlink="http://www.w3.org/1999/xlink" x="0px" y="0px"
	 viewBox="0 0 24 24" style="enable-background:new 0 0 24 24;" xml:space="preserve">
<style type="text/css">
	.st0{fill:#58595B;}
	.st1{fill:none;}
</style>
<g>
	<path class="st0" d="M22.7,4.9L11.7,1c-0.1,0-0.2,0-0.3,0l-11,3.8C0.1,4.9,0,5.1,0,5.3v11.5c0,0.2,0.1,0.4,0.4,0.5L9,19.9v3.6
		c0,0.2,0.1,0.3,0.2,0.4C9.3,24,9.4,24,9.5,24c0.1,0,0.2,0,0.2-0.1l13-6.7c0.2-0.1,0.3-0.3,0.3-0.4V5.3C23,5.1,22.9,4.9,22.7,4.9z
		 M22,16.5l-12,6.2v-3.2c0-0.2-0.1-0.4-0.4-0.5L1,16.4V5.7L11.5,2L22,5.7V16.5z"/>
	<path class="st0" d="M4,7.5C4,7.8,4.2,8,4.5,8h14C18.8,8,19,7.8,19,7.5S18.8,7,18.5,7h-14C4.2,7,4,7.2,4,7.5z"/>
	<path class="st0" d="M18.5,10h-14C4.2,10,4,10.2,4,10.5S4.2,11,4.5,11h14c0.3,0,0.5-0.2,0.5-0.5S18.8,10,18.5,10z"/>
	<path class="st0" d="M11.5,13h-7C4.2,13,4,13.2,4,13.5S4.2,14,4.5,14h7c0.3,0,0.5-0.2,0.5-0.5S11.8,13,11.5,13z"/>
</g>
<g id="Frames-24px">
	<rect class="st1" width="24" height="24"/>
</g>
</svg>
