<?xml version="1.0" encoding="utf-8"?>
<!-- Generator: Adobe Illustrator 21.0.0, SVG Export Plug-In . SVG Version: 6.00 Build 0)  -->
<svg version="1.1" id="Layer_1" xmlns="http://www.w3.org/2000/svg" xmlns:xlink="http://www.w3.org/1999/xlink" x="0px" y="0px"
	 viewBox="0 0 24 24" style="enable-background:new 0 0 24 24;" xml:space="preserve">
<style type="text/css">
	.st0{fill:#58595B;}
	.st1{fill:none;}
</style>
<g>
	<path class="st0" d="M22.7,4.9L11.7,1c-0.1,0-0.2,0-0.3,0l-11,3.8C0.1,4.9,0,5.1,0,5.3v11.5c0,0.2,0.1,0.4,0.4,0.5L9,19.9v3.6
		c0,0.2,0.1,0.3,0.2,0.4C9.3,24,9.4,24,9.5,24c0.1,0,0.2,0,0.2-0.1l13-6.7c0.2-0.1,0.3-0.3,0.3-0.4V5.3C23,5.1,22.9,4.9,22.7,4.9z
		 M22,16.5l-12,6.2v-3.2c0-0.2-0.1-0.4-0.4-0.5L1,16.4V5.7L11.5,2L22,5.7V16.5z"/>
	<path class="st0" d="M5.9,8.6c-0.2-0.2-0.5-0.2-0.7,0l-1.5,1.5c-0.2,0.2-0.2,0.5,0,0.7l1.5,1.5c0.1,0.1,0.2,0.1,0.4,0.1
		c0.1,0,0.3-0.1,0.4-0.1l1.5-1.5c0.2-0.2,0.2-0.5,0-0.7L5.9,8.6z M5.5,11.3l-0.8-0.8l0.8-0.8l0.8,0.8L5.5,11.3z"/>
	<path class="st0" d="M9.6,10.1c-0.1,0.1-0.1,0.2-0.1,0.4c0,0.1,0.1,0.3,0.1,0.4l1.5,1.5c0.1,0.1,0.2,0.1,0.4,0.1
		c0.1,0,0.3-0.1,0.4-0.1l1.5-1.5c0.2-0.2,0.2-0.5,0-0.7l-1.5-1.5c-0.2-0.2-0.5-0.2-0.7,0L9.6,10.1z M12.3,10.5l-0.8,0.8l-0.8-0.8
		l0.8-0.8L12.3,10.5z"/>
	<path class="st0" d="M17.1,12.4c0.1,0.1,0.2,0.1,0.4,0.1s0.3,0,0.4-0.1l1.5-1.5c0.1-0.1,0.1-0.2,0.1-0.4s-0.1-0.3-0.1-0.4l-1.5-1.5
		c-0.2-0.2-0.5-0.2-0.7,0l-1.5,1.5c-0.1,0.1-0.1,0.2-0.1,0.4s0.1,0.3,0.1,0.4L17.1,12.4z M17.5,9.7l0.8,0.8l-0.8,0.8l-0.8-0.8
		L17.5,9.7z"/>
</g>
<g id="Frames-24px">
	<rect class="st1" width="24" height="24"/>
</g>
</svg>
