<?xml version="1.0" encoding="utf-8"?>
<!-- Generator: Adobe Illustrator 21.0.0, SVG Export Plug-In . SVG Version: 6.00 Build 0)  -->
<svg version="1.1" id="Layer_1" xmlns="http://www.w3.org/2000/svg" xmlns:xlink="http://www.w3.org/1999/xlink" x="0px" y="0px"
	 viewBox="0 0 24 24" style="enable-background:new 0 0 24 24;" xml:space="preserve">
<style type="text/css">
	.st0{fill:#58595B;}
	.st1{fill:none;}
</style>
<g>
	<path class="st0" d="M5.6,7.6c-0.2,0.2-0.2,0.5,0,0.7l1.5,1.5C7.2,9.9,7.4,10,7.5,10h4c0.1,0,0.3-0.1,0.4-0.1l1.5-1.5
		c0.2-0.2,0.2-0.5,0-0.7s-0.5-0.2-0.7,0L11.3,9H7.7L6.4,7.6C6.2,7.5,5.8,7.5,5.6,7.6z"/>
	<path class="st0" d="M8,5.4V4.5C8,4.2,7.8,4,7.5,4S7,4.2,7,4.5v0.9c0,0.3,0.2,0.5,0.5,0.5S8,5.7,8,5.4z"/>
	<path class="st0" d="M12,5.4V4.5C12,4.2,11.8,4,11.5,4S11,4.2,11,4.5v0.9c0,0.3,0.2,0.5,0.5,0.5S12,5.7,12,5.4z"/>
	<path class="st0" d="M8.5,14h-4c-0.1,0-0.3,0.1-0.4,0.1L1,17.3V2h17v7.5c0,0.3,0.2,0.5,0.5,0.5S19,9.8,19,9.5v-8
		C19,1.2,18.8,1,18.5,1h-18C0.2,1,0,1.2,0,1.5v17c0,0.2,0.1,0.4,0.3,0.5c0.1,0,0.1,0,0.2,0c0.1,0,0.3-0.1,0.4-0.1L4.7,15h3.8
		C8.8,15,9,14.8,9,14.5S8.8,14,8.5,14z"/>
	<path class="st0" d="M22.5,11h-12c-0.3,0-0.5,0.2-0.5,0.5v9c0,0.3,0.2,0.5,0.5,0.5h8.8l2.9,2.9c0.1,0.1,0.2,0.1,0.4,0.1
		c0.1,0,0.1,0,0.2,0c0.2-0.1,0.3-0.3,0.3-0.5v-12C23,11.2,22.8,11,22.5,11z M22,22.3l-2.1-2.1c-0.1-0.1-0.2-0.1-0.4-0.1H11v-8h11
		V22.3z"/>
	<path class="st0" d="M13.9,16.4c0,0,0.1,0.1,0.1,0.1c0.1,0,0.1,0,0.1-0.1l0.8-0.8c0.1-0.1,0.1-0.2,0-0.3l-0.8-0.8
		c0,0-0.1-0.1-0.1-0.1c-0.1,0-0.1,0-0.1,0.1l-0.8,0.8c-0.1,0.1-0.1,0.2,0,0.3L13.9,16.4z"/>
	<path class="st0" d="M16.9,16.4c0,0,0.1,0.1,0.1,0.1s0.1,0,0.1-0.1l0.8-0.8c0.1-0.1,0.1-0.2,0-0.3l-0.8-0.8c0,0-0.1-0.1-0.1-0.1
		s-0.1,0-0.1,0.1l-0.8,0.8c-0.1,0.1-0.1,0.2,0,0.3L16.9,16.4z"/>
	<path class="st0" d="M19.9,16.4c0,0,0.1,0.1,0.1,0.1s0.1,0,0.1-0.1l0.8-0.8c0.1-0.1,0.1-0.2,0-0.3l-0.8-0.8c0,0-0.1-0.1-0.1-0.1
		s-0.1,0-0.1,0.1l-0.8,0.8c-0.1,0.1-0.1,0.2,0,0.3L19.9,16.4z"/>
</g>
<g id="Frames-24px">
	<rect class="st1" width="24" height="24"/>
</g>
</svg>
