<?xml version="1.0" encoding="utf-8"?>
<!-- Generator: Adobe Illustrator 21.0.0, SVG Export Plug-In . SVG Version: 6.00 Build 0)  -->
<svg version="1.1" id="Layer_1" xmlns="http://www.w3.org/2000/svg" xmlns:xlink="http://www.w3.org/1999/xlink" x="0px" y="0px"
	 viewBox="0 0 24 24" style="enable-background:new 0 0 24 24;" xml:space="preserve">
<style type="text/css">
	.st0{fill:#58595B;}
	.st1{fill:none;}
</style>
<g>
	<path class="st0" d="M10.9,14.2c0,0-0.1-0.1-0.1-0.1c0,0,0,0,0,0c-0.1,0-0.2-0.1-0.2-0.1c0,0,0,0,0,0H4c-0.1,0-0.3,0.1-0.4,0.2
		l-3.5,4C0,18.3,0,18.5,0,18.7C0.1,18.9,0.3,19,0.5,19H2v4.5C2,23.8,2.2,24,2.5,24h6h4c0.3,0,0.5-0.2,0.5-0.5v-4.8l0.1,0.1
		c0.1,0.1,0.2,0.2,0.4,0.2c0.1,0,0.2,0,0.3-0.1c0.2-0.2,0.3-0.5,0.1-0.7L10.9,14.2z M4.2,15h5.3l-2.2,3H1.6L4.2,15z M3,19h4.5
		c0.2,0,0.3-0.1,0.4-0.2L8,18.7V23H3V19z M12,23h-1v-1.5c0-0.3-0.2-0.5-0.5-0.5S10,21.2,10,21.5V23H9v-5.7l1.5-2l1.5,2V23z"/>
	<path class="st0" d="M23.9,6.2l-4-5c0,0-0.1-0.1-0.1-0.1c0,0,0,0,0,0C19.7,1,19.6,1,19.5,1c0,0,0,0,0,0h-8c-0.1,0-0.3,0.1-0.4,0.2
		l-4.5,5C6.5,6.3,6.5,6.5,6.5,6.7C6.6,6.9,6.8,7,7,7h1v5.5C8,12.8,8.2,13,8.5,13S9,12.8,9,12.5V7h6.5c0.2,0,0.3-0.1,0.4-0.2L16,6.7
		V21h-0.5c-0.3,0-0.5,0.2-0.5,0.5s0.2,0.5,0.5,0.5h7c0.3,0,0.5-0.2,0.5-0.5V6.7l0.1,0.1C23.2,6.9,23.4,7,23.5,7c0.1,0,0.2,0,0.3-0.1
		C24,6.7,24.1,6.4,23.9,6.2z M15.3,6H8.1l3.6-4h6.7L15.3,6z M22,21h-5V5.4l2.5-3.1L22,5.4V21z"/>
	<path class="st0" d="M18.5,7C18.2,7,18,7.2,18,7.5v2c0,0.3,0.2,0.5,0.5,0.5S19,9.8,19,9.5v-2C19,7.2,18.8,7,18.5,7z"/>
	<path class="st0" d="M20.5,10c0.3,0,0.5-0.2,0.5-0.5v-2C21,7.2,20.8,7,20.5,7S20,7.2,20,7.5v2C20,9.8,20.2,10,20.5,10z"/>
	<path class="st0" d="M18.5,12c-0.3,0-0.5,0.2-0.5,0.5v2c0,0.3,0.2,0.5,0.5,0.5s0.5-0.2,0.5-0.5v-2C19,12.2,18.8,12,18.5,12z"/>
	<path class="st0" d="M20.5,15c0.3,0,0.5-0.2,0.5-0.5v-2c0-0.3-0.2-0.5-0.5-0.5S20,12.2,20,12.5v2C20,14.8,20.2,15,20.5,15z"/>
	<path class="st0" d="M18.5,17c-0.3,0-0.5,0.2-0.5,0.5v2c0,0.3,0.2,0.5,0.5,0.5s0.5-0.2,0.5-0.5v-2C19,17.2,18.8,17,18.5,17z"/>
	<path class="st0" d="M20.5,20c0.3,0,0.5-0.2,0.5-0.5v-2c0-0.3-0.2-0.5-0.5-0.5S20,17.2,20,17.5v2C20,19.8,20.2,20,20.5,20z"/>
</g>
<g id="Frames-24px">
	<rect class="st1" width="24" height="24"/>
</g>
</svg>
