<?xml version="1.0" encoding="utf-8"?>
<!-- Generator: Adobe Illustrator 21.0.0, SVG Export Plug-In . SVG Version: 6.00 Build 0)  -->
<svg version="1.1" id="Layer_1" xmlns="http://www.w3.org/2000/svg" xmlns:xlink="http://www.w3.org/1999/xlink" x="0px" y="0px"
	 viewBox="0 0 24 24" style="enable-background:new 0 0 24 24;" xml:space="preserve">
<style type="text/css">
	.st0{fill:#58595B;}
	.st1{fill:none;}
</style>
<g>
	<path class="st0" d="M23.5,1h-8C15.2,1,15,1.2,15,1.5v8.8l-3.1-3.1C11.8,7.1,11.6,7,11.5,7s-0.3,0.1-0.4,0.1l-4,4
		c0,0-0.1,0.1-0.1,0.2c0,0.1,0,0.1,0,0.2V15H2.5c-0.2,0-0.3,0.1-0.4,0.2l-2,3c-0.1,0.2-0.1,0.4,0,0.5C0.1,18.9,0.3,19,0.5,19H1v4.5
		C1,23.8,1.2,24,1.5,24h22c0.3,0,0.5-0.2,0.5-0.5v-22C24,1.2,23.8,1,23.5,1z M16,2h7v21h-7V11.5c0,0,0,0,0,0s0,0,0,0V2z M8,18.5v-3
		V12h7v11H8V18.5z M11.5,8.2l2.8,2.8H8.7L11.5,8.2z M2.8,16H7v2H1.4L2.8,16z M7,19v4H6v-2.5C6,20.2,5.8,20,5.5,20h-2
		C3.2,20,3,20.2,3,20.5V23H2v-4H7z M5,23H4v-2h1V23z"/>
	<path class="st0" d="M18.5,6C18.8,6,19,5.8,19,5.5v-2C19,3.2,18.8,3,18.5,3S18,3.2,18,3.5v2C18,5.8,18.2,6,18.5,6z"/>
	<path class="st0" d="M20.5,6C20.8,6,21,5.8,21,5.5v-2C21,3.2,20.8,3,20.5,3S20,3.2,20,3.5v2C20,5.8,20.2,6,20.5,6z"/>
	<path class="st0" d="M18.5,10c0.3,0,0.5-0.2,0.5-0.5v-2C19,7.2,18.8,7,18.5,7S18,7.2,18,7.5v2C18,9.8,18.2,10,18.5,10z"/>
	<path class="st0" d="M20.5,10c0.3,0,0.5-0.2,0.5-0.5v-2C21,7.2,20.8,7,20.5,7S20,7.2,20,7.5v2C20,9.8,20.2,10,20.5,10z"/>
	<path class="st0" d="M18.5,14c0.3,0,0.5-0.2,0.5-0.5v-2c0-0.3-0.2-0.5-0.5-0.5S18,11.2,18,11.5v2C18,13.8,18.2,14,18.5,14z"/>
	<path class="st0" d="M20.5,14c0.3,0,0.5-0.2,0.5-0.5v-2c0-0.3-0.2-0.5-0.5-0.5S20,11.2,20,11.5v2C20,13.8,20.2,14,20.5,14z"/>
	<path class="st0" d="M18.5,18c0.3,0,0.5-0.2,0.5-0.5v-2c0-0.3-0.2-0.5-0.5-0.5S18,15.2,18,15.5v2C18,17.8,18.2,18,18.5,18z"/>
	<path class="st0" d="M20.5,18c0.3,0,0.5-0.2,0.5-0.5v-2c0-0.3-0.2-0.5-0.5-0.5S20,15.2,20,15.5v2C20,17.8,20.2,18,20.5,18z"/>
	<path class="st0" d="M13.5,13h-4C9.2,13,9,13.2,9,13.5v3C9,16.8,9.2,17,9.5,17h4c0.3,0,0.5-0.2,0.5-0.5v-3C14,13.2,13.8,13,13.5,13
		z M13,16h-3v-2h3V16z"/>
	<path class="st0" d="M13.5,18h-4C9.2,18,9,18.2,9,18.5v3C9,21.8,9.2,22,9.5,22h4c0.3,0,0.5-0.2,0.5-0.5v-3C14,18.2,13.8,18,13.5,18
		z M13,21h-3v-2h3V21z"/>
	<path class="st0" d="M18.5,22c0.3,0,0.5-0.2,0.5-0.5v-2c0-0.3-0.2-0.5-0.5-0.5S18,19.2,18,19.5v2C18,21.8,18.2,22,18.5,22z"/>
	<path class="st0" d="M20.5,22c0.3,0,0.5-0.2,0.5-0.5v-2c0-0.3-0.2-0.5-0.5-0.5S20,19.2,20,19.5v2C20,21.8,20.2,22,20.5,22z"/>
	<path class="st0" d="M2.1,6.8C2.2,6.9,2.3,7,2.5,7h6c0.2,0,0.3-0.1,0.4-0.2l1.5-2c0.1-0.2,0.1-0.5,0-0.7L8.9,2.6
		C8.8,2.6,8.6,2.5,8.5,2.5H6.7L5.4,1.1C5.3,1.1,5.1,1,5,1H3.5C3.3,1,3.2,1.1,3.1,1.2L2.1,2.6L0.6,4.1c-0.2,0.2-0.2,0.5,0,0.7
		L2.1,6.8z M2.9,3.3L3.8,2h1l1.4,1.4c0.1,0.1,0.2,0.1,0.4,0.1h1.8l1,1L8.2,6H2.8L1.7,4.5L2.9,3.3z"/>
</g>
<g id="Frames-24px">
	<rect class="st1" width="24" height="24"/>
</g>
</svg>
