<?xml version="1.0" encoding="utf-8"?>
<!-- Generator: Adobe Illustrator 21.0.0, SVG Export Plug-In . SVG Version: 6.00 Build 0)  -->
<svg version="1.1" id="Layer_1" xmlns="http://www.w3.org/2000/svg" xmlns:xlink="http://www.w3.org/1999/xlink" x="0px" y="0px"
	 viewBox="0 0 24 24" style="enable-background:new 0 0 24 24;" xml:space="preserve">
<style type="text/css">
	.st0{fill:#58595B;}
	.st1{fill:none;}
</style>
<g>
	<path class="st0" d="M23.9,11.2c-0.1-0.1-0.2-0.2-0.4-0.2h-4c-0.1,0-0.3,0.1-0.4,0.2C19,11.3,19,11.4,19,11.5l0.5,6.5
		c0,0.3,0.2,0.5,0.5,0.5h1v5c0,0.3,0.2,0.5,0.5,0.5s0.5-0.2,0.5-0.5v-5h1c0.3,0,0.5-0.2,0.5-0.5l0.5-6.5C24,11.4,24,11.3,23.9,11.2z
		 M22.5,17.5h-2.1L20,12H23L22.5,17.5z"/>
	<path class="st0" d="M6.5,19h-2C4.2,19,4,19.2,4,19.5S4.2,20,4.5,20h2C6.8,20,7,19.8,7,19.5S6.8,19,6.5,19z"/>
	<path class="st0" d="M14.5,19h-2c-0.3,0-0.5,0.2-0.5,0.5s0.2,0.5,0.5,0.5h2c0.3,0,0.5-0.2,0.5-0.5S14.8,19,14.5,19z"/>
	<path class="st0" d="M18.5,6H17V3.5C17,3.2,16.8,3,16.5,3h-14C2.2,3,2,3.2,2,3.5V6H0.5C0.2,6,0,6.2,0,6.5v2C0,8.8,0.2,9,0.5,9
		S1,8.8,1,8.5V7h1v6.5c0,0,0,0,0,0v8C2,21.8,2.2,22,2.5,22H4v1c0,0.2,0.1,0.4,0.3,0.4l1,0.5C5.3,24,5.4,24,5.5,24s0.2,0,0.2-0.1
		l1-0.5C6.9,23.4,7,23.2,7,23v-1h5v1c0,0.2,0.1,0.4,0.3,0.4l1,0.5c0.1,0,0.1,0.1,0.2,0.1s0.2,0,0.2-0.1l1-0.5
		c0.2-0.1,0.3-0.3,0.3-0.4v-1h1.5c0.3,0,0.5-0.2,0.5-0.5v-8c0,0,0,0,0,0V7h1v1.5C18,8.8,18.2,9,18.5,9S19,8.8,19,8.5v-2
		C19,6.2,18.8,6,18.5,6z M16,4v2H3V4H16z M16,13.2L9.5,16L3,13.2V7h13V13.2z M6,22.7l-0.5,0.2L5,22.7V22h1V22.7z M14,22.7l-0.5,0.2
		L13,22.7V22h1V22.7z M3,21v-6.7L9.3,17c0.1,0,0.1,0,0.2,0s0.1,0,0.2,0l6.3-2.7V21H3z"/>
</g>
<g id="Frames-24px">
	<rect class="st1" width="24" height="24"/>
</g>
</svg>
