<?xml version="1.0" encoding="utf-8"?>
<!-- Generator: Adobe Illustrator 21.0.0, SVG Export Plug-In . SVG Version: 6.00 Build 0)  -->
<svg version="1.1" id="Layer_1" xmlns="http://www.w3.org/2000/svg" xmlns:xlink="http://www.w3.org/1999/xlink" x="0px" y="0px"
	 viewBox="0 0 24 24" style="enable-background:new 0 0 24 24;" xml:space="preserve">
<style type="text/css">
	.st0{fill:#58595B;}
	.st1{fill:none;}
</style>
<g>
	<path class="st0" d="M19.9,18.2c-0.1-0.1-0.2-0.2-0.4-0.2H17v-3h1.5c0.3,0,0.5-0.2,0.5-0.5S18.8,14,18.5,14H17v-2h1.5
		c0.3,0,0.5-0.2,0.5-0.5S18.8,11,18.5,11H17V9h1.5C18.8,9,19,8.8,19,8.5S18.8,8,18.5,8H17V6.3l1.3-0.9c0.2-0.2,0.3-0.5,0.1-0.7
		c-0.2-0.2-0.5-0.3-0.7-0.1l-1.1,0.8l-1-1.2l1.3-1.3c0.2-0.2,0.2-0.5,0-0.7s-0.5-0.2-0.7,0l-1.2,1.2L14,2.3V0.5
		C14,0.2,13.8,0,13.5,0S13,0.2,13,0.5V2h-3V0.5C10,0.2,9.8,0,9.5,0S9,0.2,9,0.5v1.8L8.1,3.4L6.9,2.1C6.7,2,6.3,2,6.1,2.1
		S6,2.7,6.1,2.9l1.3,1.3l-1,1.2L5.3,4.6C5,4.4,4.7,4.5,4.6,4.7C4.4,5,4.5,5.3,4.7,5.4L6,6.3V8H4.5C4.2,8,4,8.2,4,8.5S4.2,9,4.5,9H6
		v2H4.5C4.2,11,4,11.2,4,11.5S4.2,12,4.5,12H6v2H4.5C4.2,14,4,14.2,4,14.5S4.2,15,4.5,15H6v3H3.5c-0.2,0-0.3,0.1-0.4,0.2
		C3,18.4,3,18.5,3,18.7l2,5C5.1,23.9,5.3,24,5.5,24h12c0.2,0,0.4-0.1,0.5-0.3l2-5C20,18.5,20,18.4,19.9,18.2z M7,6.2L9.7,3h3.5
		L16,6.2V18H7V6.2z M17.2,23H5.8l-0.4-0.9l2-1l1.8,0.9c0.1,0.1,0.3,0.1,0.4,0l1.8-0.9l1.8,0.9c0.1,0.1,0.3,0.1,0.4,0l1.8-0.9l2,1
		L17.2,23z M17.9,21.1l-2.2-1.1c-0.1-0.1-0.3-0.1-0.4,0l-1.8,0.9l-1.8-0.9c-0.1-0.1-0.3-0.1-0.4,0l-1.8,0.9l-1.8-0.9
		c-0.1-0.1-0.3-0.1-0.4,0l-2.2,1.1L4.2,19h2.3h10h2.3L17.9,21.1z"/>
	<path class="st0" d="M13.5,12c-0.3,0-0.5,0.2-0.5,0.5v4c0,0.3,0.2,0.5,0.5,0.5s0.5-0.2,0.5-0.5v-4C14,12.2,13.8,12,13.5,12z"/>
	<path class="st0" d="M13.5,8C13.2,8,13,8.2,13,8.5v2c0,0.3,0.2,0.5,0.5,0.5s0.5-0.2,0.5-0.5v-2C14,8.2,13.8,8,13.5,8z"/>
	<path class="st0" d="M9.5,10C9.2,10,9,10.2,9,10.5v3C9,13.8,9.2,14,9.5,14s0.5-0.2,0.5-0.5v-3C10,10.2,9.8,10,9.5,10z"/>
	<path class="st0" d="M9.5,15C9.2,15,9,15.2,9,15.5v1C9,16.8,9.2,17,9.5,17s0.5-0.2,0.5-0.5v-1C10,15.2,9.8,15,9.5,15z"/>
	<path class="st0" d="M9.5,7C9.2,7,9,7.2,9,7.5v1C9,8.8,9.2,9,9.5,9S10,8.8,10,8.5v-1C10,7.2,9.8,7,9.5,7z"/>
	<path class="st0" d="M13.5,5C13.2,5,13,5.2,13,5.5v1C13,6.8,13.2,7,13.5,7S14,6.8,14,6.5v-1C14,5.2,13.8,5,13.5,5z"/>
</g>
<g id="Frames-24px">
	<rect class="st1" width="24" height="24"/>
</g>
</svg>
