<?xml version="1.0" encoding="utf-8"?>
<!-- Generator: Adobe Illustrator 21.0.0, SVG Export Plug-In . SVG Version: 6.00 Build 0)  -->
<svg version="1.1" id="Layer_1" xmlns="http://www.w3.org/2000/svg" xmlns:xlink="http://www.w3.org/1999/xlink" x="0px" y="0px"
	 viewBox="0 0 24 24" style="enable-background:new 0 0 24 24;" xml:space="preserve">
<style type="text/css">
	.st0{fill:#58595B;}
	.st1{fill:none;}
</style>
<g>
	<path class="st0" d="M10.6,18.9c0.1,0.1,0.2,0.1,0.3,0.1c0,0,0,0,0,0c0.1,0,0.3-0.1,0.3-0.2l6.6-8c0.2-0.2,0.1-0.5-0.1-0.7
		c-0.2-0.2-0.5-0.1-0.7,0.1l-6.2,7.6l-4-3.6c-0.2-0.2-0.5-0.2-0.7,0c-0.2,0.2-0.2,0.5,0,0.7L10.6,18.9z"/>
	<path class="st0" d="M22.5,2H18V1.5C18,1.2,17.8,1,17.5,1S17,1.2,17,1.5V2h-5V1.5C12,1.2,11.8,1,11.5,1S11,1.2,11,1.5V2H6V1.5
		C6,1.2,5.8,1,5.5,1S5,1.2,5,1.5V2H0.5C0.2,2,0,2.2,0,2.5v5v16C0,23.8,0.2,24,0.5,24h22c0.3,0,0.5-0.2,0.5-0.5v-16v-5
		C23,2.2,22.8,2,22.5,2z M5,3v1.5C5,4.8,5.2,5,5.5,5S6,4.8,6,4.5V3h5v1.5C11,4.8,11.2,5,11.5,5S12,4.8,12,4.5V3h5v1.5
		C17,4.8,17.2,5,17.5,5S18,4.8,18,4.5V3h4v4H1V3H5z M22,23H1V8h21V23z"/>
</g>
<g id="Frames-24px">
	<rect class="st1" width="24" height="24"/>
</g>
</svg>
