<?xml version="1.0" encoding="utf-8"?>
<!-- Generator: Adobe Illustrator 21.0.0, SVG Export Plug-In . SVG Version: 6.00 Build 0)  -->
<svg version="1.1" id="Layer_1" xmlns="http://www.w3.org/2000/svg" xmlns:xlink="http://www.w3.org/1999/xlink" x="0px" y="0px"
	 viewBox="0 0 24 24" style="enable-background:new 0 0 24 24;" xml:space="preserve">
<style type="text/css">
	.st0{fill:#58595B;}
	.st1{fill:none;}
</style>
<g>
	<path class="st0" d="M22.5,5h-3.1l-0.9-2.7C18.4,2.1,18.2,2,18,2h-7c-0.2,0-0.4,0.1-0.5,0.3L9.6,5H0.5C0.2,5,0,5.2,0,5.5v15
		C0,20.8,0.2,21,0.5,21h22c0.3,0,0.5-0.2,0.5-0.5v-15C23,5.2,22.8,5,22.5,5z M22,20H1V6h9c0.2,0,0.4-0.1,0.5-0.3L11.4,3h6.3l0.9,2.7
		C18.6,5.9,18.8,6,19,6h3V20z"/>
	<path class="st0" d="M4.4,7.6c-0.2-0.2-0.5-0.2-0.7,0L2.1,9.1C2,9.3,2,9.7,2.1,9.9l1.5,1.5c0.1,0.1,0.2,0.1,0.4,0.1s0.3,0,0.4-0.1
		l1.5-1.5C5.9,9.8,6,9.6,6,9.5S5.9,9.2,5.9,9.1L4.4,7.6z M4,10.3L3.2,9.5L4,8.7l0.8,0.8L4,10.3z"/>
	<path class="st0" d="M2.5,4h2C4.8,4,5,3.8,5,3.5S4.8,3,4.5,3h-2C2.2,3,2,3.2,2,3.5S2.2,4,2.5,4z"/>
	<path class="st0" d="M14.3,6.8l-4,2.2C10.1,9.2,10,9.3,10,9.5V14c0,0.2,0.1,0.3,0.3,0.4l4,2.2c0.1,0,0.2,0.1,0.2,0.1s0.2,0,0.2-0.1
		l4-2.2c0.2-0.1,0.3-0.3,0.3-0.4V9.5c0-0.2-0.1-0.3-0.3-0.4l-4-2.2C14.6,6.7,14.4,6.7,14.3,6.8z M18,9.8v3.9l-3.5,2l-3.5-2V9.8
		l3.5-2L18,9.8z"/>
	<path class="st0" d="M14.2,4.6l-6,3.5C8.1,8.2,8,8.3,8,8.5V15c0,0.2,0.1,0.3,0.2,0.4l6,3.5c0.1,0,0.2,0.1,0.3,0.1s0.2,0,0.3-0.1
		l6-3.5c0.2-0.1,0.2-0.3,0.2-0.4V8.5c0-0.2-0.1-0.3-0.2-0.4l-6-3.5C14.6,4.5,14.4,4.5,14.2,4.6z M20,14.7l-5.5,3.2L9,14.7V8.8
		l5.5-3.2L20,8.8V14.7z"/>
</g>
<g id="Frames-24px">
	<rect class="st1" width="24" height="24"/>
</g>
</svg>
