<?xml version="1.0" encoding="utf-8"?>
<!-- Generator: Adobe Illustrator 21.0.0, SVG Export Plug-In . SVG Version: 6.00 Build 0)  -->
<svg version="1.1" id="Layer_1" xmlns="http://www.w3.org/2000/svg" xmlns:xlink="http://www.w3.org/1999/xlink" x="0px" y="0px"
	 viewBox="0 0 24 24" style="enable-background:new 0 0 24 24;" xml:space="preserve">
<style type="text/css">
	.st0{fill:#58595B;}
	.st1{fill:none;}
</style>
<g>
	<path class="st0" d="M16.5,19h-1c-0.3,0-0.5,0.2-0.5,0.5s0.2,0.5,0.5,0.5h1c0.3,0,0.5-0.2,0.5-0.5S16.8,19,16.5,19z"/>
	<path class="st0" d="M22.9,13.2c-0.1-0.1-0.2-0.2-0.4-0.2h-2.1l1.2-5.4c0-0.2,0-0.4-0.2-0.5l-5.6-4C15.7,3,15.6,3,15.5,3h-8
		C7.4,3,7.3,3,7.2,3.1l-5.6,4C1.5,7.2,1.4,7.4,1.4,7.6L2.6,13H0.5c-0.2,0-0.3,0.1-0.4,0.2C0,13.3,0,13.5,0,13.7l2,6
		C2.1,19.9,2.3,20,2.5,20H4v1.5C4,21.8,4.2,22,4.5,22h14c0.3,0,0.5-0.2,0.5-0.5V20h1.5c0.2,0,0.4-0.1,0.5-0.3l2-6
		C23,13.5,23,13.3,22.9,13.2z M2.9,19l-1.7-5h1.6l1.1,5H2.9z M14,11h-3v-1h3V11z M10,11H7v-1h3V11z M6.5,12h8h2.8l-5,5H5v-5H6.5z
		 M5,21v-3h7.5c0.1,0,0.3-0.1,0.4-0.1l5.1-5.1V21H5z M18.5,11H15V9.5C15,9.2,14.8,9,14.5,9h-8C6.2,9,6,9.2,6,9.5V11H4.5
		C4.2,11,4,11.2,4,11.5v3.3L2.5,7.7L7.7,4h7.7l5.2,3.7L19,14.8v-3.3C19,11.2,18.8,11,18.5,11z M20.1,19h-1l1.1-5h1.6L20.1,19z"/>
</g>
<g id="Frames-24px">
	<rect class="st1" width="24" height="24"/>
</g>
</svg>
