<?xml version="1.0" encoding="utf-8"?>
<!-- Generator: Adobe Illustrator 21.0.0, SVG Export Plug-In . SVG Version: 6.00 Build 0)  -->
<svg version="1.1" id="Layer_1" xmlns="http://www.w3.org/2000/svg" xmlns:xlink="http://www.w3.org/1999/xlink" x="0px" y="0px"
	 viewBox="0 0 24 24" style="enable-background:new 0 0 24 24;" xml:space="preserve">
<style type="text/css">
	.st0{fill:#58595B;}
	.st1{fill:none;}
</style>
<g>
	<path class="st0" d="M22.5,4h-22C0.2,4,0,4.2,0,4.5v16C0,20.8,0.2,21,0.5,21h22c0.3,0,0.5-0.2,0.5-0.5v-16C23,4.2,22.8,4,22.5,4z
		 M7.4,20l1.3-2h5.5l1.3,2H7.4z M22,20h-5.2l-1.9-2.8c-0.1-0.1-0.2-0.2-0.4-0.2h-6c-0.2,0-0.3,0.1-0.4,0.2L6.2,20H1V5h21V20z"/>
	<path class="st0" d="M4.1,13.7C4.1,13.9,4.3,14,4.5,14h4h6h4c0.2,0,0.4-0.1,0.4-0.3l1.5-3c0.1-0.1,0.1-0.3,0-0.4l-1.5-3
		C18.9,7.1,18.7,7,18.5,7h-4h-6h-4C4.3,7,4.1,7.1,4.1,7.3l-1.5,3c-0.1,0.1-0.1,0.3,0,0.4L4.1,13.7z M10.4,10.3L9.3,8h4.4l-1.1,2.3
		c-0.1,0.1-0.1,0.3,0,0.4l1.1,2.3H9.3l1.1-2.3C10.5,10.6,10.5,10.4,10.4,10.3z M19.4,10.5L18.2,13h-3.4l-1.2-2.5L14.8,8h3.4
		L19.4,10.5z M4.8,8h3.4l1.2,2.5L8.2,13H4.8l-1.2-2.5L4.8,8z"/>
	<path class="st0" d="M6.4,11.4c0,0,0.1,0.1,0.1,0.1s0.1,0,0.1-0.1l0.8-0.8c0.1-0.1,0.1-0.2,0-0.3L6.6,9.6c0,0-0.1-0.1-0.1-0.1
		c-0.1,0-0.1,0-0.1,0.1l-0.8,0.8c-0.1,0.1-0.1,0.2,0,0.3L6.4,11.4z"/>
	<path class="st0" d="M16.4,11.4c0,0,0.1,0.1,0.1,0.1c0.1,0,0.1,0,0.1-0.1l0.8-0.8c0.1-0.1,0.1-0.2,0-0.3l-0.8-0.8
		c0,0-0.1-0.1-0.1-0.1c-0.1,0-0.1,0-0.1,0.1l-0.8,0.8c-0.1,0.1-0.1,0.2,0,0.3L16.4,11.4z"/>
</g>
<g id="Frames-24px">
	<rect class="st1" width="24" height="24"/>
</g>
</svg>
