<?xml version="1.0" encoding="utf-8"?>
<!-- Generator: Adobe Illustrator 21.0.0, SVG Export Plug-In . SVG Version: 6.00 Build 0)  -->
<svg version="1.1" id="Layer_1" xmlns="http://www.w3.org/2000/svg" xmlns:xlink="http://www.w3.org/1999/xlink" x="0px" y="0px"
	 viewBox="0 0 24 24" style="enable-background:new 0 0 24 24;" xml:space="preserve">
<style type="text/css">
	.st0{fill:#58595B;}
	.st1{fill:none;}
</style>
<g>
	<path class="st0" d="M7.5,6C7.8,6,8,5.8,8,5.5v-1C8,4.2,7.8,4,7.5,4S7,4.2,7,4.5v1C7,5.8,7.2,6,7.5,6z"/>
	<path class="st0" d="M11.5,6C11.8,6,12,5.8,12,5.5v-1C12,4.2,11.8,4,11.5,4S11,4.2,11,4.5v1C11,5.8,11.2,6,11.5,6z"/>
	<path class="st0" d="M24,19.8l-2-6c0-0.1-0.1-0.2-0.2-0.3L13.5,9l1.2-0.5C14.9,8.4,15,8.2,15,8V0.5c0-0.2-0.1-0.4-0.3-0.4
		c-0.2-0.1-0.4-0.1-0.5,0L11.3,2H7.7L4.8,0.1C4.6,0,4.4,0,4.3,0.1S4,0.3,4,0.5V8c0,0.2,0.1,0.4,0.3,0.5L6,9.1V23H3.2l-2.1-2.1
		l2.3-3.2c0.1-0.2,0.1-0.5-0.1-0.6l-1.7-1.7l1.2-1.7c0.2-0.2,0.1-0.5-0.1-0.7c-0.2-0.2-0.5-0.1-0.7,0.1l-1.5,2
		c-0.1,0.2-0.1,0.5,0,0.7l1.7,1.7l-2.3,3.2C0,20.9,0,21.2,0.1,21.4l2.5,2.5C2.7,23.9,2.9,24,3,24h18.5c0.2,0,0.3-0.1,0.4-0.3l2-3.5
		C24,20.1,24,20,24,19.8z M5,1.4l2.2,1.5C7.3,3,7.4,3,7.5,3h4c0.1,0,0.2,0,0.3-0.1L14,1.4v6.2L9.5,9.5L6.7,8.3c0,0,0,0,0,0L5,7.7
		V1.4z M21.2,23H13v-1.3l3.2-3.7h2.3c0.3,0,0.5-0.2,0.5-0.5S18.8,17,18.5,17H16c-0.1,0-0.3,0.1-0.4,0.2l-2.6,3v-5.7
		c0-0.3-0.2-0.5-0.5-0.5S12,14.2,12,14.5V23h-2v-8.5c0-0.3-0.2-0.5-0.5-0.5S9,14.2,9,14.5V23H7V9.5l2.3,0.9c0.1,0,0.1,0,0.2,0
		s0.1,0,0.2,0l2.6-1l8.8,4.9l1.9,5.6L21.2,23z"/>
</g>
<g id="Frames-24px">
	<rect class="st1" width="24" height="24"/>
</g>
</svg>
