<?xml version="1.0" encoding="utf-8"?>
<!-- Generator: Adobe Illustrator 21.0.0, SVG Export Plug-In . SVG Version: 6.00 Build 0)  -->
<svg version="1.1" id="Layer_1" xmlns="http://www.w3.org/2000/svg" xmlns:xlink="http://www.w3.org/1999/xlink" x="0px" y="0px"
	 viewBox="0 0 24 24" style="enable-background:new 0 0 24 24;" xml:space="preserve">
<style type="text/css">
	.st0{fill:#58595B;}
	.st1{fill:none;}
</style>
<g>
	<path class="st0" d="M19.9,18.7l4-8c0.1-0.2,0.1-0.3,0-0.5c-0.1-0.1-0.3-0.2-0.4-0.2h-3.2l-2.9-6.7C17.4,3.1,17.2,3,17,3H7
		C6.8,3,6.6,3.1,6.5,3.3L3.7,10H0.5c-0.2,0-0.3,0.1-0.4,0.2s-0.1,0.3,0,0.5l4,8C4.1,18.9,4.3,19,4.5,19h1.2l-2.1,4.3
		c-0.1,0.2,0,0.5,0.2,0.7C3.8,24,3.9,24,4,24c0.2,0,0.4-0.1,0.4-0.3L6.8,19H8h8h1.2l2.4,4.7c0.1,0.2,0.3,0.3,0.4,0.3
		c0.1,0,0.2,0,0.2-0.1c0.2-0.1,0.3-0.4,0.2-0.7L18.3,19h1.2C19.7,19,19.9,18.9,19.9,18.7z M8.3,18l-1.5-3h10.4l-1.5,3H8.3z M7.3,4
		h9.3l2.8,6.5L17.7,14H6.3l-1.8-3.5L7.3,4z M4.8,18l-3.5-7h2.4l3.5,7H4.8z M16.8,18l3.5-7h2.4l-3.5,7H16.8z"/>
	<path class="st0" d="M10.1,9.8c0.1,0.1,0.3,0.2,0.4,0.2c0.1,0,0.2,0,0.3-0.1L12,9.1l1.2,0.8c0.1,0.1,0.2,0.1,0.3,0.1
		c0.2,0,0.3-0.1,0.4-0.2c0.2-0.2,0.1-0.5-0.1-0.7l-0.9-0.6l0.9-0.6c0.2-0.2,0.3-0.5,0.1-0.7c-0.2-0.2-0.5-0.3-0.7-0.1L12,7.9
		l-1.2-0.8c-0.2-0.2-0.5-0.1-0.7,0.1C9.9,7.5,10,7.8,10.2,7.9l0.9,0.6l-0.9,0.6C10,9.2,9.9,9.5,10.1,9.8z"/>
</g>
<g id="Frames-24px">
	<rect class="st1" width="24" height="24"/>
</g>
</svg>
