<?xml version="1.0" encoding="utf-8"?>
<!-- Generator: Adobe Illustrator 21.0.0, SVG Export Plug-In . SVG Version: 6.00 Build 0)  -->
<svg version="1.1" id="Layer_1" xmlns="http://www.w3.org/2000/svg" xmlns:xlink="http://www.w3.org/1999/xlink" x="0px" y="0px"
	 viewBox="0 0 24 24" style="enable-background:new 0 0 24 24;" xml:space="preserve">
<style type="text/css">
	.st0{fill:#58595B;}
	.st1{fill:none;}
</style>
<g>
	<path class="st0" d="M22,17.4c0-0.2-0.2-0.3-0.4-0.4L15,15.1v-1.3l0.7-0.4c0.2-0.1,0.3-0.3,0.3-0.4v-2.2l1.7-0.9
		C17.9,9.9,18,9.7,18,9.5v-2C18,7.2,17.8,7,17.5,7H16V0.5c0-0.2-0.1-0.3-0.2-0.4c-0.1-0.1-0.3-0.1-0.5,0l-1.8,0.9l-1.8-0.9
		c-0.1-0.1-0.3-0.1-0.4,0L9.5,0.9L7.7,0.1C7.6,0,7.4,0,7.2,0.1C7.1,0.2,7,0.3,7,0.5V7H5.5C5.2,7,5,7.2,5,7.5v2
		c0,0.2,0.1,0.4,0.3,0.4L7,10.8V13c0,0.2,0.1,0.4,0.3,0.4L8,13.8v1.3L1.4,17C1.2,17.1,1,17.2,1,17.4l-1,6c0,0.3,0.1,0.5,0.4,0.6
		c0,0,0.1,0,0.1,0C0.7,24,1,23.8,1,23.6l0.9-5.7L8.6,16C8.9,15.9,9,15.7,9,15.5v-1.2l2.3,1.1c0.1,0,0.1,0.1,0.2,0.1s0.2,0,0.2-0.1
		l2.3-1.1v1.2V18H8.5C8.2,18,8,18.2,8,18.5v5C8,23.8,8.2,24,8.5,24S9,23.8,9,23.5V19h5.5c0.3,0,0.5-0.2,0.5-0.5v-2.3l6.1,1.7
		l0.9,5.7c0,0.2,0.3,0.4,0.5,0.4c0,0,0.1,0,0.1,0c0.3,0,0.5-0.3,0.4-0.6L22,17.4z M17,9.2l-1,0.5V8h1V9.2z M9.3,1.9
		C9.4,2,9.6,2,9.7,1.9l1.8-0.9l1.8,0.9c0.1,0.1,0.3,0.1,0.4,0L15,1.3V7h-1V5.5C14,5.2,13.8,5,13.5,5S13,5.2,13,5.5V7h-1V5.5
		C12,5.2,11.8,5,11.5,5S11,5.2,11,5.5V7h-1V5.5C10,5.2,9.8,5,9.5,5S9,5.2,9,5.5V7H8V1.3L9.3,1.9z M6,9.2V8h1v1.7L6,9.2z M11.5,14.4
		L8,12.7V8h7v4.7L11.5,14.4z"/>
	<path class="st0" d="M11.5,22h-1c-0.3,0-0.5,0.2-0.5,0.5s0.2,0.5,0.5,0.5h1c0.3,0,0.5-0.2,0.5-0.5S11.8,22,11.5,22z"/>
	<path class="st0" d="M11.5,20h-1c-0.3,0-0.5,0.2-0.5,0.5s0.2,0.5,0.5,0.5h1c0.3,0,0.5-0.2,0.5-0.5S11.8,20,11.5,20z"/>
	<path class="st0" d="M9.5,9C9.2,9,9,9.2,9,9.5V10c0,0.3,0.2,0.5,0.5,0.5S10,10.3,10,10V9.5C10,9.2,9.8,9,9.5,9z"/>
	<path class="st0" d="M13.5,9C13.2,9,13,9.2,13,9.5V10c0,0.3,0.2,0.5,0.5,0.5S14,10.3,14,10V9.5C14,9.2,13.8,9,13.5,9z"/>
</g>
<g id="Frames-24px">
	<rect class="st1" width="24" height="24"/>
</g>
</svg>
