<?xml version="1.0" encoding="utf-8"?>
<!-- Generator: Adobe Illustrator 21.0.0, SVG Export Plug-In . SVG Version: 6.00 Build 0)  -->
<svg version="1.1" id="Layer_1" xmlns="http://www.w3.org/2000/svg" xmlns:xlink="http://www.w3.org/1999/xlink" x="0px" y="0px"
	 viewBox="0 0 24 24" style="enable-background:new 0 0 24 24;" xml:space="preserve">
<style type="text/css">
	.st0{fill:#58595B;}
	.st1{fill:none;}
</style>
<g>
	<path class="st0" d="M6.2,17.1l-1.4,1.4c-0.2,0.2-0.2,0.5,0,0.7c0.1,0.1,0.2,0.1,0.4,0.1s0.3,0,0.4-0.1l1.4-1.4
		c0.2-0.2,0.2-0.5,0-0.7S6.4,16.9,6.2,17.1z"/>
	<path class="st0" d="M11.5,19c-0.3,0-0.5,0.2-0.5,0.5v2c0,0.3,0.2,0.5,0.5,0.5s0.5-0.2,0.5-0.5v-2C12,19.2,11.8,19,11.5,19z"/>
	<path class="st0" d="M16.8,17.1c-0.2-0.2-0.5-0.2-0.7,0s-0.2,0.5,0,0.7l1.4,1.4c0.1,0.1,0.2,0.1,0.4,0.1s0.3,0,0.4-0.1
		c0.2-0.2,0.2-0.5,0-0.7L16.8,17.1z"/>
	<path class="st0" d="M5.5,5.8C5.3,5.6,5,5.6,4.8,5.8s-0.2,0.5,0,0.7l1.4,1.4C6.3,8,6.4,8.1,6.5,8.1s0.3,0,0.4-0.1
		c0.2-0.2,0.2-0.5,0-0.7L5.5,5.8z"/>
	<path class="st0" d="M5,12.5C5,12.2,4.8,12,4.5,12h-2C2.2,12,2,12.2,2,12.5S2.2,13,2.5,13h2C4.8,13,5,12.8,5,12.5z"/>
	<path class="st0" d="M18,12.5c0,0.3,0.2,0.5,0.5,0.5h2c0.3,0,0.5-0.2,0.5-0.5S20.8,12,20.5,12h-2C18.2,12,18,12.2,18,12.5z"/>
	<path class="st0" d="M16.4,8.1c0.1,0,0.3,0,0.4-0.1l1.4-1.4c0.2-0.2,0.2-0.5,0-0.7s-0.5-0.2-0.7,0l-1.4,1.4c-0.2,0.2-0.2,0.5,0,0.7
		C16.2,8,16.3,8.1,16.4,8.1z"/>
	<path class="st0" d="M12,12V4.5C12,4.2,11.8,4,11.5,4S11,4.2,11,4.5v8c0,0.3,0.2,0.5,0.5,0.5h4c0.3,0,0.5-0.2,0.5-0.5
		S15.8,12,15.5,12H12z"/>
	<path class="st0" d="M22.9,7.6l-6.5-6.5C16.3,1.1,16.2,1,16,1H7C6.8,1,6.7,1.1,6.6,1.1L0.1,7.6C0.1,7.7,0,7.8,0,8V17
		c0,0.1,0.1,0.3,0.1,0.4l6.5,6.5C6.7,23.9,6.8,24,7,24H16c0.1,0,0.3-0.1,0.4-0.1l6.5-6.5c0.1-0.1,0.1-0.2,0.1-0.4V8
		C23,7.8,22.9,7.7,22.9,7.6z M22,16.8L15.8,23H7.2L1,16.8V8.2L7.2,2h8.7L22,8.2V16.8z"/>
</g>
<g id="Frames-24px">
	<rect class="st1" width="24" height="24"/>
</g>
</svg>
