<?xml version="1.0" encoding="utf-8"?>
<!-- Generator: Adobe Illustrator 21.0.0, SVG Export Plug-In . SVG Version: 6.00 Build 0)  -->
<svg version="1.1" id="Layer_1" xmlns="http://www.w3.org/2000/svg" xmlns:xlink="http://www.w3.org/1999/xlink" x="0px" y="0px"
	 viewBox="0 0 24 24" style="enable-background:new 0 0 24 24;" xml:space="preserve">
<style type="text/css">
	.st0{fill:#58595B;}
	.st1{fill:none;}
</style>
<g>
	<path class="st0" d="M15.1,19.1L12,22.3V11.5c0-0.3-0.2-0.5-0.5-0.5S11,11.2,11,11.5v10.8l-3.1-3.1c-0.2-0.2-0.5-0.2-0.7,0
		s-0.2,0.5,0,0.7l4,4c0,0,0.1,0.1,0.2,0.1c0.1,0,0.1,0,0.2,0s0.1,0,0.2,0c0.1,0,0.1-0.1,0.2-0.1l4-4c0.2-0.2,0.2-0.5,0-0.7
		S15.3,19,15.1,19.1z"/>
	<path class="st0" d="M23,10.8l-1.5-4.5C21.4,6.1,21.2,6,21,6h-2.7l-2.4-4.7C15.9,1.1,15.7,1,15.5,1h-5c-0.1,0-0.3,0.1-0.4,0.2
		L7.8,4H4C3.8,4,3.7,4.1,3.6,4.2L0.1,9.7C0,9.9,0,10.1,0.1,10.3l3.5,4.5C3.7,14.9,3.8,15,4,15h4.5C8.8,15,9,14.8,9,14.5
		S8.8,14,8.5,14H4.2l-3.1-4l3.2-5H8c0.1,0,0.3-0.1,0.4-0.2L10.7,2h4.5l2,4h-2.7C14.2,6,14,6.2,14,6.5S14.2,7,14.5,7H18h2.6l1.3,3.9
		L19.7,14h-5.2c-0.3,0-0.5,0.2-0.5,0.5s0.2,0.5,0.5,0.5H20c0.2,0,0.3-0.1,0.4-0.2l2.5-3.5C23,11.2,23,11,23,10.8z"/>
</g>
<g id="Frames-24px">
	<rect class="st1" width="24" height="24"/>
</g>
</svg>
