<?xml version="1.0" encoding="utf-8"?>
<!-- Generator: Adobe Illustrator 21.0.0, SVG Export Plug-In . SVG Version: 6.00 Build 0)  -->
<svg version="1.1" id="Layer_1" xmlns="http://www.w3.org/2000/svg" xmlns:xlink="http://www.w3.org/1999/xlink" x="0px" y="0px"
	 width="24px" height="24px" viewBox="0 0 24 24" enable-background="new 0 0 24 24" xml:space="preserve">
<g>
	<path fill="#58595B" d="M11.854,11.147c-0.046-0.046-0.102-0.083-0.163-0.109c-0.122-0.051-0.26-0.051-0.382,0
		c-0.062,0.025-0.117,0.062-0.163,0.109l-3.999,3.999c-0.195,0.195-0.195,0.512,0,0.707s0.512,0.195,0.707,0L11,12.707V23.5
		c0,0.276,0.224,0.5,0.5,0.5s0.5-0.224,0.5-0.5V12.707l3.146,3.146C15.244,15.951,15.372,16,15.5,16s0.256-0.049,0.354-0.146
		c0.195-0.195,0.195-0.512,0-0.707L11.854,11.147z"/>
	<path fill="#58595B" d="M22.975,10.842l-1.5-4.5C21.406,6.138,21.215,6,21,6h-2.691l-2.361-4.724C15.862,1.107,15.689,1,15.5,1h-5
		c-0.148,0-0.289,0.066-0.384,0.18L7.766,4H4C3.829,4,3.67,4.087,3.578,4.231l-3.5,5.5c-0.113,0.178-0.103,0.409,0.027,0.576
		l3.5,4.5C3.7,14.929,3.846,15,4,15h1.5C5.776,15,6,14.776,6,14.5S5.776,14,5.5,14H4.245L1.111,9.971L4.274,5H8
		c0.148,0,0.289-0.066,0.384-0.18L10.734,2h4.457l2,4H14.5C14.224,6,14,6.224,14,6.5S14.224,7,14.5,7H18h2.64l1.306,3.917L19.743,14
		H17.5c-0.276,0-0.5,0.224-0.5,0.5s0.224,0.5,0.5,0.5H20c0.161,0,0.313-0.078,0.407-0.209l2.5-3.5
		C23,11.161,23.025,10.994,22.975,10.842z"/>
</g>
<g id="Frames-24px">
	<rect fill="none" width="24" height="24"/>
</g>
</svg>
