<?xml version="1.0" encoding="utf-8"?>
<!-- Generator: Adobe Illustrator 21.0.0, SVG Export Plug-In . SVG Version: 6.00 Build 0)  -->
<svg version="1.1" id="Layer_1" xmlns="http://www.w3.org/2000/svg" xmlns:xlink="http://www.w3.org/1999/xlink" x="0px" y="0px"
	 viewBox="0 0 24 24" style="enable-background:new 0 0 24 24;" xml:space="preserve">
<style type="text/css">
	.st0{fill:#58595B;}
	.st1{fill:none;}
</style>
<g>
	<path class="st0" d="M23.5,23H23v-3c0-0.1-0.1-0.3-0.1-0.4l-2-2c-0.2-0.2-0.5-0.2-0.7,0l-2,2C18.1,19.7,18,19.9,18,20v3h-2v-3
		c0-0.1-0.1-0.3-0.1-0.4l-2-2c-0.2-0.2-0.5-0.2-0.7,0l-2,2C11.1,19.7,11,19.9,11,20v3H9v-3c0-0.1-0.1-0.3-0.1-0.4l-2-2
		c-0.2-0.2-0.5-0.2-0.7,0l-2,2C4.1,19.7,4,19.9,4,20v3H2v-7h21.5c0.3,0,0.5-0.2,0.5-0.5S23.8,15,23.5,15H19V9h0.5
		C19.8,9,20,8.8,20,8.5S19.8,8,19.5,8h-6.7L8.4,0.3C8.3,0.1,8.2,0,8,0H1.5C1.2,0,1,0.2,1,0.5V8H0.5C0.2,8,0,8.2,0,8.5S0.2,9,0.5,9H1
		v6H0.5C0.2,15,0,15.2,0,15.5S0.2,16,0.5,16H1v7H0.5C0.2,23,0,23.2,0,23.5S0.2,24,0.5,24h23c0.3,0,0.5-0.2,0.5-0.5S23.8,23,23.5,23z
		 M8,15H5v-2.3l1.5-1.5L8,12.7V15z M15,15h-3v-2.3l1.5-1.5l1.5,1.5V15z M2,1h5.7l3.9,7H2V1z M2,9h16v6h-2v-2.5
		c0-0.1-0.1-0.3-0.1-0.4l-2-2c-0.2-0.2-0.5-0.2-0.7,0l-2,2c-0.1,0.1-0.1,0.2-0.1,0.4V15H9v-2.5c0-0.1-0.1-0.3-0.1-0.4l-2-2
		c-0.2-0.2-0.5-0.2-0.7,0l-2,2C4.1,12.2,4,12.4,4,12.5V15H2V9z M5,20.2l1.5-1.5L8,20.2V23H5V20.2z M12,20.2l1.5-1.5l1.5,1.5V23h-3
		V20.2z M19,20.2l1.5-1.5l1.5,1.5V23h-3V20.2z"/>
	<path class="st0" d="M4.5,3C4.2,3,4,3.2,4,3.5v2C4,5.8,4.2,6,4.5,6S5,5.8,5,5.5v-2C5,3.2,4.8,3,4.5,3z"/>
	<path class="st0" d="M6.5,3C6.2,3,6,3.2,6,3.5v2C6,5.8,6.2,6,6.5,6S7,5.8,7,5.5v-2C7,3.2,6.8,3,6.5,3z"/>
</g>
<g id="Frames-24px">
	<rect class="st1" width="24" height="24"/>
</g>
</svg>
