<?xml version="1.0" encoding="utf-8"?>
<!-- Generator: Adobe Illustrator 21.0.0, SVG Export Plug-In . SVG Version: 6.00 Build 0)  -->
<svg version="1.1" id="Layer_1" xmlns="http://www.w3.org/2000/svg" xmlns:xlink="http://www.w3.org/1999/xlink" x="0px" y="0px"
	 viewBox="0 0 24 24" style="enable-background:new 0 0 24 24;" xml:space="preserve">
<style type="text/css">
	.st0{fill:#58595B;}
	.st1{fill:none;}
</style>
<g>
	<path class="st0" d="M23.9,5.2C23.8,5.1,23.6,5,23.5,5h-22C1.2,5,1,5.2,1,5.5l-1,15c0,0.1,0,0.3,0.1,0.4C0.2,20.9,0.4,21,0.5,21h22
		c0.3,0,0.5-0.2,0.5-0.5l1-15C24,5.4,24,5.3,23.9,5.2z M23,6l-0.1,2h-21L2,6H23z M22.8,9l-0.1,2h-21l0.1-2H22.8z M22,20H1l0.5-8h21
		L22,20z"/>
	<path class="st0" d="M5.5,15h-2C3.2,15,3,15.2,3,15.5S3.2,16,3.5,16h2C5.8,16,6,15.8,6,15.5S5.8,15,5.5,15z"/>
	<path class="st0" d="M11.5,15h-4C7.2,15,7,15.2,7,15.5S7.2,16,7.5,16h4c0.3,0,0.5-0.2,0.5-0.5S11.8,15,11.5,15z"/>
	<path class="st0" d="M4.5,17h-1C3.2,17,3,17.2,3,17.5S3.2,18,3.5,18h1C4.8,18,5,17.8,5,17.5S4.8,17,4.5,17z"/>
	<path class="st0" d="M9.5,17h-3C6.2,17,6,17.2,6,17.5S6.2,18,6.5,18h3c0.3,0,0.5-0.2,0.5-0.5S9.8,17,9.5,17z"/>
	<path class="st0" d="M19.5,17h-3c-0.3,0-0.5,0.2-0.5,0.5s0.2,0.5,0.5,0.5h3c0.3,0,0.5-0.2,0.5-0.5S19.8,17,19.5,17z"/>
</g>
<g id="Frames-24px">
	<rect class="st1" width="24" height="24"/>
</g>
</svg>
