<?xml version="1.0" encoding="utf-8"?>
<!-- Generator: Adobe Illustrator 21.0.0, SVG Export Plug-In . SVG Version: 6.00 Build 0)  -->
<svg version="1.1" id="Layer_1" xmlns="http://www.w3.org/2000/svg" xmlns:xlink="http://www.w3.org/1999/xlink" x="0px" y="0px"
	 viewBox="0 0 24 24" style="enable-background:new 0 0 24 24;" xml:space="preserve">
<style type="text/css">
	.st0{fill:#58595B;}
	.st1{fill:none;}
</style>
<path class="st0" d="M22.9,13.7l-3.5-4.5C19.3,9.1,19.2,9,19,9c-0.1,0-0.3,0.1-0.4,0.2l-1.4,1.6l-2.3-3.5C14.8,7.1,14.7,7,14.5,7
	c-0.2,0-0.3,0.1-0.4,0.2L12,9.6V4h2.5C14.8,4,15,3.8,15,3.5S14.8,3,14.5,3H12V0.5C12,0.2,11.8,0,11.5,0S11,0.2,11,0.5V3H8.5
	C8.2,3,8,3.2,8,3.5S8.2,4,8.5,4H11v5.6L8.9,7.2C8.8,7.1,8.6,7,8.5,7C8.3,7,8.2,7.1,8.1,7.2l-2.3,3.5L4.4,9.2C4.3,9.1,4.1,9,4,9
	C3.8,9,3.7,9.1,3.6,9.2l-3.5,4.5c-0.1,0.2-0.1,0.4,0,0.6l3.8,5.3l-1.4,3.7c-0.1,0.2,0,0.3,0.1,0.5C2.7,23.9,2.8,24,3,24h17
	c0.2,0,0.3-0.1,0.4-0.2c0.1-0.1,0.1-0.3,0.1-0.5l-1.4-3.7l3.8-5.3C23,14.1,23,13.9,22.9,13.7z M17.9,13.4L17,14.3l-0.8-0.8l1-1.1
	L17.9,13.4z M5.9,12.4l1,1.1L6,14.3l-0.9-0.9L5.9,12.4z M19.3,23H3.7l1.1-3h13.3L19.3,23z M18.2,19H4.8l-3.6-5L4,10.3l1.1,1.3
	l-1.1,1.6C4,13.4,4,13.7,4.1,13.9l1.5,1.5c0.2,0.2,0.5,0.2,0.7,0l1.5-1.5c0.2-0.2,0.2-0.5,0-0.7l-1.5-1.7l2.1-3.2l2.6,3c0,0,0,0,0,0
	c0.1,0.1,0.2,0.2,0.4,0.2s0.3-0.1,0.4-0.2c0,0,0,0,0,0l2.6-3l2.1,3.2l-1.5,1.7c-0.2,0.2-0.2,0.5,0,0.7l1.5,1.5
	c0.2,0.2,0.5,0.2,0.7,0l1.5-1.5c0.2-0.2,0.2-0.4,0.1-0.6l-1.1-1.6l1.1-1.3l2.9,3.7L18.2,19z"/>
<g id="Frames-24px">
	<rect class="st1" width="24" height="24"/>
</g>
</svg>
