<?xml version="1.0" encoding="utf-8"?>
<!-- Generator: Adobe Illustrator 21.0.0, SVG Export Plug-In . SVG Version: 6.00 Build 0)  -->
<svg version="1.1" id="Layer_1" xmlns="http://www.w3.org/2000/svg" xmlns:xlink="http://www.w3.org/1999/xlink" x="0px" y="0px"
	 viewBox="0 0 24 24" style="enable-background:new 0 0 24 24;" xml:space="preserve">
<style type="text/css">
	.st0{fill:#58595B;}
	.st1{fill:none;}
</style>
<path class="st0" d="M24,11.6C24,11.5,24,11.5,24,11.6c0-0.1,0-0.1,0-0.1c0,0,0-0.1,0-0.1c0,0,0,0,0-0.1l-5.8-10c0,0,0,0,0,0
	c0,0-0.1-0.1-0.1-0.1c0,0,0,0-0.1,0c0,0,0,0,0,0c-0.1,0-0.1,0-0.2,0c0,0,0,0,0,0h0c0,0,0,0,0,0H6.3c0,0,0,0,0,0h0c0,0,0,0-0.1,0
	C6.1,1,6.1,1,6,1.1c0,0,0,0,0,0c0,0,0,0-0.1,0.1c0,0-0.1,0.1-0.1,0.1c0,0,0,0,0,0l-5.8,10c0,0,0,0,0,0c0,0,0,0,0,0.1
	c0,0,0,0.1,0,0.1c0,0,0,0,0,0.1c0,0.1,0,0.2,0.1,0.2c0,0,0,0,0,0l5.8,10c0,0,0,0,0,0c0,0.1,0.1,0.1,0.1,0.2c0,0,0,0,0,0
	C6.1,22,6.2,22,6.2,22h11.5c0.1,0,0.2,0,0.2-0.1c0,0,0,0,0.1,0c0,0,0,0,0.1,0c0,0,0-0.1,0.1-0.1c0,0,0,0,0,0l5.8-10c0,0,0,0,0,0
	C24,11.7,24,11.6,24,11.6z M17.7,20.7L16.2,19l5.2-4.9L17.7,20.7z M22.1,10.1l-5.9-3.4l1.6-4.1L22.1,10.1z M6.1,12.1l0.6-9.7
	l7.9,4.6L6.1,12.1z M15.1,7.8L15,18.1L6.5,13L15.1,7.8z M14.2,18.8l-7.5,2l-0.6-6.9L14.2,18.8z M16.1,7.8l6.6,3.8L16,17.8L16.1,7.8z
	 M15.3,6.2L8.1,2H17L15.3,6.2z M5,12.3l-3.8-1.1l4.4-7.6L5,12.3z M5,13.4l0.5,5.9l-4-6.9L5,13.4z M15.3,19.6l1.3,1.4H10L15.3,19.6z"
	/>
<g id="Frames-24px">
	<rect class="st1" width="24" height="24"/>
</g>
</svg>
