<?xml version="1.0" encoding="utf-8"?>
<!-- Generator: Adobe Illustrator 21.0.0, SVG Export Plug-In . SVG Version: 6.00 Build 0)  -->
<svg version="1.1" id="Layer_1" xmlns="http://www.w3.org/2000/svg" xmlns:xlink="http://www.w3.org/1999/xlink" x="0px" y="0px"
	 viewBox="0 0 24 24" style="enable-background:new 0 0 24 24;" xml:space="preserve">
<style type="text/css">
	.st0{fill:#58595B;}
	.st1{fill:none;}
</style>
<g>
	<path class="st0" d="M22,16.2V16h1.5c0.2,0,0.3-0.1,0.4-0.2s0.1-0.3,0-0.5l-2.5-6C21.4,9.1,21.2,9,21,9h-2.2l-2.4-5.7
		C16.4,3.1,16.2,3,16,3H0.5C0.3,3,0.2,3.1,0.1,3.2C0,3.3,0,3.5,0,3.6L3,14H2.5C2.2,14,2,14.2,2,14.5S2.2,15,2.5,15h0.8l0.2,0.6
		C3.6,15.9,3.8,16,4,16h1v0.2c0,0.2,0.1,0.3,0.2,0.4l1.5,1c0.1,0.1,0.2,0.1,0.3,0.1s0.2,0,0.3-0.1l1.5-1C8.9,16.6,9,16.4,9,16.2V16
		h9v0.2c0,0.2,0.1,0.3,0.2,0.4l1.5,1c0.1,0.1,0.2,0.1,0.3,0.1s0.2,0,0.3-0.1l1.5-1C21.9,16.6,22,16.4,22,16.2z M17.7,9h-3.3l-1.7-5
		h2.9L17.7,9z M15.4,15h-4.9L6.7,4h5L15.4,15z M8,16l-1,0.7L6,16v-1l1-0.7L8,15V16z M8.8,14.3l-1.5-1c-0.2-0.1-0.4-0.1-0.6,0l-1.5,1
		C5.1,14.4,5,14.6,5,14.8V15H4.4L1.2,4h4.5l3.7,11H9v-0.2C9,14.6,8.9,14.4,8.8,14.3z M16.4,15l-1.7-5h3.7h2.2l2.1,5H22v-0.2
		c0-0.2-0.1-0.3-0.2-0.4l-1.5-1c-0.2-0.1-0.4-0.1-0.6,0l-1.5,1c-0.1,0.1-0.2,0.2-0.2,0.4V15H16.4z M21,16l-1,0.7L19,16v-1l1-0.7
		l1,0.7V16z"/>
	<path class="st0" d="M10,10h1.5c0.3,0,0.5-0.2,0.5-0.5S11.8,9,11.5,9H10C9.7,9,9.5,9.2,9.5,9.5S9.7,10,10,10z"/>
	<path class="st0" d="M3.5,20h-2C1.2,20,1,20.2,1,20.5S1.2,21,1.5,21h2C3.8,21,4,20.8,4,20.5S3.8,20,3.5,20z"/>
	<path class="st0" d="M8.5,20h-2C6.2,20,6,20.2,6,20.5S6.2,21,6.5,21h2C8.8,21,9,20.8,9,20.5S8.8,20,8.5,20z"/>
	<path class="st0" d="M13.5,20h-2c-0.3,0-0.5,0.2-0.5,0.5s0.2,0.5,0.5,0.5h2c0.3,0,0.5-0.2,0.5-0.5S13.8,20,13.5,20z"/>
	<path class="st0" d="M18.5,20h-2c-0.3,0-0.5,0.2-0.5,0.5s0.2,0.5,0.5,0.5h2c0.3,0,0.5-0.2,0.5-0.5S18.8,20,18.5,20z"/>
	<path class="st0" d="M23.5,20h-2c-0.3,0-0.5,0.2-0.5,0.5s0.2,0.5,0.5,0.5h2c0.3,0,0.5-0.2,0.5-0.5S23.8,20,23.5,20z"/>
</g>
<g id="Frames-24px">
	<rect class="st1" width="24" height="24"/>
</g>
</svg>
