<?xml version="1.0" encoding="utf-8"?>
<!-- Generator: Adobe Illustrator 21.0.0, SVG Export Plug-In . SVG Version: 6.00 Build 0)  -->
<svg version="1.1" id="Layer_1" xmlns="http://www.w3.org/2000/svg" xmlns:xlink="http://www.w3.org/1999/xlink" x="0px" y="0px"
	 viewBox="0 0 24 24" style="enable-background:new 0 0 24 24;" xml:space="preserve">
<style type="text/css">
	.st0{fill:#58595B;}
	.st1{fill:none;}
</style>
<g>
	<path class="st0" d="M7.5,4C7.2,4,7,4.2,7,4.5v1C7,5.8,7.2,6,7.5,6S8,5.8,8,5.5v-1C8,4.2,7.8,4,7.5,4z"/>
	<path class="st0" d="M23.9,19.2L21.6,16l1.8-2.2c0.2-0.2,0.1-0.5,0-0.7l-2-2c-0.2-0.2-0.5-0.2-0.7,0s-0.2,0.5,0,0.7l1.7,1.7
		l-1.7,2.2c-0.1,0.2-0.1,0.4,0,0.6l2.3,3.2l-3,3l-1.3-8c0-0.1-0.1-0.2-0.2-0.3l-4.9-3.9L13.1,8h4.4c0.2,0,0.4-0.1,0.4-0.3
		C18,7.5,18,7.3,17.9,7.2l-5.5-7C12.3,0,12.1,0,11.9,0L6.4,1.5c-0.1,0-0.3,0.1-0.3,0.3L4.6,4.6L0.3,6.5C0.2,6.6,0.1,6.7,0,6.8
		c0,0.1,0,0.3,0,0.4l1.5,2.5C1.7,9.9,1.8,10,2,10h3.6l1.8,6l-2.5,5H3.5c-0.2,0-0.3,0.1-0.4,0.2l-1.5,2c-0.1,0.2-0.1,0.4,0,0.5
		C1.6,23.9,1.8,24,2,24h17.5c0,0,0,0,0,0c0,0,0.1,0,0.1,0c0,0,0,0,0,0c0,0,0,0,0.1,0c0,0,0,0,0,0c0,0,0.1,0,0.1-0.1c0,0,0,0,0,0l4-4
		C24,19.7,24,19.4,23.9,19.2z M3.8,22H9c0.2,0,0.4-0.1,0.4-0.3l1.9-3.7h2.2c0.3,0,0.5-0.2,0.5-0.5S13.8,17,13.5,17H11
		c-0.2,0-0.4,0.1-0.4,0.3L8.7,21H6.1l2.4-4.8c0.1-0.1,0.1-0.2,0-0.4L6.7,10H8c0.1,0,0.2,0,0.3-0.1l2-1.5c0.2-0.2,0.3-0.5,0.1-0.7
		c-0.2-0.2-0.5-0.3-0.7-0.1L7.8,9H6H2.3L1.2,7.2l4-1.8c0.1,0,0.2-0.1,0.2-0.2l1.4-2.8l5-1.4L16.5,7h-3.3l-2.4-2.4
		c-0.2-0.2-0.5-0.2-0.7,0s-0.2,0.5,0,0.7l1.8,1.8l0.6,3.4c0,0.1,0.1,0.2,0.2,0.3l4.9,3.9l1.4,8.2H3L3.8,22z"/>
</g>
<g id="Frames-24px">
	<rect class="st1" width="24" height="24"/>
</g>
</svg>
