<?xml version="1.0" encoding="utf-8"?>
<!-- Generator: Adobe Illustrator 21.0.0, SVG Export Plug-In . SVG Version: 6.00 Build 0)  -->
<svg version="1.1" id="Layer_1" xmlns="http://www.w3.org/2000/svg" xmlns:xlink="http://www.w3.org/1999/xlink" x="0px" y="0px"
	 viewBox="0 0 24 24" style="enable-background:new 0 0 24 24;" xml:space="preserve">
<style type="text/css">
	.st0{fill:#58595B;}
	.st1{fill:none;}
</style>
<g>
	<path class="st0" d="M23.9,8.3l-8.2-8.2c-0.2-0.2-0.5-0.2-0.7,0L0.2,14.7C0.1,14.8,0,14.9,0,15s0.1,0.3,0.1,0.4l8.5,8.5
		C8.7,23.9,8.9,24,9,24c0.2,0,0.3-0.1,0.4-0.2L23.9,9C24,8.8,24,8.5,23.9,8.3z M9,22.8L1.2,15l6.7-6.5l7.8,7.4L9,22.8z M16.4,15.2
		L8.6,7.8l6.7-6.6l7.5,7.5L16.4,15.2z"/>
	<path class="st0" d="M5.1,14.6c0,0-0.1-0.1-0.1-0.1s-0.1,0-0.1,0.1l-0.8,0.8c-0.1,0.1-0.1,0.2,0,0.3l0.8,0.8c0,0,0.1,0.1,0.1,0.1
		s0.1,0,0.1-0.1l0.8-0.8c0.1-0.1,0.1-0.2,0-0.3L5.1,14.6z"/>
	<path class="st0" d="M9.4,18.9l-0.8-0.8c0,0-0.1-0.1-0.1-0.1s-0.1,0-0.1,0.1l-0.8,0.8c-0.1,0.1-0.1,0.2,0,0.3l0.8,0.8
		c0,0,0.1,0.1,0.1,0.1s0.1,0,0.1-0.1l0.8-0.8C9.5,19.1,9.5,18.9,9.4,18.9z"/>
	<path class="st0" d="M8,13.5c0.1,0,0.1,0,0.1-0.1l0.8-0.8c0.1-0.1,0.1-0.2,0-0.3l-0.8-0.8c0,0-0.1-0.1-0.1-0.1s-0.1,0-0.1,0.1
		l-0.8,0.8c-0.1,0.1-0.1,0.2,0,0.3l0.8,0.8C7.9,13.5,7.9,13.5,8,13.5z"/>
	<path class="st0" d="M12.6,7.1c0,0-0.1-0.1-0.1-0.1s-0.1,0-0.1,0.1l-0.8,0.8c-0.1,0.1-0.1,0.2,0,0.3l0.8,0.8c0,0,0.1,0.1,0.1,0.1
		s0.1,0,0.1-0.1l0.8-0.8c0.1-0.1,0.1-0.2,0-0.3L12.6,7.1z"/>
	<path class="st0" d="M19.4,8.9c0,0,0.1,0.1,0.1,0.1s0.1,0,0.1-0.1l0.8-0.8c0.1-0.1,0.1-0.2,0-0.3l-0.8-0.8c0,0-0.1-0.1-0.1-0.1
		s-0.1,0-0.1,0.1l-0.8,0.8c-0.1,0.1-0.1,0.2,0,0.3L19.4,8.9z"/>
</g>
<g id="Frames-24px">
	<rect class="st1" width="24" height="24"/>
</g>
</svg>
