<?xml version="1.0" encoding="utf-8"?>
<!-- Generator: Adobe Illustrator 21.0.0, SVG Export Plug-In . SVG Version: 6.00 Build 0)  -->
<svg version="1.1" id="Layer_1" xmlns="http://www.w3.org/2000/svg" xmlns:xlink="http://www.w3.org/1999/xlink" x="0px" y="0px"
	 viewBox="0 0 24 24" style="enable-background:new 0 0 24 24;" xml:space="preserve">
<style type="text/css">
	.st0{fill:#58595B;}
	.st1{fill:none;}
</style>
<path class="st0" d="M23,4.3c0-0.1-0.1-0.1-0.1-0.2c0,0,0,0,0,0c0,0,0,0,0,0c0,0-0.1-0.1-0.1-0.1c0,0-0.1,0-0.1,0c0,0-0.1,0-0.1,0
	h-22c0,0-0.1,0-0.1,0c0,0-0.1,0-0.1,0c0,0-0.1,0-0.1,0.1c0,0,0,0,0,0c0,0,0,0,0,0c0,0-0.1,0.1-0.1,0.2c0,0.1,0,0.1,0,0.2
	c0,0,0,0,0,0v16c0,0,0,0,0,0.1c0,0,0,0.1,0,0.1c0,0,0,0.1,0.1,0.1c0,0,0,0,0,0.1c0,0,0,0,0,0c0,0,0.1,0.1,0.1,0.1c0,0,0,0,0,0
	c0.1,0,0.1,0,0.2,0h22c0.1,0,0.1,0,0.2,0c0,0,0,0,0,0c0.1,0,0.1-0.1,0.1-0.1c0,0,0,0,0,0c0,0,0,0,0-0.1c0,0,0-0.1,0.1-0.1
	c0,0,0-0.1,0-0.1c0,0,0,0,0-0.1v-16c0,0,0,0,0,0C23,4.4,23,4.4,23,4.3z M22,19.4l-7-6.5l7-7.2V19.4z M1,5.7l7,7.2l-7,6.5V5.7z
	 M11.5,15L1.7,5h19.6L11.5,15z M8.7,13.6l2.4,2.5c0.1,0.1,0.2,0.2,0.4,0.2s0.3-0.1,0.4-0.2l2.4-2.5l6.9,6.4H1.8L8.7,13.6z"/>
<g id="Frames-24px">
	<rect class="st1" width="24" height="24"/>
</g>
</svg>
