<?xml version="1.0" encoding="utf-8"?>
<!-- Generator: Adobe Illustrator 21.0.0, SVG Export Plug-In . SVG Version: 6.00 Build 0)  -->
<svg version="1.1" id="Layer_1" xmlns="http://www.w3.org/2000/svg" xmlns:xlink="http://www.w3.org/1999/xlink" x="0px" y="0px"
	 viewBox="0 0 24 24" style="enable-background:new 0 0 24 24;" xml:space="preserve">
<style type="text/css">
	.st0{fill:#58595B;}
	.st1{fill:none;}
</style>
<g>
	<path class="st0" d="M5.5,15h-5C0.2,15,0,15.2,0,15.5S0.2,16,0.5,16h5C5.8,16,6,15.8,6,15.5S5.8,15,5.5,15z"/>
	<path class="st0" d="M6,12H2.5C2.2,12,2,12.2,2,12.5S2.2,13,2.5,13H6c0.3,0,0.5-0.2,0.5-0.5S6.3,12,6,12z"/>
	<path class="st0" d="M6.5,9h-2C4.2,9,4,9.2,4,9.5S4.2,10,4.5,10h2C6.8,10,7,9.8,7,9.5S6.8,9,6.5,9z"/>
	<path class="st0" d="M24,7.6L24,7.6C24,7.5,24,7.5,24,7.6c0-0.1,0-0.1,0-0.2c0,0,0,0,0-0.1c0,0,0-0.1,0-0.1c0,0,0,0,0,0
		c0,0,0,0,0,0c0,0,0,0-0.1,0c0,0-0.1-0.1-0.1-0.1c0,0-0.1,0-0.1,0c0,0-0.1,0-0.1,0c0,0,0,0,0,0h-15c0,0,0,0,0,0c0,0-0.1,0-0.1,0
		c0,0-0.1,0-0.1,0c0,0,0,0-0.1,0c0,0-0.1,0-0.1,0.1c0,0,0,0,0,0c0,0,0,0,0,0c0,0,0,0.1,0,0.1c0,0,0,0.1,0,0.1c0,0,0,0,0,0l-1,10
		c0,0.1,0,0.3,0.1,0.4C7.2,17.9,7.4,18,7.5,18h15c0.3,0,0.5-0.2,0.5-0.5L24,7.6C24,7.6,24,7.6,24,7.6z M22.1,8L16,12.9L9.9,8H22.1z
		 M22,17h-14l0.9-8.5l6.8,5.4C15.8,14,15.9,14,16,14s0.2,0,0.3-0.1l6.6-5.3L22,17z"/>
</g>
<g id="Frames-24px">
	<rect class="st1" width="24" height="24"/>
</g>
</svg>
