<?xml version="1.0" encoding="utf-8"?>
<!-- Generator: Adobe Illustrator 21.0.0, SVG Export Plug-In . SVG Version: 6.00 Build 0)  -->
<svg version="1.1" id="Layer_1" xmlns="http://www.w3.org/2000/svg" xmlns:xlink="http://www.w3.org/1999/xlink" x="0px" y="0px"
	 viewBox="0 0 24 24" style="enable-background:new 0 0 24 24;" xml:space="preserve">
<style type="text/css">
	.st0{fill:#58595B;}
	.st1{fill:none;}
</style>
<g>
	<path class="st0" d="M19.5,8c0.1,0,0.3-0.1,0.4-0.1l3-3c0.2-0.2,0.2-0.5,0-0.7l-3-3C19.8,1.1,19.6,1,19.5,1h-4
		C15.2,1,15,1.2,15,1.5S15.2,2,15.5,2h3.8l2.5,2.5L19.3,7h-1.8c-0.2,0-0.4,0.1-0.4,0.3l-4.5,9l-1.1-2.9C11.4,13.1,11.2,13,11,13H8.7
		L5.1,9h3.4c0.2,0,0.4-0.1,0.4-0.3s0.1-0.4,0-0.5l-1-1.5C7.8,6.6,7.7,6.5,7.6,6.5L0.6,5C0.4,5,0.2,5,0.1,5.2C0,5.3,0,5.5,0,5.7l1,3
		C1.1,8.9,1.3,9,1.5,9h2.3l3.6,4H5.5c-0.1,0-0.3,0.1-0.4,0.1l-4,4c-0.2,0.2-0.2,0.5,0,0.7l3.7,3.7l-1.2,1.7
		c-0.2,0.2-0.1,0.5,0.1,0.7C3.8,24,3.9,24,4,24c0.2,0,0.3-0.1,0.4-0.2L5.7,22h12.5l1.3,1.8c0.1,0.1,0.2,0.2,0.4,0.2
		c0.1,0,0.2,0,0.3-0.1c0.2-0.2,0.3-0.5,0.1-0.7L19,21.3V19c0-0.2-0.2-0.4-0.4-0.5l-5.4-1.3L17.8,8H19.5z M1.3,6.2l5.9,1.3L7.6,8H1.9
		L1.3,6.2z M18,21H5.7l-3.5-3.5L5.7,14h4.9l1.4,3.7c0,0,0,0,0,0c0,0.1,0.1,0.1,0.1,0.1c0,0,0,0,0.1,0c0,0,0,0,0.1,0.1c0,0,0,0,0.1,0
		c0,0,0,0,0,0l5.6,1.4V21z"/>
	<path class="st0" d="M11.5,19H9.8l-1-1.3c0-0.1,0.1-0.2,0.1-0.2V16c0-0.2-0.1-0.4-0.3-0.4l-1-0.5c-0.1-0.1-0.3-0.1-0.4,0l-1,0.5
		C6,15.6,5.9,15.8,5.9,16v1.5c0,0.2,0.1,0.4,0.3,0.4l1,0.5c0.1,0,0.1,0.1,0.2,0.1s0.2,0,0.2-0.1L8,18.3L8.6,19H8.5
		C8.2,19,8,19.2,8,19.5S8.2,20,8.5,20h3c0.3,0,0.5-0.2,0.5-0.5S11.8,19,11.5,19z M6.9,17.2v-0.9l0.5-0.2l0.5,0.2v0.9l-0.5,0.2
		L6.9,17.2z"/>
</g>
<g id="Frames-24px">
	<rect class="st1" width="24" height="24"/>
</g>
</svg>
