<?xml version="1.0" encoding="utf-8"?>
<!-- Generator: Adobe Illustrator 21.0.0, SVG Export Plug-In . SVG Version: 6.00 Build 0)  -->
<svg version="1.1" id="Layer_1" xmlns="http://www.w3.org/2000/svg" xmlns:xlink="http://www.w3.org/1999/xlink" x="0px" y="0px"
	 viewBox="0 0 24 24" style="enable-background:new 0 0 24 24;" xml:space="preserve">
<style type="text/css">
	.st0{fill:#58595B;}
	.st1{fill:none;}
</style>
<g>
	<path class="st0" d="M9.2,8.1l-5,4C4.1,12.2,4,12.3,4,12.5s0.1,0.3,0.2,0.4l5,4C9.3,17,9.4,17,9.5,17h4c0.1,0,0.2,0,0.3-0.1l5-4
		c0.1-0.1,0.2-0.2,0.2-0.4s-0.1-0.3-0.2-0.4l-5-4C13.7,8,13.6,8,13.5,8h-4C9.4,8,9.3,8,9.2,8.1z M13.3,9l4.4,3.5L13.3,16H9.7
		l-4.4-3.5L9.7,9H13.3z"/>
	<path class="st0" d="M9.6,12.9l1.5,1.5c0.1,0.1,0.2,0.1,0.4,0.1s0.3-0.1,0.4-0.1l1.5-1.5c0.2-0.2,0.2-0.5,0-0.7l-1.5-1.5
		c-0.2-0.2-0.5-0.2-0.7,0l-1.5,1.5C9.5,12.3,9.5,12.7,9.6,12.9z M11.5,11.7l0.8,0.8l-0.8,0.8l-0.8-0.8L11.5,11.7z"/>
	<path class="st0" d="M21.7,6.6l-10-5.5c-0.1-0.1-0.3-0.1-0.5,0l-10,5.5C1.1,6.6,1,6.8,1,7v11c0,0.2,0.1,0.4,0.3,0.4l10,5.5
		c0.1,0,0.2,0.1,0.2,0.1s0.2,0,0.2-0.1l10-5.5c0.2-0.1,0.3-0.3,0.3-0.4V7C22,6.8,21.9,6.6,21.7,6.6z M21,17.7l-9.5,5.2L2,17.7V7.3
		l9.5-5.2L21,7.3V17.7z"/>
</g>
<g id="Frames-24px">
	<rect class="st1" width="24" height="24"/>
</g>
</svg>
