<?xml version="1.0" encoding="utf-8"?>
<!-- Generator: Adobe Illustrator 21.0.0, SVG Export Plug-In . SVG Version: 6.00 Build 0)  -->
<svg version="1.1" id="Layer_1" xmlns="http://www.w3.org/2000/svg" xmlns:xlink="http://www.w3.org/1999/xlink" x="0px" y="0px"
	 viewBox="0 0 24 24" style="enable-background:new 0 0 24 24;" xml:space="preserve">
<style type="text/css">
	.st0{fill:#58595B;}
	.st1{fill:none;}
</style>
<g>
	<path class="st0" d="M2.6,20.2c0.1,0.2,0.4,0.3,0.7,0.2c0.2-0.1,0.3-0.4,0.2-0.7L1.4,16h21.3l-2.1,3.8c-0.1,0.2,0,0.5,0.2,0.7
		c0.1,0,0.2,0.1,0.2,0.1c0.2,0,0.3-0.1,0.4-0.3l2.5-4.5c0.1-0.2,0.1-0.3,0-0.5c-0.1-0.2-0.3-0.2-0.4-0.2H22V9.5
		c0-0.2-0.1-0.4-0.4-0.5l-5-1.5c-0.2,0-0.3,0-0.4,0.1C16.1,7.7,16,7.8,16,8v7h-4V6.5C12,6.2,11.8,6,11.5,6h-9C2.2,6,2,6.2,2,6.5
		S2.2,7,2.5,7h5.3l3.2,3.7V15H8v-1.5C8,13.2,7.8,13,7.5,13h-4C3.2,13,3,13.2,3,13.5V15H0.5c-0.2,0-0.3,0.1-0.4,0.2
		c-0.1,0.2-0.1,0.3,0,0.5L2.6,20.2z M9.1,7H11v2.2L9.1,7z M17,11.1l1,0.3V12h-1V11.1z M17,13h1.5c0.3,0,0.5-0.2,0.5-0.5V11
		c0-0.2-0.2-0.4-0.4-0.5L17,10.1V8.7l4,1.2V15h-4V13z M4,14h3v1H4V14z"/>
	<path class="st0" d="M5.5,9.5C5.8,9.5,6,9.3,6,9V8.5C6,8.2,5.8,8,5.5,8S5,8.2,5,8.5V9C5,9.3,5.2,9.5,5.5,9.5z"/>
	<path class="st0" d="M5,11.5C5,11.8,5.2,12,5.5,12S6,11.8,6,11.5V11c0-0.3-0.2-0.5-0.5-0.5S5,10.7,5,11V11.5z"/>
	<path class="st0" d="M20.1,3.8C20.2,3.9,20.3,4,20.4,4c0,0,0,0,0.1,0c0.1,0,0.3-0.1,0.4-0.1l2-2c0.2-0.2,0.2-0.5,0-0.7
		s-0.5-0.2-0.7,0l-1.5,1.5l-1.2-2c-0.1-0.2-0.5-0.3-0.7-0.2c-0.2,0.1-0.3,0.4-0.2,0.7L20.1,3.8z"/>
	<path class="st0" d="M15.6,4.9C15.7,5,15.9,5,16,5s0.3,0,0.4-0.1l1-1c0.2-0.2,0.2-0.5,0-0.7s-0.5-0.2-0.7,0L16,3.8l-0.6-0.6
		c-0.2-0.2-0.5-0.2-0.7,0s-0.2,0.5,0,0.7L15.6,4.9z"/>
	<path class="st0" d="M23.2,21.6L21,22.9l-1.7-1.3c-0.2-0.1-0.4-0.1-0.6,0L17,22.9l-1.7-1.3c-0.2-0.1-0.4-0.1-0.6,0L13,22.9
		l-1.7-1.3c-0.2-0.1-0.4-0.1-0.6,0L9,22.9l-1.7-1.3c-0.2-0.1-0.4-0.1-0.6,0L5,22.9l-1.7-1.3c-0.2-0.1-0.4-0.1-0.6,0l-2.5,1.5
		c-0.2,0.1-0.3,0.4-0.2,0.7C0.2,23.9,0.3,24,0.5,24c0.1,0,0.2,0,0.3-0.1L3,22.6l1.7,1.3c0.2,0.1,0.4,0.1,0.6,0L7,22.6l1.7,1.3
		c0.2,0.1,0.4,0.1,0.6,0l1.7-1.3l1.7,1.3c0.2,0.1,0.4,0.1,0.6,0l1.7-1.3l1.7,1.3c0.2,0.1,0.4,0.1,0.6,0l1.7-1.3l1.7,1.3
		c0.2,0.1,0.4,0.1,0.6,0l2.5-1.5c0.2-0.1,0.3-0.4,0.2-0.7C23.8,21.5,23.5,21.4,23.2,21.6z"/>
</g>
<g id="Frames-24px">
	<rect class="st1" width="24" height="24"/>
</g>
</svg>
