<?xml version="1.0" encoding="utf-8"?>
<!-- Generator: Adobe Illustrator 21.0.0, SVG Export Plug-In . SVG Version: 6.00 Build 0)  -->
<svg version="1.1" id="Layer_1" xmlns="http://www.w3.org/2000/svg" xmlns:xlink="http://www.w3.org/1999/xlink" x="0px" y="0px"
	 viewBox="0 0 24 24" style="enable-background:new 0 0 24 24;" xml:space="preserve">
<style type="text/css">
	.st0{fill:#58595B;}
	.st1{fill:none;}
</style>
<path class="st0" d="M21.9,8.1l-6.9-6.9c-0.2-0.2-0.5-0.2-0.7,0l-3.8,3.8L8.8,3.3c-0.2-0.2-0.5-0.2-0.7,0L2.9,8.5l-1-1
	c-0.2-0.2-0.5-0.2-0.7,0S1,8,1.1,8.2l15.7,15.7c0.1,0.1,0.2,0.1,0.4,0.1s0.3,0,0.4-0.1c0.2-0.2,0.2-0.5,0-0.7l-7-7l4.8-4.8l1.6,1.6
	c0.1,0.1,0.2,0.1,0.4,0.1s0.3,0,0.4-0.1l4.2-4.2C21.9,8.7,22,8.6,22,8.4S21.9,8.2,21.9,8.1z M9.8,15.4L3.6,9.2l4.8-4.8l6.2,6.2
	L9.8,15.4z M17.3,11.9l-6.2-6.2l3.4-3.4l6.2,6.2L17.3,11.9z"/>
<g id="Frames-24px">
	<rect class="st1" width="24" height="24"/>
</g>
</svg>
