<?xml version="1.0" encoding="utf-8"?>
<!-- Generator: Adobe Illustrator 21.0.0, SVG Export Plug-In . SVG Version: 6.00 Build 0)  -->
<svg version="1.1" id="Layer_1" xmlns="http://www.w3.org/2000/svg" xmlns:xlink="http://www.w3.org/1999/xlink" x="0px" y="0px"
	 viewBox="0 0 24 24" style="enable-background:new 0 0 24 24;" xml:space="preserve">
<style type="text/css">
	.st0{fill:#58595B;}
	.st1{fill:none;}
</style>
<g>
	<path class="st0" d="M19,5C19,4.9,19,4.9,19,5C19,4.9,19,4.9,19,5c0-0.1,0-0.2-0.1-0.2c0,0,0,0,0-0.1c0,0,0-0.1-0.1-0.1
		c0,0,0,0,0,0l-7-4.5c-0.2-0.1-0.4-0.1-0.5,0l-7,4.6c0,0,0,0,0,0c0,0-0.1,0-0.1,0.1c0,0,0,0,0,0.1c0,0,0,0.1,0,0.1c0,0,0,0,0,0.1
		c0,0,0,0,0,0c0,0,0,0,0,0v6.4c0,0.1,0,0.2,0.1,0.3l3.5,5C7.7,16.9,7.8,17,8,17h3v4.7l-1.3-0.6c-0.2-0.1-0.5,0-0.7,0.2
		c-0.1,0.2,0,0.5,0.2,0.7l1.7,0.9v0.7c0,0.3,0.2,0.5,0.5,0.5s0.5-0.2,0.5-0.5v-2.7l1.7-0.9c0.2-0.1,0.3-0.4,0.2-0.7
		c-0.1-0.2-0.4-0.3-0.7-0.2L12,19.7V17h3c0.2,0,0.3-0.1,0.4-0.2l3.5-5c0.1-0.1,0.1-0.2,0.1-0.3L19,5C19,5,19,5,19,5z M11.5,1.1
		l6.3,4l-3,3.9H8.2l-3-3.8L11.5,1.1z M5,11.3V6.5l2.6,3.3C7.7,9.9,7.8,10,8,10h5.8l-3.6,3.6C10.1,13.7,10,13.9,10,14v2H8.3L5,11.3z
		 M14.7,16H11v-1.8l4.4-4.4c0,0,0,0,0,0c0,0,0,0,0,0L18,6.5v4.9L14.7,16z"/>
	<path class="st0" d="M10.5,8c0.1,0,0.2,0,0.2-0.1l1.6-0.8c0.2-0.1,0.3-0.4,0.2-0.7c-0.1-0.2-0.4-0.3-0.7-0.2l-1.3,0.6L8.9,5.6
		l2.6-1.5l2.7,1.8C14.5,6,14.8,6,14.9,5.7C15.1,5.5,15,5.2,14.8,5l-3-2c-0.2-0.1-0.4-0.1-0.5,0l-3.5,2C7.6,5.1,7.5,5.3,7.5,5.5
		c0,0.2,0.1,0.3,0.2,0.4l2.5,2C10.3,8,10.4,8,10.5,8z"/>
</g>
<g id="Frames-24px">
	<rect class="st1" width="24" height="24"/>
</g>
</svg>
