<?xml version="1.0" encoding="utf-8"?>
<!-- Generator: Adobe Illustrator 21.0.0, SVG Export Plug-In . SVG Version: 6.00 Build 0)  -->
<svg version="1.1" id="Layer_1" xmlns="http://www.w3.org/2000/svg" xmlns:xlink="http://www.w3.org/1999/xlink" x="0px" y="0px"
	 viewBox="0 0 24 24" style="enable-background:new 0 0 24 24;" xml:space="preserve">
<style type="text/css">
	.st0{fill:#58595B;}
	.st1{fill:none;}
</style>
<path class="st0" d="M22.9,8.2C22.8,8.1,22.7,8,22.5,8H18V6.5C18,6.2,17.8,6,17.5,6h-0.3l-4.8-3.4l2.4-1.7C15,0.8,15,0.6,15,0.3
	C14.9,0.1,14.7,0,14.5,0h-6C8.3,0,8.1,0.1,8,0.3C8,0.6,8,0.8,8.2,0.9l2.4,1.7L5.8,6H5.5h-4C1.3,6,1.1,6.1,1,6.3C1,6.5,1,6.7,1.1,6.8
	L5,11.2v10.3C5,21.8,5.2,22,5.5,22H7l-0.9,1.2c-0.2,0.2-0.1,0.5,0.1,0.7C6.3,24,6.4,24,6.5,24c0.2,0,0.3-0.1,0.4-0.2L8.2,22h6.5
	l1.3,1.8c0.1,0.1,0.2,0.2,0.4,0.2c0.1,0,0.2,0,0.3-0.1c0.2-0.2,0.3-0.5,0.1-0.7L16,22h1.5c0.3,0,0.5-0.2,0.5-0.5V17h2
	c0.2,0,0.4-0.1,0.5-0.4l2.5-8C23,8.5,23,8.3,22.9,8.2z M6,7h5v6H8.5C8.2,13,8,13.2,8,13.5S8.2,14,8.5,14h6c0.3,0,0.5-0.2,0.5-0.5
	S14.8,13,14.5,13H12V7h5v9H6V7z M10.1,1h2.8l-1.4,1L10.1,1z M11.5,3.2L15.4,6H7.6L11.5,3.2z M2.6,7H5v2.7L2.6,7z M6,21v-4h11v4H6z
	 M19.6,16H18V9h3.8L19.6,16z"/>
<g id="Frames-24px">
	<rect class="st1" width="24" height="24"/>
</g>
</svg>
