<?xml version="1.0" encoding="utf-8"?>
<!-- Generator: Adobe Illustrator 21.0.0, SVG Export Plug-In . SVG Version: 6.00 Build 0)  -->
<svg version="1.1" id="Layer_1" xmlns="http://www.w3.org/2000/svg" xmlns:xlink="http://www.w3.org/1999/xlink" x="0px" y="0px"
	 viewBox="0 0 24 24" style="enable-background:new 0 0 24 24;" xml:space="preserve">
<style type="text/css">
	.st0{fill:#58595B;}
	.st1{fill:none;}
</style>
<g>
	<path class="st0" d="M13,14h-3c-0.3,0-0.5,0.2-0.5,0.5S9.7,15,10,15h3c0.3,0,0.5-0.2,0.5-0.5S13.3,14,13,14z"/>
	<path class="st0" d="M12,16h-1c-0.3,0-0.5,0.2-0.5,0.5S10.7,17,11,17h1c0.3,0,0.5-0.2,0.5-0.5S12.3,16,12,16z"/>
	<path class="st0" d="M22.9,16.6l-3.2-3.2c0,0-0.1-0.1-0.2-0.1l-1.3-0.6l2.3-6.8c0-0.1,0-0.3,0-0.4c-0.1-0.1-0.2-0.2-0.3-0.2l-8.5-2
		c-0.1,0-0.2,0-0.2,0l-8.5,2c-0.1,0-0.3,0.1-0.3,0.2c-0.1,0.1-0.1,0.3,0,0.4l2.3,6.8l-1.3,0.6c-0.1,0-0.1,0.1-0.2,0.1l-3.2,3.2
		c-0.2,0.2-0.2,0.5,0,0.7l4,4c0.1,0.1,0.2,0.1,0.4,0.1c0,0,0,0,0,0c0.1,0,0.3-0.1,0.4-0.2l3.2-3.6l0.7,2C8.8,19.9,9,20,9.2,20h4.5
		c0.2,0,0.4-0.1,0.5-0.3l0.7-2l3.2,3.6c0.1,0.1,0.2,0.2,0.4,0.2c0,0,0,0,0,0c0.1,0,0.3-0.1,0.4-0.1l4-4C23,17.2,23,16.8,22.9,16.6z
		 M15.8,13.2l-4-2.1c-0.1,0-0.2-0.1-0.2-0.1s-0.2,0-0.2,0.1l-4,2.1l-1.3-0.6L4.4,8.2l7.1-1.9l7.1,1.9l-1.5,4.5L15.8,13.2z M11.5,4.3
		l7.8,1.8L19,7.2l-7.3-2c-0.1,0-0.2,0-0.3,0L4,7.2L3.7,6.1L11.5,4.3z M4.5,20.3L1.2,17L2,16.2l3.2,3.2L4.5,20.3z M5.9,18.6l-3.2-3.2
		L4,14.2l1.5-0.6l1.4,0.6l0.9,2.5L5.9,18.6z M13.4,19H9.6l-1.7-5l3.6-1.9l3.6,1.9L13.4,19z M16.1,14.1l1.4-0.6l1.5,0.6l1.3,1.3
		l-3.2,3.2l-1.8-2L16.1,14.1z M18.5,20.3l-0.8-0.9l3.2-3.2l0.8,0.8L18.5,20.3z"/>
</g>
<g id="Frames-24px">
	<rect class="st1" width="24" height="24"/>
</g>
</svg>
