<?xml version="1.0" encoding="utf-8"?>
<!-- Generator: Adobe Illustrator 21.0.0, SVG Export Plug-In . SVG Version: 6.00 Build 0)  -->
<svg version="1.1" id="Layer_1" xmlns="http://www.w3.org/2000/svg" xmlns:xlink="http://www.w3.org/1999/xlink" x="0px" y="0px"
	 viewBox="0 0 24 24" style="enable-background:new 0 0 24 24;" xml:space="preserve">
<style type="text/css">
	.st0{fill:#58595B;}
	.st1{fill:none;}
</style>
<path class="st0" d="M17.2,7.5l3.6-3.6C21,3.7,21,3.5,21,3.3S20.7,3,20.5,3H9V1.8c0-0.3-0.2-0.5-0.5-0.5S8,1.5,8,1.8v13l-7.7,4.1
	C0.1,18.9,0,19.1,0,19.2s0.1,0.4,0.3,0.4l8,4.2C8.3,24,8.4,24,8.5,24s0.2,0,0.2-0.1l8-4.2c0.2-0.1,0.3-0.3,0.3-0.4s-0.1-0.4-0.3-0.4
	L9,14.7V12h11.5c0.2,0,0.4-0.1,0.5-0.3s0-0.4-0.1-0.5L17.2,7.5z M15.4,19.2l-6.9,3.7l-6.9-3.7L8,15.8v3.7C8,19.8,8.2,20,8.5,20
	S9,19.8,9,19.5v-3.7L15.4,19.2z M9,11V4h10.3l-3.1,3.1c-0.2,0.2-0.2,0.5,0,0.7l3.1,3.1H9z"/>
<g id="Frames-24px">
	<rect class="st1" width="24" height="24"/>
</g>
</svg>
