<?xml version="1.0" encoding="utf-8"?>
<!-- Generator: Adobe Illustrator 21.0.0, SVG Export Plug-In . SVG Version: 6.00 Build 0)  -->
<svg version="1.1" id="Layer_1" xmlns="http://www.w3.org/2000/svg" xmlns:xlink="http://www.w3.org/1999/xlink" x="0px" y="0px"
	 viewBox="0 0 24 24" style="enable-background:new 0 0 24 24;" xml:space="preserve">
<style type="text/css">
	.st0{fill:#58595B;}
	.st1{fill:none;}
</style>
<g>
	<path class="st0" d="M22.5,20H21v-1.5c0-0.3-0.2-0.5-0.5-0.5H18v-1.5c0-0.3-0.2-0.5-0.5-0.5H12v-1h6.5c0.3,0,0.5-0.2,0.5-0.5
		S18.8,14,18.5,14H12v-0.5c0-0.3-0.2-0.5-0.5-0.5S11,13.2,11,13.5V14H4.5C4.2,14,4,14.2,4,14.5S4.2,15,4.5,15H11v1H5.5
		C5.2,16,5,16.2,5,16.5v4.8l-1.4,1.9c-0.1,0.2-0.1,0.4,0,0.5C3.6,23.9,3.8,24,4,24h15c0.2,0,0.4-0.1,0.4-0.3c0.1-0.2,0.1-0.4,0-0.5
		L18,21.3V19h2v1.5c0,0.3,0.2,0.5,0.5,0.5h2c0.3,0,0.5-0.2,0.5-0.5S22.8,20,22.5,20z M6,17h11v4H6V17z M5,23l0.7-1h11.5l0.7,1H5z"/>
	<path class="st0" d="M3.7,12.8L16.1,8h3.7l2,2l-2,2h-4.3c-0.3,0-0.5,0.2-0.5,0.5s0.2,0.5,0.5,0.5H20c0.1,0,0.3-0.1,0.4-0.1l2.5-2.5
		c0.2-0.2,0.2-0.5,0-0.7l-2.5-2.5C20.3,7.1,20.1,7,20,7h-3.9L3.7,2.2c0,0,0,0,0,0L0.7,1C0.5,1,0.4,1,0.2,1.1C0.1,1.2,0,1.3,0,1.5v12
		c0,0.2,0.1,0.3,0.2,0.4C0.3,14,0.4,14,0.5,14c0.1,0,0.1,0,0.2,0L3.7,12.8C3.7,12.8,3.7,12.8,3.7,12.8z M4,11.6V3.4l10.6,4.1L4,11.6
		z M1,2.2L3,3v9l-2,0.8V2.2z"/>
</g>
<g id="Frames-24px">
	<rect class="st1" width="24" height="24"/>
</g>
</svg>
