<?xml version="1.0" encoding="utf-8"?>
<!-- Generator: Adobe Illustrator 21.0.0, SVG Export Plug-In . SVG Version: 6.00 Build 0)  -->
<svg version="1.1" id="Layer_1" xmlns="http://www.w3.org/2000/svg" xmlns:xlink="http://www.w3.org/1999/xlink" x="0px" y="0px"
	 viewBox="0 0 24 24" style="enable-background:new 0 0 24 24;" xml:space="preserve">
<style type="text/css">
	.st0{fill:#58595B;}
	.st1{fill:none;}
</style>
<g>
	<path class="st0" d="M22.5,7C22.2,7,22,7.2,22,7.5V23H1V5h14.5C15.8,5,16,4.8,16,4.5S15.8,4,15.5,4h-15C0.2,4,0,4.2,0,4.5v19
		C0,23.8,0.2,24,0.5,24h22c0.3,0,0.5-0.2,0.5-0.5v-16C23,7.2,22.8,7,22.5,7z"/>
	<path class="st0" d="M18.1,21.9c0.1,0.1,0.2,0.1,0.4,0.1s0.3,0,0.4-0.1l1-1c0.1-0.1,0.1-0.2,0.1-0.4V7.7l1.9-1.9
		C21.9,5.7,22,5.6,22,5.4V1.5C22,1.2,21.8,1,21.5,1h-4C17.2,1,17,1.2,17,1.5v3.9c0,0.1,0.1,0.3,0.1,0.3L19,7.7V18h-1.5
		c-0.3,0-0.5,0.2-0.5,0.5v2c0,0.1,0.1,0.3,0.1,0.4L18.1,21.9z M21,2v1h-3V2H21z M18,4h3v1.2l-1.5,1.5L18,5.2V4z M18,19h1v1.3
		l-0.5,0.5L18,20.3V19z"/>
	<path class="st0" d="M9,22c0.1,0,0.2,0,0.2-0.1l6.5-3.5c0.2-0.1,0.3-0.3,0.3-0.4v-8c0-0.2-0.1-0.4-0.3-0.4L9.2,6.1
		C9.1,6,8.9,6,8.8,6.1L2.3,9.6C2.1,9.6,2,9.8,2,10v8c0,0.2,0.1,0.4,0.3,0.4l6.5,3.5C8.8,22,8.9,22,9,22z M3,10.3l6-3.2l6,3.2v7.4
		l-6,3.2l-6-3.2V10.3z"/>
	<path class="st0" d="M10.9,14.4c0.2-0.2,0.2-0.5,0-0.7l-1.5-1.5c-0.2-0.2-0.5-0.2-0.7,0l-1.5,1.5c-0.2,0.2-0.2,0.5,0,0.7l1.5,1.5
		C8.7,15.9,8.9,16,9,16s0.3-0.1,0.4-0.1L10.9,14.4z M8.2,14L9,13.2L9.8,14L9,14.8L8.2,14z"/>
	<path class="st0" d="M5.8,10.1L4.3,11C4.1,11,4,11.2,4,11.4v2.2c0,0.3,0.2,0.5,0.5,0.5S5,13.8,5,13.6v-1.9l1.3-0.7
		c0.2-0.1,0.3-0.4,0.2-0.7C6.4,10,6,9.9,5.8,10.1z"/>
	<path class="st0" d="M11.9,18.1c0.1,0,0.2,0,0.2-0.1l1.6-0.9c0.2-0.1,0.3-0.3,0.3-0.4v-1.7c0-0.3-0.2-0.5-0.5-0.5S13,14.8,13,15.1
		v1.4l-1.3,0.7c-0.2,0.1-0.3,0.4-0.2,0.7C11.6,18,11.8,18.1,11.9,18.1z"/>
	<path class="st0" d="M2.5,21C2.2,21,2,21.2,2,21.5S2.2,22,2.5,22h1C3.8,22,4,21.8,4,21.5S3.8,21,3.5,21H2.5z"/>
</g>
<g id="Frames-24px">
	<rect class="st1" width="24" height="24"/>
</g>
</svg>
