<?xml version="1.0" encoding="utf-8"?>
<!-- Generator: Adobe Illustrator 21.0.0, SVG Export Plug-In . SVG Version: 6.00 Build 0)  -->
<svg version="1.1" id="Layer_1" xmlns="http://www.w3.org/2000/svg" xmlns:xlink="http://www.w3.org/1999/xlink" x="0px" y="0px"
	 viewBox="0 0 24 24" style="enable-background:new 0 0 24 24;" xml:space="preserve">
<style type="text/css">
	.st0{fill:#58595B;}
	.st1{fill:none;}
</style>
<path class="st0" d="M22.9,8.3C23,8.1,23,8,23,7.8s-0.1-0.2-0.3-0.3L19.1,6l0.3-0.8c0.1-0.2,0-0.5-0.3-0.6L11.7,1
	C11.6,1,11.4,1,11.3,1L3.8,4.5C3.5,4.7,3.4,4.9,3.5,5.2L3.9,6L0.3,7.5C0.2,7.6,0.1,7.7,0,7.8c0,0.1,0,0.3,0,0.4L3,13.1V16H1.5
	C1.2,16,1,16.2,1,16.5v3C1,19.8,1.2,20,1.5,20h1.8l2.8,3.8C6.2,23.9,6.3,24,6.5,24h2C8.8,24,9,23.8,9,23.5v-11C9,12.2,8.8,12,8.5,12
	h-2v0c-0.2,0-0.3,0-0.4,0.2L4,15v-2.1c0-0.1,0-0.2-0.1-0.3L1.2,8.2l3-1.3l0.3,0.8C4.6,7.8,4.7,7.9,4.8,8C4.9,8,5.1,8,5.2,8l6.3-2.9
	L17.8,8c0.1,0,0.1,0,0.2,0c0.1,0,0.1,0,0.2,0c0.1-0.1,0.2-0.2,0.3-0.3l0.3-0.8l3,1.3l-2.7,4.5c0,0.1-0.1,0.2-0.1,0.3V15l-2.1-2.8
	c-0.1-0.1-0.2-0.2-0.4-0.2v0h-2c-0.3,0-0.5,0.2-0.5,0.5v11c0,0.3,0.2,0.5,0.5,0.5h2c0.2,0,0.3-0.1,0.4-0.2l2.8-3.8h1.7
	c0.3,0,0.5-0.2,0.5-0.5v-3c0-0.3-0.2-0.5-0.5-0.5H20v-2.9L22.9,8.3z M8,23H7V13h1V23z M2,17h1v2H2V17z M6,22l-2-2.7v-2.7L6,14V22z
	 M17.7,6.8l-6-2.8c-0.1,0-0.1,0-0.2,0s-0.1,0-0.2,0l-6,2.8L4.6,5.3l6.9-3.2l6.9,3.2L17.7,6.8z M15,13h1v10h-1V13z M19,19.3L17,22v-8
	l2,2.7V19.3z M21,19h-1v-2h1V19z"/>
<g id="Frames-24px">
	<rect class="st1" width="24" height="24"/>
</g>
</svg>
