<?xml version="1.0" encoding="utf-8"?>
<!-- Generator: Adobe Illustrator 21.0.0, SVG Export Plug-In . SVG Version: 6.00 Build 0)  -->
<svg version="1.1" id="Layer_1" xmlns="http://www.w3.org/2000/svg" xmlns:xlink="http://www.w3.org/1999/xlink" x="0px" y="0px"
	 viewBox="0 0 24 24" style="enable-background:new 0 0 24 24;" xml:space="preserve">
<style type="text/css">
	.st0{fill:#58595B;}
	.st1{fill:none;}
</style>
<g>
	<path class="st0" d="M19,7.5v-5c0-0.1,0-0.1,0-0.2c0,0,0,0,0,0c0,0-0.1-0.1-0.1-0.1c0,0,0,0,0,0l-2.5-2C16.2,0,16.1,0,16,0H7.5
		C7.4,0,7.3,0,7.2,0.1l-3,2c0,0,0,0,0,0c0,0-0.1,0.1-0.1,0.1c0,0,0,0,0,0.1C4,2.3,4,2.4,4,2.5v5c0,0.2,0.1,0.3,0.2,0.4l6.4,4.6
		l-6.4,4.6C4.1,17.2,4,17.4,4,17.5v4c0,0.2,0.1,0.3,0.2,0.4l3,2C7.3,24,7.4,24,7.5,24H16c0.1,0,0.2,0,0.3-0.1l2.5-2
		c0.1-0.1,0.2-0.2,0.2-0.4v-4c0-0.2-0.1-0.3-0.2-0.4l-6.4-4.6l6.4-4.6C18.9,7.8,19,7.7,19,7.5z M7.7,1h8.2l1.9,1.5L15.8,4H7.7
		L5.4,2.5L7.7,1z M18,21.3L15.8,23H7.7L5,21.2v-3.5l6.5-4.6l6.5,4.6V21.3z M11.5,11.9L5,7.3V3.4l2.2,1.5C7.3,5,7.4,5,7.5,5H16
		c0.1,0,0.2,0,0.3-0.1L18,3.5v3.7L11.5,11.9z"/>
	<path class="st0" d="M13.7,7.1l-2.2,1.8L9.3,7.1C9.1,6.9,8.8,7,8.6,7.2C8.4,7.4,8.5,7.7,8.7,7.9l2.5,2c0.1,0.1,0.2,0.1,0.3,0.1
		s0.2,0,0.3-0.1l2.5-2c0.2-0.2,0.2-0.5,0.1-0.7C14.2,7,13.9,6.9,13.7,7.1z"/>
	<path class="st0" d="M11,15.5v1c0,0.3,0.2,0.5,0.5,0.5s0.5-0.2,0.5-0.5v-1c0-0.3-0.2-0.5-0.5-0.5S11,15.2,11,15.5z"/>
	<path class="st0" d="M12,18.5c0-0.3-0.2-0.5-0.5-0.5c0,0,0,0,0,0c-0.3,0-0.5,0.2-0.5,0.5l0,0.6l-4.2,1.4c-0.3,0.1-0.4,0.4-0.3,0.6
		s0.4,0.4,0.6,0.3l4.3-1.4l4.3,1.4c0.1,0,0.1,0,0.2,0c0.2,0,0.4-0.1,0.5-0.3c0.1-0.3-0.1-0.5-0.3-0.6L12,19.1L12,18.5z"/>
</g>
<g id="Frames-24px">
	<rect class="st1" width="24" height="24"/>
</g>
</svg>
