<?xml version="1.0" encoding="utf-8"?>
<!-- Generator: Adobe Illustrator 21.0.0, SVG Export Plug-In . SVG Version: 6.00 Build 0)  -->
<svg version="1.1" id="Layer_1" xmlns="http://www.w3.org/2000/svg" xmlns:xlink="http://www.w3.org/1999/xlink" x="0px" y="0px"
	 viewBox="0 0 24 24" style="enable-background:new 0 0 24 24;" xml:space="preserve">
<style type="text/css">
	.st0{fill:#58595B;}
	.st1{fill:none;}
</style>
<g>
	<path class="st0" d="M23.8,17.8l-3-1.8c-0.2-0.1-0.3-0.1-0.5,0l-3,1.8c-0.2,0.1-0.2,0.3-0.2,0.4V20h-1.4l3.6-7.2l0.3,0.2
		c0.1,0,0.2,0.1,0.2,0.1h1.5c0.1,0,0.3-0.1,0.4-0.2l1.8-2c0.1-0.1,0.2-0.4,0.1-0.5S23.2,10,23,10h-6.8c-0.2,0-0.4,0.2-0.5,0.4
		c-0.1,0.2,0,0.5,0.2,0.6l2.3,1.3L16,16.9l-2.8-1.2l0.5-1c0,0,0,0,0,0l0.9-2c0.1-0.2,0.1-0.3,0-0.5C14.3,12.1,14.2,12,14,12h-4V7.8
		L13.5,6L15.8,7c0.1,0,0.3,0,0.4,0l2.5-1C18.9,5.9,19,5.7,19,5.5c0-0.2-0.1-0.4-0.3-0.5l-9-5c0,0,0,0,0,0c0,0,0,0,0,0c0,0,0,0,0,0
		c0,0-0.1,0-0.1,0c0,0-0.1,0-0.1,0c0,0-0.1,0-0.1,0c0,0-0.1,0-0.1,0c0,0,0,0,0,0c0,0,0,0,0,0c0,0,0,0,0,0l-9,5C0.1,5.2,0,5.3,0,5.5
		C0,5.7,0.1,5.9,0.3,6l2.5,1c0.1,0,0.3,0,0.4,0L5.5,6L9,7.8V12H0.5C0.2,12,0,12.2,0,12.5v8C0,20.8,0.2,21,0.5,21H2v0.8
		c0,0.2,0.1,0.3,0.2,0.4l3,1.8C5.3,24,5.4,24,5.5,24s0.2,0,0.3-0.1l3-1.8C8.9,22.1,9,21.9,9,21.8V21h1.5H17v0.8
		c0,0.2,0.1,0.3,0.2,0.4l3,1.8c0.1,0,0.2,0.1,0.3,0.1s0.2,0,0.3-0.1l3-1.8c0.2-0.1,0.2-0.3,0.2-0.4v-3.5
		C24,18.1,23.9,17.9,23.8,17.8z M21.9,11L21,12h-1.1l-1.8-1H21.9z M9.5,6.9L6.3,5.3l3.2-4l3.2,4L9.5,6.9z M16,6l-2.2-0.9l-2.3-2.9
		l5.9,3.3L16,6z M3,6L1.7,5.4l5.9-3.3L5.2,5.1L3,6z M15.5,17.8L14.4,20h-3.2l1.5-3.4L15.5,17.8z M13.2,13l-0.4,1H1v-1H13.2z M8,21.5
		l-2.5,1.5L3,21.5v-2.9l2.5-1.5L8,18.5V21.5z M8.8,17.8l-3-1.8c-0.2-0.1-0.3-0.1-0.5,0l-3,1.8C2.1,17.9,2,18.1,2,18.2V20H1v-5h11.4
		l-2.2,5H9v-1.8C9,18.1,8.9,17.9,8.8,17.8z M23,21.5l-2.5,1.5L18,21.5v-2.9l2.5-1.5l2.5,1.5V21.5z"/>
	<path class="st0" d="M6.9,18.6c-0.2-0.2-0.5-0.2-0.7,0l-0.7,0.7l-0.7-0.7c-0.2-0.2-0.5-0.2-0.7,0s-0.2,0.5,0,0.7L4.8,20l-0.7,0.7
		c-0.2,0.2-0.2,0.5,0,0.7c0.1,0.1,0.2,0.1,0.4,0.1s0.3,0,0.4-0.1l0.7-0.7l0.7,0.7c0.1,0.1,0.2,0.1,0.4,0.1s0.3,0,0.4-0.1
		c0.2-0.2,0.2-0.5,0-0.7L6.2,20l0.7-0.7C7.1,19.1,7.1,18.8,6.9,18.6z"/>
	<path class="st0" d="M19.8,18.6c-0.2-0.2-0.5-0.2-0.7,0s-0.2,0.5,0,0.7l0.7,0.7l-0.7,0.7c-0.2,0.2-0.2,0.5,0,0.7
		c0.1,0.1,0.2,0.1,0.4,0.1s0.3,0,0.4-0.1l0.7-0.7l0.7,0.7c0.1,0.1,0.2,0.1,0.4,0.1s0.3,0,0.4-0.1c0.2-0.2,0.2-0.5,0-0.7L21.2,20
		l0.7-0.7c0.2-0.2,0.2-0.5,0-0.7s-0.5-0.2-0.7,0l-0.7,0.7L19.8,18.6z"/>
</g>
<g id="Frames-24px">
	<rect class="st1" width="24" height="24"/>
</g>
</svg>
