<?xml version="1.0" encoding="utf-8"?>
<!-- Generator: Adobe Illustrator 21.0.0, SVG Export Plug-In . SVG Version: 6.00 Build 0)  -->
<svg version="1.1" id="Layer_1" xmlns="http://www.w3.org/2000/svg" xmlns:xlink="http://www.w3.org/1999/xlink" x="0px" y="0px"
	 viewBox="0 0 24 24" style="enable-background:new 0 0 24 24;" xml:space="preserve">
<style type="text/css">
	.st0{fill:#58595B;}
	.st1{fill:none;}
</style>
<g>
	<path class="st0" d="M7.1,18.3c-0.1,0.2,0,0.5,0.2,0.7l3,1.5c0.1,0,0.1,0.1,0.2,0.1s0.2,0,0.2-0.1l3-1.5c0.2-0.1,0.3-0.4,0.2-0.7
		c-0.1-0.2-0.4-0.3-0.7-0.2l-2.8,1.4l-2.8-1.4C7.5,17.9,7.2,18,7.1,18.3z"/>
	<path class="st0" d="M7.5,14C7.8,14,8,13.8,8,13.5v-1C8,12.2,7.8,12,7.5,12S7,12.2,7,12.5v1C7,13.8,7.2,14,7.5,14z"/>
	<path class="st0" d="M13.5,14c0.3,0,0.5-0.2,0.5-0.5v-1c0-0.3-0.2-0.5-0.5-0.5S13,12.2,13,12.5v1C13,13.8,13.2,14,13.5,14z"/>
	<path class="st0" d="M22.5,9H19V4c0-0.2-0.1-0.4-0.3-0.5l-8-3.5C10.6,0,10.4,0,10.3,0l-8,3.5C2.1,3.6,2,3.8,2,4v7H0.5
		C0.2,11,0,11.2,0,11.5v4c0,0.2,0.1,0.4,0.3,0.4L2,16.8V20c0,0.2,0.1,0.4,0.3,0.5l8,3.5c0.1,0,0.1,0,0.2,0s0.1,0,0.2,0l8-3.5
		c0.2-0.1,0.3-0.3,0.3-0.5v-3.2l1.7-0.9c0.2-0.1,0.3-0.3,0.3-0.4v-4c0-0.3-0.2-0.5-0.5-0.5H19v-1h3.5c0.3,0,0.5-0.2,0.5-0.5
		S22.8,9,22.5,9z M10.5,1L18,4.3V9H3V8h2.5C5.8,8,6,7.8,6,7.5S5.8,7,5.5,7H3V4.3L10.5,1z M1,15.2V12h1v3.7L1,15.2z M20,12v3.2
		l-1,0.5V12H20z M18,19.7L10.5,23L3,19.7V10h15V19.7z"/>
</g>
<g id="Frames-24px">
	<rect class="st1" width="24" height="24"/>
</g>
</svg>
