<?xml version="1.0" encoding="utf-8"?>
<!-- Generator: Adobe Illustrator 21.0.0, SVG Export Plug-In . SVG Version: 6.00 Build 0)  -->
<svg version="1.1" id="Layer_1" xmlns="http://www.w3.org/2000/svg" xmlns:xlink="http://www.w3.org/1999/xlink" x="0px" y="0px"
	 viewBox="0 0 24 24" style="enable-background:new 0 0 24 24;" xml:space="preserve">
<style type="text/css">
	.st0{fill:#58595B;}
	.st1{fill:none;}
</style>
<g>
	<path class="st0" d="M9.1,15.4c0.1,0.1,0.2,0.1,0.4,0.1s0.3,0,0.4-0.1c0.2-0.2,0.2-0.5,0-0.7l-1-1c-0.2-0.2-0.5-0.2-0.7,0l-1,1
		c-0.2,0.2-0.2,0.5,0,0.7s0.5,0.2,0.7,0l0.6-0.6L9.1,15.4z"/>
	<path class="st0" d="M14.9,13.6c-0.2-0.2-0.5-0.2-0.7,0l-1,1c-0.2,0.2-0.2,0.5,0,0.7s0.5,0.2,0.7,0l0.6-0.6l0.6,0.6
		c0.1,0.1,0.2,0.1,0.4,0.1s0.3,0,0.4-0.1c0.2-0.2,0.2-0.5,0-0.7L14.9,13.6z"/>
	<path class="st0" d="M1.3,2.4l6,3c0.1,0,0.1,0.1,0.2,0.1c0.2,0,0.4-0.1,0.4-0.3C8.1,5,8,4.7,7.7,4.6l-6-3c-0.2-0.1-0.5,0-0.7,0.2
		C0.9,2,1,2.3,1.3,2.4z"/>
	<path class="st0" d="M15.5,5.5c0.1,0,0.2,0,0.2-0.1l6-3C22,2.3,22.1,2,21.9,1.8c-0.1-0.2-0.4-0.3-0.7-0.2l-6,3
		C15,4.7,14.9,5,15.1,5.2C15.1,5.4,15.3,5.5,15.5,5.5z"/>
	<path class="st0" d="M21.5,13H20V8c0-0.2-0.1-0.4-0.4-0.5l-7.1-2.2l1.2-0.9C13.9,4.3,14,4.2,14,4V2c0-0.2-0.1-0.3-0.2-0.4l-2-1.5
		c-0.2-0.1-0.4-0.1-0.6,0l-2,1.5C9.1,1.7,9,1.8,9,2v2c0,0.2,0.1,0.3,0.2,0.4l1.2,0.9L3.4,7.5C3.1,7.6,3,7.8,3,8v5H1.5
		C1.2,13,1,13.2,1,13.5V16c0,0.2,0.1,0.4,0.3,0.4L3,17.3V20c0,0.2,0.1,0.4,0.3,0.5l8,3.5c0.1,0,0.1,0,0.2,0s0.1,0,0.2,0l8-3.5
		c0.2-0.1,0.3-0.3,0.3-0.5v-2.7l1.7-0.9c0.2-0.1,0.3-0.3,0.3-0.4v-2.5C22,13.2,21.8,13,21.5,13z M19,12.7l-5.6-2.6l-1.2-3.9L19,8.4
		V12.7z M10,2.2l1.5-1.1L13,2.2v1.5l-1.5,1.1L10,3.8V2.2z M10.8,6.3l-1.2,3.9L4,12.7V8.4L10.8,6.3z M2,15.7V14h1v2.2L2,15.7z
		 M11.5,23L4,19.7v-5.9l6.2-2.9c0.1-0.1,0.2-0.2,0.3-0.3l1-3.4l1,3.4c0,0.1,0.1,0.3,0.3,0.3l6.2,2.9v5.9L11.5,23z M21,15.7l-1,0.5
		V14h1V15.7z"/>
	<path class="st0" d="M14.3,18.1l-2.8,1.4l-2.8-1.4c-0.2-0.1-0.5,0-0.7,0.2c-0.1,0.2,0,0.5,0.2,0.7l3,1.5c0.1,0,0.1,0.1,0.2,0.1
		s0.2,0,0.2-0.1l3-1.5c0.2-0.1,0.3-0.4,0.2-0.7C14.8,18,14.5,17.9,14.3,18.1z"/>
</g>
<g id="Frames-24px">
	<rect class="st1" width="24" height="24"/>
</g>
</svg>
