<?xml version="1.0" encoding="utf-8"?>
<!-- Generator: Adobe Illustrator 21.0.0, SVG Export Plug-In . SVG Version: 6.00 Build 0)  -->
<svg version="1.1" id="Layer_1" xmlns="http://www.w3.org/2000/svg" xmlns:xlink="http://www.w3.org/1999/xlink" x="0px" y="0px"
	 viewBox="0 0 24 24" style="enable-background:new 0 0 24 24;" xml:space="preserve">
<style type="text/css">
	.st0{fill:#58595B;}
	.st1{fill:none;}
</style>
<path class="st0" d="M19.9,2.2l-1.5-2C18.3,0.1,18.2,0,18,0H6C5.8,0,5.7,0.1,5.6,0.2l-1.5,2C4,2.4,4,2.6,4.1,2.7
	C4.1,2.9,4.3,3,4.5,3H6v8c0,0.2,0.1,0.4,0.3,0.4l4.6,2.3l-3.6,1.8C7.1,15.6,7,15.8,7,16v7.5C7,23.8,7.2,24,7.5,24h9
	c0.3,0,0.5-0.2,0.5-0.5V16c0-0.2-0.1-0.4-0.3-0.4l-3.6-1.8l4.6-2.3c0.2-0.1,0.3-0.3,0.3-0.4V3h1.5c0.2,0,0.4-0.1,0.4-0.3
	S20,2.4,19.9,2.2z M8,23v-3h2.3l1.4,1.4c0.1,0.1,0.2,0.1,0.4,0.1s0.3-0.1,0.4-0.1l1.4-1.4H16v3H8z M11.2,19.5l0.8-0.8l0.8,0.8
	L12,20.3L11.2,19.5z M16,16.3V19h-2.3l-1.4-1.4c-0.2-0.2-0.5-0.2-0.7,0L10.3,19H8v-2.7l4-2L16,16.3z M12,13.2l-2-1V11h2h0.5H14v1.2
	L12,13.2z M11.8,7.4C11.9,7.3,12,7.2,12,7V5.9l1.3,1.6l-1.2,1.2C12.1,8.7,12,8.9,12,9v0.7l-1.3-1.6L11.8,7.4z M17,10.7l-2,1v-1.2
	c0-0.3-0.2-0.5-0.5-0.5H13V9.2l1.4-1.4c0.2-0.2,0.2-0.5,0-0.7l-2.5-3C11.7,4,11.5,4,11.3,4C11.1,4.1,11,4.3,11,4.5v2.2L9.7,7.6
	C9.6,7.7,9.5,7.8,9.5,7.9s0,0.3,0.1,0.4L11,10H9.5C9.2,10,9,10.2,9,10.5v1.2l-2-1V3h10V10.7z M5.5,2l0.8-1h11.5l0.8,1H5.5z"/>
<g id="Frames-24px">
	<rect class="st1" width="24" height="24"/>
</g>
</svg>
