<?xml version="1.0" encoding="utf-8"?>
<!-- Generator: Adobe Illustrator 21.0.0, SVG Export Plug-In . SVG Version: 6.00 Build 0)  -->
<svg version="1.1" id="Layer_1" xmlns="http://www.w3.org/2000/svg" xmlns:xlink="http://www.w3.org/1999/xlink" x="0px" y="0px"
	 viewBox="0 0 24 24" style="enable-background:new 0 0 24 24;" xml:space="preserve">
<style type="text/css">
	.st0{fill:#58595B;}
	.st1{fill:none;}
</style>
<path class="st0" d="M17.9,11.8l-6-11.5c-0.2-0.3-0.7-0.3-0.9,0l-6,11.5C5,11.8,5,11.9,5,12v5.8c0,0.2,0.1,0.3,0.2,0.4l5.8,4.1v1.2
	c0,0.3,0.2,0.5,0.5,0.5s0.5-0.2,0.5-0.5v-1.2l5.8-4.1c0.1-0.1,0.2-0.2,0.2-0.4V12C18,11.9,18,11.8,17.9,11.8z M17,17.5L12,21v-3.6
	l3.3-2.4c0.2-0.2,0.3-0.5,0.1-0.7c-0.2-0.2-0.5-0.3-0.7-0.1L12,16.2v-2.8l2.1-1.5c0.2-0.2,0.3-0.5,0.1-0.7c-0.2-0.2-0.5-0.3-0.7-0.1
	L12,12.2V8.5C12,8.2,11.8,8,11.5,8S11,8.2,11,8.5v3.7l-1.5-1.1c-0.2-0.2-0.5-0.1-0.7,0.1c-0.2,0.2-0.1,0.5,0.1,0.7l2.1,1.5v2.8
	l-2.7-1.9c-0.2-0.2-0.5-0.1-0.7,0.1c-0.2,0.2-0.1,0.5,0.1,0.7l3.3,2.4V21l-5-3.5v-5.4l5.5-10.5L17,12.1V17.5z"/>
<g id="Frames-24px">
	<rect class="st1" width="24" height="24"/>
</g>
</svg>
