<?xml version="1.0" encoding="utf-8"?>
<!-- Generator: Adobe Illustrator 21.0.0, SVG Export Plug-In . SVG Version: 6.00 Build 0)  -->
<svg version="1.1" id="Layer_1" xmlns="http://www.w3.org/2000/svg" xmlns:xlink="http://www.w3.org/1999/xlink" x="0px" y="0px"
	 viewBox="0 0 24 24" style="enable-background:new 0 0 24 24;" xml:space="preserve">
<style type="text/css">
	.st0{fill:#58595B;}
	.st1{fill:none;}
</style>
<g>
	<path class="st0" d="M22.9,23.1l-2-2c-0.2-0.2-0.5-0.2-0.7,0l-0.7,0.7L15.2,9H17c0.3,0,0.5-0.2,0.5-0.5S17.3,8,17,8h-2V5.5
		c0,0,0,0,0,0c0,0,0-0.1,0-0.1c0,0,0-0.1,0-0.1c0,0,0,0,0,0L13,1.9V0.5C13,0.2,12.8,0,12.5,0S12,0.2,12,0.5v1.4l-1.9,3.4
		c0,0,0,0,0,0c0,0,0,0.1,0,0.1c0,0,0,0.1,0,0.1c0,0,0,0,0,0V8H8C7.7,8,7.5,8.2,7.5,8.5S7.7,9,8,9h1.8L5.5,21.8l-0.7-0.7
		c-0.2-0.2-0.5-0.2-0.7,0l-2,2c-0.2,0.2-0.2,0.5,0,0.7s0.5,0.2,0.7,0l1.6-1.6l1.6,1.6c0.2,0.2,0.5,0.2,0.7,0l1.6-1.6l1.6,1.6
		c0.2,0.2,0.5,0.2,0.7,0l1.6-1.6l1.6,1.6c0.2,0.2,0.5,0.2,0.7,0l1.6-1.6l1.6,1.6c0.2,0.2,0.5,0.2,0.7,0l1.6-1.6l1.6,1.6
		c0.1,0.1,0.2,0.1,0.4,0.1s0.3,0,0.4-0.1C23,23.7,23,23.3,22.9,23.1z M9.2,14h6.6l1.3,4H7.9L9.2,14z M12.5,3l1.1,2h-1.1h-1.1L12.5,3
		z M11,6h1.5H14v2h-3V6z M10.9,9h3.3l1.3,4H9.5L10.9,9z M16.9,21.1c-0.2-0.2-0.5-0.2-0.7,0l-1.6,1.6l-1.6-1.6
		c-0.2-0.2-0.5-0.2-0.7,0l-1.6,1.6l-1.6-1.6c-0.2-0.2-0.5-0.2-0.7,0l-1.6,1.6l-0.2-0.2L7.5,19h9.9l1.2,3.6l-0.2,0.2L16.9,21.1z"/>
	<path class="st0" d="M12.5,17c0.3,0,0.5-0.2,0.5-0.5v-1c0-0.3-0.2-0.5-0.5-0.5S12,15.2,12,15.5v1C12,16.8,12.2,17,12.5,17z"/>
	<path class="st0" d="M12.5,12c0.3,0,0.5-0.2,0.5-0.5v-1c0-0.3-0.2-0.5-0.5-0.5S12,10.2,12,10.5v1C12,11.8,12.2,12,12.5,12z"/>
	<path class="st0" d="M5.6,2.4C5.7,2.5,5.9,2.5,6,2.5s0.3,0,0.4-0.1l1.5-1.5C8,0.7,8,0.3,7.9,0.1S7.3,0,7.1,0.1L6,1.3L4.9,0.1
		C4.7,0,4.3,0,4.1,0.1S4,0.7,4.1,0.9L5.6,2.4z"/>
	<path class="st0" d="M3,6c0.1,0,0.3,0,0.4-0.1l1.5-1.5C5,4.2,5,3.8,4.9,3.6s-0.5-0.2-0.7,0L3,4.8L1.9,3.6c-0.2-0.2-0.5-0.2-0.7,0
		S1,4.2,1.1,4.4l1.5,1.5C2.7,6,2.9,6,3,6z"/>
</g>
<g id="Frames-24px">
	<rect class="st1" width="24" height="24"/>
</g>
</svg>
