<?xml version="1.0" encoding="utf-8"?>
<!-- Generator: Adobe Illustrator 21.0.0, SVG Export Plug-In . SVG Version: 6.00 Build 0)  -->
<svg version="1.1" id="Layer_1" xmlns="http://www.w3.org/2000/svg" xmlns:xlink="http://www.w3.org/1999/xlink" x="0px" y="0px"
	 viewBox="0 0 24 24" style="enable-background:new 0 0 24 24;" xml:space="preserve">
<style type="text/css">
	.st0{fill:#58595B;}
	.st1{fill:none;}
</style>
<g>
	<path class="st0" d="M6.5,22H6v-0.5C6,21.2,5.8,21,5.5,21S5,21.2,5,21.5v1C5,22.8,5.2,23,5.5,23h1C6.8,23,7,22.8,7,22.5
		S6.8,22,6.5,22z"/>
	<path class="st0" d="M15.5,22h-1c-0.3,0-0.5,0.2-0.5,0.5s0.2,0.5,0.5,0.5h1c0.3,0,0.5-0.2,0.5-0.5S15.8,22,15.5,22z"/>
	<path class="st0" d="M12.5,22h-1c-0.3,0-0.5,0.2-0.5,0.5s0.2,0.5,0.5,0.5h1c0.3,0,0.5-0.2,0.5-0.5S12.8,22,12.5,22z"/>
	<path class="st0" d="M9.5,22h-1C8.2,22,8,22.2,8,22.5S8.2,23,8.5,23h1c0.3,0,0.5-0.2,0.5-0.5S9.8,22,9.5,22z"/>
	<path class="st0" d="M5.5,17C5.8,17,6,16.8,6,16.5v-1C6,15.2,5.8,15,5.5,15S5,15.2,5,15.5v1C5,16.8,5.2,17,5.5,17z"/>
	<path class="st0" d="M5,19.5C5,19.8,5.2,20,5.5,20S6,19.8,6,19.5v-1C6,18.2,5.8,18,5.5,18S5,18.2,5,18.5V19.5z"/>
	<path class="st0" d="M23.8,12.6l-4-2.5c-0.2-0.1-0.4-0.1-0.5,0l-4,2.5C15.1,12.7,15,12.8,15,13v4c0,0.1,0,0.2,0.1,0.3l4,6.5
		c0.1,0.1,0.3,0.2,0.4,0.2s0.3-0.1,0.4-0.2l4-6.5c0-0.1,0.1-0.2,0.1-0.3v-4C24,12.8,23.9,12.7,23.8,12.6z M23,16.9l-3.5,5.7L16,16.9
		v-3.6l3.5-2.2l3.5,2.2V16.9z"/>
	<path class="st0" d="M19.2,12.6l-2,1.2c-0.1,0.1-0.2,0.3-0.2,0.4v2c0,0.2,0.1,0.3,0.2,0.4l2,1.2c0.1,0.1,0.2,0.1,0.3,0.1
		s0.2,0,0.3-0.1l2-1.2c0.1-0.1,0.2-0.3,0.2-0.4v-2c0-0.2-0.1-0.3-0.2-0.4l-2-1.2C19.6,12.5,19.4,12.5,19.2,12.6z M21,14.5V16
		l-1.5,0.9L18,16v-1.4l1.5-0.9L21,14.5z"/>
	<path class="st0" d="M5.8,0.1C5.6,0,5.4,0,5.2,0.1l-4,2.5C1.1,2.7,1,2.8,1,3v4c0,0.1,0,0.2,0.1,0.3l4,6.5C5.2,13.9,5.3,14,5.5,14
		s0.3-0.1,0.4-0.2l4-6.5C10,7.2,10,7.1,10,7V3c0-0.2-0.1-0.3-0.2-0.4L5.8,0.1z M9,6.9l-3.5,5.7L2,6.9V3.3l3.5-2.2L9,3.3V6.9z"/>
	<path class="st0" d="M5.2,2.6l-2,1.2C3.1,3.9,3,4.1,3,4.2v2c0,0.2,0.1,0.3,0.2,0.4l2,1.2C5.3,8,5.4,8,5.5,8s0.2,0,0.3-0.1l2-1.2
		C7.9,6.6,8,6.4,8,6.2v-2c0-0.2-0.1-0.3-0.2-0.4l-2-1.2C5.6,2.5,5.4,2.5,5.2,2.6z M7,4.5V6L5.5,6.9L4,6V4.5l1.5-0.9L7,4.5z"/>
</g>
<g id="Frames-24px">
	<rect class="st1" width="24" height="24"/>
</g>
</svg>
