<?xml version="1.0" encoding="utf-8"?>
<!-- Generator: Adobe Illustrator 21.0.0, SVG Export Plug-In . SVG Version: 6.00 Build 0)  -->
<svg version="1.1" id="Layer_1" xmlns="http://www.w3.org/2000/svg" xmlns:xlink="http://www.w3.org/1999/xlink" x="0px" y="0px"
	 viewBox="0 0 24 24" style="enable-background:new 0 0 24 24;" xml:space="preserve">
<style type="text/css">
	.st0{fill:#58595B;}
	.st1{fill:none;}
</style>
<g>
	<path class="st0" d="M19.8,4.6l-7.5-4.5c-0.2-0.1-0.4-0.1-0.5,0L4.2,4.6C4.1,4.7,4,4.8,4,5v6c0,0.1,0,0.2,0.1,0.3l7.5,12.5
		c0.1,0.2,0.3,0.2,0.4,0.2s0.3-0.1,0.4-0.2l7.5-12.5c0-0.1,0.1-0.2,0.1-0.3V5C20,4.8,19.9,4.7,19.8,4.6z M19,10.9l-7,11.7L5,10.9
		V5.3l7-4.2l7,4.2V10.9z"/>
	<path class="st0" d="M8.2,6.2C8.1,6.3,8,6.4,8,6.6v3.9c0,0.2,0.1,0.3,0.2,0.4l3.5,2.1c0.1,0,0.2,0.1,0.3,0.1c0.1,0,0.2,0,0.3-0.1
		l3.5-2.1c0.2-0.1,0.2-0.3,0.2-0.4V6.6c0-0.2-0.1-0.3-0.2-0.4l-3.5-2.1c-0.2-0.1-0.4-0.1-0.5,0L8.2,6.2z M15,6.9v3.3l-3,1.8l-3-1.8
		V6.9l3-1.8L15,6.9z"/>
</g>
<g id="Frames-24px">
	<rect class="st1" width="24" height="24"/>
</g>
</svg>
