<?xml version="1.0" encoding="utf-8"?>
<!-- Generator: Adobe Illustrator 21.0.0, SVG Export Plug-In . SVG Version: 6.00 Build 0)  -->
<svg version="1.1" id="Layer_1" xmlns="http://www.w3.org/2000/svg" xmlns:xlink="http://www.w3.org/1999/xlink" x="0px" y="0px"
	 viewBox="0 0 24 24" style="enable-background:new 0 0 24 24;" xml:space="preserve">
<style type="text/css">
	.st0{fill:#58595B;}
	.st1{fill:none;}
</style>
<g>
	<path class="st0" d="M22.5,12H20V7c0-0.2-0.1-0.4-0.3-0.4L12,2.7V0.5C12,0.2,11.8,0,11.5,0S11,0.2,11,0.5v2.2L3.3,6.6
		C3.1,6.6,3,6.8,3,7v5H0.5C0.2,12,0,12.2,0,12.5S0.2,13,0.5,13H3v4c0,0.2,0.1,0.4,0.3,0.4l7.7,3.9v2.2c0,0.3,0.2,0.5,0.5,0.5
		s0.5-0.2,0.5-0.5v-2.2l7.7-3.9c0.2-0.1,0.3-0.3,0.3-0.4v-4h2.5c0.3,0,0.5-0.2,0.5-0.5S22.8,12,22.5,12z M19,16.7l-7,3.5v-0.7
		c0-0.3-0.2-0.5-0.5-0.5S11,19.2,11,19.5v0.7l-7-3.5V13h0.5C4.8,13,5,12.8,5,12.5S4.8,12,4.5,12H4V7.3l7-3.5v0.7
		C11,4.8,11.2,5,11.5,5S12,4.8,12,4.5V3.8l7,3.5V12h-0.5c-0.3,0-0.5,0.2-0.5,0.5s0.2,0.5,0.5,0.5H19V16.7z"/>
	<path class="st0" d="M11.8,9.1c-0.2-0.1-0.4-0.1-0.5,0l-2,1.2C9.1,10.4,9,10.6,9,10.8v2c0,0.2,0.1,0.3,0.2,0.4l2,1.2
		c0.1,0.1,0.2,0.1,0.3,0.1s0.2,0,0.3-0.1l2-1.2c0.1-0.1,0.2-0.3,0.2-0.4v-2c0-0.2-0.1-0.3-0.2-0.4L11.8,9.1z M13,12.5l-1.5,0.9
		L10,12.5V11l1.5-0.9L13,11V12.5z"/>
</g>
<g id="Frames-24px">
	<rect class="st1" width="24" height="24"/>
</g>
</svg>
