<?xml version="1.0" encoding="utf-8"?>
<!-- Generator: Adobe Illustrator 21.0.0, SVG Export Plug-In . SVG Version: 6.00 Build 0)  -->
<svg version="1.1" id="Layer_1" xmlns="http://www.w3.org/2000/svg" xmlns:xlink="http://www.w3.org/1999/xlink" x="0px" y="0px"
	 viewBox="0 0 24 24" style="enable-background:new 0 0 24 24;" xml:space="preserve">
<style type="text/css">
	.st0{fill:#58595B;}
	.st1{fill:none;}
</style>
<g>
	<path class="st0" d="M19.8,14.1L17,11.8V9.5C17,9.2,16.8,9,16.5,9h-2.3l-1.9-2.3l3.4-1.7C15.9,4.9,16,4.7,16,4.5V1h2.5
		C18.8,1,19,0.8,19,0.5S18.8,0,18.5,0h-14C4.2,0,4,0.2,4,0.5S4.2,1,4.5,1H7v3.5c0,0.2,0.1,0.4,0.3,0.4l3.4,1.7L8.8,9H6.5
		C6.2,9,6,9.2,6,9.5v2.3l-2.8,2.4C3.1,14.2,3,14.4,3,14.5s0.1,0.3,0.2,0.4L6,17.2v2.3C6,19.8,6.2,20,6.5,20h2.3l2.4,2.8
		c0.1,0.1,0.2,0.2,0.4,0.2s0.3-0.1,0.4-0.2l2.4-2.8h2.3c0.3,0,0.5-0.2,0.5-0.5v-2.3l2.8-2.4c0.1-0.1,0.2-0.2,0.2-0.4
		S19.9,14.2,19.8,14.1z M10,5.2V1h3v4.2l-1.5,0.8L10,5.2z M15,4.2l-1,0.5V1h1V4.2z M8,1h1v3.7L8,4.2V1z M16.2,16.6
		C16.1,16.7,16,16.9,16,17v2h-2c-0.1,0-0.3,0.1-0.4,0.2l-2.1,2.5l-2.1-2.5C9.3,19.1,9.1,19,9,19H7v-2c0-0.1-0.1-0.3-0.2-0.4
		l-2.5-2.1l2.5-2.1C6.9,12.3,7,12.1,7,12v-2h2c0.1,0,0.3-0.1,0.4-0.2l2.1-2.5l2.1,2.5C13.7,9.9,13.9,10,14,10h2v2
		c0,0.1,0.1,0.3,0.2,0.4l2.5,2.1L16.2,16.6z"/>
	<path class="st0" d="M11.8,10.6c-0.2-0.1-0.3-0.1-0.5,0l-3,1.8C8.1,12.4,8,12.6,8,12.8v3.5c0,0.2,0.1,0.3,0.2,0.4l3,1.8
		c0.1,0,0.2,0.1,0.3,0.1s0.2,0,0.3-0.1l3-1.8c0.2-0.1,0.2-0.3,0.2-0.4v-3.5c0-0.2-0.1-0.3-0.2-0.4L11.8,10.6z M14,16l-2.5,1.5L9,16
		V13l2.5-1.5L14,13V16z"/>
</g>
<g id="Frames-24px">
	<rect class="st1" width="24" height="24"/>
</g>
</svg>
