<?xml version="1.0" encoding="utf-8"?>
<!-- Generator: Adobe Illustrator 21.0.0, SVG Export Plug-In . SVG Version: 6.00 Build 0)  -->
<svg version="1.1" id="Layer_1" xmlns="http://www.w3.org/2000/svg" xmlns:xlink="http://www.w3.org/1999/xlink" x="0px" y="0px"
	 viewBox="0 0 24 24" style="enable-background:new 0 0 24 24;" xml:space="preserve">
<style type="text/css">
	.st0{fill:#58595B;}
	.st1{fill:none;}
</style>
<g>
	<path class="st0" d="M17.3,2.1L3.5,9.4L0.7,8.1C0.6,8,0.4,8,0.2,8.1C0.1,8.2,0,8.3,0,8.5v7c0,0.2,0.1,0.3,0.2,0.4
		c0.1,0.1,0.3,0.1,0.5,0l2.8-1.4L6,15.9v3.4c0,0.2,0.1,0.4,0.3,0.4l6,3.2c0.1,0,0.2,0.1,0.2,0.1c0.1,0,0.2,0,0.3-0.1
		c0.2-0.1,0.2-0.3,0.2-0.4v-2.8l4.3,2.3c0.1,0,0.2,0.1,0.2,0.1c0.1,0,0.2,0,0.3-0.1c0.2-0.1,0.2-0.3,0.2-0.4v-19
		c0-0.2-0.1-0.3-0.2-0.4C17.6,2,17.4,2,17.3,2.1z M1,9.3l2,1v3.4l-2,1V9.3z M12,21.7L7,19v-2.5l5,2.7V21.7z M17,20.7l-13-7v-3.4
		l13-7V20.7z"/>
	<path class="st0" d="M20.5,13h3c0.3,0,0.5-0.2,0.5-0.5S23.8,12,23.5,12h-3c-0.3,0-0.5,0.2-0.5,0.5S20.2,13,20.5,13z"/>
	<path class="st0" d="M20.5,8.2c0.1,0,0.2,0,0.2-0.1l3-1.5C24,6.5,24.1,6.2,23.9,6c-0.1-0.2-0.4-0.3-0.7-0.2l-3,1.5
		c-0.2,0.1-0.3,0.4-0.2,0.7C20.1,8.1,20.3,8.2,20.5,8.2z"/>
	<path class="st0" d="M23.7,18.8l-3-1.5c-0.2-0.1-0.5,0-0.7,0.2c-0.1,0.2,0,0.5,0.2,0.7l3,1.5c0.1,0,0.1,0.1,0.2,0.1
		c0.2,0,0.4-0.1,0.4-0.3C24.1,19.2,24,18.9,23.7,18.8z"/>
</g>
<g id="Frames-24px">
	<rect class="st1" width="24" height="24"/>
</g>
</svg>
