<?xml version="1.0" encoding="utf-8"?>
<!-- Generator: Adobe Illustrator 21.0.0, SVG Export Plug-In . SVG Version: 6.00 Build 0)  -->
<svg version="1.1" id="Layer_1" xmlns="http://www.w3.org/2000/svg" xmlns:xlink="http://www.w3.org/1999/xlink" x="0px" y="0px"
	 viewBox="0 0 24 24" style="enable-background:new 0 0 24 24;" xml:space="preserve">
<style type="text/css">
	.st0{fill:#58595B;}
	.st1{fill:none;}
</style>
<g>
	<path class="st0" d="M24,23.3l-4.6-10.9v0l-2.9-7.1c-0.2-0.4-0.8-0.4-0.9,0l-2.9,7.1c0,0,0,0,0,0l-2.1,5L8,11.3
		c-0.2-0.4-0.8-0.4-0.9,0l-5,12c-0.1,0.2,0,0.3,0,0.5S2.3,24,2.5,24h10h11c0.2,0,0.3-0.1,0.4-0.2S24,23.5,24,23.3z M16,6.8l2.4,5.6
		l-0.9,0.9l-1.1-1.1c-0.2-0.2-0.5-0.2-0.7,0l-1.1,1.1l-0.9-0.9L16,6.8z M3.2,23l4.2-10.2l2.5,6.1c0,0,0,0,0,0l1.7,4.1H3.2z M12.8,23
		L11,18.7l2.2-5.3l0.9,0.9c0.2,0.2,0.5,0.2,0.7,0l1.1-1.1l1.1,1.1c0.1,0.1,0.2,0.1,0.4,0.1s0.3,0,0.4-0.1l0.9-0.9l4,9.6H12.8z"/>
	<path class="st0" d="M0.9,3.9l1.6-1.6l1.6,1.6C4.3,4,4.7,4,4.9,3.9l1.6-1.6l1.6,1.6C8.3,4,8.7,4,8.9,3.9l1.6-1.6l1.6,1.6
		C12.2,4,12.4,4,12.5,4s0.3,0,0.4-0.1c0.2-0.2,0.2-0.5,0-0.7l-2-2c-0.2-0.2-0.5-0.2-0.7,0L8.5,2.8L6.9,1.1C6.7,1,6.3,1,6.1,1.1
		L4.5,2.8L2.9,1.1C2.7,1,2.3,1,2.1,1.1l-2,2C0,3.3,0,3.7,0.1,3.9S0.7,4,0.9,3.9z"/>
	<path class="st0" d="M4.1,7.9C4.3,8,4.7,8,4.9,7.9l1.6-1.6l1.6,1.6C8.2,8,8.4,8,8.5,8s0.3,0,0.4-0.1C9,7.7,9,7.3,8.9,7.1l-2-2
		C6.7,5,6.3,5,6.1,5.1L4.5,6.8L2.9,5.1C2.7,5,2.3,5,2.1,5.1l-2,2C0,7.3,0,7.7,0.1,7.9s0.5,0.2,0.7,0l1.6-1.6L4.1,7.9z"/>
</g>
<g id="Frames-24px">
	<rect class="st1" width="24" height="24"/>
</g>
</svg>
