<?xml version="1.0" encoding="utf-8"?>
<!-- Generator: Adobe Illustrator 21.0.0, SVG Export Plug-In . SVG Version: 6.00 Build 0)  -->
<svg version="1.1" id="Layer_1" xmlns="http://www.w3.org/2000/svg" xmlns:xlink="http://www.w3.org/1999/xlink" x="0px" y="0px"
	 viewBox="0 0 24 24" style="enable-background:new 0 0 24 24;" xml:space="preserve">
<style type="text/css">
	.st0{fill:#58595B;}
	.st1{fill:none;}
</style>
<g>
	<path class="st0" d="M10.2,11.7l2.8-5c0.1-0.1,0.1-0.3,0-0.5l-2.8-5C10.1,1.1,9.9,1,9.8,1H4.2C4.1,1,3.9,1.1,3.8,1.3l-2.8,5
		C1,6.4,1,6.6,1.1,6.7l2.8,5C3.9,11.9,4.1,12,4.2,12h5.5C9.9,12,10.1,11.9,10.2,11.7z M4.5,11L2.1,6.5L4.5,2h4.9l2.5,4.5L9.5,11H4.5
		z"/>
	<path class="st0" d="M15.3,11.8c0.1,0.2,0.3,0.2,0.4,0.2h3.5c0.2,0,0.3-0.1,0.4-0.2l1.8-3c0.1-0.2,0.1-0.3,0-0.5l-1.8-3
		C19.6,5.1,19.4,5,19.2,5h-3.5c-0.2,0-0.3,0.1-0.4,0.2l-1.8,3c-0.1,0.2-0.1,0.3,0,0.5L15.3,11.8z M16,6H19l1.5,2.5L19,11H16
		l-1.5-2.5L16,6z"/>
	<path class="st0" d="M21.7,13.1c-0.2-0.1-0.3-0.1-0.5,0L17,15.6v-2.1c0-0.3-0.2-0.5-0.5-0.5h-11C5.2,13,5,13.2,5,13.5v6
		C5,19.8,5.2,20,5.5,20h3.8l-3.1,3.1c-0.2,0.2-0.2,0.5,0,0.7s0.5,0.2,0.7,0l3.6-3.6l3.6,3.6c0.1,0.1,0.2,0.1,0.4,0.1s0.3,0,0.4-0.1
		c0.2-0.2,0.2-0.5,0-0.7L11.7,20h4.8c0.3,0,0.5-0.2,0.5-0.5v-2.1l4.2,2.5c0.1,0,0.2,0.1,0.3,0.1c0.1,0,0.2,0,0.2-0.1
		c0.2-0.1,0.3-0.3,0.3-0.4v-6C22,13.3,21.9,13.2,21.7,13.1z M16,19H6v-5h10V19z M21,18.6l-3.5-2.1l3.5-2.1V18.6z"/>
	<path class="st0" d="M7.1,5.6c0,0-0.1-0.1-0.1-0.1c-0.1,0-0.1,0-0.1,0.1L6.1,6.4C6,6.4,6,6.6,6.1,6.6l0.8,0.8c0,0,0.1,0.1,0.1,0.1
		c0.1,0,0.1,0,0.1-0.1l0.8-0.8C8,6.6,8,6.4,7.9,6.4L7.1,5.6z"/>
	<path class="st0" d="M17.4,9.4c0,0,0.1,0.1,0.1,0.1c0.1,0,0.1,0,0.1-0.1l0.8-0.8c0.1-0.1,0.1-0.2,0-0.3l-0.8-0.8
		c0,0-0.1-0.1-0.1-0.1c-0.1,0-0.1,0-0.1,0.1l-0.8,0.8c-0.1,0.1-0.1,0.2,0,0.3L17.4,9.4z"/>
</g>
<g id="Frames-24px">
	<rect class="st1" width="24" height="24"/>
</g>
</svg>
