<?xml version="1.0" encoding="utf-8"?>
<!-- Generator: Adobe Illustrator 21.0.0, SVG Export Plug-In . SVG Version: 6.00 Build 0)  -->
<svg version="1.1" id="Layer_1" xmlns="http://www.w3.org/2000/svg" xmlns:xlink="http://www.w3.org/1999/xlink" x="0px" y="0px"
	 viewBox="0 0 24 24" style="enable-background:new 0 0 24 24;" xml:space="preserve">
<style type="text/css">
	.st0{fill:#58595B;}
	.st1{fill:none;}
</style>
<g>
	<path class="st0" d="M7.5,6H19v6.5c0,0.3,0.2,0.5,0.5,0.5s0.5-0.2,0.5-0.5v-7C20,5.2,19.8,5,19.5,5h-12C7.2,5,7,5.2,7,5.5
		S7.2,6,7.5,6z"/>
	<path class="st0" d="M14.5,15c0.3,0,0.5-0.2,0.5-0.5S14.8,14,14.5,14H2v-3.5C2,10.2,1.8,10,1.5,10S1,10.2,1,10.5v7
		C1,17.8,1.2,18,1.5,18H10v3H6.5C6.2,21,6,21.2,6,21.5S6.2,22,6.5,22h8c0.3,0,0.5-0.2,0.5-0.5S14.8,21,14.5,21H11v-3h3.5
		c0.3,0,0.5-0.2,0.5-0.5S14.8,17,14.5,17H2v-2H14.5z"/>
	<path class="st0" d="M6,8.5v-7C6,1.2,5.8,1,5.5,1h-5C0.2,1,0,1.2,0,1.5v7C0,8.8,0.2,9,0.5,9h5C5.8,9,6,8.8,6,8.5z M5,8H1V2h4V8z"/>
	<path class="st0" d="M22.5,14h-6c-0.3,0-0.5,0.2-0.5,0.5v9c0,0.3,0.2,0.5,0.5,0.5h6c0.3,0,0.5-0.2,0.5-0.5v-9
		C23,14.2,22.8,14,22.5,14z M22,15v6h-5v-6H22z M17,23v-1h5v1H17z"/>
	<path class="st0" d="M2.5,7h1C3.8,7,4,6.8,4,6.5S3.8,6,3.5,6h-1C2.2,6,2,6.2,2,6.5S2.2,7,2.5,7z"/>
	<path class="st0" d="M13.6,7.6c-0.2,0.2-0.2,0.5,0,0.7l3,3c0.1,0.1,0.2,0.1,0.4,0.1s0.3,0,0.4-0.1c0.2-0.2,0.2-0.5,0-0.7l-3-3
		C14.2,7.5,13.8,7.5,13.6,7.6z"/>
	<path class="st0" d="M17.9,8.9c0.2-0.2,0.2-0.5,0-0.7l-1-1c-0.2-0.2-0.5-0.2-0.7,0s-0.2,0.5,0,0.7l1,1C17.2,9,17.4,9,17.5,9
		S17.8,9,17.9,8.9z"/>
</g>
<g id="Frames-24px">
	<rect class="st1" width="24" height="24"/>
</g>
</svg>
