<?xml version="1.0" encoding="utf-8"?>
<!-- Generator: Adobe Illustrator 21.0.0, SVG Export Plug-In . SVG Version: 6.00 Build 0)  -->
<svg version="1.1" id="Layer_1" xmlns="http://www.w3.org/2000/svg" xmlns:xlink="http://www.w3.org/1999/xlink" x="0px" y="0px"
	 viewBox="0 0 24 24" style="enable-background:new 0 0 24 24;" xml:space="preserve">
<style type="text/css">
	.st0{fill:#58595B;}
	.st1{fill:none;}
</style>
<path class="st0" d="M23.8,1.1C23.7,1,23.5,1,23.4,1l-15,4C8.2,5.1,8,5.3,8,5.5V16H1.5C1.2,16,1,16.2,1,16.5v7
	c0,0.2,0.1,0.3,0.2,0.4C1.3,24,1.4,24,1.5,24c0,0,0.1,0,0.1,0l7-2c0,0,0,0,0,0c0,0,0.1,0,0.1,0c0,0,0.1,0,0.1,0c0,0,0,0,0.1-0.1
	c0,0,0,0,0.1-0.1c0,0,0-0.1,0-0.1c0,0,0-0.1,0-0.1c0,0,0,0,0,0V9.4l14-3.7V13h-6.5c-0.3,0-0.5,0.2-0.5,0.5v7c0,0.2,0.1,0.3,0.2,0.4
	c0.1,0.1,0.2,0.1,0.3,0.1c0,0,0.1,0,0.1,0l7-2c0,0,0,0,0,0c0,0,0.1,0,0.1,0c0,0,0.1,0,0.1-0.1c0,0,0,0,0.1-0.1c0,0,0-0.1,0.1-0.1
	c0,0,0-0.1,0-0.1c0,0,0-0.1,0-0.1c0,0,0,0,0,0v-17C24,1.3,23.9,1.2,23.8,1.1z M2,17h6v4.1l-6,1.7V17z M9,8.3V5.9l14-3.7v2.5L9,8.3z
	 M17,14h6v4.1l-6,1.7V14z"/>
<g id="Frames-24px">
	<rect class="st1" width="24" height="24"/>
</g>
</svg>
