<?xml version="1.0" encoding="utf-8"?>
<!-- Generator: Adobe Illustrator 21.0.0, SVG Export Plug-In . SVG Version: 6.00 Build 0)  -->
<svg version="1.1" id="Layer_1" xmlns="http://www.w3.org/2000/svg" xmlns:xlink="http://www.w3.org/1999/xlink" x="0px" y="0px"
	 viewBox="0 0 24 24" style="enable-background:new 0 0 24 24;" xml:space="preserve">
<style type="text/css">
	.st0{fill:#58595B;}
	.st1{fill:none;}
</style>
<g>
	<path class="st0" d="M23,10.9l1-6.3c0-0.1,0-0.3-0.1-0.4C23.8,4.1,23.6,4,23.5,4H21V2.5C21,2.2,20.8,2,20.5,2H19V1.5
		C19,1.2,18.8,1,18.5,1S18,1.2,18,1.5V2h-1.5C16.2,2,16,2.2,16,2.5v17c0,0,0,0,0,0c0,0,0,0.1,0,0.1c0,0,0,0.1,0,0.1c0,0,0,0,0,0l2,4
		c0.1,0.2,0.3,0.3,0.4,0.3s0.4-0.1,0.4-0.3l2-4c0,0,0,0,0,0c0,0,0-0.1,0-0.1c0,0,0-0.1,0-0.1c0,0,0,0,0,0V5h1.9L22,10.9
		c0,0.1,0,0.2,0,0.3l0.5,1c0.1,0.2,0.3,0.3,0.4,0.3c0.1,0,0.2,0,0.2-0.1c0.2-0.1,0.3-0.4,0.2-0.7L23,10.9z M17,8h3v11h-3V8z M20,3v4
		h-3V3H20z M18.5,22.4L17.3,20h2.4L18.5,22.4z"/>
	<path class="st0" d="M14.5,2h-14C0.2,2,0,2.2,0,2.5v21C0,23.8,0.2,24,0.5,24h10c0.1,0,0.1,0,0.2,0c0.1,0,0.1-0.1,0.2-0.1l4-4
		c0,0,0.1-0.1,0.1-0.2c0-0.1,0-0.1,0-0.2v-17C15,2.2,14.8,2,14.5,2z M1,3h13v16h-3.5c-0.3,0-0.5,0.2-0.5,0.5V23H1V3z M13.3,20
		L11,22.3V20H13.3z"/>
	<path class="st0" d="M6.1,6.2L4,8.8L2.9,7.6c-0.2-0.2-0.5-0.2-0.7,0S2,8.2,2.1,8.4l1.5,1.5C3.7,9.9,3.9,10,4,10c0,0,0,0,0,0
		c0.1,0,0.3-0.1,0.4-0.2l2.5-3C7.1,6.6,7,6.3,6.8,6.1C6.6,5.9,6.3,6,6.1,6.2z"/>
	<path class="st0" d="M8.5,9h4C12.8,9,13,8.8,13,8.5S12.8,8,12.5,8h-4C8.2,8,8,8.2,8,8.5S8.2,9,8.5,9z"/>
	<path class="st0" d="M6.1,13.2L4,15.8l-1.1-1.1c-0.2-0.2-0.5-0.2-0.7,0s-0.2,0.5,0,0.7l1.5,1.5C3.7,16.9,3.9,17,4,17c0,0,0,0,0,0
		c0.1,0,0.3-0.1,0.4-0.2l2.5-3c0.2-0.2,0.1-0.5-0.1-0.7C6.6,12.9,6.3,13,6.1,13.2z"/>
	<path class="st0" d="M12.5,16c0.3,0,0.5-0.2,0.5-0.5S12.8,15,12.5,15h-4C8.2,15,8,15.2,8,15.5S8.2,16,8.5,16H12.5z"/>
</g>
<g id="Frames-24px">
	<rect class="st1" width="24" height="24"/>
</g>
</svg>
