<?xml version="1.0" encoding="utf-8"?>
<!-- Generator: Adobe Illustrator 21.0.0, SVG Export Plug-In . SVG Version: 6.00 Build 0)  -->
<svg version="1.1" id="Layer_1" xmlns="http://www.w3.org/2000/svg" xmlns:xlink="http://www.w3.org/1999/xlink" x="0px" y="0px"
	 viewBox="0 0 24 24" style="enable-background:new 0 0 24 24;" xml:space="preserve">
<style type="text/css">
	.st0{fill:#58595B;}
	.st1{fill:none;}
</style>
<g>
	<path class="st0" d="M22.9,5.3C22.9,5.3,22.9,5.3,22.9,5.3L21,1.9V0.5C21,0.2,20.8,0,20.5,0S20,0.2,20,0.5v1.4l-1.9,3.4
		c0,0,0,0,0,0C18,5.3,18,5.4,18,5.5v15v2c0,0.2,0.1,0.4,0.3,0.4l2,1c0.1,0,0.1,0.1,0.2,0.1s0.2,0,0.2-0.1l2-1
		c0.2-0.1,0.3-0.3,0.3-0.4v-2v-15C23,5.4,23,5.3,22.9,5.3z M19,6.7l1,1v10.8c0,0.3,0.2,0.5,0.5,0.5s0.5-0.2,0.5-0.5V7.7l1-1V20h-3
		V6.7z M20.5,3l1.4,2.4l-1.4,1.4l-1.4-1.4L20.5,3z M20.5,22.9L19,22.2V21h3v1.2L20.5,22.9z"/>
	<path class="st0" d="M13.9,1.1C13.8,1.1,13.6,1,13.5,1h-13C0.2,1,0,1.2,0,1.5v22C0,23.8,0.2,24,0.5,24h15c0.3,0,0.5-0.2,0.5-0.5
		v-20c0-0.1-0.1-0.3-0.1-0.4L13.9,1.1z M1,17h14v2H1V17z M13.3,2L15,3.7V16H1V2H13.3z M1,23v-3h14v3H1z"/>
	<path class="st0" d="M4.3,10.9l3.5,2C7.8,13,7.9,13,8,13s0.2,0,0.2-0.1l3.5-2c0.2-0.1,0.3-0.3,0.3-0.4v-4c0-0.2-0.1-0.3-0.3-0.4
		l-3.5-2C8.1,4,7.9,4,7.8,4.1l-3.5,2C4.1,6.2,4,6.3,4,6.5v4C4,10.7,4.1,10.8,4.3,10.9z M5,6.8l3-1.7l3,1.7v3.4l-3,1.7l-3-1.7V6.8z"
		/>
</g>
<g id="Frames-24px">
	<rect class="st1" width="24" height="24"/>
</g>
</svg>
