<?xml version="1.0" encoding="utf-8"?>
<!-- Generator: Adobe Illustrator 21.0.0, SVG Export Plug-In . SVG Version: 6.00 Build 0)  -->
<svg version="1.1" id="Layer_1" xmlns="http://www.w3.org/2000/svg" xmlns:xlink="http://www.w3.org/1999/xlink" x="0px" y="0px"
	 viewBox="0 0 24 24" style="enable-background:new 0 0 24 24;" xml:space="preserve">
<style type="text/css">
	.st0{fill:#58595B;}
	.st1{fill:none;}
</style>
<g>
	<path class="st0" d="M15.3,9c0.1,0,0.1,0,0.2,0h5C20.8,9,21,8.8,21,8.5S20.8,8,20.5,8h-3.8l6.1-6.1c0.2-0.2,0.2-0.5,0-0.7
		s-0.5-0.2-0.7,0L16,7.3V3.5C16,3.2,15.8,3,15.5,3S15,3.2,15,3.5v5c0,0.1,0,0.1,0,0.2C15.1,8.8,15.2,8.9,15.3,9z"/>
	<path class="st0" d="M18.9,13.1c-0.1-0.1-0.2-0.1-0.4-0.1h-3.3L11,8.8V5.5c0-0.1-0.1-0.3-0.1-0.4l-4-4C6.8,1.1,6.6,1,6.5,1h-6
		C0.2,1,0,1.2,0,1.5v7c0,0.1,0.1,0.3,0.1,0.4l15,15c0.1,0.1,0.2,0.1,0.4,0.1h7c0.3,0,0.5-0.2,0.5-0.5v-6c0-0.1-0.1-0.3-0.1-0.4
		L18.9,13.1z M22,23h-6.3L1,8.3V2h5.3L10,5.7V9c0,0.1,0.1,0.3,0.1,0.4l4.5,4.5c0.1,0.1,0.2,0.1,0.4,0.1h3.3l3.7,3.7V23z"/>
</g>
<g id="Frames-24px">
	<rect class="st1" width="24" height="24"/>
</g>
</svg>
