<?xml version="1.0" encoding="utf-8"?>
<!-- Generator: Adobe Illustrator 21.0.0, SVG Export Plug-In . SVG Version: 6.00 Build 0)  -->
<svg version="1.1" id="Layer_1" xmlns="http://www.w3.org/2000/svg" xmlns:xlink="http://www.w3.org/1999/xlink" x="0px" y="0px"
	 viewBox="0 0 24 24" style="enable-background:new 0 0 24 24;" xml:space="preserve">
<style type="text/css">
	.st0{fill:#58595B;}
	.st1{fill:none;}
</style>
<g>
	<path class="st0" d="M22.9,23.2l-3.5-6C19.3,17,19,16.9,18.8,17l-2.9,1.2l-1-1.9L12,0.4c0-0.2-0.3-0.4-0.5-0.4S11.1,0.2,11,0.4
		L8,16.3l-1,1.9L4.2,17c-0.2-0.1-0.5,0-0.6,0.2l-3.5,6c-0.1,0.2-0.1,0.3,0,0.5S0.3,24,0.5,24h22c0.2,0,0.3-0.1,0.4-0.3
		S23,23.4,22.9,23.2z M11.5,3.2L13.9,16H9.1L11.5,3.2z M1.4,23l2.8-4.9l2.4,1l-0.6,1.1c-0.1,0.2,0,0.5,0.2,0.7C6.3,21,6.4,21,6.5,21
		c0.2,0,0.4-0.1,0.4-0.3L8.8,17h5.4l1.9,3.7c0.1,0.2,0.3,0.3,0.4,0.3c0.1,0,0.2,0,0.2-0.1c0.2-0.1,0.3-0.4,0.2-0.7l-0.6-1.1l2.4-1
		l2.8,4.9H1.4z"/>
	<path class="st0" d="M2.8,10.7C2.9,10.9,3.1,11,3.3,11c0,0,0,0,0,0l4.2-0.4c0,0,0.1,0,0.1,0c0,0,0.1,0,0.1,0c0.1,0,0.1-0.1,0.2-0.1
		c0,0,0,0,0,0c0,0,0,0,0,0c0-0.1,0.1-0.1,0.1-0.2c0-0.1,0-0.1,0-0.2c0,0,0,0,0,0v0c0,0,0,0,0,0L7.6,5.8c0-0.2-0.2-0.4-0.4-0.4
		L0.6,3.6c-0.2-0.1-0.4,0-0.5,0.2C0,3.9,0,4.1,0,4.3L2.8,10.7z M6.6,6.2l0.3,2.7L4.7,7.2C4.5,7,4.2,7,4,7.2C3.8,7.4,3.9,7.8,4.1,7.9
		l2.2,1.8L3.6,10L1.4,4.8L6.6,6.2z"/>
	<path class="st0" d="M15,10.2c0,0.1,0,0.1,0.1,0.2c0,0,0,0,0,0c0,0,0,0,0,0c0,0.1,0.1,0.1,0.2,0.1c0,0,0.1,0,0.1,0c0,0,0.1,0,0.1,0
		l4.2,0.4c0,0,0,0,0,0c0.2,0,0.4-0.1,0.5-0.3L23,4.3c0.1-0.2,0-0.4-0.1-0.5c-0.1-0.1-0.3-0.2-0.5-0.2l-6.6,1.8
		c-0.2,0.1-0.3,0.2-0.4,0.4L15,10C15,10.1,15,10.2,15,10.2z M21.6,4.8L19.4,10l-2.7-0.3l2.2-1.8c0.2-0.2,0.2-0.5,0.1-0.7
		S18.5,7,18.3,7.2l-2.2,1.8l0.3-2.7L21.6,4.8z"/>
</g>
<g id="Frames-24px">
	<rect class="st1" width="24" height="24"/>
</g>
</svg>
