<?xml version="1.0" encoding="utf-8"?>
<!-- Generator: Adobe Illustrator 21.0.0, SVG Export Plug-In . SVG Version: 6.00 Build 0)  -->
<svg version="1.1" id="Layer_1" xmlns="http://www.w3.org/2000/svg" xmlns:xlink="http://www.w3.org/1999/xlink" x="0px" y="0px"
	 viewBox="0 0 24 24" style="enable-background:new 0 0 24 24;" xml:space="preserve">
<style type="text/css">
	.st0{fill:#58595B;}
	.st1{fill:none;}
</style>
<g>
	<path class="st0" d="M13,10.5c0-0.3-0.2-0.5-0.5-0.5h-1c-0.3,0-0.5,0.2-0.5,0.5s0.2,0.5,0.5,0.5h1C12.8,11,13,10.8,13,10.5z"/>
	<path class="st0" d="M0.4,11C0.7,11,0.9,10.9,1,10.6L2.9,2h18.2l1.9,8.6c0.1,0.2,0.3,0.4,0.5,0.4c0,0,0.1,0,0.1,0
		c0.3-0.1,0.4-0.3,0.4-0.6l-2-9C21.9,1.2,21.7,1,21.5,1h-19C2.3,1,2.1,1.2,2,1.4l-2,9C0,10.7,0.1,10.9,0.4,11z"/>
	<path class="st0" d="M11.2,16.1l-1-0.5c-0.2-0.1-0.3-0.1-0.5,0l-1.5,0.9L10,9.6c0-0.1,0-0.3-0.1-0.4C9.8,9.1,9.7,9,9.5,9H8
		C7.8,9,7.6,9.1,7.5,9.3l-0.8,2.2L7,9.6c0-0.1,0-0.3-0.1-0.4C6.8,9.1,6.6,9,6.5,9H5C4.8,9,4.6,9.1,4.5,9.4l-1,3.3v-1.2
		C3.5,11.2,3.3,11,3,11H2c-0.2,0-0.4,0.2-0.5,0.4l-1,5.5c0,0.1,0,0.1,0,0.2L1,20.5l-1,2.9c-0.1,0.3,0.1,0.5,0.3,0.6
		c0.1,0,0.1,0,0.2,0c0.2,0,0.4-0.1,0.5-0.3l1-3c0-0.1,0-0.2,0-0.2L1.5,17l0.9-5h0.1v4c0,0.2,0.2,0.5,0.4,0.5c0.2,0,0.5-0.1,0.6-0.3
		L5.4,10h0.5L5,15.9c0,0.3,0.1,0.5,0.4,0.6c0.2,0.1,0.5-0.1,0.6-0.3L8.3,10h0.5L7,17.4c0,0.2,0,0.4,0.2,0.5c0.2,0.1,0.4,0.1,0.6,0
		l2.3-1.4l0.2,0.1l-3.6,4.5c0,0.1-0.1,0.1-0.1,0.2l-0.5,2c-0.1,0.3,0.1,0.5,0.4,0.6C6.6,24,6.9,23.9,7,23.6l0.5-1.9l3.9-4.9
		c0.1-0.1,0.1-0.3,0.1-0.4S11.4,16.1,11.2,16.1z"/>
	<path class="st0" d="M24,23.3l-1-2.9l0.5-3.4c0-0.1,0-0.1,0-0.2l-1-5.5c0-0.2-0.3-0.4-0.5-0.4h-1c-0.3,0-0.5,0.2-0.5,0.5v1.2
		l-1-3.3C19.4,9.1,19.2,9,19,9h-1.5c-0.1,0-0.3,0.1-0.4,0.2C17,9.3,17,9.4,17,9.6l0.3,1.9l-0.8-2.2C16.4,9.1,16.2,9,16,9h-1.5
		c-0.2,0-0.3,0.1-0.4,0.2C14,9.3,14,9.5,14,9.6l1.7,6.8l-1.5-0.9c-0.1-0.1-0.3-0.1-0.5,0l-1,0.5c-0.1,0.1-0.2,0.2-0.3,0.3
		s0,0.3,0.1,0.4l3.9,4.9l0.5,1.9c0.1,0.3,0.3,0.4,0.6,0.4c0.3-0.1,0.4-0.3,0.4-0.6l-0.5-2c0-0.1,0-0.1-0.1-0.2l-3.6-4.5l0.2-0.1
		l2.3,1.4c0.2,0.1,0.4,0.1,0.6,0c0.2-0.1,0.2-0.3,0.2-0.5L15.1,10h0.5l2.4,6.2c0.1,0.2,0.3,0.4,0.6,0.3c0.2-0.1,0.4-0.3,0.4-0.6
		L18.1,10h0.5l1.9,6.1c0.1,0.2,0.3,0.4,0.6,0.3c0.2,0,0.4-0.2,0.4-0.5v-4h0.1l0.9,5L22,20.4c0,0.1,0,0.2,0,0.2l1,3
		c0.1,0.2,0.3,0.3,0.5,0.3c0.1,0,0.1,0,0.2,0C23.9,23.9,24.1,23.6,24,23.3z"/>
	<path class="st0" d="M6,5c0.3,0,0.5-0.2,0.5-0.5S6.3,4,6,4H5.5C5.2,4,5,4.2,5,4.5S5.2,5,5.5,5H6z"/>
	<path class="st0" d="M8.5,5C8.8,5,9,4.8,9,4.5S8.8,4,8.5,4H8C7.7,4,7.5,4.2,7.5,4.5S7.7,5,8,5H8.5z"/>
	<path class="st0" d="M11,5c0.3,0,0.5-0.2,0.5-0.5S11.3,4,11,4h-0.5C10.2,4,10,4.2,10,4.5S10.2,5,10.5,5H11z"/>
	<path class="st0" d="M13.5,5C13.8,5,14,4.8,14,4.5S13.8,4,13.5,4H13c-0.3,0-0.5,0.2-0.5,0.5S12.7,5,13,5H13.5z"/>
	<path class="st0" d="M16,5c0.3,0,0.5-0.2,0.5-0.5S16.3,4,16,4h-0.5C15.2,4,15,4.2,15,4.5S15.2,5,15.5,5H16z"/>
	<path class="st0" d="M18.5,5C18.8,5,19,4.8,19,4.5S18.8,4,18.5,4H18c-0.3,0-0.5,0.2-0.5,0.5S17.7,5,18,5H18.5z"/>
	<path class="st0" d="M4.5,6C4.2,6,4,6.2,4,6.5S4.2,7,4.5,7H5c0.3,0,0.5-0.2,0.5-0.5S5.3,6,5,6H4.5z"/>
	<path class="st0" d="M7,7h0.5C7.8,7,8,6.8,8,6.5S7.8,6,7.5,6H7C6.7,6,6.5,6.2,6.5,6.5S6.7,7,7,7z"/>
	<path class="st0" d="M9.5,7H10c0.3,0,0.5-0.2,0.5-0.5S10.3,6,10,6H9.5C9.2,6,9,6.2,9,6.5S9.2,7,9.5,7z"/>
	<path class="st0" d="M12,7h0.5C12.8,7,13,6.8,13,6.5S12.8,6,12.5,6H12c-0.3,0-0.5,0.2-0.5,0.5S11.7,7,12,7z"/>
	<path class="st0" d="M14.5,7H15c0.3,0,0.5-0.2,0.5-0.5S15.3,6,15,6h-0.5C14.2,6,14,6.2,14,6.5S14.2,7,14.5,7z"/>
	<path class="st0" d="M17,7h0.5C17.8,7,18,6.8,18,6.5S17.8,6,17.5,6H17c-0.3,0-0.5,0.2-0.5,0.5S16.7,7,17,7z"/>
	<path class="st0" d="M19.5,7H20c0.3,0,0.5-0.2,0.5-0.5S20.3,6,20,6h-0.5C19.2,6,19,6.2,19,6.5S19.2,7,19.5,7z"/>
</g>
<g id="Frames-24px">
	<rect class="st1" width="24" height="24"/>
</g>
</svg>
