<?xml version="1.0" encoding="utf-8"?>
<!-- Generator: Adobe Illustrator 21.0.0, SVG Export Plug-In . SVG Version: 6.00 Build 0)  -->
<svg version="1.1" id="Layer_1" xmlns="http://www.w3.org/2000/svg" xmlns:xlink="http://www.w3.org/1999/xlink" x="0px" y="0px"
	 viewBox="0 0 24 24" style="enable-background:new 0 0 24 24;" xml:space="preserve">
<style type="text/css">
	.st0{fill:#58595B;}
	.st1{fill:none;}
</style>
<g>
	<path class="st0" d="M24,19.8l-4-9.5c-0.1-0.2-0.3-0.3-0.5-0.3h-2V5c0-0.2-0.1-0.3-0.2-0.4l-5-3c-0.2-0.1-0.4-0.1-0.5,0l-5,3
		C6.6,4.7,6.5,4.8,6.5,5v5H4.7L2.4,7.6c-0.2-0.2-0.5-0.2-0.7,0s-0.2,0.5,0,0.7l2.3,2.3L0,19.8C0,20,0,20.2,0.1,20.3l3,3.5
		C3.2,23.9,3.4,24,3.5,24h17c0.1,0,0.3-0.1,0.4-0.2l3-3.5C24,20.2,24,20,24,19.8z M7.5,5.3L12,2.6l4.5,2.7V10h-9V5.3z M20.3,23H3.7
		l-2.6-3.1L4.8,11h14.3l3.8,8.9L20.3,23z"/>
	<path class="st0" d="M16,14H8c-0.3,0-0.5,0.2-0.5,0.5v4c0,0.2,0.1,0.4,0.3,0.5l4,1.5c0.1,0,0.1,0,0.2,0s0.1,0,0.2,0l4-1.5
		c0.2-0.1,0.3-0.3,0.3-0.5v-4C16.5,14.2,16.3,14,16,14z M15.5,18.2L12,19.5l-3.5-1.3V15h7V18.2z"/>
</g>
<g id="Frames-24px">
	<rect class="st1" width="24" height="24"/>
</g>
</svg>
