<?xml version="1.0" encoding="utf-8"?>
<!-- Generator: Adobe Illustrator 21.0.0, SVG Export Plug-In . SVG Version: 6.00 Build 0)  -->
<svg version="1.1" id="Layer_1" xmlns="http://www.w3.org/2000/svg" xmlns:xlink="http://www.w3.org/1999/xlink" x="0px" y="0px"
	 viewBox="0 0 24 24" style="enable-background:new 0 0 24 24;" xml:space="preserve">
<style type="text/css">
	.st0{fill:#58595B;}
	.st1{fill:none;}
</style>
<g>
	<path class="st0" d="M11.5,14h12c0.3,0,0.5-0.2,0.5-0.5S23.8,13,23.5,13H22V8.5c0-0.2-0.1-0.4-0.3-0.5l-4-1.5c-0.1,0-0.2,0-0.4,0
		l-4,1.5C13.1,8.1,13,8.3,13,8.5V13h-1.5c-0.3,0-0.5,0.2-0.5,0.5S11.2,14,11.5,14z M14,8.8l3.5-1.3L21,8.8V13h-7V8.8z"/>
	<path class="st0" d="M23.5,15h-12c-0.3,0-0.5,0.2-0.5,0.5s0.2,0.5,0.5,0.5h12c0.3,0,0.5-0.2,0.5-0.5S23.8,15,23.5,15z"/>
	<path class="st0" d="M15.3,5.4l2,1c0.1,0,0.1,0.1,0.2,0.1s0.2,0,0.2-0.1l2-1C19.9,5.4,20,5.2,20,5V2.5c0-0.2-0.1-0.4-0.3-0.4l-2-1
		c-0.1-0.1-0.3-0.1-0.4,0l-2,1C15.1,2.1,15,2.3,15,2.5V5C15,5.2,15.1,5.4,15.3,5.4z M16,2.8l1.5-0.8L19,2.8v1.9l-1.5,0.8L16,4.7V2.8
		z"/>
	<path class="st0" d="M4.7,10.4c0.1,0,0.2,0.1,0.3,0.1s0.2,0,0.3-0.1l2.5-1.5C7.9,8.8,8,8.7,8,8.5v-3c0-0.2-0.1-0.3-0.2-0.4L5.3,3.6
		c-0.2-0.1-0.4-0.1-0.5,0L2.2,5.1C2.1,5.2,2,5.3,2,5.5v3c0,0.2,0.1,0.3,0.2,0.4L4.7,10.4z M3,5.8l2-1.2l2,1.2v2.4L5,9.4L3,8.2V5.8z"
		/>
	<path class="st0" d="M9.7,12l-4.5-1.5c-0.1,0-0.2,0-0.3,0L0.3,12C0.1,12.1,0,12.3,0,12.5v5C0,17.8,0.2,18,0.5,18H2v5.5
		C2,23.8,2.2,24,2.5,24h5C7.8,24,8,23.8,8,23.5V18h1.5c0.3,0,0.5-0.2,0.5-0.5v-5C10,12.3,9.9,12.1,9.7,12z M9,17H7.5
		C7.2,17,7,17.2,7,17.5V23H3v-5.5C3,17.2,2.8,17,2.5,17H1v-4.1l4-1.3l4,1.3V17z"/>
	<path class="st0" d="M17.5,9C17.2,9,17,9.2,17,9.5v2c0,0.3,0.2,0.5,0.5,0.5s0.5-0.2,0.5-0.5v-2C18,9.2,17.8,9,17.5,9z"/>
</g>
<g id="Frames-24px">
	<rect class="st1" width="24" height="24"/>
</g>
</svg>
