<?xml version="1.0" encoding="utf-8"?>
<!-- Generator: Adobe Illustrator 21.0.0, SVG Export Plug-In . SVG Version: 6.00 Build 0)  -->
<svg version="1.1" id="Layer_1" xmlns="http://www.w3.org/2000/svg" xmlns:xlink="http://www.w3.org/1999/xlink" x="0px" y="0px"
	 viewBox="0 0 24 24" style="enable-background:new 0 0 24 24;" xml:space="preserve">
<style type="text/css">
	.st0{fill:#58595B;}
	.st1{fill:none;}
</style>
<g>
	<path class="st0" d="M9.3,4.1C9.1,4,8.9,4,8.7,4.1l-1.5,1C7.1,5.2,7,5.3,7,5.5V7c0,0.2,0.1,0.3,0.2,0.4l1.5,1
		C8.8,8.5,8.9,8.5,9,8.5s0.2,0,0.3-0.1l1.5-1C10.9,7.3,11,7.2,11,7V5.5c0-0.2-0.1-0.3-0.2-0.4L9.3,4.1z M10,6.7L9,7.4L8,6.7v-1
		l1-0.7l1,0.7V6.7z"/>
	<path class="st0" d="M13.7,8.4c0.1,0.1,0.2,0.1,0.3,0.1s0.2,0,0.3-0.1l1.5-1C15.9,7.3,16,7.2,16,7V5.5c0-0.2-0.1-0.3-0.2-0.4
		l-1.5-1c-0.2-0.1-0.4-0.1-0.6,0l-1.5,1C12.1,5.2,12,5.3,12,5.5V7c0,0.2,0.1,0.3,0.2,0.4L13.7,8.4z M13,5.8l1-0.7l1,0.7v1l-1,0.7
		l-1-0.7V5.8z"/>
	<path class="st0" d="M22.5,12c-0.3,0-0.5,0.2-0.5,0.5v1.3l-1.5,1.5L19,13.8v-1.3c0-0.3-0.2-0.5-0.5-0.5S18,12.2,18,12.5V14
		c0,0.1,0.1,0.3,0.1,0.4l1.8,1.8l-0.4,2.2l-2.4-0.8l0.3-1.4c0-0.2,0-0.3-0.1-0.5l-2.5-2.5c-0.1-0.1-0.2-0.1-0.4-0.1H12v-2h4
		c0.1,0,0.3-0.1,0.4-0.1l4-4c0.2-0.2,0.2-0.5,0-0.7l-4-4C16.3,2.1,16.1,2,16,2h-4V0.5C12,0.2,11.8,0,11.5,0S11,0.2,11,0.5V2H7
		C6.9,2,6.7,2.1,6.6,2.1l-4,4c-0.2,0.2-0.2,0.5,0,0.7l4,4C6.7,10.9,6.9,11,7,11h4v2H8.5c-0.1,0-0.3,0.1-0.4,0.1l-2.5,2.5
		c-0.1,0.1-0.2,0.3-0.1,0.5l0.3,1.6l-2.4,0.7L3,16.2l1.8-1.8C4.9,14.3,5,14.1,5,14v-1.5C5,12.2,4.8,12,4.5,12S4,12.2,4,12.5v1.3
		l-1.5,1.5L1,13.8v-1.3C1,12.2,0.8,12,0.5,12S0,12.2,0,12.5V14c0,0.1,0.1,0.3,0.1,0.4L2,16.2l0.5,2.8c0,0.1,0.1,0.3,0.2,0.3
		c0.1,0.1,0.2,0.1,0.3,0.1c0,0,0.1,0,0.1,0L6,18.7l1,4.9c0,0.2,0.3,0.4,0.5,0.4h8c0.2,0,0.4-0.2,0.5-0.4l1-5.1l2.8,0.9
		c0.1,0,0.1,0,0.2,0c0.1,0,0.2,0,0.3-0.1c0.1-0.1,0.2-0.2,0.2-0.3l0.5-2.8l1.9-1.9c0.1-0.1,0.1-0.2,0.1-0.4v-1.5
		C23,12.2,22.8,12,22.5,12z M3.7,6.5L7.2,3h8.6l3.5,3.5L15.8,10H7.2L3.7,6.5z M8.7,14h5.6l2.2,2.2l-1,4.8h-8l-1-4.8L8.7,14z M7.9,23
		l-0.2-1h7.6l-0.2,1H7.9z"/>
</g>
<g id="Frames-24px">
	<rect class="st1" width="24" height="24"/>
</g>
</svg>
