<?xml version="1.0" encoding="utf-8"?>
<!-- Generator: Adobe Illustrator 21.0.0, SVG Export Plug-In . SVG Version: 6.00 Build 0)  -->
<svg version="1.1" id="Layer_1" xmlns="http://www.w3.org/2000/svg" xmlns:xlink="http://www.w3.org/1999/xlink" x="0px" y="0px"
	 viewBox="0 0 24 24" style="enable-background:new 0 0 24 24;" xml:space="preserve">
<style type="text/css">
	.st0{fill:#58595B;}
	.st1{fill:none;}
</style>
<path class="st0" d="M22,3.5C22,3.5,22,3.4,22,3.5c0-0.1,0-0.2-0.1-0.2c0,0,0,0,0,0l-1.9-2.8c-0.1-0.1-0.2-0.2-0.4-0.2L16.3,0
	c0,0,0,0,0,0c-0.1,0-0.1,0-0.2,0c0,0,0,0,0,0c0,0,0,0,0,0c-0.1,0-0.1,0.1-0.1,0.2c0,0,0,0,0,0l-1.7,3c-0.1,0.2-0.1,0.4,0,0.5
	l1.7,2.5L12.6,12l-0.3-1.1c0-0.2-0.2-0.3-0.3-0.3l-3.1-1c-0.2-0.1-0.4,0-0.5,0.1C8.2,9.8,8.1,10,8.2,10.2l1.4,2.9
	c0.1,0.1,0.2,0.2,0.4,0.3l1.6,0.3L8.6,19H3v-1.2L6.1,16H9c0.2,0,0.3-0.1,0.4-0.2s0.1-0.3,0-0.5l-1-2C8.3,13,8,12.9,7.8,13.1
	c-0.2,0.1-0.3,0.4-0.2,0.7L8.2,15H6c-0.1,0-0.2,0-0.2,0.1l-3.5,2C2.1,17.2,2,17.3,2,17.5V21c0,0.2,0.1,0.3,0.2,0.4l3.5,2.5
	C5.8,24,5.9,24,6,24h10.5c0.1,0,0.2,0,0.3-0.1l3.5-2.5c0.1-0.1,0.2-0.2,0.2-0.4v-3.5c0-0.2-0.1-0.3-0.3-0.4l-3.5-2
	c-0.1,0-0.2-0.1-0.2-0.1h-2.2l0.6-1.3c0.1-0.2,0-0.5-0.2-0.7c-0.2-0.1-0.5,0-0.7,0.2l-1,2c-0.1,0.2-0.1,0.3,0,0.5
	c0.1,0.1,0.3,0.2,0.4,0.2h2.9l3.1,1.8V19H9.7l4.8-8.3l1,1.3c0.1,0.1,0.2,0.2,0.4,0.2c0,0,0,0,0,0l3.2-0.2c0.2,0,0.4-0.2,0.4-0.3
	c0.1-0.2,0-0.4-0.1-0.5L17,8.9c-0.1-0.1-0.3-0.1-0.4-0.1L15.4,9l1.3-2.2l3,0.2c0,0,0,0,0,0c0.2,0,0.3-0.1,0.4-0.3l1.7-3c0,0,0,0,0,0
	C22,3.7,22,3.6,22,3.5C22,3.5,22,3.5,22,3.5z M9.7,10.8l1.7,0.6l0.4,1.2l-1.3-0.2L9.7,10.8z M19.5,20v0.7L16.3,23H6.2L3,20.7V20h5
	l-0.7,1.3c-0.1,0.2-0.1,0.5,0.2,0.7C7.6,22,7.6,22,7.7,22c0.2,0,0.3-0.1,0.4-0.3l1-1.7H19.5z M17.9,11l-1.8,0.1l-0.8-1l1.3-0.3
	L17.9,11z M20.5,2.9l-2.1-0.1l-1.2-1.8l2.1,0.1L20.5,2.9z M19.5,6l-2.8-0.2l-1.5-2.3l1.2-2.1l1.4,2.1c0.1,0.1,0.2,0.2,0.4,0.2
	l2.5,0.1L19.5,6z"/>
<g id="Frames-24px">
	<rect class="st1" width="24" height="24"/>
</g>
</svg>
