<?xml version="1.0" encoding="utf-8"?>
<!-- Generator: Adobe Illustrator 21.0.0, SVG Export Plug-In . SVG Version: 6.00 Build 0)  -->
<svg version="1.1" id="Layer_1" xmlns="http://www.w3.org/2000/svg" xmlns:xlink="http://www.w3.org/1999/xlink" x="0px" y="0px"
	 viewBox="0 0 24 24" style="enable-background:new 0 0 24 24;" xml:space="preserve">
<style type="text/css">
	.st0{fill:#58595B;}
	.st1{fill:none;}
</style>
<g>
	<path class="st0" d="M22.9,1.9C23,1.7,23,1.4,22.9,1.2C22.8,1,22.6,1,22.4,1l-6.5,2c-0.2,0-0.3,0.2-0.3,0.3L11.9,15L8.5,6.3
		C8.4,6.1,8.3,6,8.1,6c-0.2,0-0.3,0-0.5,0.1l-7.5,8C0,14.2,0,14.4,0,14.6c0,0.2,0.2,0.3,0.3,0.4L3.2,16c0,0,0,0,0,0l2,0.8l3.4,5.9
		c0.1,0.1,0.2,0.2,0.3,0.2l3.5,1c0,0,0.1,0,0.1,0c0.1,0,0.2,0,0.2-0.1l3-1.5c0.1-0.1,0.2-0.2,0.3-0.4l1.2-6.6l1.2,0.4
		c0.1,0,0.1,0,0.2,0c0.2,0,0.4-0.1,0.5-0.3c0.1-0.3-0.1-0.5-0.3-0.6l-1.3-0.4l0.4-2l1.1,0.4c0.1,0,0.1,0,0.2,0
		c0.2,0,0.4-0.1,0.5-0.3c0.1-0.3-0.1-0.5-0.3-0.6l-1.3-0.4l0.4-2l1.1,0.4c0.1,0,0.1,0,0.2,0c0.2,0,0.4-0.1,0.5-0.3
		c0.1-0.3-0.1-0.5-0.3-0.6l-1.2-0.4L19,5.7L22.9,1.9z M7.8,7.4l0.7,1.8L3.2,15l-1.8-0.7L7.8,7.4z M16.3,8.9l1,0.3l-0.4,2L16.2,11
		c-0.3-0.1-0.5,0.1-0.6,0.3c-0.1,0.3,0.1,0.5,0.3,0.6l0.9,0.3l-0.4,2L15.7,14c-0.3-0.1-0.5,0.1-0.6,0.3c-0.1,0.3,0.1,0.5,0.3,0.6
		l0.9,0.3l-1.2,6.5L12.5,23l-3.1-0.9l-3.4-5.9C5.9,16.1,5.8,16,5.7,16l-1.5-0.6L9,10.2l2.6,6.4c0.1,0.2,0.3,0.3,0.5,0.3
		c0.2,0,0.4-0.2,0.5-0.4l3.9-12.7l4.3-1.3l-2.6,2.6C18.1,5.2,18,5.3,18,5.4l-0.5,2.8L16.7,8C16.4,7.9,16.1,8,16,8.3
		C15.9,8.5,16.1,8.8,16.3,8.9z"/>
	<path class="st0" d="M1.5,9.5c0.1,0,0.2,0,0.2-0.1l2-1c0,0,0,0,0.1,0c0,0,0.1,0,0.1-0.1c0,0,0-0.1,0.1-0.1c0,0,0-0.1,0-0.1
		c0,0,0-0.1,0-0.1C4,8,4,8,4,8V3.3L5.1,3c0.3-0.1,0.4-0.4,0.3-0.6C5.4,2.1,5.1,1.9,4.9,2L3.4,2.5C3.1,2.5,3,2.7,3,3c0,0,0,0,0,0v3
		H1.5C1.2,6,1,6.2,1,6.5V9c0,0.2,0.1,0.3,0.2,0.4C1.3,9.5,1.4,9.5,1.5,9.5z M2,7h1v0.7L2,8.2V7z"/>
</g>
<g id="Frames-24px">
	<rect class="st1" width="24" height="24"/>
</g>
</svg>
