<?xml version="1.0" encoding="utf-8"?>
<!-- Generator: Adobe Illustrator 21.0.0, SVG Export Plug-In . SVG Version: 6.00 Build 0)  -->
<svg version="1.1" id="Layer_1" xmlns="http://www.w3.org/2000/svg" xmlns:xlink="http://www.w3.org/1999/xlink" x="0px" y="0px"
	 viewBox="0 0 24 24" style="enable-background:new 0 0 24 24;" xml:space="preserve">
<style type="text/css">
	.st0{fill:#58595B;}
	.st1{fill:none;}
</style>
<g>
	<path class="st0" d="M22.6,3.5L11.5,0c-0.1,0-0.2,0-0.3,0L0.3,3.5C0.1,3.6,0,3.8,0,4.1l2.4,15.5c0,0.2,0.1,0.3,0.3,0.4l8.5,4
		c0.1,0,0.1,0,0.2,0s0.1,0,0.2,0l8.5-4c0.1-0.1,0.3-0.2,0.3-0.4L23,4.1C23,3.8,22.9,3.6,22.6,3.5z M19.4,19.2l-8.1,3.8l-8-3.8
		L1.1,4.3L11.4,1l10.6,3.3L19.4,19.2z"/>
	<path class="st0" d="M2.6,4.9C2.3,5,2.2,5.2,2.2,5.5l1.9,12.8c0,0.2,0.1,0.3,0.3,0.4l6.7,3.1c0.1,0,0.1,0,0.2,0s0.1,0,0.2,0
		l6.7-3.1c0.1-0.1,0.3-0.2,0.3-0.4l2.2-12.8c0-0.2-0.1-0.5-0.3-0.6l-8.9-2.8c-0.1,0-0.2,0-0.3,0L2.6,4.9z M11.4,3.2l7.4,7.4
		l-0.5,2.6L9.1,3.9L11.4,3.2L11.4,3.2z M17.7,17L5.7,5L8,4.2l10.2,10.2L17.7,17z M4.6,5.3L17.3,18l-2.1,1L3.5,7.3L3.3,5.7L4.6,5.3z
		 M12.1,20.4l-7.8-7.8L3.8,9l10.4,10.4L12.1,20.4z M4.6,14.3l6.2,6.2l-5.6-2.6L4.6,14.3z M19.1,9.4l-5.6-5.6l6.2,1.9L19.1,9.4z"/>
</g>
<g id="Frames-24px">
	<rect class="st1" width="24" height="24"/>
</g>
</svg>
