<?xml version="1.0" encoding="utf-8"?>
<!-- Generator: Adobe Illustrator 21.0.0, SVG Export Plug-In . SVG Version: 6.00 Build 0)  -->
<svg version="1.1" id="Layer_1" xmlns="http://www.w3.org/2000/svg" xmlns:xlink="http://www.w3.org/1999/xlink" x="0px" y="0px"
	 viewBox="0 0 24 24" style="enable-background:new 0 0 24 24;" xml:space="preserve">
<style type="text/css">
	.st0{fill:#58595B;}
	.st1{fill:none;}
</style>
<g>
	<path class="st0" d="M23.5,17h-1l-1.3-4H22c0.3,0,0.5-0.2,0.5-0.5S22.3,12,22,12h-7l2.4-6.3c0-0.1,0-0.3,0-0.4
		c-0.1-0.1-0.2-0.2-0.3-0.3l-5.5-2c-0.1,0-0.3,0-0.4,0c-0.1,0.1-0.2,0.2-0.3,0.3l-0.8,2.4c0,0,0,0,0,0c0,0,0,0,0,0L9.1,9H6.5
		C6.2,9,6,9.2,6,9.5v6.1l-5.3-2.1c-0.2-0.1-0.4,0-0.6,0.1C0,13.8,0,14,0.1,14.2l3,6c0.1,0.2,0.3,0.3,0.4,0.3c0.1,0,0.2,0,0.2-0.1
		C4,20.3,4.1,20,3.9,19.8l-2.4-4.8l4.8,1.9c0,0,0,0,0,0l3,1.2c0.1,0,0.1,0,0.2,0h13.1l-1,1.7c-0.1,0.2-0.1,0.5,0.2,0.7
		c0.2,0.1,0.5,0.1,0.7-0.2l1.5-2.5c0.1-0.2,0.1-0.3,0-0.5C23.8,17.1,23.7,17,23.5,17z M20.5,14H18v-1h2.1L20.5,14z M15,14v-1h2v1H15
		z M11.8,4.1l4.5,1.7l-0.4,1.2l-4.6-1.4L11.8,4.1z M11,6.5l4.5,1.4l-1.3,3.5l-1.8-2.2C12.3,9.1,12.1,9,12,9h-1.8L11,6.5z M7,12h4v1
		H7V12z M7,16v-2h4.5c0.3,0,0.5-0.2,0.5-0.5v-2c0-0.3-0.2-0.5-0.5-0.5H7v-1h4.8l2.2,2.7v1.8c0,0.3,0.2,0.5,0.5,0.5h6.3l0.7,2H9.6
		L7,16z"/>
	<path class="st0" d="M14.9,1.9l0.6-0.6l1.6,1.6c0.2,0.2,0.5,0.2,0.7,0l1.6-1.6l1.6,1.6C21.2,3,21.4,3,21.5,3s0.3,0,0.4-0.1l2-2
		c0.2-0.2,0.2-0.5,0-0.7s-0.5-0.2-0.7,0l-1.6,1.6l-1.6-1.6c-0.2-0.2-0.5-0.2-0.7,0l-1.6,1.6l-1.6-1.6c-0.2-0.2-0.5-0.2-0.7,0l-1,1
		c-0.2,0.2-0.2,0.5,0,0.7S14.7,2,14.9,1.9z"/>
	<path class="st0" d="M23.2,21.6L21,22.9l-1.7-1.3c-0.2-0.1-0.4-0.1-0.6,0L17,22.9l-1.7-1.3c-0.2-0.1-0.4-0.1-0.6,0L13,22.9
		l-1.7-1.3c-0.2-0.1-0.4-0.1-0.6,0L9,22.9l-1.7-1.3c-0.2-0.1-0.4-0.1-0.6,0L5,22.9l-1.7-1.3c-0.2-0.1-0.4-0.1-0.6,0l-2.5,1.5
		c-0.2,0.1-0.3,0.4-0.2,0.7C0.2,23.9,0.3,24,0.5,24c0.1,0,0.2,0,0.3-0.1L3,22.6l1.7,1.3c0.2,0.1,0.4,0.1,0.6,0L7,22.6l1.7,1.3
		c0.2,0.1,0.4,0.1,0.6,0l1.7-1.3l1.7,1.3c0.2,0.1,0.4,0.1,0.6,0l1.7-1.3l1.7,1.3c0.2,0.1,0.4,0.1,0.6,0l1.7-1.3l1.7,1.3
		c0.2,0.1,0.4,0.1,0.6,0l2.5-1.5c0.2-0.1,0.3-0.4,0.2-0.7C23.8,21.5,23.5,21.4,23.2,21.6z"/>
</g>
<g id="Frames-24px">
	<rect class="st1" width="24" height="24"/>
</g>
</svg>
