<?xml version="1.0" encoding="utf-8"?>
<!-- Generator: Adobe Illustrator 21.0.0, SVG Export Plug-In . SVG Version: 6.00 Build 0)  -->
<svg version="1.1" id="Layer_1" xmlns="http://www.w3.org/2000/svg" xmlns:xlink="http://www.w3.org/1999/xlink" x="0px" y="0px"
	 viewBox="0 0 24 24" style="enable-background:new 0 0 24 24;" xml:space="preserve">
<style type="text/css">
	.st0{fill:#58595B;}
	.st1{fill:none;}
</style>
<g>
	<path class="st0" d="M23.5,13H22V6.5C22,6.2,21.8,6,21.5,6H20V4.5C20,4.2,19.8,4,19.5,4h-3C16.2,4,16,4.2,16,4.5V6h-1.5
		C14.2,6,14,6.2,14,6.5V13h-2.5c-0.3,0-0.5,0.2-0.5,0.5v8c0,0.3,0.2,0.5,0.5,0.5h12c0.3,0,0.5-0.2,0.5-0.5v-8
		C24,13.2,23.8,13,23.5,13z M23,17h-5v-3h3.5H23V17z M17,5h2v1h-2V5z M15,7h1v1.5C16,8.8,16.2,9,16.5,9S17,8.8,17,8.5V7h2v1.5
		C19,8.8,19.2,9,19.5,9S20,8.8,20,8.5V7h1v6h-6V7z M14.5,14H17v3h-5v-3H14.5z M12,18h5v3h-5V18z M18,21v-3h5v3H18z"/>
	<path class="st0" d="M9.5,11c0.3,0,0.5-0.2,0.5-0.5V8h2v3.5c0,0.3,0.2,0.5,0.5,0.5s0.5-0.2,0.5-0.5v-4C13,7.2,12.8,7,12.5,7H10V3.5
		C10,3.2,9.8,3,9.5,3h-6C3.2,3,3,3.2,3,3.5V7H0.5C0.2,7,0,7.2,0,7.5v14C0,21.8,0.2,22,0.5,22h9c0.3,0,0.5-0.2,0.5-0.5S9.8,21,9.5,21
		H1V8h2v2.5C3,10.8,3.2,11,3.5,11S4,10.8,4,10.5V8h5v2.5C9,10.8,9.2,11,9.5,11z M4,7V4h5v3H4z"/>
</g>
<g id="Frames-24px">
	<rect class="st1" width="24" height="24"/>
</g>
</svg>
