<?xml version="1.0" encoding="utf-8"?>
<!-- Generator: Adobe Illustrator 21.0.0, SVG Export Plug-In . SVG Version: 6.00 Build 0)  -->
<svg version="1.1" id="Layer_1" xmlns="http://www.w3.org/2000/svg" xmlns:xlink="http://www.w3.org/1999/xlink" x="0px" y="0px"
	 viewBox="0 0 24 24" style="enable-background:new 0 0 24 24;" xml:space="preserve">
<style type="text/css">
	.st0{fill:#58595B;}
	.st1{fill:none;}
</style>
<g>
	<path class="st0" d="M19.5,11H19V5.5C19,5.2,18.8,5,18.5,5H15V1.5C15,1.2,14.8,1,14.5,1h-7C7.2,1,7,1.2,7,1.5V5H3.5
		C3.2,5,3,5.2,3,5.5v14C3,19.8,3.2,20,3.5,20H7v3.5C7,23.8,7.2,24,7.5,24h7c0.3,0,0.5-0.2,0.5-0.5V20h3.5c0.3,0,0.5-0.2,0.5-0.5V12
		h0.5c0.3,0,0.5-0.2,0.5-0.5S19.8,11,19.5,11z M14,2v1H8V2H14z M8,4h6v1H8V4z M8,23v-1h6v1H8z M14,21H8v-1h6V21z M18,19H4V6h14V19z"
		/>
	<path class="st0" d="M13.9,8.7c-0.2-0.2-0.5-0.2-0.7-0.1L11,10.4L8.8,8.6C8.6,8.4,8.3,8.5,8.1,8.7l-2.5,3c-0.2,0.2-0.2,0.5,0,0.7
		l5,5c0.1,0.1,0.2,0.1,0.4,0.1s0.3,0,0.4-0.1l5-5c0.2-0.2,0.2-0.5,0-0.7L13.9,8.7z M11,16.3L6.7,12l1.9-2.3l2.1,1.7
		c0.2,0.1,0.4,0.1,0.6,0l2.1-1.7l1.9,2.3L11,16.3z"/>
</g>
<g id="Frames-24px">
	<rect class="st1" width="24" height="24"/>
</g>
</svg>
