<?xml version="1.0" encoding="utf-8"?>
<!-- Generator: Adobe Illustrator 21.0.0, SVG Export Plug-In . SVG Version: 6.00 Build 0)  -->
<svg version="1.1" id="Layer_1" xmlns="http://www.w3.org/2000/svg" xmlns:xlink="http://www.w3.org/1999/xlink" x="0px" y="0px"
	 viewBox="0 0 24 24" style="enable-background:new 0 0 24 24;" xml:space="preserve">
<style type="text/css">
	.st0{fill:#58595B;}
	.st1{fill:none;}
</style>
<g>
	<path class="st0" d="M16.1,14.1L14.3,16H9.7l-1.9-1.9c-0.2-0.2-0.5-0.2-0.7,0s-0.2,0.5,0,0.7l2,2C9.2,16.9,9.4,17,9.5,17h5
		c0.1,0,0.3-0.1,0.4-0.1l2-2c0.2-0.2,0.2-0.5,0-0.7S16.3,14,16.1,14.1z"/>
	<path class="st0" d="M9.7,9.9C9.8,10,9.9,10,10,10c0.2,0,0.3-0.1,0.4-0.2c0.2-0.2,0.1-0.5-0.1-0.7l-2-1.5c-0.2-0.1-0.4-0.1-0.6,0
		l-2,1.5C5.5,9.3,5.4,9.6,5.6,9.8c0.2,0.2,0.5,0.3,0.7,0.1L8,8.6L9.7,9.9z"/>
	<path class="st0" d="M14.3,9.9L16,8.6l1.7,1.3C17.8,10,17.9,10,18,10c0.2,0,0.3-0.1,0.4-0.2c0.2-0.2,0.1-0.5-0.1-0.7l-2-1.5
		c-0.2-0.1-0.4-0.1-0.6,0l-2,1.5c-0.2,0.2-0.3,0.5-0.1,0.7C13.8,10,14.1,10.1,14.3,9.9z"/>
	<path class="st0" d="M22.7,5.8L12.2,0.1c-0.1-0.1-0.3-0.1-0.5,0L1.3,5.8C1.1,5.9,1,6.1,1,6.2v11.5c0,0.2,0.1,0.4,0.3,0.4l10.5,5.8
		c0.1,0,0.2,0.1,0.2,0.1c0.1,0,0.2,0,0.2-0.1l10.5-5.8c0.2-0.1,0.3-0.3,0.3-0.4V6.2C23,6.1,22.9,5.9,22.7,5.8z M22,17.5l-10,5.5
		L2,17.5V6.5l10-5.5l10,5.5V17.5z"/>
</g>
<g id="Frames-24px">
	<rect class="st1" width="24" height="24"/>
</g>
</svg>
