<?xml version="1.0" encoding="utf-8"?>
<!-- Generator: Adobe Illustrator 21.0.0, SVG Export Plug-In . SVG Version: 6.00 Build 0)  -->
<svg version="1.1" id="Layer_1" xmlns="http://www.w3.org/2000/svg" xmlns:xlink="http://www.w3.org/1999/xlink" x="0px" y="0px"
	 viewBox="0 0 24 24" style="enable-background:new 0 0 24 24;" xml:space="preserve">
<style type="text/css">
	.st0{fill:#58595B;}
	.st1{fill:none;}
</style>
<g>
	<path class="st0" d="M23.9,5.2l-2.5-4C21.3,1.1,21.1,1,20.9,1l-3,0.8c-0.1,0-0.3,0.1-0.3,0.3l-0.9,1.8L10.4,5
		c-0.2,0-0.4,0.3-0.4,0.5s0.2,0.4,0.4,0.5l6.2,1.2L17.6,9c0.1,0.1,0.2,0.2,0.3,0.3l3,0.8c0,0,0.1,0,0.1,0c0.2,0,0.3-0.1,0.4-0.2
		l2.5-4C24,5.6,24,5.4,23.9,5.2z M20.8,8.9l-2.4-0.6l-0.5-0.9l0.5,0.1c0,0,0.1,0,0.1,0c0.2,0,0.4-0.2,0.5-0.4
		c0.1-0.3-0.1-0.5-0.4-0.6l-5.4-1l5.4-1C18.9,4.4,19,4.2,19,3.9c-0.1-0.3-0.3-0.4-0.6-0.4l-0.5,0.1l0.5-0.9l2.4-0.6l2.1,3.4
		L20.8,8.9z"/>
	<path class="st0" d="M11.7,7c-0.1,0-0.1,0-0.2,0H9V3.5C9,3.2,8.8,3,8.5,3h-4C4.2,3,4,3.2,4,3.5V7H1.5C1.2,7,1,7.2,1,7.5v16
		c0,0.1,0,0.1,0,0.2c0.1,0.1,0.1,0.2,0.3,0.3c0.1,0,0.1,0,0.2,0h10c0.3,0,0.5-0.2,0.5-0.5v-16c0-0.1,0-0.1,0-0.2
		C11.9,7.2,11.8,7.1,11.7,7z M11,13.3l-9,9v-4.6l9-9V13.3z M5,4h3v1H6.5C6.2,5,6,5.2,6,5.5S6.2,6,6.5,6H8v1H5V4z M10.3,8L2,16.3V8
		H10.3z M2.7,23l8.3-8.3V23H2.7z"/>
</g>
<g id="Frames-24px">
	<rect class="st1" width="24" height="24"/>
</g>
</svg>
