<?xml version="1.0" encoding="utf-8"?>
<!-- Generator: Adobe Illustrator 21.0.0, SVG Export Plug-In . SVG Version: 6.00 Build 0)  -->
<svg version="1.1" id="Layer_1" xmlns="http://www.w3.org/2000/svg" xmlns:xlink="http://www.w3.org/1999/xlink" x="0px" y="0px"
	 viewBox="0 0 24 24" style="enable-background:new 0 0 24 24;" xml:space="preserve">
<style type="text/css">
	.st0{fill:#58595B;}
	.st1{fill:none;}
</style>
<g>
	<path class="st0" d="M22.9,7.2l-4-5.5c-0.2-0.2-0.5-0.3-0.7-0.1l-5,3.5C13.1,5.2,13,5.3,13,5.4L10.6,22H10V8.5c0-0.1,0-0.2-0.1-0.3
		L7.4,4.7C7.3,4.5,7.1,4.5,6.9,4.5c-0.2,0-0.3,0.2-0.4,0.4L6.1,7H4C3.8,7,3.6,7.1,3.6,7.3l-2.5,5c-0.1,0.2-0.1,0.3,0,0.5
		S1.3,13,1.5,13H5v2H3c-0.2,0-0.4,0.1-0.5,0.3c-0.1,0.2-0.1,0.4,0.1,0.5L4.4,18H3.5c-0.2,0-0.3,0.1-0.4,0.2l-3,5
		c-0.1,0.2-0.1,0.4,0,0.6C0.2,23.9,0.3,24,0.5,24c0,0,0.1,0,0.1,0l3.9-1H11c0,0,0,0,0,0h5c0.1,0,0.2,0,0.3-0.1l3.5-2.5
		c0.1-0.1,0.2-0.2,0.2-0.4V8h2.5c0.2,0,0.4-0.1,0.4-0.3C23,7.6,23,7.4,22.9,7.2z M9,22H4.5c0,0-0.1,0-0.1,0l-2.8,0.7L3.8,19h1.7
		c0.2,0,0.4-0.1,0.5-0.3C6,18.5,6,18.3,5.9,18.2L4.1,16h1.4C5.8,16,6,15.8,6,15.5v-3C6,12.2,5.8,12,5.5,12H2.3l2-4h2.2
		C6.7,8,6.9,7.8,7,7.6l0.3-1.4L9,8.7V22z M19.5,7C19.2,7,19,7.2,19,7.5v12.2L15.8,22h-4.3L14,5.8l4.4-3.1L21.5,7H19.5z"/>
	<path class="st0" d="M5.5,9C5.2,9,5,9.2,5,9.5v1C5,10.8,5.2,11,5.5,11S6,10.8,6,10.5v-1C6,9.2,5.8,9,5.5,9z"/>
</g>
<g id="Frames-24px">
	<rect class="st1" width="24" height="24"/>
</g>
</svg>
