<?xml version="1.0" encoding="utf-8"?>
<!-- Generator: Adobe Illustrator 21.0.0, SVG Export Plug-In . SVG Version: 6.00 Build 0)  -->
<svg version="1.1" id="Layer_1" xmlns="http://www.w3.org/2000/svg" xmlns:xlink="http://www.w3.org/1999/xlink" x="0px" y="0px"
	 viewBox="0 0 24 24" style="enable-background:new 0 0 24 24;" xml:space="preserve">
<style type="text/css">
	.st0{fill:#58595B;}
	.st1{fill:none;}
</style>
<g>
	<path class="st0" d="M21.5,10H20V4c0-0.2-0.1-0.4-0.3-0.5l-4.6-2c0,0,0,0,0,0L11.7,0C11.6,0,11.4,0,11.3,0L7.9,1.5c0,0,0,0,0,0
		l-4.6,2C3.1,3.6,3,3.8,3,4v6H1.5C1.2,10,1,10.2,1,10.5v4c0,0.2,0.1,0.4,0.3,0.4L3,15.8V19c0,0.2,0.1,0.3,0.3,0.4l8,4.5
		c0.1,0,0.2,0.1,0.2,0.1s0.2,0,0.2-0.1l8-4.5c0.2-0.1,0.3-0.3,0.3-0.4v-3.2l1.7-0.9c0.2-0.1,0.3-0.3,0.3-0.4v-4
		C22,10.2,21.8,10,21.5,10z M11.5,1l2.6,1.1l-2.6,2.6L8.9,2.2L11.5,1z M4,4.3l3.9-1.7l3.2,3.2C11.2,5.9,11.4,6,11.5,6
		s0.3-0.1,0.4-0.1l3.2-3.2L19,4.3v10.4l-4,2.2l-3.3-1.9c-0.2-0.1-0.3-0.1-0.5,0L8,16.9l-4-2.2V4.3z M2,14.2V11h1v3.7L2,14.2z
		 M11.5,22.9L4,18.7v-2.9l3.8,2.1c0.2,0.1,0.3,0.1,0.5,0l3.3-1.9l3.3,1.9c0.1,0,0.2,0.1,0.2,0.1c0.1,0,0.2,0,0.2-0.1l3.8-2.1v2.9
		L11.5,22.9z M21,14.2l-1,0.5V11h1V14.2z"/>
	<path class="st0" d="M12.5,18h-2c-0.3,0-0.5,0.2-0.5,0.5s0.2,0.5,0.5,0.5h2c0.3,0,0.5-0.2,0.5-0.5S12.8,18,12.5,18z"/>
	<path class="st0" d="M6.6,13.9C6.7,13.9,6.9,14,7,14h2c0.1,0,0.3-0.1,0.4-0.1l1.5-1.5c0.1-0.1,0.1-0.2,0.1-0.4v-1h1v1
		c0,0.1,0.1,0.3,0.1,0.4l1.5,1.5c0.1,0.1,0.2,0.1,0.4,0.1H16c0.1,0,0.3-0.1,0.4-0.1l1.5-1.5c0.1-0.1,0.1-0.2,0.1-0.4V10
		c0-0.1-0.1-0.3-0.1-0.4l-1.5-1.5C16.3,8.1,16.2,8,16,8H14c-0.1,0-0.3,0.1-0.4,0.1l-1.5,1.5C12.1,9.7,12,9.8,12,10v0h-1
		c0-0.1-0.1-0.3-0.1-0.4L9.4,8.1C9.3,8.1,9.1,8,9,8H7C6.9,8,6.7,8.1,6.6,8.1L5.1,9.6C5.1,9.7,5,9.9,5,10v2c0,0.1,0.1,0.3,0.1,0.4
		L6.6,13.9z M13,10.2L14.2,9h1.7l1.2,1.2v1.7L15.8,13h-1.7L13,11.8V10.2z M6,10.2L7.2,9h1.6l1.2,1.2v1.6L8.8,13H7.2L6,11.8V10.2z"/>
</g>
<g id="Frames-24px">
	<rect class="st1" width="24" height="24"/>
</g>
</svg>
