<?xml version="1.0" encoding="utf-8"?>
<!-- Generator: Adobe Illustrator 21.0.0, SVG Export Plug-In . SVG Version: 6.00 Build 0)  -->
<svg version="1.1" id="Layer_1" xmlns="http://www.w3.org/2000/svg" xmlns:xlink="http://www.w3.org/1999/xlink" x="0px" y="0px"
	 viewBox="0 0 24 24" style="enable-background:new 0 0 24 24;" xml:space="preserve">
<style type="text/css">
	.st0{fill:#58595B;}
	.st1{fill:none;}
</style>
<g>
	<path class="st0" d="M22.8,23.1l-2.5-1.5c-0.2-0.1-0.4-0.1-0.6,0L18,22.9l-1.7-1.3c-0.2-0.1-0.4-0.1-0.6,0L14,22.9l-1.7-1.3
		c-0.2-0.1-0.4-0.1-0.6,0L10,22.9l-1.7-1.3c-0.2-0.1-0.4-0.1-0.6,0L6,22.9l-1.7-1.3c-0.2-0.1-0.4-0.1-0.6,0l-2.5,1.5
		c-0.2,0.1-0.3,0.4-0.2,0.7c0.1,0.2,0.4,0.3,0.7,0.2L4,22.6l1.7,1.3c0.2,0.1,0.4,0.1,0.6,0L8,22.6l1.7,1.3c0.2,0.1,0.4,0.1,0.6,0
		l1.7-1.3l1.7,1.3c0.2,0.1,0.4,0.1,0.6,0l1.7-1.3l1.7,1.3c0.2,0.1,0.4,0.1,0.6,0l1.7-1.3l2.2,1.3c0.1,0,0.2,0.1,0.3,0.1
		c0.2,0,0.3-0.1,0.4-0.2C23.1,23.5,23,23.2,22.8,23.1z"/>
	<path class="st0" d="M22.8,19.6l-2.5-1.5c-0.2-0.1-0.4-0.1-0.6,0L18,19.4l-1.7-1.3c-0.2-0.1-0.4-0.1-0.6,0L14,19.4l-1.7-1.3
		c-0.2-0.1-0.4-0.1-0.6,0L10,19.4l-1.7-1.3c-0.2-0.1-0.4-0.1-0.6,0L6,19.4l-1.7-1.3c-0.2-0.1-0.4-0.1-0.6,0l-2.5,1.5
		C1,19.7,0.9,20,1.1,20.3c0.1,0.2,0.4,0.3,0.7,0.2L4,19.1l1.7,1.3c0.2,0.1,0.4,0.1,0.6,0L8,19.1l1.7,1.3c0.2,0.1,0.4,0.1,0.6,0
		l1.7-1.3l1.7,1.3c0.2,0.1,0.4,0.1,0.6,0l1.7-1.3l1.7,1.3c0.2,0.1,0.4,0.1,0.6,0l1.7-1.3l2.2,1.3c0.1,0,0.2,0.1,0.3,0.1
		c0.2,0,0.3-0.1,0.4-0.2C23.1,20,23,19.7,22.8,19.6z"/>
	<path class="st0" d="M1.8,16.9L4,15.6l1.7,1.3c0.2,0.1,0.4,0.1,0.6,0L8,15.6l1.7,1.3c0.2,0.1,0.4,0.1,0.6,0l1.7-1.3l1.7,1.3
		c0.2,0.1,0.4,0.1,0.6,0l1.7-1.3l1.7,1.3c0.2,0.1,0.4,0.1,0.6,0l1.7-1.3l2.2,1.3c0.1,0,0.2,0.1,0.3,0.1c0.2,0,0.3-0.1,0.4-0.2
		c0.1-0.2,0.1-0.5-0.2-0.7l-2.5-1.5c-0.2-0.1-0.4-0.1-0.6,0L18,15.9l-1.7-1.3c-0.2-0.1-0.4-0.1-0.6,0L14,15.9l-1.7-1.3
		c-0.2-0.1-0.4-0.1-0.6,0L10,15.9l-1.7-1.3c-0.2-0.1-0.4-0.1-0.6,0L6,15.9l-1.7-1.3c-0.2-0.1-0.4-0.1-0.6,0l-2.5,1.5
		c-0.2,0.1-0.3,0.4-0.2,0.7C1.2,17,1.5,17.1,1.8,16.9z"/>
	<path class="st0" d="M5.3,12.2l2.8,1.2c0.1,0,0.1,0,0.2,0c0.2,0,0.4-0.1,0.5-0.3c0.1-0.3,0-0.5-0.3-0.7L6,11.4V5.1l6-3l6,3v6.4
		l-2.5,1.1c-0.3,0.1-0.4,0.4-0.3,0.7c0.1,0.3,0.4,0.4,0.7,0.3l2.8-1.2c0.2-0.1,0.3-0.3,0.3-0.5v-7c0-0.2-0.1-0.4-0.3-0.4l-6.5-3.2
		c-0.1-0.1-0.3-0.1-0.4,0L5.3,4.3C5.1,4.4,5,4.6,5,4.8v7C5,11.9,5.1,12.1,5.3,12.2z"/>
</g>
<g id="Frames-24px">
	<rect class="st1" width="24" height="24"/>
</g>
</svg>
