<?xml version="1.0" encoding="utf-8"?>
<!-- Generator: Adobe Illustrator 21.0.0, SVG Export Plug-In . SVG Version: 6.00 Build 0)  -->
<svg version="1.1" id="Layer_1" xmlns="http://www.w3.org/2000/svg" xmlns:xlink="http://www.w3.org/1999/xlink" x="0px" y="0px"
	 viewBox="0 0 24 24" style="enable-background:new 0 0 24 24;" xml:space="preserve">
<style type="text/css">
	.st0{fill:#58595B;}
	.st1{fill:none;}
</style>
<g>
	<path class="st0" d="M11.1,6.1l-6,6c-0.2,0.2-0.2,0.5,0,0.7l6,6c0.1,0.1,0.2,0.1,0.4,0.1s0.3-0.1,0.4-0.1l6-6
		c0.1-0.1,0.1-0.2,0.1-0.4s-0.1-0.3-0.1-0.4l-6-6C11.7,6,11.3,6,11.1,6.1z M11.5,17.8l-5.3-5.3l5.3-5.3l5.3,5.3L11.5,17.8z"/>
	<path class="st0" d="M5.6,7.4C5.7,7.5,5.9,7.5,6,7.5s0.3,0,0.4-0.1c0.2-0.2,0.2-0.5,0-0.7L1.9,2.1C1.7,2,1.3,2,1.1,2.1
		S1,2.7,1.1,2.9L5.6,7.4z"/>
	<path class="st0" d="M17,7.5c0.1,0,0.3,0,0.4-0.1l4.5-4.5c0.2-0.2,0.2-0.5,0-0.7s-0.5-0.2-0.7,0l-4.5,4.5c-0.2,0.2-0.2,0.5,0,0.7
		C16.7,7.5,16.9,7.5,17,7.5z"/>
	<path class="st0" d="M17.4,17.6c-0.2-0.2-0.5-0.2-0.7,0s-0.2,0.5,0,0.7l4.5,4.5c0.1,0.1,0.2,0.1,0.4,0.1s0.3,0,0.4-0.1
		c0.2-0.2,0.2-0.5,0-0.7L17.4,17.6z"/>
	<path class="st0" d="M5.6,17.6l-4.5,4.5c-0.2,0.2-0.2,0.5,0,0.7C1.2,23,1.4,23,1.5,23s0.3,0,0.4-0.1l4.5-4.5c0.2-0.2,0.2-0.5,0-0.7
		S5.8,17.5,5.6,17.6z"/>
	<path class="st0" d="M4,12.5C4,12.2,3.8,12,3.5,12h-3C0.2,12,0,12.2,0,12.5S0.2,13,0.5,13h3C3.8,13,4,12.8,4,12.5z"/>
	<path class="st0" d="M22.5,12h-3c-0.3,0-0.5,0.2-0.5,0.5s0.2,0.5,0.5,0.5h3c0.3,0,0.5-0.2,0.5-0.5S22.8,12,22.5,12z"/>
	<path class="st0" d="M11.5,20c-0.3,0-0.5,0.2-0.5,0.5v3c0,0.3,0.2,0.5,0.5,0.5s0.5-0.2,0.5-0.5v-3C12,20.2,11.8,20,11.5,20z"/>
	<path class="st0" d="M11.5,5C11.8,5,12,4.8,12,4.5v-3C12,1.2,11.8,1,11.5,1S11,1.2,11,1.5v3C11,4.8,11.2,5,11.5,5z"/>
</g>
<g id="Frames-24px">
	<rect class="st1" width="24" height="24"/>
</g>
</svg>
