<?xml version="1.0" encoding="utf-8"?>
<!-- Generator: Adobe Illustrator 21.0.0, SVG Export Plug-In . SVG Version: 6.00 Build 0)  -->
<svg version="1.1" id="Layer_1" xmlns="http://www.w3.org/2000/svg" xmlns:xlink="http://www.w3.org/1999/xlink" x="0px" y="0px"
	 viewBox="0 0 24 24" style="enable-background:new 0 0 24 24;" xml:space="preserve">
<style type="text/css">
	.st0{fill:#58595B;}
	.st1{fill:none;}
</style>
<g>
	<path class="st0" d="M22.5,11.8c0-0.1-0.1-0.2-0.3-0.3c-0.1-0.1-0.3-0.1-0.4,0l-5.2,2.4L16,13.5l0.5-3.2L19.7,9
		C19.8,8.9,20,8.8,20,8.6c0-0.2,0-0.3-0.1-0.4l-4.7-5c0,0,0,0,0,0l-1.8-2C13.3,1.1,13.1,1,13,1H8C7.9,1,7.7,1.1,7.6,1.2l-6.5,7
		C1,8.3,1,8.4,1,8.6S1.2,8.9,1.3,9l3.2,1.4L5,13.5l-4.8,3.6c0,0,0,0,0,0c0,0-0.1,0.1-0.1,0.1c0,0,0,0,0,0.1c0,0.1,0,0.1,0,0.2
		c0,0,0,0,0,0c0,0,0,0,0,0c0,0,0,0,0,0c0,0.1,0,0.1,0,0.2c0,0,0,0,0,0c0,0,0.1,0.1,0.1,0.1c0,0,0,0,0,0l7.5,6C7.8,24,7.9,24,8,24h5
		c0.1,0,0.2,0,0.3-0.1l7.5-6c0,0,0,0,0,0c0,0,0.1-0.1,0.1-0.1c0,0,0,0,0,0c0-0.1,0-0.1,0-0.2c0,0,0,0,0,0c0,0,0,0,0,0c0,0,0,0,0,0
		c0-0.1,0-0.1,0-0.2c0,0,0,0,0-0.1c0,0-0.1-0.1-0.1-0.1c0,0,0,0,0,0l-0.3-0.2v-1.6l2.3-1.4c0.2-0.1,0.3-0.4,0.2-0.6L22.5,11.8z
		 M8.7,12h3.7l6.7,5H2L8.7,12z M9.4,11l1.1-2l1.1,2H9.4z M8.2,2h4.6l0.9,1H7.3L8.2,2z M5.5,9.9c0-0.2-0.1-0.3-0.3-0.4L2.3,8.3l4-4.3
		h8.3l4,4.3l-2.8,1.2c-0.2,0.1-0.3,0.2-0.3,0.4l-0.4,2.9l-2.2-1.7l-1.9-3.4c-0.2-0.3-0.7-0.3-0.9,0l-1.9,3.4l-2.2,1.7L5.5,9.9z
		 M12.8,23H8.2l-6.2-5h17.1L12.8,23z M19.7,14.6c-0.2,0.1-0.2,0.3-0.2,0.4v1.1l-2-1.5l4.2-1.9l0.2,0.6L19.7,14.6z"/>
	<path class="st0" d="M23.9,8.6L22.2,7l0.6-0.6c0.2-0.2,0.2-0.5,0-0.7s-0.5-0.2-0.7,0l-1,1c-0.2,0.2-0.2,0.5,0,0.7L22.8,9l-0.6,0.6
		c-0.2,0.2-0.2,0.5,0,0.7c0.1,0.1,0.2,0.1,0.4,0.1s0.3,0,0.4-0.1l1-1C24,9.2,24,8.8,23.9,8.6z"/>
</g>
<g id="Frames-24px">
	<rect class="st1" width="24" height="24"/>
</g>
</svg>
