<?xml version="1.0" encoding="utf-8"?>
<!-- Generator: Adobe Illustrator 21.0.0, SVG Export Plug-In . SVG Version: 6.00 Build 0)  -->
<svg version="1.1" id="Layer_1" xmlns="http://www.w3.org/2000/svg" xmlns:xlink="http://www.w3.org/1999/xlink" x="0px" y="0px"
	 viewBox="0 0 24 24" style="enable-background:new 0 0 24 24;" xml:space="preserve">
<style type="text/css">
	.st0{fill:#58595B;}
	.st1{fill:none;}
</style>
<g>
	<path class="st0" d="M20.5,7h-7.8l2.6-2.6c0.2-0.2,0.2-0.5,0-0.7s-0.5-0.2-0.7,0l-3.1,3.1L8.4,3.6c-0.2-0.2-0.5-0.2-0.7,0
		s-0.2,0.5,0,0.7L10.3,7H2.5C2.2,7,2,7.2,2,7.5v15C2,22.8,2.2,23,2.5,23H3v0.5C3,23.8,3.2,24,3.5,24S4,23.8,4,23.5V23h15v0.5
		c0,0.3,0.2,0.5,0.5,0.5s0.5-0.2,0.5-0.5V23h0.5c0.3,0,0.5-0.2,0.5-0.5v-15C21,7.2,20.8,7,20.5,7z M20,8v8.1L3,18.9V8H20z M3,22
		v-2.1l17-2.8V22H3z"/>
	<path class="st0" d="M16.5,3c0.1,0,0.3,0,0.4-0.1l1-1c0.2-0.2,0.2-0.5,0-0.7s-0.5-0.2-0.7,0l-1,1c-0.2,0.2-0.2,0.5,0,0.7
		C16.2,3,16.4,3,16.5,3z"/>
	<path class="st0" d="M6.1,2.9C6.2,3,6.4,3,6.5,3s0.3,0,0.4-0.1C7,2.7,7,2.3,6.9,2.1l-1-1C5.7,1,5.3,1,5.1,1.1S5,1.7,5.1,1.9
		L6.1,2.9z"/>
	<path class="st0" d="M17.6,13.4c0.1,0.1,0.2,0.1,0.4,0.1s0.3,0,0.4-0.1c0.2-0.2,0.2-0.5,0-0.7l-3-3c-0.2-0.2-0.5-0.2-0.7,0
		s-0.2,0.5,0,0.7L17.6,13.4z"/>
	<path class="st0" d="M18.1,10.9c0.1,0.1,0.2,0.1,0.4,0.1s0.3,0,0.4-0.1c0.2-0.2,0.2-0.5,0-0.7l-1-1c-0.2-0.2-0.5-0.2-0.7,0
		s-0.2,0.5,0,0.7L18.1,10.9z"/>
	<path class="st0" d="M18.1,19.1c0,0-0.1-0.1-0.1-0.1c-0.1,0-0.1,0-0.1,0.1l-0.8,0.8c-0.1,0.1-0.1,0.2,0,0.3l0.8,0.8
		c0,0,0.1,0.1,0.1,0.1c0.1,0,0.1,0,0.1-0.1l0.8-0.8c0.1-0.1,0.1-0.2,0-0.3L18.1,19.1z"/>
</g>
<g id="Frames-24px">
	<rect class="st1" width="24" height="24"/>
</g>
</svg>
