<?xml version="1.0" encoding="utf-8"?>
<!-- Generator: Adobe Illustrator 21.0.0, SVG Export Plug-In . SVG Version: 6.00 Build 0)  -->
<svg version="1.1" id="Layer_1" xmlns="http://www.w3.org/2000/svg" xmlns:xlink="http://www.w3.org/1999/xlink" x="0px" y="0px"
	 viewBox="0 0 24 24" style="enable-background:new 0 0 24 24;" xml:space="preserve">
<style type="text/css">
	.st0{fill:#58595B;}
	.st1{fill:none;}
</style>
<g>
	<path class="st0" d="M18.9,21h0.6c0.3,0,0.5-0.2,0.5-0.5v-13c0-0.2-0.1-0.4-0.3-0.5l-7.5-3c-0.1,0-0.3,0-0.4,0L4.3,7
		C4.1,7.1,4,7.3,4,7.5v13C4,20.8,4.2,21,4.5,21h0.6l-1.5,2.2c-0.2,0.2-0.1,0.5,0.1,0.7C3.8,24,3.9,24,4,24c0.2,0,0.3-0.1,0.4-0.2
		L4.9,23h14.1l0.5,0.8c0.1,0.1,0.3,0.2,0.4,0.2c0.1,0,0.2,0,0.3-0.1c0.2-0.2,0.3-0.5,0.1-0.7L18.9,21z M5,7.8L12,5l7,2.8V20h-4V8.5
		C15,8.2,14.8,8,14.5,8h-5C9.2,8,9,8.2,9,8.5V20H5V7.8z M14,13h-4V9h4V13z M10,14h4v6h-4V14z M5.6,22l0.7-1h3.2h5h3.2l0.7,1H5.6z"/>
	<path class="st0" d="M23.7,4l-8-3c-0.1,0-0.1,0-0.2,0h-7C8.4,1,8.4,1,8.3,1l-8,3C0.1,4.1,0,4.3,0,4.5v17C0,21.8,0.2,22,0.5,22
		S1,21.8,1,21.5V4.8L8.6,2h6.8L23,4.8v16.7c0,0.3,0.2,0.5,0.5,0.5s0.5-0.2,0.5-0.5v-17C24,4.3,23.9,4.1,23.7,4z"/>
	<path class="st0" d="M6.5,9C6.2,9,6,9.2,6,9.5v4C6,13.8,6.2,14,6.5,14S7,13.8,7,13.5v-4C7,9.2,6.8,9,6.5,9z"/>
	<path class="st0" d="M17.5,14c0.3,0,0.5-0.2,0.5-0.5V10c0-0.3-0.2-0.5-0.5-0.5S17,9.7,17,10v3.5C17,13.8,17.2,14,17.5,14z"/>
	<path class="st0" d="M6.5,16C6.2,16,6,16.2,6,16.5v1C6,17.8,6.2,18,6.5,18S7,17.8,7,17.5v-1C7,16.2,6.8,16,6.5,16z"/>
	<path class="st0" d="M17.5,18c0.3,0,0.5-0.2,0.5-0.5v-1c0-0.3-0.2-0.5-0.5-0.5S17,16.2,17,16.5v1C17,17.8,17.2,18,17.5,18z"/>
</g>
<g id="Frames-24px">
	<rect class="st1" width="24" height="24"/>
</g>
</svg>
