<?xml version="1.0" encoding="utf-8"?>
<!-- Generator: Adobe Illustrator 21.0.0, SVG Export Plug-In . SVG Version: 6.00 Build 0)  -->
<svg version="1.1" id="Layer_1" xmlns="http://www.w3.org/2000/svg" xmlns:xlink="http://www.w3.org/1999/xlink" x="0px" y="0px"
	 viewBox="0 0 24 24" style="enable-background:new 0 0 24 24;" xml:space="preserve">
<style type="text/css">
	.st0{fill:#58595B;}
	.st1{fill:none;}
</style>
<g>
	<path class="st0" d="M22.5,10c0.3,0,0.5-0.2,0.5-0.5S22.8,9,22.5,9h-3C19.2,9,19,9.2,19,9.5v5c0,0.3,0.2,0.5,0.5,0.5h3
		c0.3,0,0.5-0.2,0.5-0.5S22.8,14,22.5,14H20v-4H22.5z"/>
	<path class="st0" d="M22.5,19c0.3,0,0.5-0.2,0.5-0.5S22.8,18,22.5,18H17V9.5C17,9.2,16.8,9,16.5,9h-5C11.2,9,11,9.2,11,9.5V18H3
		l-1.7-3h7.1C8.8,15,9,14.8,9,14.5v-5C9,9.2,8.8,9,8.5,9H5.8l1.7-2h15C22.8,7,23,6.8,23,6.5S22.8,6,22.5,6h-7.2l1.5-1.1
		C16.9,4.8,17,4.7,17,4.5c0-0.2-0.1-0.3-0.2-0.4L14.4,2h2.1C16.8,2,17,1.8,17,1.5S16.8,1,16.5,1H10C9.7,1,9.5,1.2,9.5,1.5
		S9.7,2,10,2h2.8l2.9,2.5L13.5,6H7.2C7.1,6,7,6.1,6.9,6.2l-6.8,8c0,0,0,0,0,0C0.1,14.3,0,14.3,0,14.4c0,0,0,0,0,0.1
		c0,0.1,0,0.1,0,0.2c0,0,0,0,0,0c0,0,0,0,0,0c0,0,0,0,0,0l3.4,6C3.5,20.9,3.7,21,3.9,21h18.6c0.3,0,0.5-0.2,0.5-0.5S22.8,20,22.5,20
		H4.2l-0.6-1H22.5z M5,10h3v4H1.6L5,10z M12,10h4v8h-4V10z"/>
</g>
<g id="Frames-24px">
	<rect class="st1" width="24" height="24"/>
</g>
</svg>
