<?xml version="1.0" encoding="utf-8"?>
<!-- Generator: Adobe Illustrator 21.0.0, SVG Export Plug-In . SVG Version: 6.00 Build 0)  -->
<svg version="1.1" id="Layer_1" xmlns="http://www.w3.org/2000/svg" xmlns:xlink="http://www.w3.org/1999/xlink" x="0px" y="0px"
	 viewBox="0 0 24 24" style="enable-background:new 0 0 24 24;" xml:space="preserve">
<style type="text/css">
	.st0{fill:#58595B;}
	.st1{fill:none;}
</style>
<path class="st0" d="M19.5,16.3L12,0.3c-0.2-0.4-0.7-0.4-0.9,0l-7.5,16c-0.1,0.2-0.1,0.3,0,0.5C3.7,16.9,3.8,17,4,17h7v6.5
	c0,0.3,0.2,0.5,0.5,0.5s0.5-0.2,0.5-0.5v-2.2l4.3-4.3H19c0.2,0,0.3-0.1,0.4-0.2C19.5,16.6,19.5,16.4,19.5,16.3z M12,19.9V17h2.9
	L12,19.9z M12,16V8.5C12,8.2,11.8,8,11.5,8S11,8.2,11,8.5v4.3l-1.6-1.6c-0.2-0.2-0.5-0.2-0.7,0s-0.2,0.5,0,0.7l2.4,2.4V16H4.8
	l6.7-14.3L18.2,16H12z"/>
<g id="Frames-24px">
	<rect class="st1" width="24" height="24"/>
</g>
</svg>
