<?xml version="1.0" encoding="utf-8"?>
<!-- Generator: Adobe Illustrator 21.0.0, SVG Export Plug-In . SVG Version: 6.00 Build 0)  -->
<svg version="1.1" id="Layer_1" xmlns="http://www.w3.org/2000/svg" xmlns:xlink="http://www.w3.org/1999/xlink" x="0px" y="0px"
	 viewBox="0 0 24 24" style="enable-background:new 0 0 24 24;" xml:space="preserve">
<style type="text/css">
	.st0{fill:#58595B;}
	.st1{fill:none;}
</style>
<g>
	<path class="st0" d="M23.7,11.6l-7-4c0,0,0,0,0,0c-0.1,0-0.1-0.1-0.2-0.1s-0.2,0-0.2,0.1c0,0,0,0,0,0l-5.6,3.2c0,0,0,0,0,0
		l-1.4,0.8C9.1,11.7,9,11.8,9,12v6.3l-2-2v-3.8C7,12.2,6.8,12,6.5,12H2c-0.2,0-0.4,0.1-0.5,0.3l-1.5,4c-0.1,0.2,0,0.3,0.1,0.5
		C0.2,16.9,0.3,17,0.5,17h5.8l2.9,2.9c0,0,0,0,0.1,0c0,0,0,0,0,0c0,0,0,0,0.1,0c0.1,0,0.1,0,0.2,0H11l-1.4,3.3
		c-0.1,0.3,0,0.5,0.3,0.7c0.1,0,0.1,0,0.2,0c0.2,0,0.4-0.1,0.5-0.3L12,20h8.4l1.6,3.7c0.1,0.2,0.3,0.3,0.5,0.3c0.1,0,0.1,0,0.2,0
		c0.3-0.1,0.4-0.4,0.3-0.7L21.5,20h2c0.3,0,0.5-0.2,0.5-0.5V12C24,11.8,23.9,11.7,23.7,11.6z M17,19v-1.3l4.7,1.3H17z M17,8.9l3.4,2
		L17,12V8.9z M16,12l-3.8-1L16,8.9V12z M16,16.3L11.2,15l4.8-1.6V16.3z M17,13.3l4.8,1.2L17,16.3V13.3z M14.9,17.1L10,18.8v-3.1
		L14.9,17.1z M16,17.7V19h-3.6L16,17.7z M18.1,16.9l4.9-1.7v3.1L18.1,16.9z M23,13.9l-4.8-1.2l3.4-1.1l1.4,0.8V13.9z M10.9,11.8
		l3.8,1L10,14.3v-2L10.9,11.8z M2.3,13H6v3H1.2L2.3,13z"/>
	<path class="st0" d="M3.5,14C3.2,14,3,14.2,3,14.5V15c0,0.3,0.2,0.5,0.5,0.5S4,15.3,4,15v-0.5C4,14.2,3.8,14,3.5,14z"/>
</g>
<g id="Frames-24px">
	<rect class="st1" width="24" height="24"/>
</g>
</svg>
