<?xml version="1.0" encoding="utf-8"?>
<!-- Generator: Adobe Illustrator 21.0.0, SVG Export Plug-In . SVG Version: 6.00 Build 0)  -->
<svg version="1.1" id="Layer_1" xmlns="http://www.w3.org/2000/svg" xmlns:xlink="http://www.w3.org/1999/xlink" x="0px" y="0px"
	 viewBox="0 0 24 24" style="enable-background:new 0 0 24 24;" xml:space="preserve">
<style type="text/css">
	.st0{fill:#58595B;}
	.st1{fill:none;}
</style>
<g>
	<path class="st0" d="M24,20.4l-1.5-5.9l0.5-2.9c0-0.1,0-0.3-0.1-0.4c-0.1-0.1-0.2-0.2-0.4-0.2h-11c-0.3,0-0.5,0.2-0.5,0.5v2
		c0,0.1,0.1,0.3,0.1,0.4l2.5,2.6L11.4,20H8.9l-1.4-4.5L8.9,5h1.6C10.8,5,11,4.8,11,4.5S10.8,4,10.5,4h-2C8.2,4,8,4.2,8,4.4L7.7,6.5
		l-3-1.5C4.6,5,4.4,5,4.2,5.1C4.1,5.2,4,5.3,4,5.5V10c0,0.2,0.1,0.3,0.2,0.4c0.1,0,0.2,0.1,0.3,0.1c0.1,0,0.2,0,0.2-0.1l2.6-1.3
		L6.6,15H2.5c-0.2,0-0.4,0.1-0.5,0.3l-2,5c0,0,0,0,0,0l0,0c0,0,0,0.1,0,0.1c0,0,0,0.1,0,0.1c0,0,0,0,0,0c0,0,0,0.1,0,0.1
		c0,0,0,0,0,0.1c0,0,0,0,0,0c0,0.1,0.1,0.1,0.1,0.1c0,0,0,0,0,0c0,0,0.1,0.1,0.2,0.1c0,0,0,0,0,0c0.1,0,0.1,0,0.2,0H2v1.2
		c0,0.2,0.1,0.3,0.2,0.4l2,1.2C4.3,24,4.4,24,4.5,24s0.2,0,0.3-0.1l2-1.2C6.9,22.6,7,22.4,7,22.2V21h10v1.2c0,0.2,0.1,0.3,0.2,0.4
		l2,1.2c0.1,0.1,0.2,0.1,0.3,0.1s0.2,0,0.3-0.1l2-1.2c0.1-0.1,0.2-0.3,0.2-0.4V21h1.5c0.2,0,0.3-0.1,0.4-0.2S24,20.5,24,20.4z
		 M12,13.3V12h9.9l-0.3,2h-6.1c-0.2,0-0.3,0.1-0.4,0.2l-0.8,1.3L12,13.3z M5,9.2V6.3l2.6,1.3l0,0.3L5,9.2z M2.8,16h3.8l1.2,4H1.2
		L2.8,16z M6,22l-1.5,0.9L3,22v-1h3V22z M21,22l-1.5,0.9L18,22v-1h3V22z M12.6,20l3.2-5h5.8l1.2,5H12.6z"/>
	<path class="st0" d="M19.5,16h-2c-0.3,0-0.5,0.2-0.5,0.5s0.2,0.5,0.5,0.5h2c0.3,0,0.5-0.2,0.5-0.5S19.8,16,19.5,16z"/>
</g>
<g id="Frames-24px">
	<rect class="st1" width="24" height="24"/>
</g>
</svg>
