<?xml version="1.0" encoding="utf-8"?>
<!-- Generator: Adobe Illustrator 21.0.0, SVG Export Plug-In . SVG Version: 6.00 Build 0)  -->
<svg version="1.1" id="Layer_1" xmlns="http://www.w3.org/2000/svg" xmlns:xlink="http://www.w3.org/1999/xlink" x="0px" y="0px"
	 viewBox="0 0 24 24" style="enable-background:new 0 0 24 24;" xml:space="preserve">
<style type="text/css">
	.st0{fill:#58595B;}
	.st1{fill:none;}
</style>
<g>
	<path class="st0" d="M18.5,12h-1c-0.3,0-0.5,0.2-0.5,0.5s0.2,0.5,0.5,0.5h1c0.3,0,0.5-0.2,0.5-0.5S18.8,12,18.5,12z"/>
	<path class="st0" d="M23.5,9H22V2.5C22,2.2,21.8,2,21.5,2H3C2.9,2,2.8,2,2.7,2.1l-2.5,2c0,0,0,0,0,0c0,0,0,0.1-0.1,0.1
		c0,0,0,0-0.1,0.1c0,0,0,0.1,0,0.1c0,0,0,0.1,0,0.1c0,0,0,0,0,0v17C0,21.8,0.2,22,0.5,22h19c0.3,0,0.5-0.2,0.5-0.5V20h1.5
		c0.3,0,0.5-0.2,0.5-0.5V16h1.5c0.3,0,0.5-0.2,0.5-0.5v-6C24,9.2,23.8,9,23.5,9z M3.2,3H21v6h-1V4.5C20,4.2,19.8,4,19.5,4H1.9L3.2,3
		z M19,21H1V5h18v4h-2.5c-0.1,0-0.3,0.1-0.4,0.2l-2.5,3c-0.2,0.2-0.2,0.5,0,0.6l2.5,3c0.1,0.1,0.2,0.2,0.4,0.2H19V21z M21,19h-1v-3
		h1V19z M23,15h-6.3l-2.1-2.5l2.1-2.5H23V15z"/>
</g>
<g id="Frames-24px">
	<rect class="st1" width="24" height="24"/>
</g>
</svg>
