<?xml version="1.0" encoding="utf-8"?>
<!-- Generator: Adobe Illustrator 21.0.0, SVG Export Plug-In . SVG Version: 6.00 Build 0)  -->
<svg version="1.1" id="Layer_1" xmlns="http://www.w3.org/2000/svg" xmlns:xlink="http://www.w3.org/1999/xlink" x="0px" y="0px"
	 viewBox="0 0 24 24" style="enable-background:new 0 0 24 24;" xml:space="preserve">
<style type="text/css">
	.st0{fill:#58595B;}
	.st1{fill:none;}
</style>
<g>
	<path class="st0" d="M21.5,7H14V4h0.5C14.8,4,15,3.8,15,3.5v-3C15,0.2,14.8,0,14.5,0h-6C8.2,0,8,0.2,8,0.5V3H3.5C3.2,3,3,3.2,3,3.5
		V7H1.5C1.2,7,1,7.2,1,7.5v16C1,23.8,1.2,24,1.5,24h20c0.3,0,0.5-0.2,0.5-0.5v-16C22,7.2,21.8,7,21.5,7z M13,7h-3V4h3V7z M11,3V1h1
		v2H11z M14,3h-0.5H13V1h1V3z M9,1h1v2H9.5H9V1z M4,4h4.5H9v3H4V4z M9.5,8h4H21v1H2V8H9.5z M2,23V10h19v13H2z"/>
	<path class="st0" d="M13.4,12.1c-0.2-0.2-0.5-0.2-0.7,0l-1,1c-0.2,0.2-0.2,0.5,0,0.7C11.7,14,11.9,14,12,14s0.3,0,0.4-0.1l1-1
		C13.5,12.7,13.5,12.3,13.4,12.1z"/>
	<path class="st0" d="M10.4,15.1c-0.2-0.2-0.5-0.2-0.7,0l-4,4c-0.2,0.2-0.2,0.5,0,0.7C5.7,20,5.9,20,6,20s0.3,0,0.4-0.1l4-4
		C10.5,15.7,10.5,15.3,10.4,15.1z"/>
	<path class="st0" d="M10.6,19.1l-1,1c-0.2,0.2-0.2,0.5,0,0.7C9.7,21,9.9,21,10,21s0.3,0,0.4-0.1l1-1c0.2-0.2,0.2-0.5,0-0.7
		S10.8,19,10.6,19.1z"/>
	<path class="st0" d="M16.6,13.1l-4,4c-0.2,0.2-0.2,0.5,0,0.7C12.7,18,12.9,18,13,18s0.3,0,0.4-0.1l4-4c0.2-0.2,0.2-0.5,0-0.7
		S16.8,13,16.6,13.1z"/>
</g>
<g id="Frames-24px">
	<rect class="st1" width="24" height="24"/>
</g>
</svg>
