<?xml version="1.0" encoding="utf-8"?>
<!-- Generator: Adobe Illustrator 21.0.0, SVG Export Plug-In . SVG Version: 6.00 Build 0)  -->
<svg version="1.1" id="Layer_1" xmlns="http://www.w3.org/2000/svg" xmlns:xlink="http://www.w3.org/1999/xlink" x="0px" y="0px"
	 viewBox="0 0 24 24" style="enable-background:new 0 0 24 24;" xml:space="preserve">
<style type="text/css">
	.st0{fill:#58595B;}
	.st1{fill:none;}
</style>
<g>
	<path class="st0" d="M2.5,6h1C3.8,6,4,5.8,4,5.5S3.8,5,3.5,5h-1C2.2,5,2,5.2,2,5.5S2.2,6,2.5,6z"/>
	<path class="st0" d="M5.5,6h1C6.8,6,7,5.8,7,5.5S6.8,5,6.5,5h-1C5.2,5,5,5.2,5,5.5S5.2,6,5.5,6z"/>
	<path class="st0" d="M8.5,6h1C9.8,6,10,5.8,10,5.5S9.8,5,9.5,5h-1C8.2,5,8,5.2,8,5.5S8.2,6,8.5,6z"/>
	<path class="st0" d="M23.5,3h-23C0.2,3,0,3.2,0,3.5v18C0,21.8,0.2,22,0.5,22h23c0.3,0,0.5-0.2,0.5-0.5v-18C24,3.2,23.8,3,23.5,3z
		 M23,4v3H1V4H23z M1,21V8h22v13H1z"/>
	<path class="st0" d="M13.4,14.2C13.3,14.1,13.2,14,13,14h-2.7l-0.7-1l0.7-1h3.2c0.3,0,0.5-0.2,0.5-0.5S13.8,11,13.5,11H12v-0.5
		c0-0.3-0.2-0.5-0.5-0.5S11,10.2,11,10.5V11h-1c-0.2,0-0.3,0.1-0.4,0.2l-1,1.5c-0.1,0.2-0.1,0.4,0,0.6l1,1.5C9.7,14.9,9.8,15,10,15
		h2.7l0.7,1l-0.7,1H9.5C9.2,17,9,17.2,9,17.5S9.2,18,9.5,18H11v0.5c0,0.3,0.2,0.5,0.5,0.5s0.5-0.2,0.5-0.5V18h1
		c0.2,0,0.3-0.1,0.4-0.2l1-1.5c0.1-0.2,0.1-0.4,0-0.6L13.4,14.2z"/>
</g>
<g id="Frames-24px">
	<rect class="st1" width="24" height="24"/>
</g>
</svg>
