<?xml version="1.0" encoding="utf-8"?>
<!-- Generator: Adobe Illustrator 21.0.0, SVG Export Plug-In . SVG Version: 6.00 Build 0)  -->
<svg version="1.1" id="Layer_1" xmlns="http://www.w3.org/2000/svg" xmlns:xlink="http://www.w3.org/1999/xlink" x="0px" y="0px"
	 viewBox="0 0 24 24" style="enable-background:new 0 0 24 24;" xml:space="preserve">
<style type="text/css">
	.st0{fill:#58595B;}
	.st1{fill:none;}
</style>
<g>
	<path class="st0" d="M2.5,6h1C3.8,6,4,5.8,4,5.5S3.8,5,3.5,5h-1C2.2,5,2,5.2,2,5.5S2.2,6,2.5,6z"/>
	<path class="st0" d="M5.5,6h1C6.8,6,7,5.8,7,5.5S6.8,5,6.5,5h-1C5.2,5,5,5.2,5,5.5S5.2,6,5.5,6z"/>
	<path class="st0" d="M8.5,6h1C9.8,6,10,5.8,10,5.5S9.8,5,9.5,5h-1C8.2,5,8,5.2,8,5.5S8.2,6,8.5,6z"/>
	<path class="st0" d="M23.5,3h-23C0.2,3,0,3.2,0,3.5v18C0,21.8,0.2,22,0.5,22h23c0.3,0,0.5-0.2,0.5-0.5v-18C24,3.2,23.8,3,23.5,3z
		 M23,4v3H1V4H23z M1,21V8h22v13H1z"/>
	<path class="st0" d="M15.5,13H15v-1c0-0.2-0.1-0.4-0.3-0.4l-3-1.5c-0.1-0.1-0.3-0.1-0.4,0l-3,1.5C8.1,11.6,8,11.8,8,12v1H7.5
		C7.2,13,7,13.2,7,13.5v6C7,19.8,7.2,20,7.5,20h8c0.3,0,0.5-0.2,0.5-0.5v-6C16,13.2,15.8,13,15.5,13z M9,12.3l2.5-1.2l2.5,1.2V13H9
		V12.3z M15,19H8v-5h7V19z"/>
	<path class="st0" d="M11.5,15c-0.3,0-0.5,0.2-0.5,0.5v2c0,0.3,0.2,0.5,0.5,0.5s0.5-0.2,0.5-0.5v-2C12,15.2,11.8,15,11.5,15z"/>
</g>
<g id="Frames-24px">
	<rect class="st1" width="24" height="24"/>
</g>
</svg>
